0
SECTION
2
HEADER
9
$INSUNITS
70
4
9
$ACADVER
1
AC1014
9
$HANDSEED
5
FFFF
0
ENDSEC
0
SECTION
2
TABLES
0
TABLE
2
VPORT
5
8
100
AcDbSymbolTable
0
ENDTAB
0
TABLE
2
LTYPE
5
5
100
AcDbSymbolTable
0
LTYPE
5
14
100
AcDbSymbolTableRecord
100
AcDbLinetypeTableRecord
2
BYBLOCK
70
0
0
LTYPE
5
15
100
AcDbSymbolTableRecord
100
AcDbLinetypeTableRecord
2
BYLAYER
70
0
0
ENDTAB
0
TABLE
2
LAYER
5
2
100
AcDbSymbolTable
70
2
0
LAYER
5
50
100
AcDbSymbolTableRecord
100
AcDbLayerTableRecord
2
0
70
0
6
CONTINUOUS
0
ENDTAB
0
TABLE
2
STYLE
5
3
100
AcDbSymbolTable
70
1
0
STYLE
5
11
100
AcDbSymbolTableRecord
100
AcDbTextStyleTableRecord
2
STANDARD
70
0
0
ENDTAB
0
TABLE
2
VIEW
5
6
100
AcDbSymbolTable
70
0
0
ENDTAB
0
TABLE
2
UCS
5
7
100
AcDbSymbolTable
70
0
0
ENDTAB
0
TABLE
2
APPID
5
9
100
AcDbSymbolTable
70
2
0
APPID
5
12
100
AcDbSymbolTableRecord
100
AcDbRegAppTableRecord
2
ACAD
70
0
0
ENDTAB
0
TABLE
2
DIMSTYLE
5
A
100
AcDbSymbolTable
70
1
0
ENDTAB
0
TABLE
2
BLOCK_RECORD
5
1
100
AcDbSymbolTable
70
1
0
BLOCK_RECORD
5
1F
100
AcDbSymbolTableRecord
100
AcDbBlockTableRecord
2
*MODEL_SPACE
0
BLOCK_RECORD
5
1B
100
AcDbSymbolTableRecord
100
AcDbBlockTableRecord
2
*PAPER_SPACE
0
ENDTAB
0
ENDSEC
0
SECTION
2
BLOCKS
0
BLOCK
5
20
100
AcDbEntity
100
AcDbBlockBegin
2
*MODEL_SPACE
0
ENDBLK
5
21
100
AcDbEntity
100
AcDbBlockEnd
0
BLOCK
5
1C
100
AcDbEntity
100
AcDbBlockBegin
2
*PAPER_SPACE
0
ENDBLK
5
1D
100
AcDbEntity
100
AcDbBlockEnd
0
ENDSEC
0
SECTION
2
ENTITIES
0
LWPOLYLINE
5
100
100
AcDbEntity
8
0
100
AcDbPolyline
90
4
70
1
43
0.0
10
75.000000000002302
20
-84.999999999997357
10
-74.999999999997655
20
-84.999999999997357
10
-74.999999999997698
20
85.000000000002672
10
75.000000000002288
20
85.000000000002629
0
LINE
5
101
100
AcDbEntity
8
0
100
AcDbLine
10
75.000000000002302
20
-84.999999999997357
30
0
11
-74.999999999997698
21
85.000000000002672
31
0
0
LINE
5
102
100
AcDbEntity
8
0
100
AcDbLine
10
-74.999999999997655
20
-84.999999999997357
30
0
11
75.000000000002288
21
85.000000000002629
31
0
0
LWPOLYLINE
5
103
100
AcDbEntity
8
0
100
AcDbPolyline
90
4
70
1
43
0.0
10
-54.999999999997641
20
65.000000000002643
10
55.000000000002309
20
65.000000000002657
10
55.000000000002302
20
-64.999999999997357
10
-54.999999999997648
20
-64.999999999997314
0
LWPOLYLINE
5
104
100
AcDbEntity
8
0
100
AcDbPolyline
90
4
70
1
43
0.0
10
-64.999999999997698
20
75.000000000002672
10
65.000000000002288
20
75.000000000002629
10
65.000000000002302
20
-74.999999999997357
10
-64.999999999997655
20
-74.999999999997357
0
LINE
5
105
100
AcDbEntity
8
0
100
AcDbLine
10
-112.94443385770876
20
55.000000000002629
30
0
11
110.82837889081961
21
55.000000000002657
31
0
0
LWPOLYLINE
5
106
100
AcDbEntity
8
0
100
AcDbPolyline
90
16
70
1
43
0.0
10
20.264506870861148
20
52.250000000002643
10
-29.735493129138852
20
52.250000000002643
10
-29.735493129138852
20
57.75000000000265
10
-14.735493129138852
20
57.75000000000265
10
155.26450687086114
20
57.75000000000265
10
155.26450687086114
20
52.250000000002643
10
-14.735493129138852
20
52.250000000002643
10
-14.735493129138852
20
57.75000000000265
10
-4.7354931291388613
20
57.75000000000265
10
-4.7354931291388613
20
52.250000000002643
10
-14.735493129138852
20
52.25000000000265
10
-14.735493129138852
20
57.75000000000265
10
-14.735493129138852
20
52.223800812673069
10
-29.735493129138852
20
52.223800812673069
10
-29.735493129138852
20
57.75000000000265
10
20.264506870861148
20
57.75000000000265
0
LINE
5
107
100
AcDbEntity
8
0
100
AcDbLine
10
20.264506870861148
20
52.250000000002643
30
0
11
-29.735493129138852
21
57.75000000000265
31
0
0
LINE
5
108
100
AcDbEntity
8
0
100
AcDbLine
10
-29.735493129138852
20
52.250000000002643
30
0
11
20.264506870861148
21
57.75000000000265
31
0
0
LWPOLYLINE
5
109
100
AcDbEntity
8
0
100
AcDbPolyline
90
4
70
1
43
0.0
10
-25.480493129138853
20
50.795000000002645
10
-33.990493129138855
20
50.795000000002645
10
-33.990493129138855
20
59.205000000002656
10
-25.480493129138853
20
59.205000000002656
0
LINE
5
110
100
AcDbEntity
8
0
100
AcDbLine
10
-25.480493129138853
20
50.795000000002645
30
0
11
-33.990493129138855
21
59.205000000002656
31
0
0
LINE
5
111
100
AcDbEntity
8
0
100
AcDbLine
10
-33.990493129138855
20
50.795000000002645
30
0
11
-25.480493129138853
21
59.205000000002656
31
0
0
LWPOLYLINE
5
112
100
AcDbEntity
8
0
100
AcDbPolyline
90
4
70
1
43
0.0
10
24.519506870861147
20
50.795000000002645
10
16.009506870861152
20
50.795000000002645
10
16.009506870861152
20
59.205000000002642
10
24.519506870861147
20
59.205000000002642
0
LINE
5
113
100
AcDbEntity
8
0
100
AcDbLine
10
24.519506870861147
20
50.795000000002645
30
0
11
16.009506870861152
21
59.205000000002642
31
0
0
LINE
5
114
100
AcDbEntity
8
0
100
AcDbLine
10
16.009506870861152
20
50.795000000002645
30
0
11
24.519506870861147
21
59.205000000002642
31
0
0
CIRCLE
5
115
100
AcDbEntity
8
0
100
AcDbCircle
10
-14.735493129138852
20
54.98690040633786
30
0
40
2.4999999999999982
210
0
220
0
230
1
0
CIRCLE
5
116
100
AcDbEntity
8
0
100
AcDbCircle
10
5.2645068708611475
20
54.986900406337853
30
0
40
2.4999999999999982
210
0
220
0
230
1
0
CIRCLE
5
117
100
AcDbEntity
8
0
100
AcDbCircle
10
-64.999999999997669
20
-34.999999999997357
30
0
40
2.5499999999999985
210
0
220
0
230
1
0
CIRCLE
5
118
100
AcDbEntity
8
0
100
AcDbCircle
10
-64.999999999997669
20
35.000000000002643
30
0
40
2.5499999999999972
210
0
220
0
230
1
0
LINE
5
119
100
AcDbEntity
8
0
100
AcDbLine
10
2.3270274596143281e-12
20
-84.999999999997357
30
0
11
2.3003821070233244e-12
21
85.000000000002643
31
0
0
LINE
5
120
100
AcDbEntity
8
0
100
AcDbLine
10
-74.999999999997669
20
2.6467716907063732e-12
30
0
11
75.000000000002302
21
2.6290081223123707e-12
31
0
0
CIRCLE
5
121
100
AcDbEntity
8
0
100
AcDbCircle
10
65.000000000002288
20
35.000000000002665
30
0
40
2.5499999999999972
210
0
220
0
230
1
0
CIRCLE
5
122
100
AcDbEntity
8
0
100
AcDbCircle
10
65.000000000002302
20
-34.999999999997335
30
0
40
2.5500000000000029
210
0
220
0
230
1
0
CIRCLE
5
123
100
AcDbEntity
8
0
100
AcDbCircle
10
65.000000000002288
20
35.000000000002665
30
0
40
2.5500000000000016
210
0
220
0
230
1
0
CIRCLE
5
124
100
AcDbEntity
8
0
100
AcDbCircle
10
-24.999999999997655
20
-74.999999999997357
30
0
40
2.549999999999998
210
0
220
0
230
1
0
CIRCLE
5
125
100
AcDbEntity
8
0
100
AcDbCircle
10
35.000000000002288
20
-74.999999999997357
30
0
40
2.5499999999999998
210
0
220
0
230
1
0
CIRCLE
5
126
100
AcDbEntity
8
0
100
AcDbCircle
10
-34.999999999997655
20
75.000000000002657
30
0
40
2.5500000000000038
210
0
220
0
230
1
0
CIRCLE
5
127
100
AcDbEntity
8
0
100
AcDbCircle
10
35.000000000002288
20
75.000000000002629
30
0
40
2.5499999999999989
210
0
220
0
230
1
0
CIRCLE
5
128
100
AcDbEntity
8
0
100
AcDbCircle
10
35.000000000002309
20
-44.999999999997357
30
0
40
13.249999999999996
210
0
220
0
230
1
0
ENDSEC
0
SECTION
2
OBJECTS
0
DICTIONARY
5
C
100
AcDbDictionary
3
ACAD_GROUP
350
D
3
ACAD_MLINESTYLE
350
17
0
DICTIONARY
5
D
100
AcDbDictionary
0
DICTIONARY
5
1A
330
C
100
AcDbDictionary
0
DICTIONARY
5
17
100
AcDbDictionary
0
ENDSEC
0
EOF
