%TF.GenerationSoftware,KiCad,Pcbnew,5.1.9-73d0e3b20d~88~ubuntu20.04.1*%
%TF.CreationDate,2021-02-26T13:03:21-08:00*%
%TF.ProjectId,TeensyMonitorV5,5465656e-7379-44d6-9f6e-69746f725635,rev?*%
%TF.SameCoordinates,Original*%
%TF.FileFunction,Copper,L4,Bot*%
%TF.FilePolarity,Positive*%
%FSLAX46Y46*%
G04 Gerber Fmt 4.6, Leading zero omitted, Abs format (unit mm)*
G04 Created by KiCad (PCBNEW 5.1.9-73d0e3b20d~88~ubuntu20.04.1) date 2021-02-26 13:03:21*
%MOMM*%
%LPD*%
G01*
G04 APERTURE LIST*
%TA.AperFunction,ComponentPad*%
%ADD10O,1.200000X2.000000*%
%TD*%
%TA.AperFunction,ComponentPad*%
%ADD11O,1.700000X1.700000*%
%TD*%
%TA.AperFunction,ComponentPad*%
%ADD12R,1.700000X1.700000*%
%TD*%
%TA.AperFunction,ComponentPad*%
%ADD13C,1.300000*%
%TD*%
%TA.AperFunction,ComponentPad*%
%ADD14C,1.600000*%
%TD*%
%TA.AperFunction,ComponentPad*%
%ADD15R,1.300000X1.300000*%
%TD*%
%TA.AperFunction,ComponentPad*%
%ADD16R,1.600000X1.600000*%
%TD*%
%TA.AperFunction,ComponentPad*%
%ADD17C,2.108200*%
%TD*%
%TA.AperFunction,ComponentPad*%
%ADD18C,3.759200*%
%TD*%
%TA.AperFunction,ComponentPad*%
%ADD19C,1.549400*%
%TD*%
%TA.AperFunction,ComponentPad*%
%ADD20C,1.397000*%
%TD*%
%TA.AperFunction,ComponentPad*%
%ADD21C,0.900000*%
%TD*%
%TA.AperFunction,ComponentPad*%
%ADD22C,8.600000*%
%TD*%
%TA.AperFunction,ComponentPad*%
%ADD23O,1.980000X3.960000*%
%TD*%
%TA.AperFunction,ComponentPad*%
%ADD24R,1.980000X3.960000*%
%TD*%
%TA.AperFunction,ViaPad*%
%ADD25C,0.800000*%
%TD*%
%TA.AperFunction,Conductor*%
%ADD26C,0.250000*%
%TD*%
G04 APERTURE END LIST*
D10*
%TO.P,J23,4*%
%TO.N,GND*%
X156404000Y-73406000D03*
%TO.P,J23,3*%
%TO.N,Net-(J23-Pad3)*%
X153904000Y-73406000D03*
%TO.P,J23,2*%
%TO.N,Net-(J23-Pad2)*%
X151404000Y-73406000D03*
%TO.P,J23,1*%
%TO.N,5V*%
X148904000Y-73406000D03*
%TD*%
%TO.P,J22,4*%
%TO.N,GND*%
X156404000Y-64262000D03*
%TO.P,J22,3*%
%TO.N,Net-(J22-Pad3)*%
X153904000Y-64262000D03*
%TO.P,J22,2*%
%TO.N,Net-(J22-Pad2)*%
X151404000Y-64262000D03*
%TO.P,J22,1*%
%TO.N,5V*%
X148904000Y-64262000D03*
%TD*%
%TO.P,J21,4*%
%TO.N,GND*%
X156404000Y-55118000D03*
%TO.P,J21,3*%
%TO.N,Net-(J21-Pad3)*%
X153904000Y-55118000D03*
%TO.P,J21,2*%
%TO.N,Net-(J21-Pad2)*%
X151404000Y-55118000D03*
%TO.P,J21,1*%
%TO.N,5V*%
X148904000Y-55118000D03*
%TD*%
%TO.P,J20,4*%
%TO.N,GND*%
X156404000Y-45974000D03*
%TO.P,J20,3*%
%TO.N,Net-(J20-Pad3)*%
X153904000Y-45974000D03*
%TO.P,J20,2*%
%TO.N,Net-(J20-Pad2)*%
X151404000Y-45974000D03*
%TO.P,J20,1*%
%TO.N,5V*%
X148904000Y-45974000D03*
%TD*%
%TO.P,U50,14*%
%TO.N,T_IRQ*%
X112262000Y-70612000D03*
%TO.P,U50,13*%
%TO.N,MISO*%
X109762000Y-70612000D03*
%TO.P,U50,12*%
%TO.N,MOSI*%
X107262000Y-70612000D03*
%TO.P,U50,11*%
%TO.N,T_CS*%
X104762000Y-70612000D03*
%TO.P,U50,10*%
%TO.N,SCK*%
X102262000Y-70612000D03*
%TO.P,U50,9*%
%TO.N,MISO*%
X99762000Y-70612000D03*
%TO.P,U50,8*%
%TO.N,Net-(R51-Pad1)*%
X97262000Y-70612000D03*
%TO.P,U50,7*%
%TO.N,SCK*%
X94762000Y-70612000D03*
%TO.P,U50,6*%
%TO.N,MOSI*%
X92262000Y-70612000D03*
%TO.P,U50,5*%
%TO.N,DC*%
X89762000Y-70612000D03*
%TO.P,U50,4*%
%TO.N,3V3*%
X87262000Y-70612000D03*
%TO.P,U50,3*%
%TO.N,CS*%
X84762000Y-70612000D03*
%TO.P,U50,2*%
%TO.N,GND*%
X82262000Y-70612000D03*
%TO.P,U50,1*%
%TO.N,5V*%
X79762000Y-70612000D03*
%TD*%
%TO.P,J39b1,4*%
%TO.N,GND*%
X156404000Y-27686000D03*
%TO.P,J39b1,3*%
%TO.N,SDA*%
X153904000Y-27686000D03*
%TO.P,J39b1,2*%
%TO.N,SCL*%
X151404000Y-27686000D03*
%TO.P,J39b1,1*%
%TO.N,3V3*%
X148904000Y-27686000D03*
%TD*%
%TO.P,J39a1,4*%
%TO.N,GND*%
X156404000Y-36830000D03*
%TO.P,J39a1,3*%
%TO.N,SDA*%
X153904000Y-36830000D03*
%TO.P,J39a1,2*%
%TO.N,SCL*%
X151404000Y-36830000D03*
%TO.P,J39a1,1*%
%TO.N,3V3*%
X148904000Y-36830000D03*
%TD*%
%TO.P,J55,5*%
%TO.N,GND*%
X144446000Y-84074000D03*
%TO.P,J55,4*%
%TO.N,3V3*%
X141946000Y-84074000D03*
%TO.P,J55,3*%
%TO.N,SCK*%
X139446000Y-84074000D03*
%TO.P,J55,2*%
%TO.N,MISO*%
X136946000Y-84074000D03*
%TO.P,J55,1*%
%TO.N,MOTOR1*%
X134446000Y-84074000D03*
%TD*%
%TO.P,J54,5*%
%TO.N,GND*%
X127174000Y-84074000D03*
%TO.P,J54,4*%
%TO.N,3V3*%
X124674000Y-84074000D03*
%TO.P,J54,3*%
%TO.N,SCK*%
X122174000Y-84074000D03*
%TO.P,J54,2*%
%TO.N,MISO*%
X119674000Y-84074000D03*
%TO.P,J54,1*%
%TO.N,MOTOR0*%
X117174000Y-84074000D03*
%TD*%
%TO.P,J40,10*%
%TO.N,GND*%
X105484000Y-84074000D03*
%TO.P,J40,9*%
%TO.N,Net-(J40-Pad9)*%
X102984000Y-84074000D03*
%TO.P,J40,8*%
%TO.N,Net-(J40-Pad8)*%
X100484000Y-84074000D03*
%TO.P,J40,7*%
%TO.N,Net-(J40-Pad7)*%
X97984000Y-84074000D03*
%TO.P,J40,6*%
%TO.N,Net-(J40-Pad6)*%
X95484000Y-84074000D03*
%TO.P,J40,5*%
%TO.N,Net-(J40-Pad5)*%
X92984000Y-84074000D03*
%TO.P,J40,4*%
%TO.N,Net-(J40-Pad4)*%
X90484000Y-84074000D03*
%TO.P,J40,3*%
%TO.N,Net-(J40-Pad3)*%
X87984000Y-84074000D03*
%TO.P,J40,2*%
%TO.N,Net-(J40-Pad2)*%
X85484000Y-84074000D03*
%TO.P,J40,1*%
%TO.N,5V*%
X82984000Y-84074000D03*
%TD*%
%TO.P,J37,4*%
%TO.N,GND*%
X133410000Y-26924000D03*
%TO.P,J37,3*%
%TO.N,Net-(J37-Pad3)*%
X135910000Y-26924000D03*
%TO.P,J37,2*%
%TO.N,Net-(J37-Pad2)*%
X138410000Y-26924000D03*
%TO.P,J37,1*%
%TO.N,3V3*%
X140910000Y-26924000D03*
%TD*%
%TO.P,J36,4*%
%TO.N,GND*%
X133410000Y-17526000D03*
%TO.P,J36,3*%
%TO.N,Net-(J36-Pad3)*%
X135910000Y-17526000D03*
%TO.P,J36,2*%
%TO.N,Net-(J36-Pad2)*%
X138410000Y-17526000D03*
%TO.P,J36,1*%
%TO.N,3V3*%
X140910000Y-17526000D03*
%TD*%
%TO.P,J35,4*%
%TO.N,GND*%
X119186000Y-26924000D03*
%TO.P,J35,3*%
%TO.N,Net-(J35-Pad3)*%
X121686000Y-26924000D03*
%TO.P,J35,2*%
%TO.N,Net-(J35-Pad2)*%
X124186000Y-26924000D03*
%TO.P,J35,1*%
%TO.N,3V3*%
X126686000Y-26924000D03*
%TD*%
%TO.P,J34,4*%
%TO.N,GND*%
X119186000Y-17526000D03*
%TO.P,J34,3*%
%TO.N,Net-(J34-Pad3)*%
X121686000Y-17526000D03*
%TO.P,J34,2*%
%TO.N,Net-(J34-Pad2)*%
X124186000Y-17526000D03*
%TO.P,J34,1*%
%TO.N,3V3*%
X126686000Y-17526000D03*
%TD*%
%TO.P,J33,4*%
%TO.N,GND*%
X104962000Y-26924000D03*
%TO.P,J33,3*%
%TO.N,Net-(J33-Pad3)*%
X107462000Y-26924000D03*
%TO.P,J33,2*%
%TO.N,Net-(J33-Pad2)*%
X109962000Y-26924000D03*
%TO.P,J33,1*%
%TO.N,3V3*%
X112462000Y-26924000D03*
%TD*%
%TO.P,J32,4*%
%TO.N,GND*%
X104962000Y-17526000D03*
%TO.P,J32,3*%
%TO.N,Net-(J32-Pad3)*%
X107462000Y-17526000D03*
%TO.P,J32,2*%
%TO.N,Net-(J32-Pad2)*%
X109962000Y-17526000D03*
%TO.P,J32,1*%
%TO.N,3V3*%
X112462000Y-17526000D03*
%TD*%
%TO.P,J31,4*%
%TO.N,GND*%
X90738000Y-26924000D03*
%TO.P,J31,3*%
%TO.N,Net-(J31-Pad3)*%
X93238000Y-26924000D03*
%TO.P,J31,2*%
%TO.N,Net-(J31-Pad2)*%
X95738000Y-26924000D03*
%TO.P,J31,1*%
%TO.N,3V3*%
X98238000Y-26924000D03*
%TD*%
%TO.P,J30,4*%
%TO.N,GND*%
X90738000Y-17526000D03*
%TO.P,J30,3*%
%TO.N,Net-(J30-Pad3)*%
X93238000Y-17526000D03*
%TO.P,J30,2*%
%TO.N,Net-(J30-Pad2)*%
X95738000Y-17526000D03*
%TO.P,J30,1*%
%TO.N,3V3*%
X98238000Y-17526000D03*
%TD*%
D11*
%TO.P,J5,4*%
%TO.N,GND*%
X127508000Y-38608000D03*
%TO.P,J5,3*%
%TO.N,Net-(J5-Pad3)*%
X124968000Y-38608000D03*
%TO.P,J5,2*%
%TO.N,Net-(J5-Pad2)*%
X127508000Y-36068000D03*
D12*
%TO.P,J5,1*%
%TO.N,3V3*%
X124968000Y-36068000D03*
%TD*%
D13*
%TO.P,U1,66*%
%TO.N,N/C*%
X74390000Y-53340000D03*
%TO.P,U1,67*%
X74390000Y-55880000D03*
D14*
%TO.P,U1,54*%
X119380000Y-49530000D03*
%TO.P,U1,53*%
X119380000Y-52070000D03*
%TO.P,U1,52*%
X119380000Y-54610000D03*
%TO.P,U1,51*%
X119380000Y-57150000D03*
%TO.P,U1,50*%
X119380000Y-59690000D03*
D13*
%TO.P,U1,62*%
%TO.N,T-*%
X86630000Y-53428400D03*
%TO.P,U1,63*%
%TO.N,T+*%
X88630000Y-53428400D03*
%TO.P,U1,64*%
%TO.N,GND*%
X88630000Y-51428400D03*
%TO.P,U1,61*%
%TO.N,LED*%
X86630000Y-51428400D03*
%TO.P,U1,65*%
%TO.N,R-*%
X88630000Y-49428400D03*
D15*
%TO.P,U1,60*%
%TO.N,R+*%
X86630000Y-49428400D03*
D14*
%TO.P,U1,17*%
%TO.N,ANLG1*%
X114300000Y-62230000D03*
%TO.P,U1,18*%
%TO.N,ANLG2*%
X116840000Y-62230000D03*
%TO.P,U1,19*%
%TO.N,ANLG3*%
X119380000Y-62230000D03*
%TO.P,U1,20*%
%TO.N,T_IRQ*%
X121920000Y-62230000D03*
%TO.P,U1,16*%
%TO.N,ANLG0*%
X111760000Y-62230000D03*
%TO.P,U1,15*%
%TO.N,3V3*%
X109220000Y-62230000D03*
%TO.P,U1,14*%
%TO.N,MISO*%
X106680000Y-62230000D03*
%TO.P,U1,21*%
%TO.N,T_CS*%
X124460000Y-62230000D03*
%TO.P,U1,22*%
%TO.N,MOTOR0*%
X127000000Y-62230000D03*
%TO.P,U1,23*%
%TO.N,MOTOR1*%
X129540000Y-62230000D03*
%TO.P,U1,24*%
%TO.N,N/C*%
X132080000Y-62230000D03*
%TO.P,U1,25*%
X132080000Y-46990000D03*
%TO.P,U1,26*%
%TO.N,TRG3*%
X129540000Y-46990000D03*
%TO.P,U1,27*%
%TO.N,ECHO3*%
X127000000Y-46990000D03*
%TO.P,U1,28*%
%TO.N,TRG2*%
X124460000Y-46990000D03*
%TO.P,U1,29*%
%TO.N,ECHO2*%
X121920000Y-46990000D03*
%TO.P,U1,30*%
%TO.N,N/C*%
X119380000Y-46990000D03*
%TO.P,U1,31*%
X116840000Y-46990000D03*
%TO.P,U1,32*%
%TO.N,TRG1*%
X114300000Y-46990000D03*
%TO.P,U1,33*%
%TO.N,ECHO1*%
X111760000Y-46990000D03*
%TO.P,U1,34*%
%TO.N,GND*%
X109220000Y-46990000D03*
%TO.P,U1,13*%
%TO.N,MOSI*%
X104140000Y-62230000D03*
%TO.P,U1,12*%
%TO.N,CS*%
X101600000Y-62230000D03*
%TO.P,U1,11*%
%TO.N,DC*%
X99060000Y-62230000D03*
%TO.P,U1,10*%
%TO.N,I2CRESET*%
X96520000Y-62230000D03*
%TO.P,U1,9*%
%TO.N,RLY7*%
X93980000Y-62230000D03*
%TO.P,U1,8*%
%TO.N,RLY6*%
X91440000Y-62230000D03*
%TO.P,U1,7*%
%TO.N,RLY5*%
X88900000Y-62230000D03*
%TO.P,U1,6*%
%TO.N,RLY4*%
X86360000Y-62230000D03*
%TO.P,U1,5*%
%TO.N,RLY3*%
X83820000Y-62230000D03*
%TO.P,U1,4*%
%TO.N,RLY2*%
X81280000Y-62230000D03*
%TO.P,U1,3*%
%TO.N,RLY1*%
X78740000Y-62230000D03*
%TO.P,U1,2*%
%TO.N,RLY0*%
X76200000Y-62230000D03*
D16*
%TO.P,U1,1*%
%TO.N,GND*%
X73660000Y-62230000D03*
D14*
%TO.P,U1,35*%
%TO.N,SCK*%
X106680000Y-46990000D03*
%TO.P,U1,36*%
%TO.N,TRG0*%
X104140000Y-46990000D03*
%TO.P,U1,37*%
%TO.N,ECHO0*%
X101600000Y-46990000D03*
%TO.P,U1,38*%
%TO.N,N/C*%
X99060000Y-46990000D03*
%TO.P,U1,39*%
X96520000Y-46990000D03*
%TO.P,U1,40*%
%TO.N,SDA*%
X93980000Y-46990000D03*
%TO.P,U1,41*%
%TO.N,SCL*%
X91440000Y-46990000D03*
%TO.P,U1,42*%
%TO.N,N/C*%
X88900000Y-46990000D03*
%TO.P,U1,43*%
X86360000Y-46990000D03*
%TO.P,U1,44*%
%TO.N,Net-(J5-Pad2)*%
X83820000Y-46990000D03*
%TO.P,U1,45*%
%TO.N,Net-(J5-Pad3)*%
X81280000Y-46990000D03*
%TO.P,U1,46*%
%TO.N,3V3*%
X78740000Y-46990000D03*
%TO.P,U1,47*%
%TO.N,GND*%
X76200000Y-46990000D03*
%TO.P,U1,48*%
%TO.N,5V*%
X73660000Y-46990000D03*
D16*
%TO.P,U1,55*%
%TO.N,N/C*%
X79959200Y-59179200D03*
D14*
%TO.P,U1,56*%
X82499200Y-59179200D03*
%TO.P,U1,57*%
X85039200Y-59179200D03*
%TO.P,U1,58*%
X87579200Y-59179200D03*
%TO.P,U1,59*%
X90119200Y-59179200D03*
%TO.P,U1,49*%
X76200000Y-49530000D03*
%TD*%
D17*
%TO.P,J4,16*%
%TO.N,N/C*%
X77940010Y-40894998D03*
%TO.P,J4,13*%
X77940010Y-25145002D03*
D18*
%TO.P,J4,15*%
X74890010Y-38735000D03*
%TO.P,J4,14*%
X74890010Y-27305000D03*
D19*
%TO.P,J4,12*%
X71530010Y-39345000D03*
%TO.P,J4,11*%
X69830010Y-36805000D03*
%TO.P,J4,10*%
%TO.N,LED*%
X71530010Y-29235000D03*
%TO.P,J4,9*%
%TO.N,GND*%
X69810010Y-26695000D03*
D20*
%TO.P,J4,7*%
%TO.N,N/C*%
X81260010Y-36195000D03*
%TO.P,J4,5*%
%TO.N,Net-(C1-Pad2)*%
X81260010Y-33655000D03*
%TO.P,J4,3*%
%TO.N,T-*%
X81260010Y-31115000D03*
%TO.P,J4,1*%
%TO.N,T+*%
X81260010Y-28575000D03*
%TO.P,J4,8*%
%TO.N,GND*%
X83800010Y-37465000D03*
%TO.P,J4,6*%
%TO.N,R-*%
X83800010Y-34925000D03*
%TO.P,J4,4*%
%TO.N,R+*%
X83800010Y-32385000D03*
%TO.P,J4,2*%
%TO.N,Net-(C1-Pad2)*%
X83800010Y-29845000D03*
%TD*%
D11*
%TO.P,J3,8*%
%TO.N,GND*%
X139700000Y-36068000D03*
%TO.P,J3,7*%
%TO.N,3V3*%
X139700000Y-38608000D03*
%TO.P,J3,6*%
%TO.N,GND*%
X137160000Y-36068000D03*
%TO.P,J3,5*%
%TO.N,3V3*%
X137160000Y-38608000D03*
%TO.P,J3,4*%
%TO.N,GND*%
X134620000Y-36068000D03*
%TO.P,J3,3*%
%TO.N,3V3*%
X134620000Y-38608000D03*
%TO.P,J3,2*%
%TO.N,GND*%
X132080000Y-36068000D03*
D12*
%TO.P,J3,1*%
%TO.N,3V3*%
X132080000Y-38608000D03*
%TD*%
D21*
%TO.P,H4,1*%
%TO.N,N/C*%
X157220419Y-81539581D03*
X154940000Y-80595000D03*
X152659581Y-81539581D03*
X151715000Y-83820000D03*
X152659581Y-86100419D03*
X154940000Y-87045000D03*
X157220419Y-86100419D03*
X158165000Y-83820000D03*
D22*
X154940000Y-83820000D03*
%TD*%
D21*
%TO.P,H3,1*%
%TO.N,N/C*%
X157220419Y-15499581D03*
X154940000Y-14555000D03*
X152659581Y-15499581D03*
X151715000Y-17780000D03*
X152659581Y-20060419D03*
X154940000Y-21005000D03*
X157220419Y-20060419D03*
X158165000Y-17780000D03*
D22*
X154940000Y-17780000D03*
%TD*%
D21*
%TO.P,H2,1*%
%TO.N,N/C*%
X70860419Y-81539581D03*
X68580000Y-80595000D03*
X66299581Y-81539581D03*
X65355000Y-83820000D03*
X66299581Y-86100419D03*
X68580000Y-87045000D03*
X70860419Y-86100419D03*
X71805000Y-83820000D03*
D22*
X68580000Y-83820000D03*
%TD*%
D21*
%TO.P,H1,1*%
%TO.N,N/C*%
X70860419Y-15499581D03*
X68580000Y-14555000D03*
X66299581Y-15499581D03*
X65355000Y-17780000D03*
X66299581Y-20060419D03*
X68580000Y-21005000D03*
X70860419Y-20060419D03*
X71805000Y-17780000D03*
D22*
X68580000Y-17780000D03*
%TD*%
D11*
%TO.P,J53,4*%
%TO.N,GND*%
X129032000Y-70104000D03*
%TO.P,J53,3*%
X126492000Y-70104000D03*
%TO.P,J53,2*%
X123952000Y-70104000D03*
D12*
%TO.P,J53,1*%
X121412000Y-70104000D03*
%TD*%
D11*
%TO.P,J52,4*%
%TO.N,3V3*%
X129032000Y-72644000D03*
%TO.P,J52,3*%
X126492000Y-72644000D03*
%TO.P,J52,2*%
X123952000Y-72644000D03*
D12*
%TO.P,J52,1*%
X121412000Y-72644000D03*
%TD*%
D11*
%TO.P,J51,4*%
%TO.N,ANLG3*%
X129032000Y-75438000D03*
%TO.P,J51,3*%
%TO.N,ANLG2*%
X126492000Y-75438000D03*
%TO.P,J51,2*%
%TO.N,ANLG1*%
X123952000Y-75438000D03*
D12*
%TO.P,J51,1*%
%TO.N,ANLG0*%
X121412000Y-75438000D03*
%TD*%
D11*
%TO.P,J2,8*%
%TO.N,GND*%
X97028000Y-37338000D03*
%TO.P,J2,7*%
%TO.N,5V*%
X97028000Y-39878000D03*
%TO.P,J2,6*%
%TO.N,GND*%
X94488000Y-37338000D03*
%TO.P,J2,5*%
%TO.N,5V*%
X94488000Y-39878000D03*
%TO.P,J2,4*%
%TO.N,GND*%
X91948000Y-37338000D03*
%TO.P,J2,3*%
%TO.N,5V*%
X91948000Y-39878000D03*
%TO.P,J2,2*%
%TO.N,GND*%
X89408000Y-37338000D03*
D12*
%TO.P,J2,1*%
%TO.N,5V*%
X89408000Y-39878000D03*
%TD*%
D23*
%TO.P,J1,2*%
%TO.N,GND*%
X72056000Y-71628000D03*
D24*
%TO.P,J1,1*%
%TO.N,5V*%
X67056000Y-71628000D03*
%TD*%
D25*
%TO.N,GND*%
X108859600Y-42369500D03*
%TO.N,5V*%
X139573100Y-51522800D03*
X136335000Y-43242500D03*
%TO.N,Net-(J31-Pad2)*%
X104210000Y-38289800D03*
%TO.N,Net-(J32-Pad3)*%
X104907500Y-39341500D03*
%TO.N,TRG0*%
X139048100Y-46640600D03*
%TO.N,TRG1*%
X139513800Y-53121500D03*
%TO.N,TRG2*%
X140277500Y-64570800D03*
%TO.N,TRG3*%
X139380000Y-67615800D03*
%TO.N,ECHO3*%
X135249300Y-70143000D03*
%TO.N,SCL*%
X114473100Y-36292600D03*
%TO.N,I2CRESET*%
X99946900Y-41054300D03*
%TO.N,GND*%
X156404000Y-51876000D03*
X156404000Y-68132000D03*
%TO.N,Net-(J22-Pad3)*%
X136067200Y-65015000D03*
%TO.N,Net-(J30-Pad2)*%
X104123800Y-36684000D03*
%TO.N,Net-(J36-Pad2)*%
X116922000Y-37539100D03*
%TO.N,Net-(J37-Pad3)*%
X118584700Y-34950300D03*
X114885600Y-38283000D03*
%TD*%
D26*
%TO.N,GND*%
X90299900Y-48140500D02*
X91904900Y-48140500D01*
X91904900Y-48140500D02*
X92565400Y-47480000D01*
X92565400Y-47480000D02*
X92565400Y-46726200D01*
X92565400Y-46726200D02*
X98963100Y-40328500D01*
X98963100Y-40328500D02*
X100852400Y-40328500D01*
X100852400Y-40328500D02*
X102893400Y-42369500D01*
X102893400Y-42369500D02*
X108859600Y-42369500D01*
X88630000Y-51428400D02*
X90299900Y-49758500D01*
X90299900Y-49758500D02*
X90299900Y-48140500D01*
X91580600Y-38513300D02*
X90772700Y-39321200D01*
X90772700Y-39321200D02*
X90772700Y-45477000D01*
X90772700Y-45477000D02*
X90299900Y-45949800D01*
X90299900Y-45949800D02*
X90299900Y-48140500D01*
X109220000Y-46990000D02*
X109220000Y-42729900D01*
X109220000Y-42729900D02*
X108859600Y-42369500D01*
X91948000Y-38513300D02*
X91580600Y-38513300D01*
X90583300Y-37338000D02*
X90583300Y-37516000D01*
X90583300Y-37516000D02*
X91580600Y-38513300D01*
X89408000Y-37338000D02*
X90583300Y-37338000D01*
X133843000Y-35480300D02*
X133255300Y-36068000D01*
X134620000Y-35480300D02*
X133843000Y-35480300D01*
X133410000Y-26924000D02*
X133410000Y-35047300D01*
X133410000Y-35047300D02*
X133843000Y-35480300D01*
X133410000Y-17526000D02*
X133410000Y-26924000D01*
X132080000Y-36068000D02*
X133255300Y-36068000D01*
X134620000Y-36068000D02*
X134620000Y-35480300D01*
X104516600Y-16283500D02*
X104605600Y-16194500D01*
X104605600Y-16194500D02*
X117065100Y-16194500D01*
X117065100Y-16194500D02*
X118396600Y-17526000D01*
X118396600Y-17526000D02*
X119186000Y-17526000D01*
X104962000Y-17526000D02*
X104516600Y-17080600D01*
X104516600Y-17080600D02*
X104516600Y-16283500D01*
X90738000Y-16200700D02*
X99112700Y-16200700D01*
X99112700Y-16200700D02*
X99195500Y-16283500D01*
X99195500Y-16283500D02*
X104516600Y-16283500D01*
X90738000Y-17526000D02*
X90738000Y-16200700D01*
X90738000Y-26924000D02*
X90738000Y-17526000D01*
X91948000Y-37338000D02*
X91948000Y-38513300D01*
X90738000Y-28249300D02*
X91948000Y-29459300D01*
X91948000Y-29459300D02*
X91948000Y-37338000D01*
X73660000Y-62230000D02*
X73660000Y-63355300D01*
X72056000Y-71628000D02*
X73371300Y-71628000D01*
X73371300Y-71628000D02*
X73371300Y-63644000D01*
X73371300Y-63644000D02*
X73660000Y-63355300D01*
X127508000Y-38608000D02*
X128683300Y-38608000D01*
X132080000Y-36068000D02*
X130904700Y-36068000D01*
X130904700Y-36068000D02*
X128683300Y-38289400D01*
X128683300Y-38289400D02*
X128683300Y-38608000D01*
X127174000Y-84074000D02*
X127174000Y-82748700D01*
X129032000Y-70104000D02*
X129032000Y-71279300D01*
X127174000Y-82748700D02*
X130214100Y-79708600D01*
X130214100Y-79708600D02*
X130214100Y-72156300D01*
X130214100Y-72156300D02*
X129337100Y-71279300D01*
X129337100Y-71279300D02*
X129032000Y-71279300D01*
X90738000Y-26924000D02*
X90738000Y-28249300D01*
X119186000Y-17526000D02*
X119186000Y-26924000D01*
X76200000Y-46990000D02*
X73398800Y-49791200D01*
X73398800Y-49791200D02*
X73398800Y-60843500D01*
X73398800Y-60843500D02*
X73660000Y-61104700D01*
X73660000Y-62230000D02*
X73660000Y-61104700D01*
X69810000Y-26695000D02*
X69810000Y-34150300D01*
X69810000Y-34150300D02*
X72657500Y-36997800D01*
X72657500Y-36997800D02*
X72657500Y-43447500D01*
X72657500Y-43447500D02*
X76200000Y-46990000D01*
%TO.N,5V*%
X136335000Y-43242500D02*
X134488700Y-41396200D01*
X134488700Y-41396200D02*
X102875400Y-41396200D01*
X102875400Y-41396200D02*
X101357200Y-39878000D01*
X101357200Y-39878000D02*
X97028000Y-39878000D01*
X139835300Y-51235900D02*
X139573100Y-51498100D01*
X139573100Y-51498100D02*
X139573100Y-51522800D01*
X148904000Y-51235900D02*
X148904000Y-55118000D01*
X148904000Y-47299300D02*
X148904000Y-51235900D01*
X139835300Y-51235900D02*
X148904000Y-51235900D01*
X136335000Y-43242500D02*
X136729400Y-43242500D01*
X136729400Y-43242500D02*
X139835300Y-46348400D01*
X139835300Y-46348400D02*
X139835300Y-51235900D01*
X82984000Y-84074000D02*
X82984000Y-82748700D01*
X79762000Y-70612000D02*
X79762000Y-79526700D01*
X79762000Y-79526700D02*
X82984000Y-82748700D01*
X94488000Y-39878000D02*
X97028000Y-39878000D01*
X148904000Y-64262000D02*
X148904000Y-73406000D01*
X148904000Y-55118000D02*
X148904000Y-64262000D01*
X148904000Y-45974000D02*
X148904000Y-47299300D01*
%TO.N,3V3*%
X121412000Y-72644000D02*
X122587300Y-72644000D01*
X123952000Y-73231600D02*
X123174900Y-73231600D01*
X123174900Y-73231600D02*
X122587300Y-72644000D01*
X123952000Y-73231600D02*
X123952000Y-73819300D01*
X123952000Y-72644000D02*
X123952000Y-73231600D01*
X121412000Y-72644000D02*
X121412000Y-71468700D01*
X121412000Y-71468700D02*
X120604000Y-71468700D01*
X120604000Y-71468700D02*
X115570000Y-66434700D01*
X115570000Y-66434700D02*
X115570000Y-61880700D01*
X115570000Y-61880700D02*
X114760400Y-61071100D01*
X114760400Y-61071100D02*
X110378900Y-61071100D01*
X110378900Y-61071100D02*
X109220000Y-62230000D01*
X126686000Y-26924000D02*
X126686000Y-28249300D01*
X124968000Y-36068000D02*
X124968000Y-29967300D01*
X124968000Y-29967300D02*
X126686000Y-28249300D01*
X124674000Y-84074000D02*
X124674000Y-82748700D01*
X123952000Y-73819300D02*
X124025500Y-73819300D01*
X124025500Y-73819300D02*
X125146500Y-74940300D01*
X125146500Y-74940300D02*
X125146500Y-82276200D01*
X125146500Y-82276200D02*
X124674000Y-82748700D01*
X148904000Y-27686000D02*
X148904000Y-36830000D01*
X139700000Y-38608000D02*
X140875300Y-38608000D01*
X148904000Y-36830000D02*
X142653300Y-36830000D01*
X142653300Y-36830000D02*
X140875300Y-38608000D01*
X98238000Y-17526000D02*
X98238000Y-26924000D01*
%TO.N,Net-(J31-Pad2)*%
X95738000Y-28249300D02*
X95738000Y-29817800D01*
X95738000Y-29817800D02*
X104210000Y-38289800D01*
X95738000Y-26924000D02*
X95738000Y-28249300D01*
%TO.N,Net-(J32-Pad3)*%
X107462000Y-18851300D02*
X106223600Y-20089700D01*
X106223600Y-20089700D02*
X106223600Y-38025400D01*
X106223600Y-38025400D02*
X104907500Y-39341500D01*
X107462000Y-17526000D02*
X107462000Y-18851300D01*
%TO.N,ANLG3*%
X129032000Y-75438000D02*
X129032000Y-74262700D01*
X129032000Y-74262700D02*
X128958400Y-74262700D01*
X128958400Y-74262700D02*
X127856700Y-73161000D01*
X127856700Y-73161000D02*
X127856700Y-69758200D01*
X127856700Y-69758200D02*
X120328500Y-62230000D01*
X120328500Y-62230000D02*
X119380000Y-62230000D01*
%TO.N,ANLG2*%
X126492000Y-75438000D02*
X126492000Y-74262700D01*
X126492000Y-74262700D02*
X126418400Y-74262700D01*
X126418400Y-74262700D02*
X125316700Y-73161000D01*
X125316700Y-73161000D02*
X125316700Y-72307700D01*
X125316700Y-72307700D02*
X124383000Y-71374000D01*
X124383000Y-71374000D02*
X123557200Y-71374000D01*
X123557200Y-71374000D02*
X122587400Y-70404200D01*
X122587400Y-70404200D02*
X122587400Y-67977400D01*
X122587400Y-67977400D02*
X116840000Y-62230000D01*
%TO.N,ANLG1*%
X123952000Y-75438000D02*
X122776700Y-75438000D01*
X122776700Y-75438000D02*
X122776700Y-74629900D01*
X122776700Y-74629900D02*
X122409500Y-74262700D01*
X122409500Y-74262700D02*
X120857200Y-74262700D01*
X120857200Y-74262700D02*
X114300000Y-67705500D01*
X114300000Y-67705500D02*
X114300000Y-62230000D01*
%TO.N,ANLG0*%
X121412000Y-75438000D02*
X120236700Y-75438000D01*
X120236700Y-75438000D02*
X111760000Y-66961300D01*
X111760000Y-66961300D02*
X111760000Y-62230000D01*
%TO.N,SCK*%
X102262000Y-71274600D02*
X113736100Y-82748700D01*
X113736100Y-82748700D02*
X122174000Y-82748700D01*
X122174000Y-84074000D02*
X122174000Y-82748700D01*
X102262000Y-71274600D02*
X101599300Y-71937300D01*
X101599300Y-71937300D02*
X94762000Y-71937300D01*
X94762000Y-70612000D02*
X94762000Y-71937300D01*
X102262000Y-70612000D02*
X102262000Y-71274600D01*
%TO.N,MISO*%
X136946000Y-84074000D02*
X136946000Y-85399300D01*
X119674000Y-84074000D02*
X119674000Y-85399300D01*
X119674000Y-85399300D02*
X128048700Y-85399300D01*
X128048700Y-85399300D02*
X128117100Y-85330900D01*
X128117100Y-85330900D02*
X133885200Y-85330900D01*
X133885200Y-85330900D02*
X133953600Y-85399300D01*
X133953600Y-85399300D02*
X136946000Y-85399300D01*
X109762000Y-70612000D02*
X109762000Y-69286700D01*
X106680000Y-62230000D02*
X106680000Y-66204700D01*
X106680000Y-66204700D02*
X109762000Y-69286700D01*
%TO.N,MOTOR1*%
X129540000Y-62230000D02*
X134446000Y-67136000D01*
X134446000Y-67136000D02*
X134446000Y-84074000D01*
%TO.N,TRG0*%
X104140000Y-46990000D02*
X105273000Y-48123000D01*
X105273000Y-48123000D02*
X112239500Y-48123000D01*
X112239500Y-48123000D02*
X113030000Y-47332500D01*
X113030000Y-47332500D02*
X113030000Y-46623400D01*
X113030000Y-46623400D02*
X114718200Y-44935200D01*
X114718200Y-44935200D02*
X137342700Y-44935200D01*
X137342700Y-44935200D02*
X139048100Y-46640600D01*
%TO.N,TRG1*%
X114300000Y-46990000D02*
X115901700Y-45388300D01*
X115901700Y-45388300D02*
X132077900Y-45388300D01*
X132077900Y-45388300D02*
X139513800Y-52824200D01*
X139513800Y-52824200D02*
X139513800Y-53121500D01*
%TO.N,TRG2*%
X140277500Y-64570800D02*
X140277500Y-57409200D01*
X140277500Y-57409200D02*
X130765100Y-47896800D01*
X130765100Y-47896800D02*
X130765100Y-46614300D01*
X130765100Y-46614300D02*
X130003200Y-45852400D01*
X130003200Y-45852400D02*
X125597600Y-45852400D01*
X125597600Y-45852400D02*
X124460000Y-46990000D01*
%TO.N,TRG3*%
X139380000Y-67615800D02*
X139380000Y-58166100D01*
X139380000Y-58166100D02*
X129540000Y-48326100D01*
X129540000Y-48326100D02*
X129540000Y-46990000D01*
%TO.N,ECHO3*%
X127000000Y-46990000D02*
X135249300Y-55239300D01*
X135249300Y-55239300D02*
X135249300Y-70143000D01*
%TO.N,SCL*%
X114160200Y-39797400D02*
X114160200Y-36605500D01*
X114160200Y-36605500D02*
X114473100Y-36292600D01*
X151404000Y-38155300D02*
X149761900Y-39797400D01*
X149761900Y-39797400D02*
X114160200Y-39797400D01*
X114160200Y-39797400D02*
X113886800Y-40070800D01*
X113886800Y-40070800D02*
X104429700Y-40070800D01*
X104429700Y-40070800D02*
X103046800Y-38687900D01*
X103046800Y-38687900D02*
X93988100Y-38687900D01*
X93988100Y-38687900D02*
X93312600Y-39363400D01*
X93312600Y-39363400D02*
X93312600Y-45117400D01*
X93312600Y-45117400D02*
X91440000Y-46990000D01*
X151404000Y-36830000D02*
X151404000Y-38155300D01*
X151404000Y-27686000D02*
X151404000Y-36830000D01*
%TO.N,SDA*%
X153904000Y-27686000D02*
X153904000Y-36830000D01*
%TO.N,MOSI*%
X104140000Y-66164700D02*
X107262000Y-69286700D01*
X104140000Y-62230000D02*
X104140000Y-66164700D01*
X104140000Y-66164700D02*
X96709300Y-66164700D01*
X96709300Y-66164700D02*
X92262000Y-70612000D01*
X107262000Y-70612000D02*
X107262000Y-69286700D01*
%TO.N,CS*%
X84762000Y-70612000D02*
X84762000Y-69286700D01*
X101600000Y-62230000D02*
X100474400Y-61104400D01*
X100474400Y-61104400D02*
X98510800Y-61104400D01*
X98510800Y-61104400D02*
X97790000Y-61825200D01*
X97790000Y-61825200D02*
X97790000Y-62603600D01*
X97790000Y-62603600D02*
X92282200Y-68111400D01*
X92282200Y-68111400D02*
X85937300Y-68111400D01*
X85937300Y-68111400D02*
X84762000Y-69286700D01*
%TO.N,DC*%
X89762000Y-70612000D02*
X89762000Y-69286700D01*
X99060000Y-62230000D02*
X92003300Y-69286700D01*
X92003300Y-69286700D02*
X89762000Y-69286700D01*
%TO.N,I2CRESET*%
X96520000Y-62230000D02*
X100224100Y-58525900D01*
X100224100Y-58525900D02*
X100224100Y-41331500D01*
X100224100Y-41331500D02*
X99946900Y-41054300D01*
%TO.N,GND*%
X156404000Y-45974000D02*
X156404000Y-51876000D01*
X156404000Y-51876000D02*
X156404000Y-55118000D01*
X156404000Y-64262000D02*
X156404000Y-68132000D01*
X156404000Y-68132000D02*
X156404000Y-73406000D01*
%TO.N,Net-(J22-Pad3)*%
X153904000Y-64262000D02*
X153904000Y-65587300D01*
X153904000Y-65587300D02*
X150154000Y-69337300D01*
X150154000Y-69337300D02*
X150154000Y-73878100D01*
X150154000Y-73878100D02*
X149300800Y-74731300D01*
X149300800Y-74731300D02*
X145441900Y-74731300D01*
X145441900Y-74731300D02*
X136067200Y-65356600D01*
X136067200Y-65356600D02*
X136067200Y-65015000D01*
%TO.N,Net-(J30-Pad2)*%
X95738000Y-18851300D02*
X96988000Y-20101300D01*
X96988000Y-20101300D02*
X96988000Y-29548200D01*
X96988000Y-29548200D02*
X104123800Y-36684000D01*
X95738000Y-17526000D02*
X95738000Y-18851300D01*
%TO.N,Net-(J36-Pad2)*%
X116922000Y-37539100D02*
X117021700Y-37539100D01*
X117021700Y-37539100D02*
X119945100Y-34615700D01*
X119945100Y-34615700D02*
X119945100Y-34328900D01*
X119945100Y-34328900D02*
X125595300Y-28678700D01*
X125595300Y-28678700D02*
X125595300Y-23584200D01*
X125595300Y-23584200D02*
X132978800Y-16200700D01*
X132978800Y-16200700D02*
X138410000Y-16200700D01*
X138410000Y-17526000D02*
X138410000Y-16200700D01*
%TO.N,Net-(J37-Pad3)*%
X114885600Y-38283000D02*
X118218300Y-34950300D01*
X118218300Y-34950300D02*
X118584700Y-34950300D01*
%TO.N,Net-(C1-Pad2)*%
X83800000Y-29845000D02*
X83800000Y-30652700D01*
X83800000Y-30652700D02*
X81260000Y-33192700D01*
X81260000Y-33192700D02*
X81260000Y-33655000D01*
%TO.N,LED*%
X71530000Y-29235000D02*
X79639900Y-37344900D01*
X79639900Y-37344900D02*
X79639900Y-44395500D01*
X79639900Y-44395500D02*
X80010000Y-44765600D01*
X80010000Y-44765600D02*
X80010000Y-48198800D01*
X80010000Y-48198800D02*
X86219500Y-54408300D01*
X86219500Y-54408300D02*
X87105800Y-54408300D01*
X87105800Y-54408300D02*
X87630000Y-53884100D01*
X87630000Y-53884100D02*
X87630000Y-52428400D01*
X87630000Y-52428400D02*
X86630000Y-51428400D01*
%TO.N,T-*%
X86630000Y-53428400D02*
X82550000Y-49348400D01*
X82550000Y-49348400D02*
X82550000Y-40573500D01*
X82550000Y-40573500D02*
X80235100Y-38258600D01*
X80235100Y-38258600D02*
X80235100Y-32139900D01*
X80235100Y-32139900D02*
X81260000Y-31115000D01*
%TO.N,T+*%
X81260000Y-28575000D02*
X80300700Y-29534300D01*
X80300700Y-29534300D02*
X73830200Y-29534300D01*
X73830200Y-29534300D02*
X72393300Y-28097400D01*
X72393300Y-28097400D02*
X71095100Y-28097400D01*
X71095100Y-28097400D02*
X70416900Y-28775600D01*
X70416900Y-28775600D02*
X70416900Y-30491600D01*
X70416900Y-30491600D02*
X77096300Y-37171000D01*
X77096300Y-37171000D02*
X77096300Y-39647100D01*
X77096300Y-39647100D02*
X76507500Y-40235900D01*
X76507500Y-40235900D02*
X76507500Y-43470000D01*
X76507500Y-43470000D02*
X77470000Y-44432500D01*
X77470000Y-44432500D02*
X77470000Y-47330700D01*
X77470000Y-47330700D02*
X85040500Y-54901200D01*
X85040500Y-54901200D02*
X87287500Y-54901200D01*
X87287500Y-54901200D02*
X88630000Y-53558700D01*
X88630000Y-53558700D02*
X88630000Y-53428400D01*
%TO.N,R-*%
X83800000Y-34925000D02*
X87630000Y-38755000D01*
X87630000Y-38755000D02*
X87630000Y-48428400D01*
X87630000Y-48428400D02*
X88630000Y-49428400D01*
%TO.N,R+*%
X86630000Y-49428400D02*
X86630000Y-48453100D01*
X83800000Y-32385000D02*
X82775100Y-33409900D01*
X82775100Y-33409900D02*
X82775100Y-39843500D01*
X82775100Y-39843500D02*
X85090000Y-42158400D01*
X85090000Y-42158400D02*
X85090000Y-47400700D01*
X85090000Y-47400700D02*
X86142400Y-48453100D01*
X86142400Y-48453100D02*
X86630000Y-48453100D01*
%TD*%
M02*
