%TF.GenerationSoftware,KiCad,Pcbnew,5.1.9-73d0e3b20d~88~ubuntu20.04.1*%
%TF.CreationDate,2021-02-26T13:03:21-08:00*%
%TF.ProjectId,TeensyMonitorV5,5465656e-7379-44d6-9f6e-69746f725635,rev?*%
%TF.SameCoordinates,Original*%
%TF.FileFunction,Legend,Top*%
%TF.FilePolarity,Positive*%
%FSLAX46Y46*%
G04 Gerber Fmt 4.6, Leading zero omitted, Abs format (unit mm)*
G04 Created by KiCad (PCBNEW 5.1.9-73d0e3b20d~88~ubuntu20.04.1) date 2021-02-26 13:03:21*
%MOMM*%
%LPD*%
G01*
G04 APERTURE LIST*
%ADD10C,0.150000*%
%ADD11C,0.275000*%
%ADD12C,0.300000*%
%ADD13C,0.120000*%
%ADD14C,0.100000*%
%ADD15C,0.152400*%
G04 APERTURE END LIST*
D10*
X66865523Y-62952380D02*
X66389333Y-62952380D01*
X66341714Y-63428571D01*
X66389333Y-63380952D01*
X66484571Y-63333333D01*
X66722666Y-63333333D01*
X66817904Y-63380952D01*
X66865523Y-63428571D01*
X66913142Y-63523809D01*
X66913142Y-63761904D01*
X66865523Y-63857142D01*
X66817904Y-63904761D01*
X66722666Y-63952380D01*
X66484571Y-63952380D01*
X66389333Y-63904761D01*
X66341714Y-63857142D01*
X67198857Y-62952380D02*
X67532190Y-63952380D01*
X67865523Y-62952380D01*
X79581714Y-66952761D02*
X79724571Y-67000380D01*
X79962666Y-67000380D01*
X80057904Y-66952761D01*
X80105523Y-66905142D01*
X80153142Y-66809904D01*
X80153142Y-66714666D01*
X80105523Y-66619428D01*
X80057904Y-66571809D01*
X79962666Y-66524190D01*
X79772190Y-66476571D01*
X79676952Y-66428952D01*
X79629333Y-66381333D01*
X79581714Y-66286095D01*
X79581714Y-66190857D01*
X79629333Y-66095619D01*
X79676952Y-66048000D01*
X79772190Y-66000380D01*
X80010285Y-66000380D01*
X80153142Y-66048000D01*
X81153142Y-66905142D02*
X81105523Y-66952761D01*
X80962666Y-67000380D01*
X80867428Y-67000380D01*
X80724571Y-66952761D01*
X80629333Y-66857523D01*
X80581714Y-66762285D01*
X80534095Y-66571809D01*
X80534095Y-66428952D01*
X80581714Y-66238476D01*
X80629333Y-66143238D01*
X80724571Y-66048000D01*
X80867428Y-66000380D01*
X80962666Y-66000380D01*
X81105523Y-66048000D01*
X81153142Y-66095619D01*
X82153142Y-67000380D02*
X81819809Y-66524190D01*
X81581714Y-67000380D02*
X81581714Y-66000380D01*
X81962666Y-66000380D01*
X82057904Y-66048000D01*
X82105523Y-66095619D01*
X82153142Y-66190857D01*
X82153142Y-66333714D01*
X82105523Y-66428952D01*
X82057904Y-66476571D01*
X81962666Y-66524190D01*
X81581714Y-66524190D01*
X82581714Y-66476571D02*
X82915047Y-66476571D01*
X83057904Y-67000380D02*
X82581714Y-67000380D01*
X82581714Y-66000380D01*
X83057904Y-66000380D01*
X83486476Y-66476571D02*
X83819809Y-66476571D01*
X83962666Y-67000380D02*
X83486476Y-67000380D01*
X83486476Y-66000380D01*
X83962666Y-66000380D01*
X84391238Y-67000380D02*
X84391238Y-66000380D01*
X84962666Y-67000380D01*
X84962666Y-66000380D01*
X74319047Y-86304380D02*
X73985714Y-85828190D01*
X73747619Y-86304380D02*
X73747619Y-85304380D01*
X74128571Y-85304380D01*
X74223809Y-85352000D01*
X74271428Y-85399619D01*
X74319047Y-85494857D01*
X74319047Y-85637714D01*
X74271428Y-85732952D01*
X74223809Y-85780571D01*
X74128571Y-85828190D01*
X73747619Y-85828190D01*
X74747619Y-85780571D02*
X75080952Y-85780571D01*
X75223809Y-86304380D02*
X74747619Y-86304380D01*
X74747619Y-85304380D01*
X75223809Y-85304380D01*
X76128571Y-86304380D02*
X75652380Y-86304380D01*
X75652380Y-85304380D01*
X76414285Y-86018666D02*
X76890476Y-86018666D01*
X76319047Y-86304380D02*
X76652380Y-85304380D01*
X76985714Y-86304380D01*
X77509523Y-85828190D02*
X77509523Y-86304380D01*
X77176190Y-85304380D02*
X77509523Y-85828190D01*
X77842857Y-85304380D01*
X78128571Y-86256761D02*
X78271428Y-86304380D01*
X78509523Y-86304380D01*
X78604761Y-86256761D01*
X78652380Y-86209142D01*
X78700000Y-86113904D01*
X78700000Y-86018666D01*
X78652380Y-85923428D01*
X78604761Y-85875809D01*
X78509523Y-85828190D01*
X78319047Y-85780571D01*
X78223809Y-85732952D01*
X78176190Y-85685333D01*
X78128571Y-85590095D01*
X78128571Y-85494857D01*
X78176190Y-85399619D01*
X78223809Y-85352000D01*
X78319047Y-85304380D01*
X78557142Y-85304380D01*
X78700000Y-85352000D01*
X135945904Y-79192380D02*
X135945904Y-78192380D01*
X136279238Y-78906666D01*
X136612571Y-78192380D01*
X136612571Y-79192380D01*
X137279238Y-78192380D02*
X137469714Y-78192380D01*
X137564952Y-78240000D01*
X137660190Y-78335238D01*
X137707809Y-78525714D01*
X137707809Y-78859047D01*
X137660190Y-79049523D01*
X137564952Y-79144761D01*
X137469714Y-79192380D01*
X137279238Y-79192380D01*
X137184000Y-79144761D01*
X137088761Y-79049523D01*
X137041142Y-78859047D01*
X137041142Y-78525714D01*
X137088761Y-78335238D01*
X137184000Y-78240000D01*
X137279238Y-78192380D01*
X137993523Y-78192380D02*
X138564952Y-78192380D01*
X138279238Y-79192380D02*
X138279238Y-78192380D01*
X139088761Y-78192380D02*
X139279238Y-78192380D01*
X139374476Y-78240000D01*
X139469714Y-78335238D01*
X139517333Y-78525714D01*
X139517333Y-78859047D01*
X139469714Y-79049523D01*
X139374476Y-79144761D01*
X139279238Y-79192380D01*
X139088761Y-79192380D01*
X138993523Y-79144761D01*
X138898285Y-79049523D01*
X138850666Y-78859047D01*
X138850666Y-78525714D01*
X138898285Y-78335238D01*
X138993523Y-78240000D01*
X139088761Y-78192380D01*
X140517333Y-79192380D02*
X140184000Y-78716190D01*
X139945904Y-79192380D02*
X139945904Y-78192380D01*
X140326857Y-78192380D01*
X140422095Y-78240000D01*
X140469714Y-78287619D01*
X140517333Y-78382857D01*
X140517333Y-78525714D01*
X140469714Y-78620952D01*
X140422095Y-78668571D01*
X140326857Y-78716190D01*
X139945904Y-78716190D01*
X141469714Y-79192380D02*
X140898285Y-79192380D01*
X141184000Y-79192380D02*
X141184000Y-78192380D01*
X141088761Y-78335238D01*
X140993523Y-78430476D01*
X140898285Y-78478095D01*
X119832380Y-79489142D02*
X118832380Y-79489142D01*
X119546666Y-79222476D01*
X118832380Y-78955809D01*
X119832380Y-78955809D01*
X119832380Y-78574857D02*
X118832380Y-78574857D01*
X119784761Y-78232000D02*
X119832380Y-78117714D01*
X119832380Y-77927238D01*
X119784761Y-77851047D01*
X119737142Y-77812952D01*
X119641904Y-77774857D01*
X119546666Y-77774857D01*
X119451428Y-77812952D01*
X119403809Y-77851047D01*
X119356190Y-77927238D01*
X119308571Y-78079619D01*
X119260952Y-78155809D01*
X119213333Y-78193904D01*
X119118095Y-78232000D01*
X119022857Y-78232000D01*
X118927619Y-78193904D01*
X118880000Y-78155809D01*
X118832380Y-78079619D01*
X118832380Y-77889142D01*
X118880000Y-77774857D01*
X118832380Y-77279619D02*
X118832380Y-77127238D01*
X118880000Y-77051047D01*
X118975238Y-76974857D01*
X119165714Y-76936761D01*
X119499047Y-76936761D01*
X119689523Y-76974857D01*
X119784761Y-77051047D01*
X119832380Y-77127238D01*
X119832380Y-77279619D01*
X119784761Y-77355809D01*
X119689523Y-77432000D01*
X119499047Y-77470095D01*
X119165714Y-77470095D01*
X118975238Y-77432000D01*
X118880000Y-77355809D01*
X118832380Y-77279619D01*
X122832761Y-79260571D02*
X122880380Y-79146285D01*
X122880380Y-78955809D01*
X122832761Y-78879619D01*
X122785142Y-78841523D01*
X122689904Y-78803428D01*
X122594666Y-78803428D01*
X122499428Y-78841523D01*
X122451809Y-78879619D01*
X122404190Y-78955809D01*
X122356571Y-79108190D01*
X122308952Y-79184380D01*
X122261333Y-79222476D01*
X122166095Y-79260571D01*
X122070857Y-79260571D01*
X121975619Y-79222476D01*
X121928000Y-79184380D01*
X121880380Y-79108190D01*
X121880380Y-78917714D01*
X121928000Y-78803428D01*
X122785142Y-78003428D02*
X122832761Y-78041523D01*
X122880380Y-78155809D01*
X122880380Y-78232000D01*
X122832761Y-78346285D01*
X122737523Y-78422476D01*
X122642285Y-78460571D01*
X122451809Y-78498666D01*
X122308952Y-78498666D01*
X122118476Y-78460571D01*
X122023238Y-78422476D01*
X121928000Y-78346285D01*
X121880380Y-78232000D01*
X121880380Y-78155809D01*
X121928000Y-78041523D01*
X121975619Y-78003428D01*
X122880380Y-77660571D02*
X121880380Y-77660571D01*
X122880380Y-77203428D02*
X122308952Y-77546285D01*
X121880380Y-77203428D02*
X122451809Y-77660571D01*
X117705142Y-78365333D02*
X117752761Y-78403428D01*
X117800380Y-78517714D01*
X117800380Y-78593904D01*
X117752761Y-78708190D01*
X117657523Y-78784380D01*
X117562285Y-78822476D01*
X117371809Y-78860571D01*
X117228952Y-78860571D01*
X117038476Y-78822476D01*
X116943238Y-78784380D01*
X116848000Y-78708190D01*
X116800380Y-78593904D01*
X116800380Y-78517714D01*
X116848000Y-78403428D01*
X116895619Y-78365333D01*
X117752761Y-78060571D02*
X117800380Y-77946285D01*
X117800380Y-77755809D01*
X117752761Y-77679619D01*
X117705142Y-77641523D01*
X117609904Y-77603428D01*
X117514666Y-77603428D01*
X117419428Y-77641523D01*
X117371809Y-77679619D01*
X117324190Y-77755809D01*
X117276571Y-77908190D01*
X117228952Y-77984380D01*
X117181333Y-78022476D01*
X117086095Y-78060571D01*
X116990857Y-78060571D01*
X116895619Y-78022476D01*
X116848000Y-77984380D01*
X116800380Y-77908190D01*
X116800380Y-77717714D01*
X116848000Y-77603428D01*
X124420380Y-79222476D02*
X124420380Y-78727238D01*
X124801333Y-78993904D01*
X124801333Y-78879619D01*
X124848952Y-78803428D01*
X124896571Y-78765333D01*
X124991809Y-78727238D01*
X125229904Y-78727238D01*
X125325142Y-78765333D01*
X125372761Y-78803428D01*
X125420380Y-78879619D01*
X125420380Y-79108190D01*
X125372761Y-79184380D01*
X125325142Y-79222476D01*
X124420380Y-78498666D02*
X125420380Y-78232000D01*
X124420380Y-77965333D01*
X124420380Y-77774857D02*
X124420380Y-77279619D01*
X124801333Y-77546285D01*
X124801333Y-77432000D01*
X124848952Y-77355809D01*
X124896571Y-77317714D01*
X124991809Y-77279619D01*
X125229904Y-77279619D01*
X125325142Y-77317714D01*
X125372761Y-77355809D01*
X125420380Y-77432000D01*
X125420380Y-77660571D01*
X125372761Y-77736761D01*
X125325142Y-77774857D01*
X126500000Y-78841523D02*
X126452380Y-78917714D01*
X126452380Y-79032000D01*
X126500000Y-79146285D01*
X126595238Y-79222476D01*
X126690476Y-79260571D01*
X126880952Y-79298666D01*
X127023809Y-79298666D01*
X127214285Y-79260571D01*
X127309523Y-79222476D01*
X127404761Y-79146285D01*
X127452380Y-79032000D01*
X127452380Y-78955809D01*
X127404761Y-78841523D01*
X127357142Y-78803428D01*
X127023809Y-78803428D01*
X127023809Y-78955809D01*
X127452380Y-78460571D02*
X126452380Y-78460571D01*
X127452380Y-78003428D01*
X126452380Y-78003428D01*
X127452380Y-77622476D02*
X126452380Y-77622476D01*
X126452380Y-77432000D01*
X126500000Y-77317714D01*
X126595238Y-77241523D01*
X126690476Y-77203428D01*
X126880952Y-77165333D01*
X127023809Y-77165333D01*
X127214285Y-77203428D01*
X127309523Y-77241523D01*
X127404761Y-77317714D01*
X127452380Y-77432000D01*
X127452380Y-77622476D01*
X156725904Y-78240000D02*
X156630666Y-78192380D01*
X156487809Y-78192380D01*
X156344952Y-78240000D01*
X156249714Y-78335238D01*
X156202095Y-78430476D01*
X156154476Y-78620952D01*
X156154476Y-78763809D01*
X156202095Y-78954285D01*
X156249714Y-79049523D01*
X156344952Y-79144761D01*
X156487809Y-79192380D01*
X156583047Y-79192380D01*
X156725904Y-79144761D01*
X156773523Y-79097142D01*
X156773523Y-78763809D01*
X156583047Y-78763809D01*
X153709714Y-78668571D02*
X154043047Y-78668571D01*
X154185904Y-79192380D02*
X153709714Y-79192380D01*
X153709714Y-78192380D01*
X154185904Y-78192380D01*
X151098285Y-78192380D02*
X151669714Y-78192380D01*
X151384000Y-79192380D02*
X151384000Y-78192380D01*
X149082095Y-78192380D02*
X148605904Y-78192380D01*
X148558285Y-78668571D01*
X148605904Y-78620952D01*
X148701142Y-78573333D01*
X148939238Y-78573333D01*
X149034476Y-78620952D01*
X149082095Y-78668571D01*
X149129714Y-78763809D01*
X149129714Y-79001904D01*
X149082095Y-79097142D01*
X149034476Y-79144761D01*
X148939238Y-79192380D01*
X148701142Y-79192380D01*
X148605904Y-79144761D01*
X148558285Y-79097142D01*
X148510666Y-21804380D02*
X149129714Y-21804380D01*
X148796380Y-22185333D01*
X148939238Y-22185333D01*
X149034476Y-22232952D01*
X149082095Y-22280571D01*
X149129714Y-22375809D01*
X149129714Y-22613904D01*
X149082095Y-22709142D01*
X149034476Y-22756761D01*
X148939238Y-22804380D01*
X148653523Y-22804380D01*
X148558285Y-22756761D01*
X148510666Y-22709142D01*
X151693523Y-22709142D02*
X151645904Y-22756761D01*
X151503047Y-22804380D01*
X151407809Y-22804380D01*
X151264952Y-22756761D01*
X151169714Y-22661523D01*
X151122095Y-22566285D01*
X151074476Y-22375809D01*
X151074476Y-22232952D01*
X151122095Y-22042476D01*
X151169714Y-21947238D01*
X151264952Y-21852000D01*
X151407809Y-21804380D01*
X151503047Y-21804380D01*
X151645904Y-21852000D01*
X151693523Y-21899619D01*
X153662095Y-22804380D02*
X153662095Y-21804380D01*
X153900190Y-21804380D01*
X154043047Y-21852000D01*
X154138285Y-21947238D01*
X154185904Y-22042476D01*
X154233523Y-22232952D01*
X154233523Y-22375809D01*
X154185904Y-22566285D01*
X154138285Y-22661523D01*
X154043047Y-22756761D01*
X153900190Y-22804380D01*
X153662095Y-22804380D01*
X156725904Y-21852000D02*
X156630666Y-21804380D01*
X156487809Y-21804380D01*
X156344952Y-21852000D01*
X156249714Y-21947238D01*
X156202095Y-22042476D01*
X156154476Y-22232952D01*
X156154476Y-22375809D01*
X156202095Y-22566285D01*
X156249714Y-22661523D01*
X156344952Y-22756761D01*
X156487809Y-22804380D01*
X156583047Y-22804380D01*
X156725904Y-22756761D01*
X156773523Y-22709142D01*
X156773523Y-22375809D01*
X156583047Y-22375809D01*
X89924000Y-33705714D02*
X89876380Y-33791428D01*
X89876380Y-33920000D01*
X89924000Y-34048571D01*
X90019238Y-34134285D01*
X90114476Y-34177142D01*
X90304952Y-34220000D01*
X90447809Y-34220000D01*
X90638285Y-34177142D01*
X90733523Y-34134285D01*
X90828761Y-34048571D01*
X90876380Y-33920000D01*
X90876380Y-33834285D01*
X90828761Y-33705714D01*
X90781142Y-33662857D01*
X90447809Y-33662857D01*
X90447809Y-33834285D01*
X90876380Y-33277142D02*
X89876380Y-33277142D01*
X90876380Y-32762857D01*
X89876380Y-32762857D01*
X90876380Y-32334285D02*
X89876380Y-32334285D01*
X89876380Y-32120000D01*
X89924000Y-31991428D01*
X90019238Y-31905714D01*
X90114476Y-31862857D01*
X90304952Y-31820000D01*
X90447809Y-31820000D01*
X90638285Y-31862857D01*
X90733523Y-31905714D01*
X90828761Y-31991428D01*
X90876380Y-32120000D01*
X90876380Y-32334285D01*
X93416380Y-33491428D02*
X92416380Y-33491428D01*
X93368761Y-33491428D02*
X93416380Y-33577142D01*
X93416380Y-33748571D01*
X93368761Y-33834285D01*
X93321142Y-33877142D01*
X93225904Y-33920000D01*
X92940190Y-33920000D01*
X92844952Y-33877142D01*
X92797333Y-33834285D01*
X92749714Y-33748571D01*
X92749714Y-33577142D01*
X92797333Y-33491428D01*
X93416380Y-32677142D02*
X92892571Y-32677142D01*
X92797333Y-32720000D01*
X92749714Y-32805714D01*
X92749714Y-32977142D01*
X92797333Y-33062857D01*
X93368761Y-32677142D02*
X93416380Y-32762857D01*
X93416380Y-32977142D01*
X93368761Y-33062857D01*
X93273523Y-33105714D01*
X93178285Y-33105714D01*
X93083047Y-33062857D01*
X93035428Y-32977142D01*
X93035428Y-32762857D01*
X92987809Y-32677142D01*
X92749714Y-32377142D02*
X92749714Y-32034285D01*
X92416380Y-32248571D02*
X93273523Y-32248571D01*
X93368761Y-32205714D01*
X93416380Y-32120000D01*
X93416380Y-32034285D01*
X95908761Y-33405714D02*
X95956380Y-33491428D01*
X95956380Y-33662857D01*
X95908761Y-33748571D01*
X95861142Y-33791428D01*
X95765904Y-33834285D01*
X95480190Y-33834285D01*
X95384952Y-33791428D01*
X95337333Y-33748571D01*
X95289714Y-33662857D01*
X95289714Y-33491428D01*
X95337333Y-33405714D01*
X95956380Y-32891428D02*
X95908761Y-32977142D01*
X95813523Y-33020000D01*
X94956380Y-33020000D01*
X95956380Y-32548571D02*
X94956380Y-32548571D01*
X95575428Y-32462857D02*
X95956380Y-32205714D01*
X95289714Y-32205714D02*
X95670666Y-32548571D01*
X97496380Y-34134285D02*
X97496380Y-33577142D01*
X97877333Y-33877142D01*
X97877333Y-33748571D01*
X97924952Y-33662857D01*
X97972571Y-33620000D01*
X98067809Y-33577142D01*
X98305904Y-33577142D01*
X98401142Y-33620000D01*
X98448761Y-33662857D01*
X98496380Y-33748571D01*
X98496380Y-34005714D01*
X98448761Y-34091428D01*
X98401142Y-34134285D01*
X97496380Y-33320000D02*
X98496380Y-33020000D01*
X97496380Y-32720000D01*
X97496380Y-32505714D02*
X97496380Y-31948571D01*
X97877333Y-32248571D01*
X97877333Y-32120000D01*
X97924952Y-32034285D01*
X97972571Y-31991428D01*
X98067809Y-31948571D01*
X98305904Y-31948571D01*
X98401142Y-31991428D01*
X98448761Y-32034285D01*
X98496380Y-32120000D01*
X98496380Y-32377142D01*
X98448761Y-32462857D01*
X98401142Y-32505714D01*
X109481904Y-83320000D02*
X109386666Y-83272380D01*
X109243809Y-83272380D01*
X109100952Y-83320000D01*
X109005714Y-83415238D01*
X108958095Y-83510476D01*
X108910476Y-83700952D01*
X108910476Y-83843809D01*
X108958095Y-84034285D01*
X109005714Y-84129523D01*
X109100952Y-84224761D01*
X109243809Y-84272380D01*
X109339047Y-84272380D01*
X109481904Y-84224761D01*
X109529523Y-84177142D01*
X109529523Y-83843809D01*
X109339047Y-83843809D01*
X78041523Y-83272380D02*
X77565333Y-83272380D01*
X77517714Y-83748571D01*
X77565333Y-83700952D01*
X77660571Y-83653333D01*
X77898666Y-83653333D01*
X77993904Y-83700952D01*
X78041523Y-83748571D01*
X78089142Y-83843809D01*
X78089142Y-84081904D01*
X78041523Y-84177142D01*
X77993904Y-84224761D01*
X77898666Y-84272380D01*
X77660571Y-84272380D01*
X77565333Y-84224761D01*
X77517714Y-84177142D01*
X78374857Y-83272380D02*
X78708190Y-84272380D01*
X79041523Y-83272380D01*
X78192380Y-45310285D02*
X78192380Y-44753142D01*
X78573333Y-45053142D01*
X78573333Y-44924571D01*
X78620952Y-44838857D01*
X78668571Y-44796000D01*
X78763809Y-44753142D01*
X79001904Y-44753142D01*
X79097142Y-44796000D01*
X79144761Y-44838857D01*
X79192380Y-44924571D01*
X79192380Y-45181714D01*
X79144761Y-45267428D01*
X79097142Y-45310285D01*
X78192380Y-44496000D02*
X79192380Y-44196000D01*
X78192380Y-43896000D01*
X78192380Y-43681714D02*
X78192380Y-43124571D01*
X78573333Y-43424571D01*
X78573333Y-43296000D01*
X78620952Y-43210285D01*
X78668571Y-43167428D01*
X78763809Y-43124571D01*
X79001904Y-43124571D01*
X79097142Y-43167428D01*
X79144761Y-43210285D01*
X79192380Y-43296000D01*
X79192380Y-43553142D01*
X79144761Y-43638857D01*
X79097142Y-43681714D01*
X81732380Y-44924571D02*
X80732380Y-44924571D01*
X81446666Y-44624571D01*
X80732380Y-44324571D01*
X81732380Y-44324571D01*
X80732380Y-43724571D02*
X80732380Y-43638857D01*
X80780000Y-43553142D01*
X80827619Y-43510285D01*
X80922857Y-43467428D01*
X81113333Y-43424571D01*
X81351428Y-43424571D01*
X81541904Y-43467428D01*
X81637142Y-43510285D01*
X81684761Y-43553142D01*
X81732380Y-43638857D01*
X81732380Y-43724571D01*
X81684761Y-43810285D01*
X81637142Y-43853142D01*
X81541904Y-43896000D01*
X81351428Y-43938857D01*
X81113333Y-43938857D01*
X80922857Y-43896000D01*
X80827619Y-43853142D01*
X80780000Y-43810285D01*
X80732380Y-43724571D01*
X84272380Y-44924571D02*
X83272380Y-44924571D01*
X83986666Y-44624571D01*
X83272380Y-44324571D01*
X84272380Y-44324571D01*
X84272380Y-43424571D02*
X84272380Y-43938857D01*
X84272380Y-43681714D02*
X83272380Y-43681714D01*
X83415238Y-43767428D01*
X83510476Y-43853142D01*
X83558095Y-43938857D01*
X91844761Y-45267428D02*
X91892380Y-45138857D01*
X91892380Y-44924571D01*
X91844761Y-44838857D01*
X91797142Y-44796000D01*
X91701904Y-44753142D01*
X91606666Y-44753142D01*
X91511428Y-44796000D01*
X91463809Y-44838857D01*
X91416190Y-44924571D01*
X91368571Y-45096000D01*
X91320952Y-45181714D01*
X91273333Y-45224571D01*
X91178095Y-45267428D01*
X91082857Y-45267428D01*
X90987619Y-45224571D01*
X90940000Y-45181714D01*
X90892380Y-45096000D01*
X90892380Y-44881714D01*
X90940000Y-44753142D01*
X91797142Y-43853142D02*
X91844761Y-43896000D01*
X91892380Y-44024571D01*
X91892380Y-44110285D01*
X91844761Y-44238857D01*
X91749523Y-44324571D01*
X91654285Y-44367428D01*
X91463809Y-44410285D01*
X91320952Y-44410285D01*
X91130476Y-44367428D01*
X91035238Y-44324571D01*
X90940000Y-44238857D01*
X90892380Y-44110285D01*
X90892380Y-44024571D01*
X90940000Y-43896000D01*
X90987619Y-43853142D01*
X91892380Y-43038857D02*
X91892380Y-43467428D01*
X90892380Y-43467428D01*
X94384761Y-45288857D02*
X94432380Y-45160285D01*
X94432380Y-44946000D01*
X94384761Y-44860285D01*
X94337142Y-44817428D01*
X94241904Y-44774571D01*
X94146666Y-44774571D01*
X94051428Y-44817428D01*
X94003809Y-44860285D01*
X93956190Y-44946000D01*
X93908571Y-45117428D01*
X93860952Y-45203142D01*
X93813333Y-45246000D01*
X93718095Y-45288857D01*
X93622857Y-45288857D01*
X93527619Y-45246000D01*
X93480000Y-45203142D01*
X93432380Y-45117428D01*
X93432380Y-44903142D01*
X93480000Y-44774571D01*
X94432380Y-44388857D02*
X93432380Y-44388857D01*
X93432380Y-44174571D01*
X93480000Y-44046000D01*
X93575238Y-43960285D01*
X93670476Y-43917428D01*
X93860952Y-43874571D01*
X94003809Y-43874571D01*
X94194285Y-43917428D01*
X94289523Y-43960285D01*
X94384761Y-44046000D01*
X94432380Y-44174571D01*
X94432380Y-44388857D01*
X94146666Y-43531714D02*
X94146666Y-43103142D01*
X94432380Y-43617428D02*
X93432380Y-43317428D01*
X94432380Y-43017428D01*
X101528571Y-45325428D02*
X101528571Y-45025428D01*
X102052380Y-44896857D02*
X102052380Y-45325428D01*
X101052380Y-45325428D01*
X101052380Y-44896857D01*
X101052380Y-44339714D02*
X101052380Y-44254000D01*
X101100000Y-44168285D01*
X101147619Y-44125428D01*
X101242857Y-44082571D01*
X101433333Y-44039714D01*
X101671428Y-44039714D01*
X101861904Y-44082571D01*
X101957142Y-44125428D01*
X102004761Y-44168285D01*
X102052380Y-44254000D01*
X102052380Y-44339714D01*
X102004761Y-44425428D01*
X101957142Y-44468285D01*
X101861904Y-44511142D01*
X101671428Y-44554000D01*
X101433333Y-44554000D01*
X101242857Y-44511142D01*
X101147619Y-44468285D01*
X101100000Y-44425428D01*
X101052380Y-44339714D01*
X103592380Y-45389714D02*
X103592380Y-44875428D01*
X104592380Y-45132571D02*
X103592380Y-45132571D01*
X103592380Y-44404000D02*
X103592380Y-44318285D01*
X103640000Y-44232571D01*
X103687619Y-44189714D01*
X103782857Y-44146857D01*
X103973333Y-44104000D01*
X104211428Y-44104000D01*
X104401904Y-44146857D01*
X104497142Y-44189714D01*
X104544761Y-44232571D01*
X104592380Y-44318285D01*
X104592380Y-44404000D01*
X104544761Y-44489714D01*
X104497142Y-44532571D01*
X104401904Y-44575428D01*
X104211428Y-44618285D01*
X103973333Y-44618285D01*
X103782857Y-44575428D01*
X103687619Y-44532571D01*
X103640000Y-44489714D01*
X103592380Y-44404000D01*
X107084761Y-45353142D02*
X107132380Y-45224571D01*
X107132380Y-45010285D01*
X107084761Y-44924571D01*
X107037142Y-44881714D01*
X106941904Y-44838857D01*
X106846666Y-44838857D01*
X106751428Y-44881714D01*
X106703809Y-44924571D01*
X106656190Y-45010285D01*
X106608571Y-45181714D01*
X106560952Y-45267428D01*
X106513333Y-45310285D01*
X106418095Y-45353142D01*
X106322857Y-45353142D01*
X106227619Y-45310285D01*
X106180000Y-45267428D01*
X106132380Y-45181714D01*
X106132380Y-44967428D01*
X106180000Y-44838857D01*
X107037142Y-43938857D02*
X107084761Y-43981714D01*
X107132380Y-44110285D01*
X107132380Y-44196000D01*
X107084761Y-44324571D01*
X106989523Y-44410285D01*
X106894285Y-44453142D01*
X106703809Y-44496000D01*
X106560952Y-44496000D01*
X106370476Y-44453142D01*
X106275238Y-44410285D01*
X106180000Y-44324571D01*
X106132380Y-44196000D01*
X106132380Y-44110285D01*
X106180000Y-43981714D01*
X106227619Y-43938857D01*
X107132380Y-43553142D02*
X106132380Y-43553142D01*
X107132380Y-43038857D02*
X106560952Y-43424571D01*
X106132380Y-43038857D02*
X106703809Y-43553142D01*
X108720000Y-44442095D02*
X108672380Y-44537333D01*
X108672380Y-44680190D01*
X108720000Y-44823047D01*
X108815238Y-44918285D01*
X108910476Y-44965904D01*
X109100952Y-45013523D01*
X109243809Y-45013523D01*
X109434285Y-44965904D01*
X109529523Y-44918285D01*
X109624761Y-44823047D01*
X109672380Y-44680190D01*
X109672380Y-44584952D01*
X109624761Y-44442095D01*
X109577142Y-44394476D01*
X109243809Y-44394476D01*
X109243809Y-44584952D01*
X111688571Y-45394476D02*
X111688571Y-45061142D01*
X112212380Y-44918285D02*
X112212380Y-45394476D01*
X111212380Y-45394476D01*
X111212380Y-44918285D01*
X112212380Y-43965904D02*
X112212380Y-44537333D01*
X112212380Y-44251619D02*
X111212380Y-44251619D01*
X111355238Y-44346857D01*
X111450476Y-44442095D01*
X111498095Y-44537333D01*
X113752380Y-45465904D02*
X113752380Y-44894476D01*
X114752380Y-45180190D02*
X113752380Y-45180190D01*
X114752380Y-44037333D02*
X114752380Y-44608761D01*
X114752380Y-44323047D02*
X113752380Y-44323047D01*
X113895238Y-44418285D01*
X113990476Y-44513523D01*
X114038095Y-44608761D01*
X121848571Y-45402285D02*
X121848571Y-45068952D01*
X122372380Y-44926095D02*
X122372380Y-45402285D01*
X121372380Y-45402285D01*
X121372380Y-44926095D01*
X122277142Y-43926095D02*
X122324761Y-43973714D01*
X122372380Y-44116571D01*
X122372380Y-44211809D01*
X122324761Y-44354666D01*
X122229523Y-44449904D01*
X122134285Y-44497523D01*
X121943809Y-44545142D01*
X121800952Y-44545142D01*
X121610476Y-44497523D01*
X121515238Y-44449904D01*
X121420000Y-44354666D01*
X121372380Y-44211809D01*
X121372380Y-44116571D01*
X121420000Y-43973714D01*
X121467619Y-43926095D01*
X121372380Y-43307047D02*
X121372380Y-43116571D01*
X121420000Y-43021333D01*
X121515238Y-42926095D01*
X121705714Y-42878476D01*
X122039047Y-42878476D01*
X122229523Y-42926095D01*
X122324761Y-43021333D01*
X122372380Y-43116571D01*
X122372380Y-43307047D01*
X122324761Y-43402285D01*
X122229523Y-43497523D01*
X122039047Y-43545142D01*
X121705714Y-43545142D01*
X121515238Y-43497523D01*
X121420000Y-43402285D01*
X121372380Y-43307047D01*
X121467619Y-42497523D02*
X121420000Y-42449904D01*
X121372380Y-42354666D01*
X121372380Y-42116571D01*
X121420000Y-42021333D01*
X121467619Y-41973714D01*
X121562857Y-41926095D01*
X121658095Y-41926095D01*
X121800952Y-41973714D01*
X122372380Y-42545142D01*
X122372380Y-41926095D01*
X123912380Y-45449904D02*
X123912380Y-44878476D01*
X124912380Y-45164190D02*
X123912380Y-45164190D01*
X124912380Y-43973714D02*
X124436190Y-44307047D01*
X124912380Y-44545142D02*
X123912380Y-44545142D01*
X123912380Y-44164190D01*
X123960000Y-44068952D01*
X124007619Y-44021333D01*
X124102857Y-43973714D01*
X124245714Y-43973714D01*
X124340952Y-44021333D01*
X124388571Y-44068952D01*
X124436190Y-44164190D01*
X124436190Y-44545142D01*
X123960000Y-43021333D02*
X123912380Y-43116571D01*
X123912380Y-43259428D01*
X123960000Y-43402285D01*
X124055238Y-43497523D01*
X124150476Y-43545142D01*
X124340952Y-43592761D01*
X124483809Y-43592761D01*
X124674285Y-43545142D01*
X124769523Y-43497523D01*
X124864761Y-43402285D01*
X124912380Y-43259428D01*
X124912380Y-43164190D01*
X124864761Y-43021333D01*
X124817142Y-42973714D01*
X124483809Y-42973714D01*
X124483809Y-43164190D01*
X124007619Y-42592761D02*
X123960000Y-42545142D01*
X123912380Y-42449904D01*
X123912380Y-42211809D01*
X123960000Y-42116571D01*
X124007619Y-42068952D01*
X124102857Y-42021333D01*
X124198095Y-42021333D01*
X124340952Y-42068952D01*
X124912380Y-42640380D01*
X124912380Y-42021333D01*
X126928571Y-45402285D02*
X126928571Y-45068952D01*
X127452380Y-44926095D02*
X127452380Y-45402285D01*
X126452380Y-45402285D01*
X126452380Y-44926095D01*
X127357142Y-43926095D02*
X127404761Y-43973714D01*
X127452380Y-44116571D01*
X127452380Y-44211809D01*
X127404761Y-44354666D01*
X127309523Y-44449904D01*
X127214285Y-44497523D01*
X127023809Y-44545142D01*
X126880952Y-44545142D01*
X126690476Y-44497523D01*
X126595238Y-44449904D01*
X126500000Y-44354666D01*
X126452380Y-44211809D01*
X126452380Y-44116571D01*
X126500000Y-43973714D01*
X126547619Y-43926095D01*
X126452380Y-43307047D02*
X126452380Y-43116571D01*
X126500000Y-43021333D01*
X126595238Y-42926095D01*
X126785714Y-42878476D01*
X127119047Y-42878476D01*
X127309523Y-42926095D01*
X127404761Y-43021333D01*
X127452380Y-43116571D01*
X127452380Y-43307047D01*
X127404761Y-43402285D01*
X127309523Y-43497523D01*
X127119047Y-43545142D01*
X126785714Y-43545142D01*
X126595238Y-43497523D01*
X126500000Y-43402285D01*
X126452380Y-43307047D01*
X126452380Y-42545142D02*
X126452380Y-41926095D01*
X126833333Y-42259428D01*
X126833333Y-42116571D01*
X126880952Y-42021333D01*
X126928571Y-41973714D01*
X127023809Y-41926095D01*
X127261904Y-41926095D01*
X127357142Y-41973714D01*
X127404761Y-42021333D01*
X127452380Y-42116571D01*
X127452380Y-42402285D01*
X127404761Y-42497523D01*
X127357142Y-42545142D01*
X128992380Y-45449904D02*
X128992380Y-44878476D01*
X129992380Y-45164190D02*
X128992380Y-45164190D01*
X129992380Y-43973714D02*
X129516190Y-44307047D01*
X129992380Y-44545142D02*
X128992380Y-44545142D01*
X128992380Y-44164190D01*
X129040000Y-44068952D01*
X129087619Y-44021333D01*
X129182857Y-43973714D01*
X129325714Y-43973714D01*
X129420952Y-44021333D01*
X129468571Y-44068952D01*
X129516190Y-44164190D01*
X129516190Y-44545142D01*
X129040000Y-43021333D02*
X128992380Y-43116571D01*
X128992380Y-43259428D01*
X129040000Y-43402285D01*
X129135238Y-43497523D01*
X129230476Y-43545142D01*
X129420952Y-43592761D01*
X129563809Y-43592761D01*
X129754285Y-43545142D01*
X129849523Y-43497523D01*
X129944761Y-43402285D01*
X129992380Y-43259428D01*
X129992380Y-43164190D01*
X129944761Y-43021333D01*
X129897142Y-42973714D01*
X129563809Y-42973714D01*
X129563809Y-43164190D01*
X128992380Y-42640380D02*
X128992380Y-42021333D01*
X129373333Y-42354666D01*
X129373333Y-42211809D01*
X129420952Y-42116571D01*
X129468571Y-42068952D01*
X129563809Y-42021333D01*
X129801904Y-42021333D01*
X129897142Y-42068952D01*
X129944761Y-42116571D01*
X129992380Y-42211809D01*
X129992380Y-42497523D01*
X129944761Y-42592761D01*
X129897142Y-42640380D01*
X129992380Y-67246285D02*
X128992380Y-67246285D01*
X129706666Y-66912952D01*
X128992380Y-66579619D01*
X129992380Y-66579619D01*
X128992380Y-65912952D02*
X128992380Y-65722476D01*
X129040000Y-65627238D01*
X129135238Y-65532000D01*
X129325714Y-65484380D01*
X129659047Y-65484380D01*
X129849523Y-65532000D01*
X129944761Y-65627238D01*
X129992380Y-65722476D01*
X129992380Y-65912952D01*
X129944761Y-66008190D01*
X129849523Y-66103428D01*
X129659047Y-66151047D01*
X129325714Y-66151047D01*
X129135238Y-66103428D01*
X129040000Y-66008190D01*
X128992380Y-65912952D01*
X128992380Y-65198666D02*
X128992380Y-64627238D01*
X129992380Y-64912952D02*
X128992380Y-64912952D01*
X129992380Y-63770095D02*
X129992380Y-64341523D01*
X129992380Y-64055809D02*
X128992380Y-64055809D01*
X129135238Y-64151047D01*
X129230476Y-64246285D01*
X129278095Y-64341523D01*
X127452380Y-67246285D02*
X126452380Y-67246285D01*
X127166666Y-66912952D01*
X126452380Y-66579619D01*
X127452380Y-66579619D01*
X126452380Y-65912952D02*
X126452380Y-65722476D01*
X126500000Y-65627238D01*
X126595238Y-65532000D01*
X126785714Y-65484380D01*
X127119047Y-65484380D01*
X127309523Y-65532000D01*
X127404761Y-65627238D01*
X127452380Y-65722476D01*
X127452380Y-65912952D01*
X127404761Y-66008190D01*
X127309523Y-66103428D01*
X127119047Y-66151047D01*
X126785714Y-66151047D01*
X126595238Y-66103428D01*
X126500000Y-66008190D01*
X126452380Y-65912952D01*
X126452380Y-65198666D02*
X126452380Y-64627238D01*
X127452380Y-64912952D02*
X126452380Y-64912952D01*
X126452380Y-64103428D02*
X126452380Y-64008190D01*
X126500000Y-63912952D01*
X126547619Y-63865333D01*
X126642857Y-63817714D01*
X126833333Y-63770095D01*
X127071428Y-63770095D01*
X127261904Y-63817714D01*
X127357142Y-63865333D01*
X127404761Y-63912952D01*
X127452380Y-64008190D01*
X127452380Y-64103428D01*
X127404761Y-64198666D01*
X127357142Y-64246285D01*
X127261904Y-64293904D01*
X127071428Y-64341523D01*
X126833333Y-64341523D01*
X126642857Y-64293904D01*
X126547619Y-64246285D01*
X126500000Y-64198666D01*
X126452380Y-64103428D01*
X123912380Y-67174857D02*
X123912380Y-66603428D01*
X124912380Y-66889142D02*
X123912380Y-66889142D01*
X125007619Y-66508190D02*
X125007619Y-65746285D01*
X124817142Y-64936761D02*
X124864761Y-64984380D01*
X124912380Y-65127238D01*
X124912380Y-65222476D01*
X124864761Y-65365333D01*
X124769523Y-65460571D01*
X124674285Y-65508190D01*
X124483809Y-65555809D01*
X124340952Y-65555809D01*
X124150476Y-65508190D01*
X124055238Y-65460571D01*
X123960000Y-65365333D01*
X123912380Y-65222476D01*
X123912380Y-65127238D01*
X123960000Y-64984380D01*
X124007619Y-64936761D01*
X124864761Y-64555809D02*
X124912380Y-64412952D01*
X124912380Y-64174857D01*
X124864761Y-64079619D01*
X124817142Y-64032000D01*
X124721904Y-63984380D01*
X124626666Y-63984380D01*
X124531428Y-64032000D01*
X124483809Y-64079619D01*
X124436190Y-64174857D01*
X124388571Y-64365333D01*
X124340952Y-64460571D01*
X124293333Y-64508190D01*
X124198095Y-64555809D01*
X124102857Y-64555809D01*
X124007619Y-64508190D01*
X123960000Y-64460571D01*
X123912380Y-64365333D01*
X123912380Y-64127238D01*
X123960000Y-63984380D01*
X121372380Y-67079619D02*
X121372380Y-66508190D01*
X122372380Y-66793904D02*
X121372380Y-66793904D01*
X122372380Y-66174857D02*
X121372380Y-66174857D01*
X122372380Y-65127238D02*
X121896190Y-65460571D01*
X122372380Y-65698666D02*
X121372380Y-65698666D01*
X121372380Y-65317714D01*
X121420000Y-65222476D01*
X121467619Y-65174857D01*
X121562857Y-65127238D01*
X121705714Y-65127238D01*
X121800952Y-65174857D01*
X121848571Y-65222476D01*
X121896190Y-65317714D01*
X121896190Y-65698666D01*
X122467619Y-64032000D02*
X122420000Y-64127238D01*
X122324761Y-64222476D01*
X122181904Y-64365333D01*
X122134285Y-64460571D01*
X122134285Y-64555809D01*
X122372380Y-64508190D02*
X122324761Y-64603428D01*
X122229523Y-64698666D01*
X122039047Y-64746285D01*
X121705714Y-64746285D01*
X121515238Y-64698666D01*
X121420000Y-64603428D01*
X121372380Y-64508190D01*
X121372380Y-64317714D01*
X121420000Y-64222476D01*
X121515238Y-64127238D01*
X121705714Y-64079619D01*
X122039047Y-64079619D01*
X122229523Y-64127238D01*
X122324761Y-64222476D01*
X122372380Y-64317714D01*
X122372380Y-64508190D01*
X119546666Y-67151047D02*
X119546666Y-66674857D01*
X119832380Y-67246285D02*
X118832380Y-66912952D01*
X119832380Y-66579619D01*
X119832380Y-65770095D02*
X119832380Y-66246285D01*
X118832380Y-66246285D01*
X118880000Y-64912952D02*
X118832380Y-65008190D01*
X118832380Y-65151047D01*
X118880000Y-65293904D01*
X118975238Y-65389142D01*
X119070476Y-65436761D01*
X119260952Y-65484380D01*
X119403809Y-65484380D01*
X119594285Y-65436761D01*
X119689523Y-65389142D01*
X119784761Y-65293904D01*
X119832380Y-65151047D01*
X119832380Y-65055809D01*
X119784761Y-64912952D01*
X119737142Y-64865333D01*
X119403809Y-64865333D01*
X119403809Y-65055809D01*
X118832380Y-64532000D02*
X118832380Y-63912952D01*
X119213333Y-64246285D01*
X119213333Y-64103428D01*
X119260952Y-64008190D01*
X119308571Y-63960571D01*
X119403809Y-63912952D01*
X119641904Y-63912952D01*
X119737142Y-63960571D01*
X119784761Y-64008190D01*
X119832380Y-64103428D01*
X119832380Y-64389142D01*
X119784761Y-64484380D01*
X119737142Y-64532000D01*
X117006666Y-67151047D02*
X117006666Y-66674857D01*
X117292380Y-67246285D02*
X116292380Y-66912952D01*
X117292380Y-66579619D01*
X117292380Y-65770095D02*
X117292380Y-66246285D01*
X116292380Y-66246285D01*
X116340000Y-64912952D02*
X116292380Y-65008190D01*
X116292380Y-65151047D01*
X116340000Y-65293904D01*
X116435238Y-65389142D01*
X116530476Y-65436761D01*
X116720952Y-65484380D01*
X116863809Y-65484380D01*
X117054285Y-65436761D01*
X117149523Y-65389142D01*
X117244761Y-65293904D01*
X117292380Y-65151047D01*
X117292380Y-65055809D01*
X117244761Y-64912952D01*
X117197142Y-64865333D01*
X116863809Y-64865333D01*
X116863809Y-65055809D01*
X116387619Y-64484380D02*
X116340000Y-64436761D01*
X116292380Y-64341523D01*
X116292380Y-64103428D01*
X116340000Y-64008190D01*
X116387619Y-63960571D01*
X116482857Y-63912952D01*
X116578095Y-63912952D01*
X116720952Y-63960571D01*
X117292380Y-64532000D01*
X117292380Y-63912952D01*
X114466666Y-67151047D02*
X114466666Y-66674857D01*
X114752380Y-67246285D02*
X113752380Y-66912952D01*
X114752380Y-66579619D01*
X114752380Y-65770095D02*
X114752380Y-66246285D01*
X113752380Y-66246285D01*
X113800000Y-64912952D02*
X113752380Y-65008190D01*
X113752380Y-65151047D01*
X113800000Y-65293904D01*
X113895238Y-65389142D01*
X113990476Y-65436761D01*
X114180952Y-65484380D01*
X114323809Y-65484380D01*
X114514285Y-65436761D01*
X114609523Y-65389142D01*
X114704761Y-65293904D01*
X114752380Y-65151047D01*
X114752380Y-65055809D01*
X114704761Y-64912952D01*
X114657142Y-64865333D01*
X114323809Y-64865333D01*
X114323809Y-65055809D01*
X114752380Y-63912952D02*
X114752380Y-64484380D01*
X114752380Y-64198666D02*
X113752380Y-64198666D01*
X113895238Y-64293904D01*
X113990476Y-64389142D01*
X114038095Y-64484380D01*
X111926666Y-67151047D02*
X111926666Y-66674857D01*
X112212380Y-67246285D02*
X111212380Y-66912952D01*
X112212380Y-66579619D01*
X112212380Y-65770095D02*
X112212380Y-66246285D01*
X111212380Y-66246285D01*
X111260000Y-64912952D02*
X111212380Y-65008190D01*
X111212380Y-65151047D01*
X111260000Y-65293904D01*
X111355238Y-65389142D01*
X111450476Y-65436761D01*
X111640952Y-65484380D01*
X111783809Y-65484380D01*
X111974285Y-65436761D01*
X112069523Y-65389142D01*
X112164761Y-65293904D01*
X112212380Y-65151047D01*
X112212380Y-65055809D01*
X112164761Y-64912952D01*
X112117142Y-64865333D01*
X111783809Y-64865333D01*
X111783809Y-65055809D01*
X111212380Y-64246285D02*
X111212380Y-64151047D01*
X111260000Y-64055809D01*
X111307619Y-64008190D01*
X111402857Y-63960571D01*
X111593333Y-63912952D01*
X111831428Y-63912952D01*
X112021904Y-63960571D01*
X112117142Y-64008190D01*
X112164761Y-64055809D01*
X112212380Y-64151047D01*
X112212380Y-64246285D01*
X112164761Y-64341523D01*
X112117142Y-64389142D01*
X112021904Y-64436761D01*
X111831428Y-64484380D01*
X111593333Y-64484380D01*
X111402857Y-64436761D01*
X111307619Y-64389142D01*
X111260000Y-64341523D01*
X111212380Y-64246285D01*
X108672380Y-66262095D02*
X108672380Y-65643047D01*
X109053333Y-65976380D01*
X109053333Y-65833523D01*
X109100952Y-65738285D01*
X109148571Y-65690666D01*
X109243809Y-65643047D01*
X109481904Y-65643047D01*
X109577142Y-65690666D01*
X109624761Y-65738285D01*
X109672380Y-65833523D01*
X109672380Y-66119238D01*
X109624761Y-66214476D01*
X109577142Y-66262095D01*
X108672380Y-65357333D02*
X109672380Y-65024000D01*
X108672380Y-64690666D01*
X108672380Y-64452571D02*
X108672380Y-63833523D01*
X109053333Y-64166857D01*
X109053333Y-64024000D01*
X109100952Y-63928761D01*
X109148571Y-63881142D01*
X109243809Y-63833523D01*
X109481904Y-63833523D01*
X109577142Y-63881142D01*
X109624761Y-63928761D01*
X109672380Y-64024000D01*
X109672380Y-64309714D01*
X109624761Y-64404952D01*
X109577142Y-64452571D01*
X107132380Y-67103428D02*
X106132380Y-67103428D01*
X106846666Y-66770095D01*
X106132380Y-66436761D01*
X107132380Y-66436761D01*
X107132380Y-65960571D02*
X106132380Y-65960571D01*
X107084761Y-65532000D02*
X107132380Y-65389142D01*
X107132380Y-65151047D01*
X107084761Y-65055809D01*
X107037142Y-65008190D01*
X106941904Y-64960571D01*
X106846666Y-64960571D01*
X106751428Y-65008190D01*
X106703809Y-65055809D01*
X106656190Y-65151047D01*
X106608571Y-65341523D01*
X106560952Y-65436761D01*
X106513333Y-65484380D01*
X106418095Y-65532000D01*
X106322857Y-65532000D01*
X106227619Y-65484380D01*
X106180000Y-65436761D01*
X106132380Y-65341523D01*
X106132380Y-65103428D01*
X106180000Y-64960571D01*
X106132380Y-64341523D02*
X106132380Y-64151047D01*
X106180000Y-64055809D01*
X106275238Y-63960571D01*
X106465714Y-63912952D01*
X106799047Y-63912952D01*
X106989523Y-63960571D01*
X107084761Y-64055809D01*
X107132380Y-64151047D01*
X107132380Y-64341523D01*
X107084761Y-64436761D01*
X106989523Y-64532000D01*
X106799047Y-64579619D01*
X106465714Y-64579619D01*
X106275238Y-64532000D01*
X106180000Y-64436761D01*
X106132380Y-64341523D01*
X104592380Y-67103428D02*
X103592380Y-67103428D01*
X104306666Y-66770095D01*
X103592380Y-66436761D01*
X104592380Y-66436761D01*
X103592380Y-65770095D02*
X103592380Y-65579619D01*
X103640000Y-65484380D01*
X103735238Y-65389142D01*
X103925714Y-65341523D01*
X104259047Y-65341523D01*
X104449523Y-65389142D01*
X104544761Y-65484380D01*
X104592380Y-65579619D01*
X104592380Y-65770095D01*
X104544761Y-65865333D01*
X104449523Y-65960571D01*
X104259047Y-66008190D01*
X103925714Y-66008190D01*
X103735238Y-65960571D01*
X103640000Y-65865333D01*
X103592380Y-65770095D01*
X104544761Y-64960571D02*
X104592380Y-64817714D01*
X104592380Y-64579619D01*
X104544761Y-64484380D01*
X104497142Y-64436761D01*
X104401904Y-64389142D01*
X104306666Y-64389142D01*
X104211428Y-64436761D01*
X104163809Y-64484380D01*
X104116190Y-64579619D01*
X104068571Y-64770095D01*
X104020952Y-64865333D01*
X103973333Y-64912952D01*
X103878095Y-64960571D01*
X103782857Y-64960571D01*
X103687619Y-64912952D01*
X103640000Y-64865333D01*
X103592380Y-64770095D01*
X103592380Y-64532000D01*
X103640000Y-64389142D01*
X104592380Y-63960571D02*
X103592380Y-63960571D01*
X96972380Y-67008190D02*
X95972380Y-67008190D01*
X96067619Y-66579619D02*
X96020000Y-66532000D01*
X95972380Y-66436761D01*
X95972380Y-66198666D01*
X96020000Y-66103428D01*
X96067619Y-66055809D01*
X96162857Y-66008190D01*
X96258095Y-66008190D01*
X96400952Y-66055809D01*
X96972380Y-66627238D01*
X96972380Y-66008190D01*
X96877142Y-65008190D02*
X96924761Y-65055809D01*
X96972380Y-65198666D01*
X96972380Y-65293904D01*
X96924761Y-65436761D01*
X96829523Y-65532000D01*
X96734285Y-65579619D01*
X96543809Y-65627238D01*
X96400952Y-65627238D01*
X96210476Y-65579619D01*
X96115238Y-65532000D01*
X96020000Y-65436761D01*
X95972380Y-65293904D01*
X95972380Y-65198666D01*
X96020000Y-65055809D01*
X96067619Y-65008190D01*
X96972380Y-64008190D02*
X96496190Y-64341523D01*
X96972380Y-64579619D02*
X95972380Y-64579619D01*
X95972380Y-64198666D01*
X96020000Y-64103428D01*
X96067619Y-64055809D01*
X96162857Y-64008190D01*
X96305714Y-64008190D01*
X96400952Y-64055809D01*
X96448571Y-64103428D01*
X96496190Y-64198666D01*
X96496190Y-64579619D01*
X94432380Y-66532000D02*
X93956190Y-66865333D01*
X94432380Y-67103428D02*
X93432380Y-67103428D01*
X93432380Y-66722476D01*
X93480000Y-66627238D01*
X93527619Y-66579619D01*
X93622857Y-66532000D01*
X93765714Y-66532000D01*
X93860952Y-66579619D01*
X93908571Y-66627238D01*
X93956190Y-66722476D01*
X93956190Y-67103428D01*
X94432380Y-65627238D02*
X94432380Y-66103428D01*
X93432380Y-66103428D01*
X93956190Y-65103428D02*
X94432380Y-65103428D01*
X93432380Y-65436761D02*
X93956190Y-65103428D01*
X93432380Y-64770095D01*
X93432380Y-64532000D02*
X93432380Y-63865333D01*
X94432380Y-64293904D01*
X76652380Y-66532000D02*
X76176190Y-66865333D01*
X76652380Y-67103428D02*
X75652380Y-67103428D01*
X75652380Y-66722476D01*
X75700000Y-66627238D01*
X75747619Y-66579619D01*
X75842857Y-66532000D01*
X75985714Y-66532000D01*
X76080952Y-66579619D01*
X76128571Y-66627238D01*
X76176190Y-66722476D01*
X76176190Y-67103428D01*
X76652380Y-65627238D02*
X76652380Y-66103428D01*
X75652380Y-66103428D01*
X76176190Y-65103428D02*
X76652380Y-65103428D01*
X75652380Y-65436761D02*
X76176190Y-65103428D01*
X75652380Y-64770095D01*
X75652380Y-64246285D02*
X75652380Y-64151047D01*
X75700000Y-64055809D01*
X75747619Y-64008190D01*
X75842857Y-63960571D01*
X76033333Y-63912952D01*
X76271428Y-63912952D01*
X76461904Y-63960571D01*
X76557142Y-64008190D01*
X76604761Y-64055809D01*
X76652380Y-64151047D01*
X76652380Y-64246285D01*
X76604761Y-64341523D01*
X76557142Y-64389142D01*
X76461904Y-64436761D01*
X76271428Y-64484380D01*
X76033333Y-64484380D01*
X75842857Y-64436761D01*
X75747619Y-64389142D01*
X75700000Y-64341523D01*
X75652380Y-64246285D01*
X131089523Y-33386000D02*
X130965714Y-33324095D01*
X130780000Y-33324095D01*
X130594285Y-33386000D01*
X130470476Y-33509809D01*
X130408571Y-33633619D01*
X130346666Y-33881238D01*
X130346666Y-34066952D01*
X130408571Y-34314571D01*
X130470476Y-34438380D01*
X130594285Y-34562190D01*
X130780000Y-34624095D01*
X130903809Y-34624095D01*
X131089523Y-34562190D01*
X131151428Y-34500285D01*
X131151428Y-34066952D01*
X130903809Y-34066952D01*
X131708571Y-34624095D02*
X131708571Y-33324095D01*
X132451428Y-34624095D01*
X132451428Y-33324095D01*
X133070476Y-34624095D02*
X133070476Y-33324095D01*
X133380000Y-33324095D01*
X133565714Y-33386000D01*
X133689523Y-33509809D01*
X133751428Y-33633619D01*
X133813333Y-33881238D01*
X133813333Y-34066952D01*
X133751428Y-34314571D01*
X133689523Y-34438380D01*
X133565714Y-34562190D01*
X133380000Y-34624095D01*
X133070476Y-34624095D01*
X130532380Y-40436095D02*
X131337142Y-40436095D01*
X130903809Y-40931333D01*
X131089523Y-40931333D01*
X131213333Y-40993238D01*
X131275238Y-41055142D01*
X131337142Y-41178952D01*
X131337142Y-41488476D01*
X131275238Y-41612285D01*
X131213333Y-41674190D01*
X131089523Y-41736095D01*
X130718095Y-41736095D01*
X130594285Y-41674190D01*
X130532380Y-41612285D01*
X131770476Y-40869428D02*
X132080000Y-41736095D01*
X132389523Y-40869428D01*
X132760952Y-40436095D02*
X133565714Y-40436095D01*
X133132380Y-40931333D01*
X133318095Y-40931333D01*
X133441904Y-40993238D01*
X133503809Y-41055142D01*
X133565714Y-41178952D01*
X133565714Y-41488476D01*
X133503809Y-41612285D01*
X133441904Y-41674190D01*
X133318095Y-41736095D01*
X132946666Y-41736095D01*
X132822857Y-41674190D01*
X132760952Y-41612285D01*
X96272380Y-41452095D02*
X95653333Y-41452095D01*
X95591428Y-42071142D01*
X95653333Y-42009238D01*
X95777142Y-41947333D01*
X96086666Y-41947333D01*
X96210476Y-42009238D01*
X96272380Y-42071142D01*
X96334285Y-42194952D01*
X96334285Y-42504476D01*
X96272380Y-42628285D01*
X96210476Y-42690190D01*
X96086666Y-42752095D01*
X95777142Y-42752095D01*
X95653333Y-42690190D01*
X95591428Y-42628285D01*
X96705714Y-41452095D02*
X97139047Y-42752095D01*
X97572380Y-41452095D01*
D11*
X73585428Y-16776619D02*
X73847333Y-17876619D01*
X74056857Y-17090904D01*
X74266380Y-17876619D01*
X74528285Y-16776619D01*
X74947333Y-17876619D02*
X74947333Y-17143285D01*
X74947333Y-16776619D02*
X74894952Y-16829000D01*
X74947333Y-16881380D01*
X74999714Y-16829000D01*
X74947333Y-16776619D01*
X74947333Y-16881380D01*
X75471142Y-17876619D02*
X75471142Y-17143285D01*
X75471142Y-17248047D02*
X75523523Y-17195666D01*
X75628285Y-17143285D01*
X75785428Y-17143285D01*
X75890190Y-17195666D01*
X75942571Y-17300428D01*
X75942571Y-17876619D01*
X75942571Y-17300428D02*
X75994952Y-17195666D01*
X76099714Y-17143285D01*
X76256857Y-17143285D01*
X76361619Y-17195666D01*
X76414000Y-17300428D01*
X76414000Y-17876619D01*
X76937809Y-17876619D02*
X76937809Y-16776619D01*
X76937809Y-17195666D02*
X77042571Y-17143285D01*
X77252095Y-17143285D01*
X77356857Y-17195666D01*
X77409238Y-17248047D01*
X77461619Y-17352809D01*
X77461619Y-17667095D01*
X77409238Y-17771857D01*
X77356857Y-17824238D01*
X77252095Y-17876619D01*
X77042571Y-17876619D01*
X76937809Y-17824238D01*
X78090190Y-17876619D02*
X77985428Y-17824238D01*
X77933047Y-17719476D01*
X77933047Y-16776619D01*
X78928285Y-17824238D02*
X78823523Y-17876619D01*
X78614000Y-17876619D01*
X78509238Y-17824238D01*
X78456857Y-17719476D01*
X78456857Y-17300428D01*
X78509238Y-17195666D01*
X78614000Y-17143285D01*
X78823523Y-17143285D01*
X78928285Y-17195666D01*
X78980666Y-17300428D01*
X78980666Y-17405190D01*
X78456857Y-17509952D01*
X80918761Y-17876619D02*
X80552095Y-17352809D01*
X80290190Y-17876619D02*
X80290190Y-16776619D01*
X80709238Y-16776619D01*
X80814000Y-16829000D01*
X80866380Y-16881380D01*
X80918761Y-16986142D01*
X80918761Y-17143285D01*
X80866380Y-17248047D01*
X80814000Y-17300428D01*
X80709238Y-17352809D01*
X80290190Y-17352809D01*
X81547333Y-17876619D02*
X81442571Y-17824238D01*
X81390190Y-17771857D01*
X81337809Y-17667095D01*
X81337809Y-17352809D01*
X81390190Y-17248047D01*
X81442571Y-17195666D01*
X81547333Y-17143285D01*
X81704476Y-17143285D01*
X81809238Y-17195666D01*
X81861619Y-17248047D01*
X81914000Y-17352809D01*
X81914000Y-17667095D01*
X81861619Y-17771857D01*
X81809238Y-17824238D01*
X81704476Y-17876619D01*
X81547333Y-17876619D01*
X82385428Y-17876619D02*
X82385428Y-16776619D01*
X82385428Y-17195666D02*
X82490190Y-17143285D01*
X82699714Y-17143285D01*
X82804476Y-17195666D01*
X82856857Y-17248047D01*
X82909238Y-17352809D01*
X82909238Y-17667095D01*
X82856857Y-17771857D01*
X82804476Y-17824238D01*
X82699714Y-17876619D01*
X82490190Y-17876619D01*
X82385428Y-17824238D01*
X83537809Y-17876619D02*
X83433047Y-17824238D01*
X83380666Y-17771857D01*
X83328285Y-17667095D01*
X83328285Y-17352809D01*
X83380666Y-17248047D01*
X83433047Y-17195666D01*
X83537809Y-17143285D01*
X83694952Y-17143285D01*
X83799714Y-17195666D01*
X83852095Y-17248047D01*
X83904476Y-17352809D01*
X83904476Y-17667095D01*
X83852095Y-17771857D01*
X83799714Y-17824238D01*
X83694952Y-17876619D01*
X83537809Y-17876619D01*
X84218761Y-17143285D02*
X84637809Y-17143285D01*
X84375904Y-16776619D02*
X84375904Y-17719476D01*
X84428285Y-17824238D01*
X84533047Y-17876619D01*
X84637809Y-17876619D01*
X85004476Y-17876619D02*
X85004476Y-17143285D01*
X85004476Y-16776619D02*
X84952095Y-16829000D01*
X85004476Y-16881380D01*
X85056857Y-16829000D01*
X85004476Y-16776619D01*
X85004476Y-16881380D01*
X85999714Y-17824238D02*
X85894952Y-17876619D01*
X85685428Y-17876619D01*
X85580666Y-17824238D01*
X85528285Y-17771857D01*
X85475904Y-17667095D01*
X85475904Y-17352809D01*
X85528285Y-17248047D01*
X85580666Y-17195666D01*
X85685428Y-17143285D01*
X85894952Y-17143285D01*
X85999714Y-17195666D01*
X86418761Y-17824238D02*
X86523523Y-17876619D01*
X86733047Y-17876619D01*
X86837809Y-17824238D01*
X86890190Y-17719476D01*
X86890190Y-17667095D01*
X86837809Y-17562333D01*
X86733047Y-17509952D01*
X86575904Y-17509952D01*
X86471142Y-17457571D01*
X86418761Y-17352809D01*
X86418761Y-17300428D01*
X86471142Y-17195666D01*
X86575904Y-17143285D01*
X86733047Y-17143285D01*
X86837809Y-17195666D01*
X74187809Y-18701619D02*
X74816380Y-18701619D01*
X74502095Y-19801619D02*
X74502095Y-18701619D01*
X75602095Y-19749238D02*
X75497333Y-19801619D01*
X75287809Y-19801619D01*
X75183047Y-19749238D01*
X75130666Y-19644476D01*
X75130666Y-19225428D01*
X75183047Y-19120666D01*
X75287809Y-19068285D01*
X75497333Y-19068285D01*
X75602095Y-19120666D01*
X75654476Y-19225428D01*
X75654476Y-19330190D01*
X75130666Y-19434952D01*
X76544952Y-19749238D02*
X76440190Y-19801619D01*
X76230666Y-19801619D01*
X76125904Y-19749238D01*
X76073523Y-19644476D01*
X76073523Y-19225428D01*
X76125904Y-19120666D01*
X76230666Y-19068285D01*
X76440190Y-19068285D01*
X76544952Y-19120666D01*
X76597333Y-19225428D01*
X76597333Y-19330190D01*
X76073523Y-19434952D01*
X77068761Y-19068285D02*
X77068761Y-19801619D01*
X77068761Y-19173047D02*
X77121142Y-19120666D01*
X77225904Y-19068285D01*
X77383047Y-19068285D01*
X77487809Y-19120666D01*
X77540190Y-19225428D01*
X77540190Y-19801619D01*
X78011619Y-19749238D02*
X78116380Y-19801619D01*
X78325904Y-19801619D01*
X78430666Y-19749238D01*
X78483047Y-19644476D01*
X78483047Y-19592095D01*
X78430666Y-19487333D01*
X78325904Y-19434952D01*
X78168761Y-19434952D01*
X78064000Y-19382571D01*
X78011619Y-19277809D01*
X78011619Y-19225428D01*
X78064000Y-19120666D01*
X78168761Y-19068285D01*
X78325904Y-19068285D01*
X78430666Y-19120666D01*
X78849714Y-19068285D02*
X79111619Y-19801619D01*
X79373523Y-19068285D02*
X79111619Y-19801619D01*
X79006857Y-20063523D01*
X78954476Y-20115904D01*
X78849714Y-20168285D01*
X80630666Y-19801619D02*
X80630666Y-18701619D01*
X80997333Y-19487333D01*
X81364000Y-18701619D01*
X81364000Y-19801619D01*
X82044952Y-19801619D02*
X81940190Y-19749238D01*
X81887809Y-19696857D01*
X81835428Y-19592095D01*
X81835428Y-19277809D01*
X81887809Y-19173047D01*
X81940190Y-19120666D01*
X82044952Y-19068285D01*
X82202095Y-19068285D01*
X82306857Y-19120666D01*
X82359238Y-19173047D01*
X82411619Y-19277809D01*
X82411619Y-19592095D01*
X82359238Y-19696857D01*
X82306857Y-19749238D01*
X82202095Y-19801619D01*
X82044952Y-19801619D01*
X82883047Y-19068285D02*
X82883047Y-19801619D01*
X82883047Y-19173047D02*
X82935428Y-19120666D01*
X83040190Y-19068285D01*
X83197333Y-19068285D01*
X83302095Y-19120666D01*
X83354476Y-19225428D01*
X83354476Y-19801619D01*
X83878285Y-19801619D02*
X83878285Y-19068285D01*
X83878285Y-18701619D02*
X83825904Y-18754000D01*
X83878285Y-18806380D01*
X83930666Y-18754000D01*
X83878285Y-18701619D01*
X83878285Y-18806380D01*
X84244952Y-19068285D02*
X84664000Y-19068285D01*
X84402095Y-18701619D02*
X84402095Y-19644476D01*
X84454476Y-19749238D01*
X84559238Y-19801619D01*
X84664000Y-19801619D01*
X85187809Y-19801619D02*
X85083047Y-19749238D01*
X85030666Y-19696857D01*
X84978285Y-19592095D01*
X84978285Y-19277809D01*
X85030666Y-19173047D01*
X85083047Y-19120666D01*
X85187809Y-19068285D01*
X85344952Y-19068285D01*
X85449714Y-19120666D01*
X85502095Y-19173047D01*
X85554476Y-19277809D01*
X85554476Y-19592095D01*
X85502095Y-19696857D01*
X85449714Y-19749238D01*
X85344952Y-19801619D01*
X85187809Y-19801619D01*
X86025904Y-19801619D02*
X86025904Y-19068285D01*
X86025904Y-19277809D02*
X86078285Y-19173047D01*
X86130666Y-19120666D01*
X86235428Y-19068285D01*
X86340190Y-19068285D01*
X78692571Y-20993285D02*
X78954476Y-21726619D01*
X79216380Y-20993285D01*
X80159238Y-20626619D02*
X79635428Y-20626619D01*
X79583047Y-21150428D01*
X79635428Y-21098047D01*
X79740190Y-21045666D01*
X80002095Y-21045666D01*
X80106857Y-21098047D01*
X80159238Y-21150428D01*
X80211619Y-21255190D01*
X80211619Y-21517095D01*
X80159238Y-21621857D01*
X80106857Y-21674238D01*
X80002095Y-21726619D01*
X79740190Y-21726619D01*
X79635428Y-21674238D01*
X79583047Y-21621857D01*
X80683047Y-21621857D02*
X80735428Y-21674238D01*
X80683047Y-21726619D01*
X80630666Y-21674238D01*
X80683047Y-21621857D01*
X80683047Y-21726619D01*
X81783047Y-21726619D02*
X81154476Y-21726619D01*
X81468761Y-21726619D02*
X81468761Y-20626619D01*
X81364000Y-20783761D01*
X81259238Y-20888523D01*
X81154476Y-20940904D01*
D12*
X116627428Y-76045142D02*
X116798857Y-76116571D01*
X117084571Y-76116571D01*
X117198857Y-76045142D01*
X117256000Y-75973714D01*
X117313142Y-75830857D01*
X117313142Y-75688000D01*
X117256000Y-75545142D01*
X117198857Y-75473714D01*
X117084571Y-75402285D01*
X116856000Y-75330857D01*
X116741714Y-75259428D01*
X116684571Y-75188000D01*
X116627428Y-75045142D01*
X116627428Y-74902285D01*
X116684571Y-74759428D01*
X116741714Y-74688000D01*
X116856000Y-74616571D01*
X117141714Y-74616571D01*
X117313142Y-74688000D01*
X117827428Y-76116571D02*
X117827428Y-74616571D01*
X119027428Y-74688000D02*
X118913142Y-74616571D01*
X118741714Y-74616571D01*
X118570285Y-74688000D01*
X118456000Y-74830857D01*
X118398857Y-74973714D01*
X118341714Y-75259428D01*
X118341714Y-75473714D01*
X118398857Y-75759428D01*
X118456000Y-75902285D01*
X118570285Y-76045142D01*
X118741714Y-76116571D01*
X118856000Y-76116571D01*
X119027428Y-76045142D01*
X119084571Y-75973714D01*
X119084571Y-75473714D01*
X118856000Y-75473714D01*
X116941714Y-68846000D02*
X116827428Y-68774571D01*
X116656000Y-68774571D01*
X116484571Y-68846000D01*
X116370285Y-68988857D01*
X116313142Y-69131714D01*
X116256000Y-69417428D01*
X116256000Y-69631714D01*
X116313142Y-69917428D01*
X116370285Y-70060285D01*
X116484571Y-70203142D01*
X116656000Y-70274571D01*
X116770285Y-70274571D01*
X116941714Y-70203142D01*
X116998857Y-70131714D01*
X116998857Y-69631714D01*
X116770285Y-69631714D01*
X117513142Y-70274571D02*
X117513142Y-68774571D01*
X118198857Y-70274571D01*
X118198857Y-68774571D01*
X118770285Y-70274571D02*
X118770285Y-68774571D01*
X119056000Y-68774571D01*
X119227428Y-68846000D01*
X119341714Y-68988857D01*
X119398857Y-69131714D01*
X119456000Y-69417428D01*
X119456000Y-69631714D01*
X119398857Y-69917428D01*
X119341714Y-70060285D01*
X119227428Y-70203142D01*
X119056000Y-70274571D01*
X118770285Y-70274571D01*
X116427428Y-71822571D02*
X117170285Y-71822571D01*
X116770285Y-72394000D01*
X116941714Y-72394000D01*
X117056000Y-72465428D01*
X117113142Y-72536857D01*
X117170285Y-72679714D01*
X117170285Y-73036857D01*
X117113142Y-73179714D01*
X117056000Y-73251142D01*
X116941714Y-73322571D01*
X116598857Y-73322571D01*
X116484571Y-73251142D01*
X116427428Y-73179714D01*
X117570285Y-72322571D02*
X117856000Y-73322571D01*
X118141714Y-72322571D01*
X118484571Y-71822571D02*
X119227428Y-71822571D01*
X118827428Y-72394000D01*
X118998857Y-72394000D01*
X119113142Y-72465428D01*
X119170285Y-72536857D01*
X119227428Y-72679714D01*
X119227428Y-73036857D01*
X119170285Y-73179714D01*
X119113142Y-73251142D01*
X118998857Y-73322571D01*
X118656000Y-73322571D01*
X118541714Y-73251142D01*
X118484571Y-73179714D01*
X131822000Y-77223428D02*
X131822000Y-76509142D01*
X132250571Y-77366285D02*
X130750571Y-76866285D01*
X132250571Y-76366285D01*
X131250571Y-75866285D02*
X132250571Y-75866285D01*
X131393428Y-75866285D02*
X131322000Y-75794857D01*
X131250571Y-75652000D01*
X131250571Y-75437714D01*
X131322000Y-75294857D01*
X131464857Y-75223428D01*
X132250571Y-75223428D01*
X132250571Y-73866285D02*
X131464857Y-73866285D01*
X131322000Y-73937714D01*
X131250571Y-74080571D01*
X131250571Y-74366285D01*
X131322000Y-74509142D01*
X132179142Y-73866285D02*
X132250571Y-74009142D01*
X132250571Y-74366285D01*
X132179142Y-74509142D01*
X132036285Y-74580571D01*
X131893428Y-74580571D01*
X131750571Y-74509142D01*
X131679142Y-74366285D01*
X131679142Y-74009142D01*
X131607714Y-73866285D01*
X132250571Y-72937714D02*
X132179142Y-73080571D01*
X132036285Y-73152000D01*
X130750571Y-73152000D01*
X132250571Y-72152000D02*
X132179142Y-72294857D01*
X132107714Y-72366285D01*
X131964857Y-72437714D01*
X131536285Y-72437714D01*
X131393428Y-72366285D01*
X131322000Y-72294857D01*
X131250571Y-72152000D01*
X131250571Y-71937714D01*
X131322000Y-71794857D01*
X131393428Y-71723428D01*
X131536285Y-71652000D01*
X131964857Y-71652000D01*
X132107714Y-71723428D01*
X132179142Y-71794857D01*
X132250571Y-71937714D01*
X132250571Y-72152000D01*
X131250571Y-70366285D02*
X132464857Y-70366285D01*
X132607714Y-70437714D01*
X132679142Y-70509142D01*
X132750571Y-70652000D01*
X132750571Y-70866285D01*
X132679142Y-71009142D01*
X132179142Y-70366285D02*
X132250571Y-70509142D01*
X132250571Y-70794857D01*
X132179142Y-70937714D01*
X132107714Y-71009142D01*
X131964857Y-71080571D01*
X131536285Y-71080571D01*
X131393428Y-71009142D01*
X131322000Y-70937714D01*
X131250571Y-70794857D01*
X131250571Y-70509142D01*
X131322000Y-70366285D01*
X132179142Y-69723428D02*
X132250571Y-69580571D01*
X132250571Y-69294857D01*
X132179142Y-69152000D01*
X132036285Y-69080571D01*
X131964857Y-69080571D01*
X131822000Y-69152000D01*
X131750571Y-69294857D01*
X131750571Y-69509142D01*
X131679142Y-69652000D01*
X131536285Y-69723428D01*
X131464857Y-69723428D01*
X131322000Y-69652000D01*
X131250571Y-69509142D01*
X131250571Y-69294857D01*
X131322000Y-69152000D01*
D13*
%TO.C,RN34*%
X119372000Y-38764000D02*
X118372000Y-38764000D01*
X119372000Y-35404000D02*
X118372000Y-35404000D01*
%TO.C,J23*%
X145854000Y-69006000D02*
X159454000Y-69006000D01*
X159454000Y-69006000D02*
X159454000Y-77806000D01*
X159454000Y-77806000D02*
X145854000Y-77806000D01*
X145854000Y-77806000D02*
X145854000Y-69006000D01*
X150154000Y-69006000D02*
X150154000Y-77806000D01*
%TO.C,J22*%
X145854000Y-59862000D02*
X159454000Y-59862000D01*
X159454000Y-59862000D02*
X159454000Y-68662000D01*
X159454000Y-68662000D02*
X145854000Y-68662000D01*
X145854000Y-68662000D02*
X145854000Y-59862000D01*
X150154000Y-59862000D02*
X150154000Y-68662000D01*
%TO.C,J21*%
X145854000Y-50718000D02*
X159454000Y-50718000D01*
X159454000Y-50718000D02*
X159454000Y-59518000D01*
X159454000Y-59518000D02*
X145854000Y-59518000D01*
X145854000Y-59518000D02*
X145854000Y-50718000D01*
X150154000Y-50718000D02*
X150154000Y-59518000D01*
%TO.C,J20*%
X145854000Y-41574000D02*
X159454000Y-41574000D01*
X159454000Y-41574000D02*
X159454000Y-50374000D01*
X159454000Y-50374000D02*
X145854000Y-50374000D01*
X145854000Y-50374000D02*
X145854000Y-41574000D01*
X150154000Y-41574000D02*
X150154000Y-50374000D01*
%TO.C,U50*%
X81012000Y-67212000D02*
X81012000Y-74012000D01*
X76762000Y-74012000D02*
X76762000Y-67212000D01*
X115262000Y-74012000D02*
X76762000Y-74012000D01*
X115262000Y-67212000D02*
X115262000Y-74012000D01*
X76762000Y-67212000D02*
X115262000Y-67212000D01*
%TO.C,J39b1*%
X145854000Y-23286000D02*
X159454000Y-23286000D01*
X159454000Y-23286000D02*
X159454000Y-32086000D01*
X159454000Y-32086000D02*
X145854000Y-32086000D01*
X145854000Y-32086000D02*
X145854000Y-23286000D01*
X150154000Y-23286000D02*
X150154000Y-32086000D01*
%TO.C,J39a1*%
X145854000Y-32430000D02*
X159454000Y-32430000D01*
X159454000Y-32430000D02*
X159454000Y-41230000D01*
X159454000Y-41230000D02*
X145854000Y-41230000D01*
X145854000Y-41230000D02*
X145854000Y-32430000D01*
X150154000Y-32430000D02*
X150154000Y-41230000D01*
%TO.C,J55*%
X135696000Y-79674000D02*
X135696000Y-88474000D01*
X131396000Y-88474000D02*
X131396000Y-79674000D01*
X147496000Y-88474000D02*
X131396000Y-88474000D01*
X147496000Y-79674000D02*
X147496000Y-88474000D01*
X131396000Y-79674000D02*
X147496000Y-79674000D01*
%TO.C,J54*%
X118424000Y-79674000D02*
X118424000Y-88474000D01*
X114124000Y-88474000D02*
X114124000Y-79674000D01*
X130224000Y-88474000D02*
X114124000Y-88474000D01*
X130224000Y-79674000D02*
X130224000Y-88474000D01*
X114124000Y-79674000D02*
X130224000Y-79674000D01*
%TO.C,J40*%
X84234000Y-79674000D02*
X84234000Y-88474000D01*
X79934000Y-88474000D02*
X79934000Y-79674000D01*
X108534000Y-88474000D02*
X79934000Y-88474000D01*
X108534000Y-79674000D02*
X108534000Y-88474000D01*
X79934000Y-79674000D02*
X108534000Y-79674000D01*
%TO.C,J37*%
X143960000Y-31324000D02*
X130360000Y-31324000D01*
X130360000Y-31324000D02*
X130360000Y-22524000D01*
X130360000Y-22524000D02*
X143960000Y-22524000D01*
X143960000Y-22524000D02*
X143960000Y-31324000D01*
X139660000Y-31324000D02*
X139660000Y-22524000D01*
%TO.C,J36*%
X143960000Y-21926000D02*
X130360000Y-21926000D01*
X130360000Y-21926000D02*
X130360000Y-13126000D01*
X130360000Y-13126000D02*
X143960000Y-13126000D01*
X143960000Y-13126000D02*
X143960000Y-21926000D01*
X139660000Y-21926000D02*
X139660000Y-13126000D01*
%TO.C,J35*%
X129736000Y-31324000D02*
X116136000Y-31324000D01*
X116136000Y-31324000D02*
X116136000Y-22524000D01*
X116136000Y-22524000D02*
X129736000Y-22524000D01*
X129736000Y-22524000D02*
X129736000Y-31324000D01*
X125436000Y-31324000D02*
X125436000Y-22524000D01*
%TO.C,J34*%
X129736000Y-21926000D02*
X116136000Y-21926000D01*
X116136000Y-21926000D02*
X116136000Y-13126000D01*
X116136000Y-13126000D02*
X129736000Y-13126000D01*
X129736000Y-13126000D02*
X129736000Y-21926000D01*
X125436000Y-21926000D02*
X125436000Y-13126000D01*
%TO.C,J33*%
X115512000Y-31324000D02*
X101912000Y-31324000D01*
X101912000Y-31324000D02*
X101912000Y-22524000D01*
X101912000Y-22524000D02*
X115512000Y-22524000D01*
X115512000Y-22524000D02*
X115512000Y-31324000D01*
X111212000Y-31324000D02*
X111212000Y-22524000D01*
%TO.C,J32*%
X115512000Y-21926000D02*
X101912000Y-21926000D01*
X101912000Y-21926000D02*
X101912000Y-13126000D01*
X101912000Y-13126000D02*
X115512000Y-13126000D01*
X115512000Y-13126000D02*
X115512000Y-21926000D01*
X111212000Y-21926000D02*
X111212000Y-13126000D01*
%TO.C,J31*%
X101288000Y-31324000D02*
X87688000Y-31324000D01*
X87688000Y-31324000D02*
X87688000Y-22524000D01*
X87688000Y-22524000D02*
X101288000Y-22524000D01*
X101288000Y-22524000D02*
X101288000Y-31324000D01*
X96988000Y-31324000D02*
X96988000Y-22524000D01*
%TO.C,J30*%
X101288000Y-21926000D02*
X87688000Y-21926000D01*
X87688000Y-21926000D02*
X87688000Y-13126000D01*
X87688000Y-13126000D02*
X101288000Y-13126000D01*
X101288000Y-13126000D02*
X101288000Y-21926000D01*
X96988000Y-21926000D02*
X96988000Y-13126000D01*
%TO.C,R17*%
X105945000Y-54128936D02*
X105945000Y-54583064D01*
X107415000Y-54128936D02*
X107415000Y-54583064D01*
%TO.C,J5*%
X123638000Y-34738000D02*
X124968000Y-34738000D01*
X123638000Y-36068000D02*
X123638000Y-34738000D01*
X126238000Y-34738000D02*
X128838000Y-34738000D01*
X126238000Y-37338000D02*
X126238000Y-34738000D01*
X123638000Y-37338000D02*
X126238000Y-37338000D01*
X128838000Y-34738000D02*
X128838000Y-39938000D01*
X123638000Y-37338000D02*
X123638000Y-39938000D01*
X123638000Y-39938000D02*
X128838000Y-39938000D01*
D14*
%TO.C,U1*%
G36*
X106067000Y-54303000D02*
G01*
X105813000Y-54557000D01*
X105559000Y-54176000D01*
X105813000Y-53922000D01*
X106067000Y-54303000D01*
G37*
X106067000Y-54303000D02*
X105813000Y-54557000D01*
X105559000Y-54176000D01*
X105813000Y-53922000D01*
X106067000Y-54303000D01*
G36*
X105686000Y-54684000D02*
G01*
X105432000Y-54938000D01*
X105178000Y-54557000D01*
X105432000Y-54303000D01*
X105686000Y-54684000D01*
G37*
X105686000Y-54684000D02*
X105432000Y-54938000D01*
X105178000Y-54557000D01*
X105432000Y-54303000D01*
X105686000Y-54684000D01*
G36*
X103781000Y-53922000D02*
G01*
X103527000Y-54176000D01*
X103273000Y-53795000D01*
X103527000Y-53541000D01*
X103781000Y-53922000D01*
G37*
X103781000Y-53922000D02*
X103527000Y-54176000D01*
X103273000Y-53795000D01*
X103527000Y-53541000D01*
X103781000Y-53922000D01*
G36*
X104162000Y-54430000D02*
G01*
X103908000Y-54684000D01*
X103654000Y-54303000D01*
X103908000Y-54049000D01*
X104162000Y-54430000D01*
G37*
X104162000Y-54430000D02*
X103908000Y-54684000D01*
X103654000Y-54303000D01*
X103908000Y-54049000D01*
X104162000Y-54430000D01*
G36*
X104543000Y-54938000D02*
G01*
X104289000Y-55192000D01*
X104035000Y-54811000D01*
X104289000Y-54557000D01*
X104543000Y-54938000D01*
G37*
X104543000Y-54938000D02*
X104289000Y-55192000D01*
X104035000Y-54811000D01*
X104289000Y-54557000D01*
X104543000Y-54938000D01*
G36*
X104543000Y-54049000D02*
G01*
X104289000Y-54303000D01*
X104035000Y-53922000D01*
X104289000Y-53668000D01*
X104543000Y-54049000D01*
G37*
X104543000Y-54049000D02*
X104289000Y-54303000D01*
X104035000Y-53922000D01*
X104289000Y-53668000D01*
X104543000Y-54049000D01*
G36*
X104924000Y-54557000D02*
G01*
X104670000Y-54811000D01*
X104416000Y-54430000D01*
X104670000Y-54176000D01*
X104924000Y-54557000D01*
G37*
X104924000Y-54557000D02*
X104670000Y-54811000D01*
X104416000Y-54430000D01*
X104670000Y-54176000D01*
X104924000Y-54557000D01*
G36*
X105305000Y-55065000D02*
G01*
X105051000Y-55319000D01*
X104797000Y-54938000D01*
X105051000Y-54684000D01*
X105305000Y-55065000D01*
G37*
X105305000Y-55065000D02*
X105051000Y-55319000D01*
X104797000Y-54938000D01*
X105051000Y-54684000D01*
X105305000Y-55065000D01*
D10*
X72390000Y-63500000D02*
X72390000Y-45720000D01*
X133350000Y-63500000D02*
X72390000Y-63500000D01*
X133350000Y-45720000D02*
X133350000Y-63500000D01*
X72390000Y-45720000D02*
X133350000Y-45720000D01*
X77470000Y-58420000D02*
X72390000Y-58420000D01*
X77470000Y-50800000D02*
X72390000Y-50800000D01*
X77470000Y-58420000D02*
X77470000Y-50800000D01*
X71120000Y-50800000D02*
X72390000Y-50800000D01*
X71120000Y-58420000D02*
X71120000Y-50800000D01*
X72390000Y-58420000D02*
X71120000Y-58420000D01*
X133350000Y-48260000D02*
X120650000Y-48260000D01*
X120650000Y-48260000D02*
X120650000Y-60960000D01*
X120650000Y-60960000D02*
X133350000Y-60960000D01*
X133350000Y-49530000D02*
X132080000Y-49530000D01*
X132080000Y-49530000D02*
X132080000Y-59690000D01*
X132080000Y-59690000D02*
X133350000Y-59690000D01*
X116840000Y-53340000D02*
X116840000Y-55880000D01*
X116840000Y-55880000D02*
X113030000Y-55880000D01*
X113030000Y-55880000D02*
X113030000Y-53340000D01*
X113030000Y-53340000D02*
X116840000Y-53340000D01*
X78689200Y-57909200D02*
X91389200Y-57909200D01*
X91389200Y-57909200D02*
X91389200Y-60449200D01*
X91389200Y-60449200D02*
X78689200Y-60449200D01*
X78689200Y-60449200D02*
X78689200Y-57909200D01*
X78689200Y-57909200D02*
X81229200Y-57909200D01*
X81229200Y-57909200D02*
X81229200Y-60449200D01*
X85620000Y-48508400D02*
X85620000Y-54508400D01*
X85620000Y-54508400D02*
X89620000Y-54508400D01*
X89620000Y-54508400D02*
X89620000Y-48258400D01*
X89620000Y-48258400D02*
X85620000Y-48258400D01*
X85620000Y-48258400D02*
X85620000Y-48508400D01*
X95250000Y-60960000D02*
X107950000Y-60960000D01*
X107950000Y-60960000D02*
X107950000Y-48260000D01*
X107950000Y-48260000D02*
X95250000Y-48260000D01*
X95250000Y-48260000D02*
X95250000Y-60960000D01*
X115833026Y-54610000D02*
G75*
G03*
X115833026Y-54610000I-898026J0D01*
G01*
D15*
%TO.C,J4*%
X77831010Y-22987000D02*
G75*
G03*
X77831010Y-22987000I-381000J0D01*
G01*
X85806610Y-24765000D02*
X83863773Y-24765000D01*
X85806610Y-41275000D02*
X85806610Y-24765000D01*
X64013410Y-41275000D02*
X76606247Y-41275000D01*
X64013410Y-24765000D02*
X64013410Y-41275000D01*
X79273773Y-41275000D02*
X81196247Y-41275000D01*
X76606247Y-24765000D02*
X64013410Y-24765000D01*
X83863773Y-41275000D02*
X85806610Y-41275000D01*
X81196247Y-24765000D02*
X79273773Y-24765000D01*
D13*
%TO.C,C1*%
X73452000Y-44234000D02*
X72852000Y-44234000D01*
X73472000Y-42634000D02*
X72872000Y-42634000D01*
%TO.C,J3*%
X141030000Y-39938000D02*
X141030000Y-34738000D01*
X133350000Y-39938000D02*
X141030000Y-39938000D01*
X130750000Y-34738000D02*
X141030000Y-34738000D01*
X133350000Y-39938000D02*
X133350000Y-37338000D01*
X133350000Y-37338000D02*
X130750000Y-37338000D01*
X130750000Y-37338000D02*
X130750000Y-34738000D01*
X132080000Y-39938000D02*
X130750000Y-39938000D01*
X130750000Y-39938000D02*
X130750000Y-38608000D01*
%TO.C,U31*%
X110236000Y-42643000D02*
X112436000Y-42643000D01*
X110236000Y-42643000D02*
X108036000Y-42643000D01*
X110236000Y-34573000D02*
X112436000Y-34573000D01*
X110236000Y-34573000D02*
X106636000Y-34573000D01*
%TO.C,RN33*%
X119372000Y-42828000D02*
X118372000Y-42828000D01*
X119372000Y-39468000D02*
X118372000Y-39468000D01*
%TO.C,RN32*%
X101608000Y-39284000D02*
X102608000Y-39284000D01*
X101608000Y-42644000D02*
X102608000Y-42644000D01*
%TO.C,RN31*%
X101608000Y-35404000D02*
X102608000Y-35404000D01*
X101608000Y-38764000D02*
X102608000Y-38764000D01*
%TO.C,R51*%
X100346742Y-64755500D02*
X100821258Y-64755500D01*
X100346742Y-65800500D02*
X100821258Y-65800500D01*
%TO.C,R31*%
X80757500Y-51037258D02*
X80757500Y-50562742D01*
X81802500Y-51037258D02*
X81802500Y-50562742D01*
%TO.C,R30*%
X78217500Y-51037258D02*
X78217500Y-50562742D01*
X79262500Y-51037258D02*
X79262500Y-50562742D01*
%TO.C,R16*%
X137334258Y-69610500D02*
X136859742Y-69610500D01*
X137334258Y-68565500D02*
X136859742Y-68565500D01*
%TO.C,R15*%
X136859742Y-67041500D02*
X137334258Y-67041500D01*
X136859742Y-68086500D02*
X137334258Y-68086500D01*
%TO.C,R14*%
X141461258Y-69610500D02*
X140986742Y-69610500D01*
X141461258Y-68565500D02*
X140986742Y-68565500D01*
%TO.C,R13*%
X140986742Y-67041500D02*
X141461258Y-67041500D01*
X140986742Y-68086500D02*
X141461258Y-68086500D01*
%TO.C,R12*%
X137397258Y-61990500D02*
X136922742Y-61990500D01*
X137397258Y-60945500D02*
X136922742Y-60945500D01*
%TO.C,R11*%
X136922742Y-59421500D02*
X137397258Y-59421500D01*
X136922742Y-60466500D02*
X137397258Y-60466500D01*
%TO.C,R10*%
X141398258Y-61990500D02*
X140923742Y-61990500D01*
X141398258Y-60945500D02*
X140923742Y-60945500D01*
%TO.C,R9*%
X140923742Y-59421500D02*
X141398258Y-59421500D01*
X140923742Y-60466500D02*
X141398258Y-60466500D01*
%TO.C,R8*%
X137397258Y-54370500D02*
X136922742Y-54370500D01*
X137397258Y-53325500D02*
X136922742Y-53325500D01*
%TO.C,R7*%
X136922742Y-51801500D02*
X137397258Y-51801500D01*
X136922742Y-52846500D02*
X137397258Y-52846500D01*
%TO.C,R6*%
X141461258Y-54370500D02*
X140986742Y-54370500D01*
X141461258Y-53325500D02*
X140986742Y-53325500D01*
%TO.C,R5*%
X140986742Y-51801500D02*
X141461258Y-51801500D01*
X140986742Y-52846500D02*
X141461258Y-52846500D01*
%TO.C,R4*%
X137397258Y-46750500D02*
X136922742Y-46750500D01*
X137397258Y-45705500D02*
X136922742Y-45705500D01*
%TO.C,R3*%
X136922742Y-44181500D02*
X137397258Y-44181500D01*
X136922742Y-45226500D02*
X137397258Y-45226500D01*
%TO.C,R2*%
X141461258Y-46750500D02*
X140986742Y-46750500D01*
X141461258Y-45705500D02*
X140986742Y-45705500D01*
%TO.C,R1*%
X140986742Y-44181500D02*
X141461258Y-44181500D01*
X140986742Y-45226500D02*
X141461258Y-45226500D01*
%TO.C,Q47*%
X108980000Y-78796000D02*
X108980000Y-77866000D01*
X108980000Y-75636000D02*
X108980000Y-76566000D01*
X108980000Y-75636000D02*
X106820000Y-75636000D01*
X108980000Y-78796000D02*
X107520000Y-78796000D01*
%TO.C,Q46*%
X104900000Y-78796000D02*
X104900000Y-77866000D01*
X104900000Y-75636000D02*
X104900000Y-76566000D01*
X104900000Y-75636000D02*
X102740000Y-75636000D01*
X104900000Y-78796000D02*
X103440000Y-78796000D01*
%TO.C,Q45*%
X100852000Y-78796000D02*
X100852000Y-77866000D01*
X100852000Y-75636000D02*
X100852000Y-76566000D01*
X100852000Y-75636000D02*
X98692000Y-75636000D01*
X100852000Y-78796000D02*
X99392000Y-78796000D01*
%TO.C,Q44*%
X96788000Y-78796000D02*
X96788000Y-77866000D01*
X96788000Y-75636000D02*
X96788000Y-76566000D01*
X96788000Y-75636000D02*
X94628000Y-75636000D01*
X96788000Y-78796000D02*
X95328000Y-78796000D01*
%TO.C,Q43*%
X92724000Y-78796000D02*
X92724000Y-77866000D01*
X92724000Y-75636000D02*
X92724000Y-76566000D01*
X92724000Y-75636000D02*
X90564000Y-75636000D01*
X92724000Y-78796000D02*
X91264000Y-78796000D01*
%TO.C,Q42*%
X88644000Y-78796000D02*
X88644000Y-77866000D01*
X88644000Y-75636000D02*
X88644000Y-76566000D01*
X88644000Y-75636000D02*
X86484000Y-75636000D01*
X88644000Y-78796000D02*
X87184000Y-78796000D01*
%TO.C,Q41*%
X84088000Y-78796000D02*
X84088000Y-77866000D01*
X84088000Y-75636000D02*
X84088000Y-76566000D01*
X84088000Y-75636000D02*
X81928000Y-75636000D01*
X84088000Y-78796000D02*
X82628000Y-78796000D01*
%TO.C,Q40*%
X79500000Y-78796000D02*
X79500000Y-77866000D01*
X79500000Y-75636000D02*
X79500000Y-76566000D01*
X79500000Y-75636000D02*
X77340000Y-75636000D01*
X79500000Y-78796000D02*
X78040000Y-78796000D01*
%TO.C,Q28*%
X135580000Y-72896000D02*
X136510000Y-72896000D01*
X138740000Y-72896000D02*
X137810000Y-72896000D01*
X138740000Y-72896000D02*
X138740000Y-70736000D01*
X135580000Y-72896000D02*
X135580000Y-71436000D01*
%TO.C,Q27*%
X139644000Y-72896000D02*
X140574000Y-72896000D01*
X142804000Y-72896000D02*
X141874000Y-72896000D01*
X142804000Y-72896000D02*
X142804000Y-70736000D01*
X139644000Y-72896000D02*
X139644000Y-71436000D01*
%TO.C,Q26*%
X135580000Y-65260000D02*
X136510000Y-65260000D01*
X138740000Y-65260000D02*
X137810000Y-65260000D01*
X138740000Y-65260000D02*
X138740000Y-63100000D01*
X135580000Y-65260000D02*
X135580000Y-63800000D01*
%TO.C,Q25*%
X139644000Y-65276000D02*
X140574000Y-65276000D01*
X142804000Y-65276000D02*
X141874000Y-65276000D01*
X142804000Y-65276000D02*
X142804000Y-63116000D01*
X139644000Y-65276000D02*
X139644000Y-63816000D01*
%TO.C,Q24*%
X135646000Y-57640000D02*
X136576000Y-57640000D01*
X138806000Y-57640000D02*
X137876000Y-57640000D01*
X138806000Y-57640000D02*
X138806000Y-55480000D01*
X135646000Y-57640000D02*
X135646000Y-56180000D01*
%TO.C,Q23*%
X139644000Y-57656000D02*
X140574000Y-57656000D01*
X142804000Y-57656000D02*
X141874000Y-57656000D01*
X142804000Y-57656000D02*
X142804000Y-55496000D01*
X139644000Y-57656000D02*
X139644000Y-56196000D01*
%TO.C,Q22*%
X135580000Y-50036000D02*
X136510000Y-50036000D01*
X138740000Y-50036000D02*
X137810000Y-50036000D01*
X138740000Y-50036000D02*
X138740000Y-47876000D01*
X135580000Y-50036000D02*
X135580000Y-48576000D01*
%TO.C,Q21*%
X139644000Y-50036000D02*
X140574000Y-50036000D01*
X142804000Y-50036000D02*
X141874000Y-50036000D01*
X142804000Y-50036000D02*
X142804000Y-47876000D01*
X139644000Y-50036000D02*
X139644000Y-48576000D01*
%TO.C,J53*%
X130362000Y-71434000D02*
X130362000Y-68774000D01*
X122682000Y-71434000D02*
X130362000Y-71434000D01*
X122682000Y-68774000D02*
X130362000Y-68774000D01*
X122682000Y-71434000D02*
X122682000Y-68774000D01*
X121412000Y-71434000D02*
X120082000Y-71434000D01*
X120082000Y-71434000D02*
X120082000Y-70104000D01*
%TO.C,J52*%
X130362000Y-73974000D02*
X130362000Y-71314000D01*
X122682000Y-73974000D02*
X130362000Y-73974000D01*
X122682000Y-71314000D02*
X130362000Y-71314000D01*
X122682000Y-73974000D02*
X122682000Y-71314000D01*
X121412000Y-73974000D02*
X120082000Y-73974000D01*
X120082000Y-73974000D02*
X120082000Y-72644000D01*
%TO.C,J51*%
X130362000Y-76768000D02*
X130362000Y-74108000D01*
X122682000Y-76768000D02*
X130362000Y-76768000D01*
X122682000Y-74108000D02*
X130362000Y-74108000D01*
X122682000Y-76768000D02*
X122682000Y-74108000D01*
X121412000Y-76768000D02*
X120082000Y-76768000D01*
X120082000Y-76768000D02*
X120082000Y-75438000D01*
%TO.C,J2*%
X98358000Y-41208000D02*
X98358000Y-36008000D01*
X90678000Y-41208000D02*
X98358000Y-41208000D01*
X88078000Y-36008000D02*
X98358000Y-36008000D01*
X90678000Y-41208000D02*
X90678000Y-38608000D01*
X90678000Y-38608000D02*
X88078000Y-38608000D01*
X88078000Y-38608000D02*
X88078000Y-36008000D01*
X89408000Y-41208000D02*
X88078000Y-41208000D01*
X88078000Y-41208000D02*
X88078000Y-39878000D01*
%TO.C,J1*%
X64406000Y-65328000D02*
X64406000Y-77928000D01*
X64406000Y-77928000D02*
X74756000Y-77928000D01*
X74756000Y-77928000D02*
X74756000Y-76978000D01*
X74756000Y-76978000D02*
X75256000Y-77228000D01*
X75256000Y-77228000D02*
X75256000Y-75328000D01*
X75256000Y-75328000D02*
X75256000Y-75278000D01*
X75256000Y-75278000D02*
X74756000Y-75528000D01*
X74756000Y-75528000D02*
X74756000Y-70128000D01*
X74756000Y-70128000D02*
X75256000Y-70428000D01*
X75256000Y-70428000D02*
X75256000Y-65328000D01*
X75256000Y-65328000D02*
X64406000Y-65328000D01*
%TO.C,C24*%
X141485252Y-76173000D02*
X140962748Y-76173000D01*
X141485252Y-74703000D02*
X140962748Y-74703000D01*
%TO.C,C23*%
X136898748Y-74703000D02*
X137421252Y-74703000D01*
X136898748Y-76173000D02*
X137421252Y-76173000D01*
%TO.C,C22*%
X141231252Y-42645000D02*
X140708748Y-42645000D01*
X141231252Y-41175000D02*
X140708748Y-41175000D01*
%TO.C,C21*%
X136898748Y-40921000D02*
X137421252Y-40921000D01*
X136898748Y-42391000D02*
X137421252Y-42391000D01*
%TO.C,J23*%
D10*
X144232380Y-73961523D02*
X144946666Y-73961523D01*
X145089523Y-74009142D01*
X145184761Y-74104380D01*
X145232380Y-74247238D01*
X145232380Y-74342476D01*
X144327619Y-73532952D02*
X144280000Y-73485333D01*
X144232380Y-73390095D01*
X144232380Y-73152000D01*
X144280000Y-73056761D01*
X144327619Y-73009142D01*
X144422857Y-72961523D01*
X144518095Y-72961523D01*
X144660952Y-73009142D01*
X145232380Y-73580571D01*
X145232380Y-72961523D01*
X144232380Y-72628190D02*
X144232380Y-72009142D01*
X144613333Y-72342476D01*
X144613333Y-72199619D01*
X144660952Y-72104380D01*
X144708571Y-72056761D01*
X144803809Y-72009142D01*
X145041904Y-72009142D01*
X145137142Y-72056761D01*
X145184761Y-72104380D01*
X145232380Y-72199619D01*
X145232380Y-72485333D01*
X145184761Y-72580571D01*
X145137142Y-72628190D01*
%TO.C,J22*%
X144232380Y-65325523D02*
X144946666Y-65325523D01*
X145089523Y-65373142D01*
X145184761Y-65468380D01*
X145232380Y-65611238D01*
X145232380Y-65706476D01*
X144327619Y-64896952D02*
X144280000Y-64849333D01*
X144232380Y-64754095D01*
X144232380Y-64516000D01*
X144280000Y-64420761D01*
X144327619Y-64373142D01*
X144422857Y-64325523D01*
X144518095Y-64325523D01*
X144660952Y-64373142D01*
X145232380Y-64944571D01*
X145232380Y-64325523D01*
X144327619Y-63944571D02*
X144280000Y-63896952D01*
X144232380Y-63801714D01*
X144232380Y-63563619D01*
X144280000Y-63468380D01*
X144327619Y-63420761D01*
X144422857Y-63373142D01*
X144518095Y-63373142D01*
X144660952Y-63420761D01*
X145232380Y-63992190D01*
X145232380Y-63373142D01*
%TO.C,J21*%
X144232380Y-55673523D02*
X144946666Y-55673523D01*
X145089523Y-55721142D01*
X145184761Y-55816380D01*
X145232380Y-55959238D01*
X145232380Y-56054476D01*
X144327619Y-55244952D02*
X144280000Y-55197333D01*
X144232380Y-55102095D01*
X144232380Y-54864000D01*
X144280000Y-54768761D01*
X144327619Y-54721142D01*
X144422857Y-54673523D01*
X144518095Y-54673523D01*
X144660952Y-54721142D01*
X145232380Y-55292571D01*
X145232380Y-54673523D01*
X145232380Y-53721142D02*
X145232380Y-54292571D01*
X145232380Y-54006857D02*
X144232380Y-54006857D01*
X144375238Y-54102095D01*
X144470476Y-54197333D01*
X144518095Y-54292571D01*
%TO.C,J20*%
X144232380Y-48053523D02*
X144946666Y-48053523D01*
X145089523Y-48101142D01*
X145184761Y-48196380D01*
X145232380Y-48339238D01*
X145232380Y-48434476D01*
X144327619Y-47624952D02*
X144280000Y-47577333D01*
X144232380Y-47482095D01*
X144232380Y-47244000D01*
X144280000Y-47148761D01*
X144327619Y-47101142D01*
X144422857Y-47053523D01*
X144518095Y-47053523D01*
X144660952Y-47101142D01*
X145232380Y-47672571D01*
X145232380Y-47053523D01*
X144232380Y-46434476D02*
X144232380Y-46339238D01*
X144280000Y-46244000D01*
X144327619Y-46196380D01*
X144422857Y-46148761D01*
X144613333Y-46101142D01*
X144851428Y-46101142D01*
X145041904Y-46148761D01*
X145137142Y-46196380D01*
X145184761Y-46244000D01*
X145232380Y-46339238D01*
X145232380Y-46434476D01*
X145184761Y-46529714D01*
X145137142Y-46577333D01*
X145041904Y-46624952D01*
X144851428Y-46672571D01*
X144613333Y-46672571D01*
X144422857Y-46624952D01*
X144327619Y-46577333D01*
X144280000Y-46529714D01*
X144232380Y-46434476D01*
%TO.C,U50*%
X94773904Y-74464380D02*
X94773904Y-75273904D01*
X94821523Y-75369142D01*
X94869142Y-75416761D01*
X94964380Y-75464380D01*
X95154857Y-75464380D01*
X95250095Y-75416761D01*
X95297714Y-75369142D01*
X95345333Y-75273904D01*
X95345333Y-74464380D01*
X96297714Y-74464380D02*
X95821523Y-74464380D01*
X95773904Y-74940571D01*
X95821523Y-74892952D01*
X95916761Y-74845333D01*
X96154857Y-74845333D01*
X96250095Y-74892952D01*
X96297714Y-74940571D01*
X96345333Y-75035809D01*
X96345333Y-75273904D01*
X96297714Y-75369142D01*
X96250095Y-75416761D01*
X96154857Y-75464380D01*
X95916761Y-75464380D01*
X95821523Y-75416761D01*
X95773904Y-75369142D01*
X96964380Y-74464380D02*
X97059619Y-74464380D01*
X97154857Y-74512000D01*
X97202476Y-74559619D01*
X97250095Y-74654857D01*
X97297714Y-74845333D01*
X97297714Y-75083428D01*
X97250095Y-75273904D01*
X97202476Y-75369142D01*
X97154857Y-75416761D01*
X97059619Y-75464380D01*
X96964380Y-75464380D01*
X96869142Y-75416761D01*
X96821523Y-75369142D01*
X96773904Y-75273904D01*
X96726285Y-75083428D01*
X96726285Y-74845333D01*
X96773904Y-74654857D01*
X96821523Y-74559619D01*
X96869142Y-74512000D01*
X96964380Y-74464380D01*
%TO.C,J39b1*%
X144740380Y-29170095D02*
X145454666Y-29170095D01*
X145597523Y-29217714D01*
X145692761Y-29312952D01*
X145740380Y-29455809D01*
X145740380Y-29551047D01*
X144740380Y-28789142D02*
X144740380Y-28170095D01*
X145121333Y-28503428D01*
X145121333Y-28360571D01*
X145168952Y-28265333D01*
X145216571Y-28217714D01*
X145311809Y-28170095D01*
X145549904Y-28170095D01*
X145645142Y-28217714D01*
X145692761Y-28265333D01*
X145740380Y-28360571D01*
X145740380Y-28646285D01*
X145692761Y-28741523D01*
X145645142Y-28789142D01*
X145740380Y-27693904D02*
X145740380Y-27503428D01*
X145692761Y-27408190D01*
X145645142Y-27360571D01*
X145502285Y-27265333D01*
X145311809Y-27217714D01*
X144930857Y-27217714D01*
X144835619Y-27265333D01*
X144788000Y-27312952D01*
X144740380Y-27408190D01*
X144740380Y-27598666D01*
X144788000Y-27693904D01*
X144835619Y-27741523D01*
X144930857Y-27789142D01*
X145168952Y-27789142D01*
X145264190Y-27741523D01*
X145311809Y-27693904D01*
X145359428Y-27598666D01*
X145359428Y-27408190D01*
X145311809Y-27312952D01*
X145264190Y-27265333D01*
X145168952Y-27217714D01*
X145740380Y-26789142D02*
X144740380Y-26789142D01*
X145121333Y-26789142D02*
X145073714Y-26693904D01*
X145073714Y-26503428D01*
X145121333Y-26408190D01*
X145168952Y-26360571D01*
X145264190Y-26312952D01*
X145549904Y-26312952D01*
X145645142Y-26360571D01*
X145692761Y-26408190D01*
X145740380Y-26503428D01*
X145740380Y-26693904D01*
X145692761Y-26789142D01*
X145740380Y-25360571D02*
X145740380Y-25932000D01*
X145740380Y-25646285D02*
X144740380Y-25646285D01*
X144883238Y-25741523D01*
X144978476Y-25836761D01*
X145026095Y-25932000D01*
%TO.C,J39a1*%
X144740380Y-38314095D02*
X145454666Y-38314095D01*
X145597523Y-38361714D01*
X145692761Y-38456952D01*
X145740380Y-38599809D01*
X145740380Y-38695047D01*
X144740380Y-37933142D02*
X144740380Y-37314095D01*
X145121333Y-37647428D01*
X145121333Y-37504571D01*
X145168952Y-37409333D01*
X145216571Y-37361714D01*
X145311809Y-37314095D01*
X145549904Y-37314095D01*
X145645142Y-37361714D01*
X145692761Y-37409333D01*
X145740380Y-37504571D01*
X145740380Y-37790285D01*
X145692761Y-37885523D01*
X145645142Y-37933142D01*
X145740380Y-36837904D02*
X145740380Y-36647428D01*
X145692761Y-36552190D01*
X145645142Y-36504571D01*
X145502285Y-36409333D01*
X145311809Y-36361714D01*
X144930857Y-36361714D01*
X144835619Y-36409333D01*
X144788000Y-36456952D01*
X144740380Y-36552190D01*
X144740380Y-36742666D01*
X144788000Y-36837904D01*
X144835619Y-36885523D01*
X144930857Y-36933142D01*
X145168952Y-36933142D01*
X145264190Y-36885523D01*
X145311809Y-36837904D01*
X145359428Y-36742666D01*
X145359428Y-36552190D01*
X145311809Y-36456952D01*
X145264190Y-36409333D01*
X145168952Y-36361714D01*
X145740380Y-35504571D02*
X145216571Y-35504571D01*
X145121333Y-35552190D01*
X145073714Y-35647428D01*
X145073714Y-35837904D01*
X145121333Y-35933142D01*
X145692761Y-35504571D02*
X145740380Y-35599809D01*
X145740380Y-35837904D01*
X145692761Y-35933142D01*
X145597523Y-35980761D01*
X145502285Y-35980761D01*
X145407047Y-35933142D01*
X145359428Y-35837904D01*
X145359428Y-35599809D01*
X145311809Y-35504571D01*
X145740380Y-34504571D02*
X145740380Y-35076000D01*
X145740380Y-34790285D02*
X144740380Y-34790285D01*
X144883238Y-34885523D01*
X144978476Y-34980761D01*
X145026095Y-35076000D01*
%TO.C,J55*%
X147788380Y-85137523D02*
X148502666Y-85137523D01*
X148645523Y-85185142D01*
X148740761Y-85280380D01*
X148788380Y-85423238D01*
X148788380Y-85518476D01*
X147788380Y-84185142D02*
X147788380Y-84661333D01*
X148264571Y-84708952D01*
X148216952Y-84661333D01*
X148169333Y-84566095D01*
X148169333Y-84328000D01*
X148216952Y-84232761D01*
X148264571Y-84185142D01*
X148359809Y-84137523D01*
X148597904Y-84137523D01*
X148693142Y-84185142D01*
X148740761Y-84232761D01*
X148788380Y-84328000D01*
X148788380Y-84566095D01*
X148740761Y-84661333D01*
X148693142Y-84708952D01*
X147788380Y-83232761D02*
X147788380Y-83708952D01*
X148264571Y-83756571D01*
X148216952Y-83708952D01*
X148169333Y-83613714D01*
X148169333Y-83375619D01*
X148216952Y-83280380D01*
X148264571Y-83232761D01*
X148359809Y-83185142D01*
X148597904Y-83185142D01*
X148693142Y-83232761D01*
X148740761Y-83280380D01*
X148788380Y-83375619D01*
X148788380Y-83613714D01*
X148740761Y-83708952D01*
X148693142Y-83756571D01*
%TO.C,J54*%
X112736380Y-85137523D02*
X113450666Y-85137523D01*
X113593523Y-85185142D01*
X113688761Y-85280380D01*
X113736380Y-85423238D01*
X113736380Y-85518476D01*
X112736380Y-84185142D02*
X112736380Y-84661333D01*
X113212571Y-84708952D01*
X113164952Y-84661333D01*
X113117333Y-84566095D01*
X113117333Y-84328000D01*
X113164952Y-84232761D01*
X113212571Y-84185142D01*
X113307809Y-84137523D01*
X113545904Y-84137523D01*
X113641142Y-84185142D01*
X113688761Y-84232761D01*
X113736380Y-84328000D01*
X113736380Y-84566095D01*
X113688761Y-84661333D01*
X113641142Y-84708952D01*
X113069714Y-83280380D02*
X113736380Y-83280380D01*
X112688761Y-83518476D02*
X113403047Y-83756571D01*
X113403047Y-83137523D01*
%TO.C,J40*%
X77422476Y-81240380D02*
X77422476Y-81954666D01*
X77374857Y-82097523D01*
X77279619Y-82192761D01*
X77136761Y-82240380D01*
X77041523Y-82240380D01*
X78327238Y-81573714D02*
X78327238Y-82240380D01*
X78089142Y-81192761D02*
X77851047Y-81907047D01*
X78470095Y-81907047D01*
X79041523Y-81240380D02*
X79136761Y-81240380D01*
X79232000Y-81288000D01*
X79279619Y-81335619D01*
X79327238Y-81430857D01*
X79374857Y-81621333D01*
X79374857Y-81859428D01*
X79327238Y-82049904D01*
X79279619Y-82145142D01*
X79232000Y-82192761D01*
X79136761Y-82240380D01*
X79041523Y-82240380D01*
X78946285Y-82192761D01*
X78898666Y-82145142D01*
X78851047Y-82049904D01*
X78803428Y-81859428D01*
X78803428Y-81621333D01*
X78851047Y-81430857D01*
X78898666Y-81335619D01*
X78946285Y-81288000D01*
X79041523Y-81240380D01*
%TO.C,J37*%
X140414476Y-32472380D02*
X140414476Y-33186666D01*
X140366857Y-33329523D01*
X140271619Y-33424761D01*
X140128761Y-33472380D01*
X140033523Y-33472380D01*
X140795428Y-32472380D02*
X141414476Y-32472380D01*
X141081142Y-32853333D01*
X141224000Y-32853333D01*
X141319238Y-32900952D01*
X141366857Y-32948571D01*
X141414476Y-33043809D01*
X141414476Y-33281904D01*
X141366857Y-33377142D01*
X141319238Y-33424761D01*
X141224000Y-33472380D01*
X140938285Y-33472380D01*
X140843047Y-33424761D01*
X140795428Y-33377142D01*
X141747809Y-32472380D02*
X142414476Y-32472380D01*
X141985904Y-33472380D01*
%TO.C,J36*%
X144740380Y-16049523D02*
X145454666Y-16049523D01*
X145597523Y-16097142D01*
X145692761Y-16192380D01*
X145740380Y-16335238D01*
X145740380Y-16430476D01*
X144740380Y-15668571D02*
X144740380Y-15049523D01*
X145121333Y-15382857D01*
X145121333Y-15240000D01*
X145168952Y-15144761D01*
X145216571Y-15097142D01*
X145311809Y-15049523D01*
X145549904Y-15049523D01*
X145645142Y-15097142D01*
X145692761Y-15144761D01*
X145740380Y-15240000D01*
X145740380Y-15525714D01*
X145692761Y-15620952D01*
X145645142Y-15668571D01*
X144740380Y-14192380D02*
X144740380Y-14382857D01*
X144788000Y-14478095D01*
X144835619Y-14525714D01*
X144978476Y-14620952D01*
X145168952Y-14668571D01*
X145549904Y-14668571D01*
X145645142Y-14620952D01*
X145692761Y-14573333D01*
X145740380Y-14478095D01*
X145740380Y-14287619D01*
X145692761Y-14192380D01*
X145645142Y-14144761D01*
X145549904Y-14097142D01*
X145311809Y-14097142D01*
X145216571Y-14144761D01*
X145168952Y-14192380D01*
X145121333Y-14287619D01*
X145121333Y-14478095D01*
X145168952Y-14573333D01*
X145216571Y-14620952D01*
X145311809Y-14668571D01*
%TO.C,J31*%
X86320380Y-24685523D02*
X87034666Y-24685523D01*
X87177523Y-24733142D01*
X87272761Y-24828380D01*
X87320380Y-24971238D01*
X87320380Y-25066476D01*
X86320380Y-24304571D02*
X86320380Y-23685523D01*
X86701333Y-24018857D01*
X86701333Y-23876000D01*
X86748952Y-23780761D01*
X86796571Y-23733142D01*
X86891809Y-23685523D01*
X87129904Y-23685523D01*
X87225142Y-23733142D01*
X87272761Y-23780761D01*
X87320380Y-23876000D01*
X87320380Y-24161714D01*
X87272761Y-24256952D01*
X87225142Y-24304571D01*
X87320380Y-22733142D02*
X87320380Y-23304571D01*
X87320380Y-23018857D02*
X86320380Y-23018857D01*
X86463238Y-23114095D01*
X86558476Y-23209333D01*
X86606095Y-23304571D01*
%TO.C,J30*%
X86320380Y-15541523D02*
X87034666Y-15541523D01*
X87177523Y-15589142D01*
X87272761Y-15684380D01*
X87320380Y-15827238D01*
X87320380Y-15922476D01*
X86320380Y-15160571D02*
X86320380Y-14541523D01*
X86701333Y-14874857D01*
X86701333Y-14732000D01*
X86748952Y-14636761D01*
X86796571Y-14589142D01*
X86891809Y-14541523D01*
X87129904Y-14541523D01*
X87225142Y-14589142D01*
X87272761Y-14636761D01*
X87320380Y-14732000D01*
X87320380Y-15017714D01*
X87272761Y-15112952D01*
X87225142Y-15160571D01*
X86320380Y-13922476D02*
X86320380Y-13827238D01*
X86368000Y-13732000D01*
X86415619Y-13684380D01*
X86510857Y-13636761D01*
X86701333Y-13589142D01*
X86939428Y-13589142D01*
X87129904Y-13636761D01*
X87225142Y-13684380D01*
X87272761Y-13732000D01*
X87320380Y-13827238D01*
X87320380Y-13922476D01*
X87272761Y-14017714D01*
X87225142Y-14065333D01*
X87129904Y-14112952D01*
X86939428Y-14160571D01*
X86701333Y-14160571D01*
X86510857Y-14112952D01*
X86415619Y-14065333D01*
X86368000Y-14017714D01*
X86320380Y-13922476D01*
%TO.C,R17*%
X108782380Y-54998857D02*
X108306190Y-55332190D01*
X108782380Y-55570285D02*
X107782380Y-55570285D01*
X107782380Y-55189333D01*
X107830000Y-55094095D01*
X107877619Y-55046476D01*
X107972857Y-54998857D01*
X108115714Y-54998857D01*
X108210952Y-55046476D01*
X108258571Y-55094095D01*
X108306190Y-55189333D01*
X108306190Y-55570285D01*
X108782380Y-54046476D02*
X108782380Y-54617904D01*
X108782380Y-54332190D02*
X107782380Y-54332190D01*
X107925238Y-54427428D01*
X108020476Y-54522666D01*
X108068095Y-54617904D01*
X107782380Y-53713142D02*
X107782380Y-53046476D01*
X108782380Y-53475047D01*
%TO.C,J5*%
X125904666Y-33190380D02*
X125904666Y-33904666D01*
X125857047Y-34047523D01*
X125761809Y-34142761D01*
X125618952Y-34190380D01*
X125523714Y-34190380D01*
X126857047Y-33190380D02*
X126380857Y-33190380D01*
X126333238Y-33666571D01*
X126380857Y-33618952D01*
X126476095Y-33571333D01*
X126714190Y-33571333D01*
X126809428Y-33618952D01*
X126857047Y-33666571D01*
X126904666Y-33761809D01*
X126904666Y-33999904D01*
X126857047Y-34095142D01*
X126809428Y-34142761D01*
X126714190Y-34190380D01*
X126476095Y-34190380D01*
X126380857Y-34142761D01*
X126333238Y-34095142D01*
%TO.C,J4*%
X65492380Y-43005333D02*
X66206666Y-43005333D01*
X66349523Y-43052952D01*
X66444761Y-43148190D01*
X66492380Y-43291047D01*
X66492380Y-43386285D01*
X65825714Y-42100571D02*
X66492380Y-42100571D01*
X65444761Y-42338666D02*
X66159047Y-42576761D01*
X66159047Y-41957714D01*
X76922380Y-29210000D02*
X77160476Y-29210000D01*
X77065238Y-29448095D02*
X77160476Y-29210000D01*
X77065238Y-28971904D01*
X77350952Y-29352857D02*
X77160476Y-29210000D01*
X77350952Y-29067142D01*
%TO.C,C1*%
X72985333Y-45631142D02*
X72937714Y-45678761D01*
X72794857Y-45726380D01*
X72699619Y-45726380D01*
X72556761Y-45678761D01*
X72461523Y-45583523D01*
X72413904Y-45488285D01*
X72366285Y-45297809D01*
X72366285Y-45154952D01*
X72413904Y-44964476D01*
X72461523Y-44869238D01*
X72556761Y-44774000D01*
X72699619Y-44726380D01*
X72794857Y-44726380D01*
X72937714Y-44774000D01*
X72985333Y-44821619D01*
X73937714Y-45726380D02*
X73366285Y-45726380D01*
X73652000Y-45726380D02*
X73652000Y-44726380D01*
X73556761Y-44869238D01*
X73461523Y-44964476D01*
X73366285Y-45012095D01*
%TO.C,J3*%
X135810666Y-33488380D02*
X135810666Y-34202666D01*
X135763047Y-34345523D01*
X135667809Y-34440761D01*
X135524952Y-34488380D01*
X135429714Y-34488380D01*
X136191619Y-33488380D02*
X136810666Y-33488380D01*
X136477333Y-33869333D01*
X136620190Y-33869333D01*
X136715428Y-33916952D01*
X136763047Y-33964571D01*
X136810666Y-34059809D01*
X136810666Y-34297904D01*
X136763047Y-34393142D01*
X136715428Y-34440761D01*
X136620190Y-34488380D01*
X136334476Y-34488380D01*
X136239238Y-34440761D01*
X136191619Y-34393142D01*
%TO.C,U31*%
X108997904Y-33488380D02*
X108997904Y-34297904D01*
X109045523Y-34393142D01*
X109093142Y-34440761D01*
X109188380Y-34488380D01*
X109378857Y-34488380D01*
X109474095Y-34440761D01*
X109521714Y-34393142D01*
X109569333Y-34297904D01*
X109569333Y-33488380D01*
X109950285Y-33488380D02*
X110569333Y-33488380D01*
X110236000Y-33869333D01*
X110378857Y-33869333D01*
X110474095Y-33916952D01*
X110521714Y-33964571D01*
X110569333Y-34059809D01*
X110569333Y-34297904D01*
X110521714Y-34393142D01*
X110474095Y-34440761D01*
X110378857Y-34488380D01*
X110093142Y-34488380D01*
X109997904Y-34440761D01*
X109950285Y-34393142D01*
X111521714Y-34488380D02*
X110950285Y-34488380D01*
X111236000Y-34488380D02*
X111236000Y-33488380D01*
X111140761Y-33631238D01*
X111045523Y-33726476D01*
X110950285Y-33774095D01*
%TO.C,Q47*%
X107648571Y-75263619D02*
X107553333Y-75216000D01*
X107458095Y-75120761D01*
X107315238Y-74977904D01*
X107220000Y-74930285D01*
X107124761Y-74930285D01*
X107172380Y-75168380D02*
X107077142Y-75120761D01*
X106981904Y-75025523D01*
X106934285Y-74835047D01*
X106934285Y-74501714D01*
X106981904Y-74311238D01*
X107077142Y-74216000D01*
X107172380Y-74168380D01*
X107362857Y-74168380D01*
X107458095Y-74216000D01*
X107553333Y-74311238D01*
X107600952Y-74501714D01*
X107600952Y-74835047D01*
X107553333Y-75025523D01*
X107458095Y-75120761D01*
X107362857Y-75168380D01*
X107172380Y-75168380D01*
X108458095Y-74501714D02*
X108458095Y-75168380D01*
X108220000Y-74120761D02*
X107981904Y-74835047D01*
X108600952Y-74835047D01*
X108886666Y-74168380D02*
X109553333Y-74168380D01*
X109124761Y-75168380D01*
%TO.C,Q46*%
X103568571Y-75263619D02*
X103473333Y-75216000D01*
X103378095Y-75120761D01*
X103235238Y-74977904D01*
X103140000Y-74930285D01*
X103044761Y-74930285D01*
X103092380Y-75168380D02*
X102997142Y-75120761D01*
X102901904Y-75025523D01*
X102854285Y-74835047D01*
X102854285Y-74501714D01*
X102901904Y-74311238D01*
X102997142Y-74216000D01*
X103092380Y-74168380D01*
X103282857Y-74168380D01*
X103378095Y-74216000D01*
X103473333Y-74311238D01*
X103520952Y-74501714D01*
X103520952Y-74835047D01*
X103473333Y-75025523D01*
X103378095Y-75120761D01*
X103282857Y-75168380D01*
X103092380Y-75168380D01*
X104378095Y-74501714D02*
X104378095Y-75168380D01*
X104140000Y-74120761D02*
X103901904Y-74835047D01*
X104520952Y-74835047D01*
X105330476Y-74168380D02*
X105140000Y-74168380D01*
X105044761Y-74216000D01*
X104997142Y-74263619D01*
X104901904Y-74406476D01*
X104854285Y-74596952D01*
X104854285Y-74977904D01*
X104901904Y-75073142D01*
X104949523Y-75120761D01*
X105044761Y-75168380D01*
X105235238Y-75168380D01*
X105330476Y-75120761D01*
X105378095Y-75073142D01*
X105425714Y-74977904D01*
X105425714Y-74739809D01*
X105378095Y-74644571D01*
X105330476Y-74596952D01*
X105235238Y-74549333D01*
X105044761Y-74549333D01*
X104949523Y-74596952D01*
X104901904Y-74644571D01*
X104854285Y-74739809D01*
%TO.C,Q45*%
X99520571Y-75263619D02*
X99425333Y-75216000D01*
X99330095Y-75120761D01*
X99187238Y-74977904D01*
X99092000Y-74930285D01*
X98996761Y-74930285D01*
X99044380Y-75168380D02*
X98949142Y-75120761D01*
X98853904Y-75025523D01*
X98806285Y-74835047D01*
X98806285Y-74501714D01*
X98853904Y-74311238D01*
X98949142Y-74216000D01*
X99044380Y-74168380D01*
X99234857Y-74168380D01*
X99330095Y-74216000D01*
X99425333Y-74311238D01*
X99472952Y-74501714D01*
X99472952Y-74835047D01*
X99425333Y-75025523D01*
X99330095Y-75120761D01*
X99234857Y-75168380D01*
X99044380Y-75168380D01*
X100330095Y-74501714D02*
X100330095Y-75168380D01*
X100092000Y-74120761D02*
X99853904Y-74835047D01*
X100472952Y-74835047D01*
X101330095Y-74168380D02*
X100853904Y-74168380D01*
X100806285Y-74644571D01*
X100853904Y-74596952D01*
X100949142Y-74549333D01*
X101187238Y-74549333D01*
X101282476Y-74596952D01*
X101330095Y-74644571D01*
X101377714Y-74739809D01*
X101377714Y-74977904D01*
X101330095Y-75073142D01*
X101282476Y-75120761D01*
X101187238Y-75168380D01*
X100949142Y-75168380D01*
X100853904Y-75120761D01*
X100806285Y-75073142D01*
%TO.C,Q44*%
X95456571Y-75263619D02*
X95361333Y-75216000D01*
X95266095Y-75120761D01*
X95123238Y-74977904D01*
X95028000Y-74930285D01*
X94932761Y-74930285D01*
X94980380Y-75168380D02*
X94885142Y-75120761D01*
X94789904Y-75025523D01*
X94742285Y-74835047D01*
X94742285Y-74501714D01*
X94789904Y-74311238D01*
X94885142Y-74216000D01*
X94980380Y-74168380D01*
X95170857Y-74168380D01*
X95266095Y-74216000D01*
X95361333Y-74311238D01*
X95408952Y-74501714D01*
X95408952Y-74835047D01*
X95361333Y-75025523D01*
X95266095Y-75120761D01*
X95170857Y-75168380D01*
X94980380Y-75168380D01*
X96266095Y-74501714D02*
X96266095Y-75168380D01*
X96028000Y-74120761D02*
X95789904Y-74835047D01*
X96408952Y-74835047D01*
X97218476Y-74501714D02*
X97218476Y-75168380D01*
X96980380Y-74120761D02*
X96742285Y-74835047D01*
X97361333Y-74835047D01*
%TO.C,Q43*%
X91392571Y-75263619D02*
X91297333Y-75216000D01*
X91202095Y-75120761D01*
X91059238Y-74977904D01*
X90964000Y-74930285D01*
X90868761Y-74930285D01*
X90916380Y-75168380D02*
X90821142Y-75120761D01*
X90725904Y-75025523D01*
X90678285Y-74835047D01*
X90678285Y-74501714D01*
X90725904Y-74311238D01*
X90821142Y-74216000D01*
X90916380Y-74168380D01*
X91106857Y-74168380D01*
X91202095Y-74216000D01*
X91297333Y-74311238D01*
X91344952Y-74501714D01*
X91344952Y-74835047D01*
X91297333Y-75025523D01*
X91202095Y-75120761D01*
X91106857Y-75168380D01*
X90916380Y-75168380D01*
X92202095Y-74501714D02*
X92202095Y-75168380D01*
X91964000Y-74120761D02*
X91725904Y-74835047D01*
X92344952Y-74835047D01*
X92630666Y-74168380D02*
X93249714Y-74168380D01*
X92916380Y-74549333D01*
X93059238Y-74549333D01*
X93154476Y-74596952D01*
X93202095Y-74644571D01*
X93249714Y-74739809D01*
X93249714Y-74977904D01*
X93202095Y-75073142D01*
X93154476Y-75120761D01*
X93059238Y-75168380D01*
X92773523Y-75168380D01*
X92678285Y-75120761D01*
X92630666Y-75073142D01*
%TO.C,Q42*%
X87312571Y-75263619D02*
X87217333Y-75216000D01*
X87122095Y-75120761D01*
X86979238Y-74977904D01*
X86884000Y-74930285D01*
X86788761Y-74930285D01*
X86836380Y-75168380D02*
X86741142Y-75120761D01*
X86645904Y-75025523D01*
X86598285Y-74835047D01*
X86598285Y-74501714D01*
X86645904Y-74311238D01*
X86741142Y-74216000D01*
X86836380Y-74168380D01*
X87026857Y-74168380D01*
X87122095Y-74216000D01*
X87217333Y-74311238D01*
X87264952Y-74501714D01*
X87264952Y-74835047D01*
X87217333Y-75025523D01*
X87122095Y-75120761D01*
X87026857Y-75168380D01*
X86836380Y-75168380D01*
X88122095Y-74501714D02*
X88122095Y-75168380D01*
X87884000Y-74120761D02*
X87645904Y-74835047D01*
X88264952Y-74835047D01*
X88598285Y-74263619D02*
X88645904Y-74216000D01*
X88741142Y-74168380D01*
X88979238Y-74168380D01*
X89074476Y-74216000D01*
X89122095Y-74263619D01*
X89169714Y-74358857D01*
X89169714Y-74454095D01*
X89122095Y-74596952D01*
X88550666Y-75168380D01*
X89169714Y-75168380D01*
%TO.C,Q41*%
X82756571Y-75263619D02*
X82661333Y-75216000D01*
X82566095Y-75120761D01*
X82423238Y-74977904D01*
X82328000Y-74930285D01*
X82232761Y-74930285D01*
X82280380Y-75168380D02*
X82185142Y-75120761D01*
X82089904Y-75025523D01*
X82042285Y-74835047D01*
X82042285Y-74501714D01*
X82089904Y-74311238D01*
X82185142Y-74216000D01*
X82280380Y-74168380D01*
X82470857Y-74168380D01*
X82566095Y-74216000D01*
X82661333Y-74311238D01*
X82708952Y-74501714D01*
X82708952Y-74835047D01*
X82661333Y-75025523D01*
X82566095Y-75120761D01*
X82470857Y-75168380D01*
X82280380Y-75168380D01*
X83566095Y-74501714D02*
X83566095Y-75168380D01*
X83328000Y-74120761D02*
X83089904Y-74835047D01*
X83708952Y-74835047D01*
X84613714Y-75168380D02*
X84042285Y-75168380D01*
X84328000Y-75168380D02*
X84328000Y-74168380D01*
X84232761Y-74311238D01*
X84137523Y-74406476D01*
X84042285Y-74454095D01*
%TO.C,Q40*%
X78168571Y-75263619D02*
X78073333Y-75216000D01*
X77978095Y-75120761D01*
X77835238Y-74977904D01*
X77740000Y-74930285D01*
X77644761Y-74930285D01*
X77692380Y-75168380D02*
X77597142Y-75120761D01*
X77501904Y-75025523D01*
X77454285Y-74835047D01*
X77454285Y-74501714D01*
X77501904Y-74311238D01*
X77597142Y-74216000D01*
X77692380Y-74168380D01*
X77882857Y-74168380D01*
X77978095Y-74216000D01*
X78073333Y-74311238D01*
X78120952Y-74501714D01*
X78120952Y-74835047D01*
X78073333Y-75025523D01*
X77978095Y-75120761D01*
X77882857Y-75168380D01*
X77692380Y-75168380D01*
X78978095Y-74501714D02*
X78978095Y-75168380D01*
X78740000Y-74120761D02*
X78501904Y-74835047D01*
X79120952Y-74835047D01*
X79692380Y-74168380D02*
X79787619Y-74168380D01*
X79882857Y-74216000D01*
X79930476Y-74263619D01*
X79978095Y-74358857D01*
X80025714Y-74549333D01*
X80025714Y-74787428D01*
X79978095Y-74977904D01*
X79930476Y-75073142D01*
X79882857Y-75120761D01*
X79787619Y-75168380D01*
X79692380Y-75168380D01*
X79597142Y-75120761D01*
X79549523Y-75073142D01*
X79501904Y-74977904D01*
X79454285Y-74787428D01*
X79454285Y-74549333D01*
X79501904Y-74358857D01*
X79549523Y-74263619D01*
X79597142Y-74216000D01*
X79692380Y-74168380D01*
%TO.C,J2*%
X93138666Y-35012380D02*
X93138666Y-35726666D01*
X93091047Y-35869523D01*
X92995809Y-35964761D01*
X92852952Y-36012380D01*
X92757714Y-36012380D01*
X93567238Y-35107619D02*
X93614857Y-35060000D01*
X93710095Y-35012380D01*
X93948190Y-35012380D01*
X94043428Y-35060000D01*
X94091047Y-35107619D01*
X94138666Y-35202857D01*
X94138666Y-35298095D01*
X94091047Y-35440952D01*
X93519619Y-36012380D01*
X94138666Y-36012380D01*
%TO.C,J1*%
X64802666Y-64090380D02*
X64802666Y-64804666D01*
X64755047Y-64947523D01*
X64659809Y-65042761D01*
X64516952Y-65090380D01*
X64421714Y-65090380D01*
X65802666Y-65090380D02*
X65231238Y-65090380D01*
X65516952Y-65090380D02*
X65516952Y-64090380D01*
X65421714Y-64233238D01*
X65326476Y-64328476D01*
X65231238Y-64376095D01*
%TD*%
M02*
