%TF.GenerationSoftware,KiCad,Pcbnew,5.1.9-73d0e3b20d~88~ubuntu20.04.1*%
%TF.CreationDate,2021-02-26T13:03:21-08:00*%
%TF.ProjectId,TeensyMonitorV5,5465656e-7379-44d6-9f6e-69746f725635,rev?*%
%TF.SameCoordinates,Original*%
%TF.FileFunction,Copper,L1,Top*%
%TF.FilePolarity,Positive*%
%FSLAX46Y46*%
G04 Gerber Fmt 4.6, Leading zero omitted, Abs format (unit mm)*
G04 Created by KiCad (PCBNEW 5.1.9-73d0e3b20d~88~ubuntu20.04.1) date 2021-02-26 13:03:21*
%MOMM*%
%LPD*%
G01*
G04 APERTURE LIST*
%TA.AperFunction,SMDPad,CuDef*%
%ADD10R,0.800000X0.500000*%
%TD*%
%TA.AperFunction,SMDPad,CuDef*%
%ADD11R,0.800000X0.400000*%
%TD*%
%TA.AperFunction,ComponentPad*%
%ADD12O,1.200000X2.000000*%
%TD*%
%TA.AperFunction,ComponentPad*%
%ADD13O,1.700000X1.700000*%
%TD*%
%TA.AperFunction,ComponentPad*%
%ADD14R,1.700000X1.700000*%
%TD*%
%TA.AperFunction,ComponentPad*%
%ADD15C,1.300000*%
%TD*%
%TA.AperFunction,ComponentPad*%
%ADD16C,1.600000*%
%TD*%
%TA.AperFunction,ComponentPad*%
%ADD17R,1.300000X1.300000*%
%TD*%
%TA.AperFunction,ComponentPad*%
%ADD18R,1.600000X1.600000*%
%TD*%
%TA.AperFunction,ComponentPad*%
%ADD19C,2.108200*%
%TD*%
%TA.AperFunction,ComponentPad*%
%ADD20C,3.759200*%
%TD*%
%TA.AperFunction,ComponentPad*%
%ADD21C,1.549400*%
%TD*%
%TA.AperFunction,ComponentPad*%
%ADD22C,1.397000*%
%TD*%
%TA.AperFunction,SMDPad,CuDef*%
%ADD23R,1.200000X1.200000*%
%TD*%
%TA.AperFunction,ComponentPad*%
%ADD24C,0.900000*%
%TD*%
%TA.AperFunction,ComponentPad*%
%ADD25C,8.600000*%
%TD*%
%TA.AperFunction,SMDPad,CuDef*%
%ADD26R,0.900000X0.800000*%
%TD*%
%TA.AperFunction,SMDPad,CuDef*%
%ADD27R,0.800000X0.900000*%
%TD*%
%TA.AperFunction,ComponentPad*%
%ADD28O,1.980000X3.960000*%
%TD*%
%TA.AperFunction,ComponentPad*%
%ADD29R,1.980000X3.960000*%
%TD*%
%TA.AperFunction,ViaPad*%
%ADD30C,0.800000*%
%TD*%
%TA.AperFunction,Conductor*%
%ADD31C,0.250000*%
%TD*%
G04 APERTURE END LIST*
D10*
%TO.P,RN34,5*%
%TO.N,Net-(RN31-Pad5)*%
X119772000Y-38284000D03*
D11*
%TO.P,RN34,6*%
X119772000Y-37484000D03*
D10*
%TO.P,RN34,8*%
X119772000Y-35884000D03*
D11*
%TO.P,RN34,7*%
X119772000Y-36684000D03*
D10*
%TO.P,RN34,4*%
%TO.N,Net-(J36-Pad3)*%
X117972000Y-38284000D03*
D11*
%TO.P,RN34,2*%
%TO.N,Net-(J37-Pad2)*%
X117972000Y-36684000D03*
%TO.P,RN34,3*%
%TO.N,Net-(J36-Pad2)*%
X117972000Y-37484000D03*
D10*
%TO.P,RN34,1*%
%TO.N,Net-(J37-Pad3)*%
X117972000Y-35884000D03*
%TD*%
D12*
%TO.P,J23,4*%
%TO.N,GND*%
X156404000Y-73406000D03*
%TO.P,J23,3*%
%TO.N,Net-(J23-Pad3)*%
X153904000Y-73406000D03*
%TO.P,J23,2*%
%TO.N,Net-(J23-Pad2)*%
X151404000Y-73406000D03*
%TO.P,J23,1*%
%TO.N,5V*%
X148904000Y-73406000D03*
%TD*%
%TO.P,J22,4*%
%TO.N,GND*%
X156404000Y-64262000D03*
%TO.P,J22,3*%
%TO.N,Net-(J22-Pad3)*%
X153904000Y-64262000D03*
%TO.P,J22,2*%
%TO.N,Net-(J22-Pad2)*%
X151404000Y-64262000D03*
%TO.P,J22,1*%
%TO.N,5V*%
X148904000Y-64262000D03*
%TD*%
%TO.P,J21,4*%
%TO.N,GND*%
X156404000Y-55118000D03*
%TO.P,J21,3*%
%TO.N,Net-(J21-Pad3)*%
X153904000Y-55118000D03*
%TO.P,J21,2*%
%TO.N,Net-(J21-Pad2)*%
X151404000Y-55118000D03*
%TO.P,J21,1*%
%TO.N,5V*%
X148904000Y-55118000D03*
%TD*%
%TO.P,J20,4*%
%TO.N,GND*%
X156404000Y-45974000D03*
%TO.P,J20,3*%
%TO.N,Net-(J20-Pad3)*%
X153904000Y-45974000D03*
%TO.P,J20,2*%
%TO.N,Net-(J20-Pad2)*%
X151404000Y-45974000D03*
%TO.P,J20,1*%
%TO.N,5V*%
X148904000Y-45974000D03*
%TD*%
%TO.P,U50,14*%
%TO.N,T_IRQ*%
X112262000Y-70612000D03*
%TO.P,U50,13*%
%TO.N,MISO*%
X109762000Y-70612000D03*
%TO.P,U50,12*%
%TO.N,MOSI*%
X107262000Y-70612000D03*
%TO.P,U50,11*%
%TO.N,T_CS*%
X104762000Y-70612000D03*
%TO.P,U50,10*%
%TO.N,SCK*%
X102262000Y-70612000D03*
%TO.P,U50,9*%
%TO.N,MISO*%
X99762000Y-70612000D03*
%TO.P,U50,8*%
%TO.N,Net-(R51-Pad1)*%
X97262000Y-70612000D03*
%TO.P,U50,7*%
%TO.N,SCK*%
X94762000Y-70612000D03*
%TO.P,U50,6*%
%TO.N,MOSI*%
X92262000Y-70612000D03*
%TO.P,U50,5*%
%TO.N,DC*%
X89762000Y-70612000D03*
%TO.P,U50,4*%
%TO.N,3V3*%
X87262000Y-70612000D03*
%TO.P,U50,3*%
%TO.N,CS*%
X84762000Y-70612000D03*
%TO.P,U50,2*%
%TO.N,GND*%
X82262000Y-70612000D03*
%TO.P,U50,1*%
%TO.N,5V*%
X79762000Y-70612000D03*
%TD*%
%TO.P,J39b1,4*%
%TO.N,GND*%
X156404000Y-27686000D03*
%TO.P,J39b1,3*%
%TO.N,SDA*%
X153904000Y-27686000D03*
%TO.P,J39b1,2*%
%TO.N,SCL*%
X151404000Y-27686000D03*
%TO.P,J39b1,1*%
%TO.N,3V3*%
X148904000Y-27686000D03*
%TD*%
%TO.P,J39a1,4*%
%TO.N,GND*%
X156404000Y-36830000D03*
%TO.P,J39a1,3*%
%TO.N,SDA*%
X153904000Y-36830000D03*
%TO.P,J39a1,2*%
%TO.N,SCL*%
X151404000Y-36830000D03*
%TO.P,J39a1,1*%
%TO.N,3V3*%
X148904000Y-36830000D03*
%TD*%
%TO.P,J55,5*%
%TO.N,GND*%
X144446000Y-84074000D03*
%TO.P,J55,4*%
%TO.N,3V3*%
X141946000Y-84074000D03*
%TO.P,J55,3*%
%TO.N,SCK*%
X139446000Y-84074000D03*
%TO.P,J55,2*%
%TO.N,MISO*%
X136946000Y-84074000D03*
%TO.P,J55,1*%
%TO.N,MOTOR1*%
X134446000Y-84074000D03*
%TD*%
%TO.P,J54,5*%
%TO.N,GND*%
X127174000Y-84074000D03*
%TO.P,J54,4*%
%TO.N,3V3*%
X124674000Y-84074000D03*
%TO.P,J54,3*%
%TO.N,SCK*%
X122174000Y-84074000D03*
%TO.P,J54,2*%
%TO.N,MISO*%
X119674000Y-84074000D03*
%TO.P,J54,1*%
%TO.N,MOTOR0*%
X117174000Y-84074000D03*
%TD*%
%TO.P,J40,10*%
%TO.N,GND*%
X105484000Y-84074000D03*
%TO.P,J40,9*%
%TO.N,Net-(J40-Pad9)*%
X102984000Y-84074000D03*
%TO.P,J40,8*%
%TO.N,Net-(J40-Pad8)*%
X100484000Y-84074000D03*
%TO.P,J40,7*%
%TO.N,Net-(J40-Pad7)*%
X97984000Y-84074000D03*
%TO.P,J40,6*%
%TO.N,Net-(J40-Pad6)*%
X95484000Y-84074000D03*
%TO.P,J40,5*%
%TO.N,Net-(J40-Pad5)*%
X92984000Y-84074000D03*
%TO.P,J40,4*%
%TO.N,Net-(J40-Pad4)*%
X90484000Y-84074000D03*
%TO.P,J40,3*%
%TO.N,Net-(J40-Pad3)*%
X87984000Y-84074000D03*
%TO.P,J40,2*%
%TO.N,Net-(J40-Pad2)*%
X85484000Y-84074000D03*
%TO.P,J40,1*%
%TO.N,5V*%
X82984000Y-84074000D03*
%TD*%
%TO.P,J37,4*%
%TO.N,GND*%
X133410000Y-26924000D03*
%TO.P,J37,3*%
%TO.N,Net-(J37-Pad3)*%
X135910000Y-26924000D03*
%TO.P,J37,2*%
%TO.N,Net-(J37-Pad2)*%
X138410000Y-26924000D03*
%TO.P,J37,1*%
%TO.N,3V3*%
X140910000Y-26924000D03*
%TD*%
%TO.P,J36,4*%
%TO.N,GND*%
X133410000Y-17526000D03*
%TO.P,J36,3*%
%TO.N,Net-(J36-Pad3)*%
X135910000Y-17526000D03*
%TO.P,J36,2*%
%TO.N,Net-(J36-Pad2)*%
X138410000Y-17526000D03*
%TO.P,J36,1*%
%TO.N,3V3*%
X140910000Y-17526000D03*
%TD*%
%TO.P,J35,4*%
%TO.N,GND*%
X119186000Y-26924000D03*
%TO.P,J35,3*%
%TO.N,Net-(J35-Pad3)*%
X121686000Y-26924000D03*
%TO.P,J35,2*%
%TO.N,Net-(J35-Pad2)*%
X124186000Y-26924000D03*
%TO.P,J35,1*%
%TO.N,3V3*%
X126686000Y-26924000D03*
%TD*%
%TO.P,J34,4*%
%TO.N,GND*%
X119186000Y-17526000D03*
%TO.P,J34,3*%
%TO.N,Net-(J34-Pad3)*%
X121686000Y-17526000D03*
%TO.P,J34,2*%
%TO.N,Net-(J34-Pad2)*%
X124186000Y-17526000D03*
%TO.P,J34,1*%
%TO.N,3V3*%
X126686000Y-17526000D03*
%TD*%
%TO.P,J33,4*%
%TO.N,GND*%
X104962000Y-26924000D03*
%TO.P,J33,3*%
%TO.N,Net-(J33-Pad3)*%
X107462000Y-26924000D03*
%TO.P,J33,2*%
%TO.N,Net-(J33-Pad2)*%
X109962000Y-26924000D03*
%TO.P,J33,1*%
%TO.N,3V3*%
X112462000Y-26924000D03*
%TD*%
%TO.P,J32,4*%
%TO.N,GND*%
X104962000Y-17526000D03*
%TO.P,J32,3*%
%TO.N,Net-(J32-Pad3)*%
X107462000Y-17526000D03*
%TO.P,J32,2*%
%TO.N,Net-(J32-Pad2)*%
X109962000Y-17526000D03*
%TO.P,J32,1*%
%TO.N,3V3*%
X112462000Y-17526000D03*
%TD*%
%TO.P,J31,4*%
%TO.N,GND*%
X90738000Y-26924000D03*
%TO.P,J31,3*%
%TO.N,Net-(J31-Pad3)*%
X93238000Y-26924000D03*
%TO.P,J31,2*%
%TO.N,Net-(J31-Pad2)*%
X95738000Y-26924000D03*
%TO.P,J31,1*%
%TO.N,3V3*%
X98238000Y-26924000D03*
%TD*%
%TO.P,J30,4*%
%TO.N,GND*%
X90738000Y-17526000D03*
%TO.P,J30,3*%
%TO.N,Net-(J30-Pad3)*%
X93238000Y-17526000D03*
%TO.P,J30,2*%
%TO.N,Net-(J30-Pad2)*%
X95738000Y-17526000D03*
%TO.P,J30,1*%
%TO.N,3V3*%
X98238000Y-17526000D03*
%TD*%
%TO.P,R17,2*%
%TO.N,3V3*%
%TA.AperFunction,SMDPad,CuDef*%
G36*
G01*
X106229999Y-54756000D02*
X107130001Y-54756000D01*
G75*
G02*
X107380000Y-55005999I0J-249999D01*
G01*
X107380000Y-55531001D01*
G75*
G02*
X107130001Y-55781000I-249999J0D01*
G01*
X106229999Y-55781000D01*
G75*
G02*
X105980000Y-55531001I0J249999D01*
G01*
X105980000Y-55005999D01*
G75*
G02*
X106229999Y-54756000I249999J0D01*
G01*
G37*
%TD.AperFunction*%
%TO.P,R17,1*%
%TO.N,SCK*%
%TA.AperFunction,SMDPad,CuDef*%
G36*
G01*
X106229999Y-52931000D02*
X107130001Y-52931000D01*
G75*
G02*
X107380000Y-53180999I0J-249999D01*
G01*
X107380000Y-53706001D01*
G75*
G02*
X107130001Y-53956000I-249999J0D01*
G01*
X106229999Y-53956000D01*
G75*
G02*
X105980000Y-53706001I0J249999D01*
G01*
X105980000Y-53180999D01*
G75*
G02*
X106229999Y-52931000I249999J0D01*
G01*
G37*
%TD.AperFunction*%
%TD*%
D13*
%TO.P,J5,4*%
%TO.N,GND*%
X127508000Y-38608000D03*
%TO.P,J5,3*%
%TO.N,Net-(J5-Pad3)*%
X124968000Y-38608000D03*
%TO.P,J5,2*%
%TO.N,Net-(J5-Pad2)*%
X127508000Y-36068000D03*
D14*
%TO.P,J5,1*%
%TO.N,3V3*%
X124968000Y-36068000D03*
%TD*%
D15*
%TO.P,U1,66*%
%TO.N,N/C*%
X74390000Y-53340000D03*
%TO.P,U1,67*%
X74390000Y-55880000D03*
D16*
%TO.P,U1,54*%
X119380000Y-49530000D03*
%TO.P,U1,53*%
X119380000Y-52070000D03*
%TO.P,U1,52*%
X119380000Y-54610000D03*
%TO.P,U1,51*%
X119380000Y-57150000D03*
%TO.P,U1,50*%
X119380000Y-59690000D03*
D15*
%TO.P,U1,62*%
%TO.N,T-*%
X86630000Y-53428400D03*
%TO.P,U1,63*%
%TO.N,T+*%
X88630000Y-53428400D03*
%TO.P,U1,64*%
%TO.N,GND*%
X88630000Y-51428400D03*
%TO.P,U1,61*%
%TO.N,LED*%
X86630000Y-51428400D03*
%TO.P,U1,65*%
%TO.N,R-*%
X88630000Y-49428400D03*
D17*
%TO.P,U1,60*%
%TO.N,R+*%
X86630000Y-49428400D03*
D16*
%TO.P,U1,17*%
%TO.N,ANLG1*%
X114300000Y-62230000D03*
%TO.P,U1,18*%
%TO.N,ANLG2*%
X116840000Y-62230000D03*
%TO.P,U1,19*%
%TO.N,ANLG3*%
X119380000Y-62230000D03*
%TO.P,U1,20*%
%TO.N,T_IRQ*%
X121920000Y-62230000D03*
%TO.P,U1,16*%
%TO.N,ANLG0*%
X111760000Y-62230000D03*
%TO.P,U1,15*%
%TO.N,3V3*%
X109220000Y-62230000D03*
%TO.P,U1,14*%
%TO.N,MISO*%
X106680000Y-62230000D03*
%TO.P,U1,21*%
%TO.N,T_CS*%
X124460000Y-62230000D03*
%TO.P,U1,22*%
%TO.N,MOTOR0*%
X127000000Y-62230000D03*
%TO.P,U1,23*%
%TO.N,MOTOR1*%
X129540000Y-62230000D03*
%TO.P,U1,24*%
%TO.N,N/C*%
X132080000Y-62230000D03*
%TO.P,U1,25*%
X132080000Y-46990000D03*
%TO.P,U1,26*%
%TO.N,TRG3*%
X129540000Y-46990000D03*
%TO.P,U1,27*%
%TO.N,ECHO3*%
X127000000Y-46990000D03*
%TO.P,U1,28*%
%TO.N,TRG2*%
X124460000Y-46990000D03*
%TO.P,U1,29*%
%TO.N,ECHO2*%
X121920000Y-46990000D03*
%TO.P,U1,30*%
%TO.N,N/C*%
X119380000Y-46990000D03*
%TO.P,U1,31*%
X116840000Y-46990000D03*
%TO.P,U1,32*%
%TO.N,TRG1*%
X114300000Y-46990000D03*
%TO.P,U1,33*%
%TO.N,ECHO1*%
X111760000Y-46990000D03*
%TO.P,U1,34*%
%TO.N,GND*%
X109220000Y-46990000D03*
%TO.P,U1,13*%
%TO.N,MOSI*%
X104140000Y-62230000D03*
%TO.P,U1,12*%
%TO.N,CS*%
X101600000Y-62230000D03*
%TO.P,U1,11*%
%TO.N,DC*%
X99060000Y-62230000D03*
%TO.P,U1,10*%
%TO.N,I2CRESET*%
X96520000Y-62230000D03*
%TO.P,U1,9*%
%TO.N,RLY7*%
X93980000Y-62230000D03*
%TO.P,U1,8*%
%TO.N,RLY6*%
X91440000Y-62230000D03*
%TO.P,U1,7*%
%TO.N,RLY5*%
X88900000Y-62230000D03*
%TO.P,U1,6*%
%TO.N,RLY4*%
X86360000Y-62230000D03*
%TO.P,U1,5*%
%TO.N,RLY3*%
X83820000Y-62230000D03*
%TO.P,U1,4*%
%TO.N,RLY2*%
X81280000Y-62230000D03*
%TO.P,U1,3*%
%TO.N,RLY1*%
X78740000Y-62230000D03*
%TO.P,U1,2*%
%TO.N,RLY0*%
X76200000Y-62230000D03*
D18*
%TO.P,U1,1*%
%TO.N,GND*%
X73660000Y-62230000D03*
D16*
%TO.P,U1,35*%
%TO.N,SCK*%
X106680000Y-46990000D03*
%TO.P,U1,36*%
%TO.N,TRG0*%
X104140000Y-46990000D03*
%TO.P,U1,37*%
%TO.N,ECHO0*%
X101600000Y-46990000D03*
%TO.P,U1,38*%
%TO.N,N/C*%
X99060000Y-46990000D03*
%TO.P,U1,39*%
X96520000Y-46990000D03*
%TO.P,U1,40*%
%TO.N,SDA*%
X93980000Y-46990000D03*
%TO.P,U1,41*%
%TO.N,SCL*%
X91440000Y-46990000D03*
%TO.P,U1,42*%
%TO.N,N/C*%
X88900000Y-46990000D03*
%TO.P,U1,43*%
X86360000Y-46990000D03*
%TO.P,U1,44*%
%TO.N,Net-(J5-Pad2)*%
X83820000Y-46990000D03*
%TO.P,U1,45*%
%TO.N,Net-(J5-Pad3)*%
X81280000Y-46990000D03*
%TO.P,U1,46*%
%TO.N,3V3*%
X78740000Y-46990000D03*
%TO.P,U1,47*%
%TO.N,GND*%
X76200000Y-46990000D03*
%TO.P,U1,48*%
%TO.N,5V*%
X73660000Y-46990000D03*
D18*
%TO.P,U1,55*%
%TO.N,N/C*%
X79959200Y-59179200D03*
D16*
%TO.P,U1,56*%
X82499200Y-59179200D03*
%TO.P,U1,57*%
X85039200Y-59179200D03*
%TO.P,U1,58*%
X87579200Y-59179200D03*
%TO.P,U1,59*%
X90119200Y-59179200D03*
%TO.P,U1,49*%
X76200000Y-49530000D03*
%TD*%
D19*
%TO.P,J4,16*%
%TO.N,N/C*%
X77940010Y-40894998D03*
%TO.P,J4,13*%
X77940010Y-25145002D03*
D20*
%TO.P,J4,15*%
X74890010Y-38735000D03*
%TO.P,J4,14*%
X74890010Y-27305000D03*
D21*
%TO.P,J4,12*%
X71530010Y-39345000D03*
%TO.P,J4,11*%
X69830010Y-36805000D03*
%TO.P,J4,10*%
%TO.N,LED*%
X71530010Y-29235000D03*
%TO.P,J4,9*%
%TO.N,GND*%
X69810010Y-26695000D03*
D22*
%TO.P,J4,7*%
%TO.N,N/C*%
X81260010Y-36195000D03*
%TO.P,J4,5*%
%TO.N,Net-(C1-Pad2)*%
X81260010Y-33655000D03*
%TO.P,J4,3*%
%TO.N,T-*%
X81260010Y-31115000D03*
%TO.P,J4,1*%
%TO.N,T+*%
X81260010Y-28575000D03*
%TO.P,J4,8*%
%TO.N,GND*%
X83800010Y-37465000D03*
%TO.P,J4,6*%
%TO.N,R-*%
X83800010Y-34925000D03*
%TO.P,J4,4*%
%TO.N,R+*%
X83800010Y-32385000D03*
%TO.P,J4,2*%
%TO.N,Net-(C1-Pad2)*%
X83800010Y-29845000D03*
%TD*%
D23*
%TO.P,C1,1*%
%TO.N,GND*%
X74202000Y-43434000D03*
%TO.P,C1,2*%
%TO.N,Net-(C1-Pad2)*%
X72102000Y-43434000D03*
%TD*%
D13*
%TO.P,J3,8*%
%TO.N,GND*%
X139700000Y-36068000D03*
%TO.P,J3,7*%
%TO.N,3V3*%
X139700000Y-38608000D03*
%TO.P,J3,6*%
%TO.N,GND*%
X137160000Y-36068000D03*
%TO.P,J3,5*%
%TO.N,3V3*%
X137160000Y-38608000D03*
%TO.P,J3,4*%
%TO.N,GND*%
X134620000Y-36068000D03*
%TO.P,J3,3*%
%TO.N,3V3*%
X134620000Y-38608000D03*
%TO.P,J3,2*%
%TO.N,GND*%
X132080000Y-36068000D03*
D14*
%TO.P,J3,1*%
%TO.N,3V3*%
X132080000Y-38608000D03*
%TD*%
D24*
%TO.P,H4,1*%
%TO.N,N/C*%
X157220419Y-81539581D03*
X154940000Y-80595000D03*
X152659581Y-81539581D03*
X151715000Y-83820000D03*
X152659581Y-86100419D03*
X154940000Y-87045000D03*
X157220419Y-86100419D03*
X158165000Y-83820000D03*
D25*
X154940000Y-83820000D03*
%TD*%
D24*
%TO.P,H3,1*%
%TO.N,N/C*%
X157220419Y-15499581D03*
X154940000Y-14555000D03*
X152659581Y-15499581D03*
X151715000Y-17780000D03*
X152659581Y-20060419D03*
X154940000Y-21005000D03*
X157220419Y-20060419D03*
X158165000Y-17780000D03*
D25*
X154940000Y-17780000D03*
%TD*%
D24*
%TO.P,H2,1*%
%TO.N,N/C*%
X70860419Y-81539581D03*
X68580000Y-80595000D03*
X66299581Y-81539581D03*
X65355000Y-83820000D03*
X66299581Y-86100419D03*
X68580000Y-87045000D03*
X70860419Y-86100419D03*
X71805000Y-83820000D03*
D25*
X68580000Y-83820000D03*
%TD*%
D24*
%TO.P,H1,1*%
%TO.N,N/C*%
X70860419Y-15499581D03*
X68580000Y-14555000D03*
X66299581Y-15499581D03*
X65355000Y-17780000D03*
X66299581Y-20060419D03*
X68580000Y-21005000D03*
X70860419Y-20060419D03*
X71805000Y-17780000D03*
D25*
X68580000Y-17780000D03*
%TD*%
%TO.P,U31,24*%
%TO.N,3V3*%
%TA.AperFunction,SMDPad,CuDef*%
G36*
G01*
X112361000Y-35133000D02*
X112361000Y-34933000D01*
G75*
G02*
X112461000Y-34833000I100000J0D01*
G01*
X113736000Y-34833000D01*
G75*
G02*
X113836000Y-34933000I0J-100000D01*
G01*
X113836000Y-35133000D01*
G75*
G02*
X113736000Y-35233000I-100000J0D01*
G01*
X112461000Y-35233000D01*
G75*
G02*
X112361000Y-35133000I0J100000D01*
G01*
G37*
%TD.AperFunction*%
%TO.P,U31,23*%
%TO.N,SDA*%
%TA.AperFunction,SMDPad,CuDef*%
G36*
G01*
X112361000Y-35783000D02*
X112361000Y-35583000D01*
G75*
G02*
X112461000Y-35483000I100000J0D01*
G01*
X113736000Y-35483000D01*
G75*
G02*
X113836000Y-35583000I0J-100000D01*
G01*
X113836000Y-35783000D01*
G75*
G02*
X113736000Y-35883000I-100000J0D01*
G01*
X112461000Y-35883000D01*
G75*
G02*
X112361000Y-35783000I0J100000D01*
G01*
G37*
%TD.AperFunction*%
%TO.P,U31,22*%
%TO.N,SCL*%
%TA.AperFunction,SMDPad,CuDef*%
G36*
G01*
X112361000Y-36433000D02*
X112361000Y-36233000D01*
G75*
G02*
X112461000Y-36133000I100000J0D01*
G01*
X113736000Y-36133000D01*
G75*
G02*
X113836000Y-36233000I0J-100000D01*
G01*
X113836000Y-36433000D01*
G75*
G02*
X113736000Y-36533000I-100000J0D01*
G01*
X112461000Y-36533000D01*
G75*
G02*
X112361000Y-36433000I0J100000D01*
G01*
G37*
%TD.AperFunction*%
%TO.P,U31,21*%
%TO.N,GND*%
%TA.AperFunction,SMDPad,CuDef*%
G36*
G01*
X112361000Y-37083000D02*
X112361000Y-36883000D01*
G75*
G02*
X112461000Y-36783000I100000J0D01*
G01*
X113736000Y-36783000D01*
G75*
G02*
X113836000Y-36883000I0J-100000D01*
G01*
X113836000Y-37083000D01*
G75*
G02*
X113736000Y-37183000I-100000J0D01*
G01*
X112461000Y-37183000D01*
G75*
G02*
X112361000Y-37083000I0J100000D01*
G01*
G37*
%TD.AperFunction*%
%TO.P,U31,20*%
%TO.N,Net-(J37-Pad2)*%
%TA.AperFunction,SMDPad,CuDef*%
G36*
G01*
X112361000Y-37733000D02*
X112361000Y-37533000D01*
G75*
G02*
X112461000Y-37433000I100000J0D01*
G01*
X113736000Y-37433000D01*
G75*
G02*
X113836000Y-37533000I0J-100000D01*
G01*
X113836000Y-37733000D01*
G75*
G02*
X113736000Y-37833000I-100000J0D01*
G01*
X112461000Y-37833000D01*
G75*
G02*
X112361000Y-37733000I0J100000D01*
G01*
G37*
%TD.AperFunction*%
%TO.P,U31,19*%
%TO.N,Net-(J37-Pad3)*%
%TA.AperFunction,SMDPad,CuDef*%
G36*
G01*
X112361000Y-38383000D02*
X112361000Y-38183000D01*
G75*
G02*
X112461000Y-38083000I100000J0D01*
G01*
X113736000Y-38083000D01*
G75*
G02*
X113836000Y-38183000I0J-100000D01*
G01*
X113836000Y-38383000D01*
G75*
G02*
X113736000Y-38483000I-100000J0D01*
G01*
X112461000Y-38483000D01*
G75*
G02*
X112361000Y-38383000I0J100000D01*
G01*
G37*
%TD.AperFunction*%
%TO.P,U31,18*%
%TO.N,Net-(J36-Pad2)*%
%TA.AperFunction,SMDPad,CuDef*%
G36*
G01*
X112361000Y-39033000D02*
X112361000Y-38833000D01*
G75*
G02*
X112461000Y-38733000I100000J0D01*
G01*
X113736000Y-38733000D01*
G75*
G02*
X113836000Y-38833000I0J-100000D01*
G01*
X113836000Y-39033000D01*
G75*
G02*
X113736000Y-39133000I-100000J0D01*
G01*
X112461000Y-39133000D01*
G75*
G02*
X112361000Y-39033000I0J100000D01*
G01*
G37*
%TD.AperFunction*%
%TO.P,U31,17*%
%TO.N,Net-(J36-Pad3)*%
%TA.AperFunction,SMDPad,CuDef*%
G36*
G01*
X112361000Y-39683000D02*
X112361000Y-39483000D01*
G75*
G02*
X112461000Y-39383000I100000J0D01*
G01*
X113736000Y-39383000D01*
G75*
G02*
X113836000Y-39483000I0J-100000D01*
G01*
X113836000Y-39683000D01*
G75*
G02*
X113736000Y-39783000I-100000J0D01*
G01*
X112461000Y-39783000D01*
G75*
G02*
X112361000Y-39683000I0J100000D01*
G01*
G37*
%TD.AperFunction*%
%TO.P,U31,16*%
%TO.N,Net-(J35-Pad2)*%
%TA.AperFunction,SMDPad,CuDef*%
G36*
G01*
X112361000Y-40333000D02*
X112361000Y-40133000D01*
G75*
G02*
X112461000Y-40033000I100000J0D01*
G01*
X113736000Y-40033000D01*
G75*
G02*
X113836000Y-40133000I0J-100000D01*
G01*
X113836000Y-40333000D01*
G75*
G02*
X113736000Y-40433000I-100000J0D01*
G01*
X112461000Y-40433000D01*
G75*
G02*
X112361000Y-40333000I0J100000D01*
G01*
G37*
%TD.AperFunction*%
%TO.P,U31,15*%
%TO.N,Net-(J35-Pad3)*%
%TA.AperFunction,SMDPad,CuDef*%
G36*
G01*
X112361000Y-40983000D02*
X112361000Y-40783000D01*
G75*
G02*
X112461000Y-40683000I100000J0D01*
G01*
X113736000Y-40683000D01*
G75*
G02*
X113836000Y-40783000I0J-100000D01*
G01*
X113836000Y-40983000D01*
G75*
G02*
X113736000Y-41083000I-100000J0D01*
G01*
X112461000Y-41083000D01*
G75*
G02*
X112361000Y-40983000I0J100000D01*
G01*
G37*
%TD.AperFunction*%
%TO.P,U31,14*%
%TO.N,Net-(J34-Pad2)*%
%TA.AperFunction,SMDPad,CuDef*%
G36*
G01*
X112361000Y-41633000D02*
X112361000Y-41433000D01*
G75*
G02*
X112461000Y-41333000I100000J0D01*
G01*
X113736000Y-41333000D01*
G75*
G02*
X113836000Y-41433000I0J-100000D01*
G01*
X113836000Y-41633000D01*
G75*
G02*
X113736000Y-41733000I-100000J0D01*
G01*
X112461000Y-41733000D01*
G75*
G02*
X112361000Y-41633000I0J100000D01*
G01*
G37*
%TD.AperFunction*%
%TO.P,U31,13*%
%TO.N,Net-(J34-Pad3)*%
%TA.AperFunction,SMDPad,CuDef*%
G36*
G01*
X112361000Y-42283000D02*
X112361000Y-42083000D01*
G75*
G02*
X112461000Y-41983000I100000J0D01*
G01*
X113736000Y-41983000D01*
G75*
G02*
X113836000Y-42083000I0J-100000D01*
G01*
X113836000Y-42283000D01*
G75*
G02*
X113736000Y-42383000I-100000J0D01*
G01*
X112461000Y-42383000D01*
G75*
G02*
X112361000Y-42283000I0J100000D01*
G01*
G37*
%TD.AperFunction*%
%TO.P,U31,12*%
%TO.N,GND*%
%TA.AperFunction,SMDPad,CuDef*%
G36*
G01*
X106636000Y-42283000D02*
X106636000Y-42083000D01*
G75*
G02*
X106736000Y-41983000I100000J0D01*
G01*
X108011000Y-41983000D01*
G75*
G02*
X108111000Y-42083000I0J-100000D01*
G01*
X108111000Y-42283000D01*
G75*
G02*
X108011000Y-42383000I-100000J0D01*
G01*
X106736000Y-42383000D01*
G75*
G02*
X106636000Y-42283000I0J100000D01*
G01*
G37*
%TD.AperFunction*%
%TO.P,U31,11*%
%TO.N,Net-(J33-Pad2)*%
%TA.AperFunction,SMDPad,CuDef*%
G36*
G01*
X106636000Y-41633000D02*
X106636000Y-41433000D01*
G75*
G02*
X106736000Y-41333000I100000J0D01*
G01*
X108011000Y-41333000D01*
G75*
G02*
X108111000Y-41433000I0J-100000D01*
G01*
X108111000Y-41633000D01*
G75*
G02*
X108011000Y-41733000I-100000J0D01*
G01*
X106736000Y-41733000D01*
G75*
G02*
X106636000Y-41633000I0J100000D01*
G01*
G37*
%TD.AperFunction*%
%TO.P,U31,10*%
%TO.N,Net-(J33-Pad3)*%
%TA.AperFunction,SMDPad,CuDef*%
G36*
G01*
X106636000Y-40983000D02*
X106636000Y-40783000D01*
G75*
G02*
X106736000Y-40683000I100000J0D01*
G01*
X108011000Y-40683000D01*
G75*
G02*
X108111000Y-40783000I0J-100000D01*
G01*
X108111000Y-40983000D01*
G75*
G02*
X108011000Y-41083000I-100000J0D01*
G01*
X106736000Y-41083000D01*
G75*
G02*
X106636000Y-40983000I0J100000D01*
G01*
G37*
%TD.AperFunction*%
%TO.P,U31,9*%
%TO.N,Net-(J32-Pad2)*%
%TA.AperFunction,SMDPad,CuDef*%
G36*
G01*
X106636000Y-40333000D02*
X106636000Y-40133000D01*
G75*
G02*
X106736000Y-40033000I100000J0D01*
G01*
X108011000Y-40033000D01*
G75*
G02*
X108111000Y-40133000I0J-100000D01*
G01*
X108111000Y-40333000D01*
G75*
G02*
X108011000Y-40433000I-100000J0D01*
G01*
X106736000Y-40433000D01*
G75*
G02*
X106636000Y-40333000I0J100000D01*
G01*
G37*
%TD.AperFunction*%
%TO.P,U31,8*%
%TO.N,Net-(J32-Pad3)*%
%TA.AperFunction,SMDPad,CuDef*%
G36*
G01*
X106636000Y-39683000D02*
X106636000Y-39483000D01*
G75*
G02*
X106736000Y-39383000I100000J0D01*
G01*
X108011000Y-39383000D01*
G75*
G02*
X108111000Y-39483000I0J-100000D01*
G01*
X108111000Y-39683000D01*
G75*
G02*
X108011000Y-39783000I-100000J0D01*
G01*
X106736000Y-39783000D01*
G75*
G02*
X106636000Y-39683000I0J100000D01*
G01*
G37*
%TD.AperFunction*%
%TO.P,U31,7*%
%TO.N,Net-(J31-Pad2)*%
%TA.AperFunction,SMDPad,CuDef*%
G36*
G01*
X106636000Y-39033000D02*
X106636000Y-38833000D01*
G75*
G02*
X106736000Y-38733000I100000J0D01*
G01*
X108011000Y-38733000D01*
G75*
G02*
X108111000Y-38833000I0J-100000D01*
G01*
X108111000Y-39033000D01*
G75*
G02*
X108011000Y-39133000I-100000J0D01*
G01*
X106736000Y-39133000D01*
G75*
G02*
X106636000Y-39033000I0J100000D01*
G01*
G37*
%TD.AperFunction*%
%TO.P,U31,6*%
%TO.N,Net-(J31-Pad3)*%
%TA.AperFunction,SMDPad,CuDef*%
G36*
G01*
X106636000Y-38383000D02*
X106636000Y-38183000D01*
G75*
G02*
X106736000Y-38083000I100000J0D01*
G01*
X108011000Y-38083000D01*
G75*
G02*
X108111000Y-38183000I0J-100000D01*
G01*
X108111000Y-38383000D01*
G75*
G02*
X108011000Y-38483000I-100000J0D01*
G01*
X106736000Y-38483000D01*
G75*
G02*
X106636000Y-38383000I0J100000D01*
G01*
G37*
%TD.AperFunction*%
%TO.P,U31,5*%
%TO.N,Net-(J30-Pad2)*%
%TA.AperFunction,SMDPad,CuDef*%
G36*
G01*
X106636000Y-37733000D02*
X106636000Y-37533000D01*
G75*
G02*
X106736000Y-37433000I100000J0D01*
G01*
X108011000Y-37433000D01*
G75*
G02*
X108111000Y-37533000I0J-100000D01*
G01*
X108111000Y-37733000D01*
G75*
G02*
X108011000Y-37833000I-100000J0D01*
G01*
X106736000Y-37833000D01*
G75*
G02*
X106636000Y-37733000I0J100000D01*
G01*
G37*
%TD.AperFunction*%
%TO.P,U31,4*%
%TO.N,Net-(J30-Pad3)*%
%TA.AperFunction,SMDPad,CuDef*%
G36*
G01*
X106636000Y-37083000D02*
X106636000Y-36883000D01*
G75*
G02*
X106736000Y-36783000I100000J0D01*
G01*
X108011000Y-36783000D01*
G75*
G02*
X108111000Y-36883000I0J-100000D01*
G01*
X108111000Y-37083000D01*
G75*
G02*
X108011000Y-37183000I-100000J0D01*
G01*
X106736000Y-37183000D01*
G75*
G02*
X106636000Y-37083000I0J100000D01*
G01*
G37*
%TD.AperFunction*%
%TO.P,U31,3*%
%TO.N,I2CRESET*%
%TA.AperFunction,SMDPad,CuDef*%
G36*
G01*
X106636000Y-36433000D02*
X106636000Y-36233000D01*
G75*
G02*
X106736000Y-36133000I100000J0D01*
G01*
X108011000Y-36133000D01*
G75*
G02*
X108111000Y-36233000I0J-100000D01*
G01*
X108111000Y-36433000D01*
G75*
G02*
X108011000Y-36533000I-100000J0D01*
G01*
X106736000Y-36533000D01*
G75*
G02*
X106636000Y-36433000I0J100000D01*
G01*
G37*
%TD.AperFunction*%
%TO.P,U31,2*%
%TO.N,GND*%
%TA.AperFunction,SMDPad,CuDef*%
G36*
G01*
X106636000Y-35783000D02*
X106636000Y-35583000D01*
G75*
G02*
X106736000Y-35483000I100000J0D01*
G01*
X108011000Y-35483000D01*
G75*
G02*
X108111000Y-35583000I0J-100000D01*
G01*
X108111000Y-35783000D01*
G75*
G02*
X108011000Y-35883000I-100000J0D01*
G01*
X106736000Y-35883000D01*
G75*
G02*
X106636000Y-35783000I0J100000D01*
G01*
G37*
%TD.AperFunction*%
%TO.P,U31,1*%
%TA.AperFunction,SMDPad,CuDef*%
G36*
G01*
X106636000Y-35133000D02*
X106636000Y-34933000D01*
G75*
G02*
X106736000Y-34833000I100000J0D01*
G01*
X108011000Y-34833000D01*
G75*
G02*
X108111000Y-34933000I0J-100000D01*
G01*
X108111000Y-35133000D01*
G75*
G02*
X108011000Y-35233000I-100000J0D01*
G01*
X106736000Y-35233000D01*
G75*
G02*
X106636000Y-35133000I0J100000D01*
G01*
G37*
%TD.AperFunction*%
%TD*%
D10*
%TO.P,RN33,5*%
%TO.N,Net-(RN31-Pad5)*%
X119772000Y-42348000D03*
D11*
%TO.P,RN33,6*%
X119772000Y-41548000D03*
D10*
%TO.P,RN33,8*%
X119772000Y-39948000D03*
D11*
%TO.P,RN33,7*%
X119772000Y-40748000D03*
D10*
%TO.P,RN33,4*%
%TO.N,Net-(J34-Pad3)*%
X117972000Y-42348000D03*
D11*
%TO.P,RN33,2*%
%TO.N,Net-(J35-Pad3)*%
X117972000Y-40748000D03*
%TO.P,RN33,3*%
%TO.N,Net-(J34-Pad2)*%
X117972000Y-41548000D03*
D10*
%TO.P,RN33,1*%
%TO.N,Net-(J35-Pad2)*%
X117972000Y-39948000D03*
%TD*%
%TO.P,RN32,5*%
%TO.N,Net-(RN31-Pad5)*%
X101208000Y-39764000D03*
D11*
%TO.P,RN32,6*%
X101208000Y-40564000D03*
D10*
%TO.P,RN32,8*%
X101208000Y-42164000D03*
D11*
%TO.P,RN32,7*%
X101208000Y-41364000D03*
D10*
%TO.P,RN32,4*%
%TO.N,Net-(J32-Pad2)*%
X103008000Y-39764000D03*
D11*
%TO.P,RN32,2*%
%TO.N,Net-(J33-Pad2)*%
X103008000Y-41364000D03*
%TO.P,RN32,3*%
%TO.N,Net-(J32-Pad3)*%
X103008000Y-40564000D03*
D10*
%TO.P,RN32,1*%
%TO.N,Net-(J33-Pad3)*%
X103008000Y-42164000D03*
%TD*%
%TO.P,RN31,5*%
%TO.N,Net-(RN31-Pad5)*%
X101208000Y-35884000D03*
D11*
%TO.P,RN31,6*%
X101208000Y-36684000D03*
D10*
%TO.P,RN31,8*%
X101208000Y-38284000D03*
D11*
%TO.P,RN31,7*%
X101208000Y-37484000D03*
D10*
%TO.P,RN31,4*%
%TO.N,Net-(J30-Pad3)*%
X103008000Y-35884000D03*
D11*
%TO.P,RN31,2*%
%TO.N,Net-(J31-Pad3)*%
X103008000Y-37484000D03*
%TO.P,RN31,3*%
%TO.N,Net-(J30-Pad2)*%
X103008000Y-36684000D03*
D10*
%TO.P,RN31,1*%
%TO.N,Net-(J31-Pad2)*%
X103008000Y-38284000D03*
%TD*%
%TO.P,R51,2*%
%TO.N,3V3*%
%TA.AperFunction,SMDPad,CuDef*%
G36*
G01*
X101009000Y-65553000D02*
X101009000Y-65003000D01*
G75*
G02*
X101209000Y-64803000I200000J0D01*
G01*
X101609000Y-64803000D01*
G75*
G02*
X101809000Y-65003000I0J-200000D01*
G01*
X101809000Y-65553000D01*
G75*
G02*
X101609000Y-65753000I-200000J0D01*
G01*
X101209000Y-65753000D01*
G75*
G02*
X101009000Y-65553000I0J200000D01*
G01*
G37*
%TD.AperFunction*%
%TO.P,R51,1*%
%TO.N,Net-(R51-Pad1)*%
%TA.AperFunction,SMDPad,CuDef*%
G36*
G01*
X99359000Y-65553000D02*
X99359000Y-65003000D01*
G75*
G02*
X99559000Y-64803000I200000J0D01*
G01*
X99959000Y-64803000D01*
G75*
G02*
X100159000Y-65003000I0J-200000D01*
G01*
X100159000Y-65553000D01*
G75*
G02*
X99959000Y-65753000I-200000J0D01*
G01*
X99559000Y-65753000D01*
G75*
G02*
X99359000Y-65553000I0J200000D01*
G01*
G37*
%TD.AperFunction*%
%TD*%
%TO.P,R31,2*%
%TO.N,SDA*%
%TA.AperFunction,SMDPad,CuDef*%
G36*
G01*
X81555000Y-50375000D02*
X81005000Y-50375000D01*
G75*
G02*
X80805000Y-50175000I0J200000D01*
G01*
X80805000Y-49775000D01*
G75*
G02*
X81005000Y-49575000I200000J0D01*
G01*
X81555000Y-49575000D01*
G75*
G02*
X81755000Y-49775000I0J-200000D01*
G01*
X81755000Y-50175000D01*
G75*
G02*
X81555000Y-50375000I-200000J0D01*
G01*
G37*
%TD.AperFunction*%
%TO.P,R31,1*%
%TO.N,3V3*%
%TA.AperFunction,SMDPad,CuDef*%
G36*
G01*
X81555000Y-52025000D02*
X81005000Y-52025000D01*
G75*
G02*
X80805000Y-51825000I0J200000D01*
G01*
X80805000Y-51425000D01*
G75*
G02*
X81005000Y-51225000I200000J0D01*
G01*
X81555000Y-51225000D01*
G75*
G02*
X81755000Y-51425000I0J-200000D01*
G01*
X81755000Y-51825000D01*
G75*
G02*
X81555000Y-52025000I-200000J0D01*
G01*
G37*
%TD.AperFunction*%
%TD*%
%TO.P,R30,2*%
%TO.N,SCL*%
%TA.AperFunction,SMDPad,CuDef*%
G36*
G01*
X79015000Y-50375000D02*
X78465000Y-50375000D01*
G75*
G02*
X78265000Y-50175000I0J200000D01*
G01*
X78265000Y-49775000D01*
G75*
G02*
X78465000Y-49575000I200000J0D01*
G01*
X79015000Y-49575000D01*
G75*
G02*
X79215000Y-49775000I0J-200000D01*
G01*
X79215000Y-50175000D01*
G75*
G02*
X79015000Y-50375000I-200000J0D01*
G01*
G37*
%TD.AperFunction*%
%TO.P,R30,1*%
%TO.N,3V3*%
%TA.AperFunction,SMDPad,CuDef*%
G36*
G01*
X79015000Y-52025000D02*
X78465000Y-52025000D01*
G75*
G02*
X78265000Y-51825000I0J200000D01*
G01*
X78265000Y-51425000D01*
G75*
G02*
X78465000Y-51225000I200000J0D01*
G01*
X79015000Y-51225000D01*
G75*
G02*
X79215000Y-51425000I0J-200000D01*
G01*
X79215000Y-51825000D01*
G75*
G02*
X79015000Y-52025000I-200000J0D01*
G01*
G37*
%TD.AperFunction*%
%TD*%
%TO.P,R16,2*%
%TO.N,ECHO3*%
%TA.AperFunction,SMDPad,CuDef*%
G36*
G01*
X136672000Y-68813000D02*
X136672000Y-69363000D01*
G75*
G02*
X136472000Y-69563000I-200000J0D01*
G01*
X136072000Y-69563000D01*
G75*
G02*
X135872000Y-69363000I0J200000D01*
G01*
X135872000Y-68813000D01*
G75*
G02*
X136072000Y-68613000I200000J0D01*
G01*
X136472000Y-68613000D01*
G75*
G02*
X136672000Y-68813000I0J-200000D01*
G01*
G37*
%TD.AperFunction*%
%TO.P,R16,1*%
%TO.N,3V3*%
%TA.AperFunction,SMDPad,CuDef*%
G36*
G01*
X138322000Y-68813000D02*
X138322000Y-69363000D01*
G75*
G02*
X138122000Y-69563000I-200000J0D01*
G01*
X137722000Y-69563000D01*
G75*
G02*
X137522000Y-69363000I0J200000D01*
G01*
X137522000Y-68813000D01*
G75*
G02*
X137722000Y-68613000I200000J0D01*
G01*
X138122000Y-68613000D01*
G75*
G02*
X138322000Y-68813000I0J-200000D01*
G01*
G37*
%TD.AperFunction*%
%TD*%
%TO.P,R15,2*%
%TO.N,Net-(J23-Pad3)*%
%TA.AperFunction,SMDPad,CuDef*%
G36*
G01*
X137522000Y-67839000D02*
X137522000Y-67289000D01*
G75*
G02*
X137722000Y-67089000I200000J0D01*
G01*
X138122000Y-67089000D01*
G75*
G02*
X138322000Y-67289000I0J-200000D01*
G01*
X138322000Y-67839000D01*
G75*
G02*
X138122000Y-68039000I-200000J0D01*
G01*
X137722000Y-68039000D01*
G75*
G02*
X137522000Y-67839000I0J200000D01*
G01*
G37*
%TD.AperFunction*%
%TO.P,R15,1*%
%TO.N,5V*%
%TA.AperFunction,SMDPad,CuDef*%
G36*
G01*
X135872000Y-67839000D02*
X135872000Y-67289000D01*
G75*
G02*
X136072000Y-67089000I200000J0D01*
G01*
X136472000Y-67089000D01*
G75*
G02*
X136672000Y-67289000I0J-200000D01*
G01*
X136672000Y-67839000D01*
G75*
G02*
X136472000Y-68039000I-200000J0D01*
G01*
X136072000Y-68039000D01*
G75*
G02*
X135872000Y-67839000I0J200000D01*
G01*
G37*
%TD.AperFunction*%
%TD*%
%TO.P,R14,2*%
%TO.N,TRG3*%
%TA.AperFunction,SMDPad,CuDef*%
G36*
G01*
X140799000Y-68813000D02*
X140799000Y-69363000D01*
G75*
G02*
X140599000Y-69563000I-200000J0D01*
G01*
X140199000Y-69563000D01*
G75*
G02*
X139999000Y-69363000I0J200000D01*
G01*
X139999000Y-68813000D01*
G75*
G02*
X140199000Y-68613000I200000J0D01*
G01*
X140599000Y-68613000D01*
G75*
G02*
X140799000Y-68813000I0J-200000D01*
G01*
G37*
%TD.AperFunction*%
%TO.P,R14,1*%
%TO.N,3V3*%
%TA.AperFunction,SMDPad,CuDef*%
G36*
G01*
X142449000Y-68813000D02*
X142449000Y-69363000D01*
G75*
G02*
X142249000Y-69563000I-200000J0D01*
G01*
X141849000Y-69563000D01*
G75*
G02*
X141649000Y-69363000I0J200000D01*
G01*
X141649000Y-68813000D01*
G75*
G02*
X141849000Y-68613000I200000J0D01*
G01*
X142249000Y-68613000D01*
G75*
G02*
X142449000Y-68813000I0J-200000D01*
G01*
G37*
%TD.AperFunction*%
%TD*%
%TO.P,R13,2*%
%TO.N,Net-(J23-Pad2)*%
%TA.AperFunction,SMDPad,CuDef*%
G36*
G01*
X141649000Y-67839000D02*
X141649000Y-67289000D01*
G75*
G02*
X141849000Y-67089000I200000J0D01*
G01*
X142249000Y-67089000D01*
G75*
G02*
X142449000Y-67289000I0J-200000D01*
G01*
X142449000Y-67839000D01*
G75*
G02*
X142249000Y-68039000I-200000J0D01*
G01*
X141849000Y-68039000D01*
G75*
G02*
X141649000Y-67839000I0J200000D01*
G01*
G37*
%TD.AperFunction*%
%TO.P,R13,1*%
%TO.N,5V*%
%TA.AperFunction,SMDPad,CuDef*%
G36*
G01*
X139999000Y-67839000D02*
X139999000Y-67289000D01*
G75*
G02*
X140199000Y-67089000I200000J0D01*
G01*
X140599000Y-67089000D01*
G75*
G02*
X140799000Y-67289000I0J-200000D01*
G01*
X140799000Y-67839000D01*
G75*
G02*
X140599000Y-68039000I-200000J0D01*
G01*
X140199000Y-68039000D01*
G75*
G02*
X139999000Y-67839000I0J200000D01*
G01*
G37*
%TD.AperFunction*%
%TD*%
%TO.P,R12,2*%
%TO.N,ECHO2*%
%TA.AperFunction,SMDPad,CuDef*%
G36*
G01*
X136735000Y-61193000D02*
X136735000Y-61743000D01*
G75*
G02*
X136535000Y-61943000I-200000J0D01*
G01*
X136135000Y-61943000D01*
G75*
G02*
X135935000Y-61743000I0J200000D01*
G01*
X135935000Y-61193000D01*
G75*
G02*
X136135000Y-60993000I200000J0D01*
G01*
X136535000Y-60993000D01*
G75*
G02*
X136735000Y-61193000I0J-200000D01*
G01*
G37*
%TD.AperFunction*%
%TO.P,R12,1*%
%TO.N,3V3*%
%TA.AperFunction,SMDPad,CuDef*%
G36*
G01*
X138385000Y-61193000D02*
X138385000Y-61743000D01*
G75*
G02*
X138185000Y-61943000I-200000J0D01*
G01*
X137785000Y-61943000D01*
G75*
G02*
X137585000Y-61743000I0J200000D01*
G01*
X137585000Y-61193000D01*
G75*
G02*
X137785000Y-60993000I200000J0D01*
G01*
X138185000Y-60993000D01*
G75*
G02*
X138385000Y-61193000I0J-200000D01*
G01*
G37*
%TD.AperFunction*%
%TD*%
%TO.P,R11,2*%
%TO.N,Net-(J22-Pad3)*%
%TA.AperFunction,SMDPad,CuDef*%
G36*
G01*
X137585000Y-60219000D02*
X137585000Y-59669000D01*
G75*
G02*
X137785000Y-59469000I200000J0D01*
G01*
X138185000Y-59469000D01*
G75*
G02*
X138385000Y-59669000I0J-200000D01*
G01*
X138385000Y-60219000D01*
G75*
G02*
X138185000Y-60419000I-200000J0D01*
G01*
X137785000Y-60419000D01*
G75*
G02*
X137585000Y-60219000I0J200000D01*
G01*
G37*
%TD.AperFunction*%
%TO.P,R11,1*%
%TO.N,5V*%
%TA.AperFunction,SMDPad,CuDef*%
G36*
G01*
X135935000Y-60219000D02*
X135935000Y-59669000D01*
G75*
G02*
X136135000Y-59469000I200000J0D01*
G01*
X136535000Y-59469000D01*
G75*
G02*
X136735000Y-59669000I0J-200000D01*
G01*
X136735000Y-60219000D01*
G75*
G02*
X136535000Y-60419000I-200000J0D01*
G01*
X136135000Y-60419000D01*
G75*
G02*
X135935000Y-60219000I0J200000D01*
G01*
G37*
%TD.AperFunction*%
%TD*%
%TO.P,R10,2*%
%TO.N,TRG2*%
%TA.AperFunction,SMDPad,CuDef*%
G36*
G01*
X140736000Y-61193000D02*
X140736000Y-61743000D01*
G75*
G02*
X140536000Y-61943000I-200000J0D01*
G01*
X140136000Y-61943000D01*
G75*
G02*
X139936000Y-61743000I0J200000D01*
G01*
X139936000Y-61193000D01*
G75*
G02*
X140136000Y-60993000I200000J0D01*
G01*
X140536000Y-60993000D01*
G75*
G02*
X140736000Y-61193000I0J-200000D01*
G01*
G37*
%TD.AperFunction*%
%TO.P,R10,1*%
%TO.N,3V3*%
%TA.AperFunction,SMDPad,CuDef*%
G36*
G01*
X142386000Y-61193000D02*
X142386000Y-61743000D01*
G75*
G02*
X142186000Y-61943000I-200000J0D01*
G01*
X141786000Y-61943000D01*
G75*
G02*
X141586000Y-61743000I0J200000D01*
G01*
X141586000Y-61193000D01*
G75*
G02*
X141786000Y-60993000I200000J0D01*
G01*
X142186000Y-60993000D01*
G75*
G02*
X142386000Y-61193000I0J-200000D01*
G01*
G37*
%TD.AperFunction*%
%TD*%
%TO.P,R9,2*%
%TO.N,Net-(J22-Pad2)*%
%TA.AperFunction,SMDPad,CuDef*%
G36*
G01*
X141586000Y-60219000D02*
X141586000Y-59669000D01*
G75*
G02*
X141786000Y-59469000I200000J0D01*
G01*
X142186000Y-59469000D01*
G75*
G02*
X142386000Y-59669000I0J-200000D01*
G01*
X142386000Y-60219000D01*
G75*
G02*
X142186000Y-60419000I-200000J0D01*
G01*
X141786000Y-60419000D01*
G75*
G02*
X141586000Y-60219000I0J200000D01*
G01*
G37*
%TD.AperFunction*%
%TO.P,R9,1*%
%TO.N,5V*%
%TA.AperFunction,SMDPad,CuDef*%
G36*
G01*
X139936000Y-60219000D02*
X139936000Y-59669000D01*
G75*
G02*
X140136000Y-59469000I200000J0D01*
G01*
X140536000Y-59469000D01*
G75*
G02*
X140736000Y-59669000I0J-200000D01*
G01*
X140736000Y-60219000D01*
G75*
G02*
X140536000Y-60419000I-200000J0D01*
G01*
X140136000Y-60419000D01*
G75*
G02*
X139936000Y-60219000I0J200000D01*
G01*
G37*
%TD.AperFunction*%
%TD*%
%TO.P,R8,2*%
%TO.N,ECHO1*%
%TA.AperFunction,SMDPad,CuDef*%
G36*
G01*
X136735000Y-53573000D02*
X136735000Y-54123000D01*
G75*
G02*
X136535000Y-54323000I-200000J0D01*
G01*
X136135000Y-54323000D01*
G75*
G02*
X135935000Y-54123000I0J200000D01*
G01*
X135935000Y-53573000D01*
G75*
G02*
X136135000Y-53373000I200000J0D01*
G01*
X136535000Y-53373000D01*
G75*
G02*
X136735000Y-53573000I0J-200000D01*
G01*
G37*
%TD.AperFunction*%
%TO.P,R8,1*%
%TO.N,3V3*%
%TA.AperFunction,SMDPad,CuDef*%
G36*
G01*
X138385000Y-53573000D02*
X138385000Y-54123000D01*
G75*
G02*
X138185000Y-54323000I-200000J0D01*
G01*
X137785000Y-54323000D01*
G75*
G02*
X137585000Y-54123000I0J200000D01*
G01*
X137585000Y-53573000D01*
G75*
G02*
X137785000Y-53373000I200000J0D01*
G01*
X138185000Y-53373000D01*
G75*
G02*
X138385000Y-53573000I0J-200000D01*
G01*
G37*
%TD.AperFunction*%
%TD*%
%TO.P,R7,2*%
%TO.N,Net-(J21-Pad3)*%
%TA.AperFunction,SMDPad,CuDef*%
G36*
G01*
X137585000Y-52599000D02*
X137585000Y-52049000D01*
G75*
G02*
X137785000Y-51849000I200000J0D01*
G01*
X138185000Y-51849000D01*
G75*
G02*
X138385000Y-52049000I0J-200000D01*
G01*
X138385000Y-52599000D01*
G75*
G02*
X138185000Y-52799000I-200000J0D01*
G01*
X137785000Y-52799000D01*
G75*
G02*
X137585000Y-52599000I0J200000D01*
G01*
G37*
%TD.AperFunction*%
%TO.P,R7,1*%
%TO.N,5V*%
%TA.AperFunction,SMDPad,CuDef*%
G36*
G01*
X135935000Y-52599000D02*
X135935000Y-52049000D01*
G75*
G02*
X136135000Y-51849000I200000J0D01*
G01*
X136535000Y-51849000D01*
G75*
G02*
X136735000Y-52049000I0J-200000D01*
G01*
X136735000Y-52599000D01*
G75*
G02*
X136535000Y-52799000I-200000J0D01*
G01*
X136135000Y-52799000D01*
G75*
G02*
X135935000Y-52599000I0J200000D01*
G01*
G37*
%TD.AperFunction*%
%TD*%
%TO.P,R6,2*%
%TO.N,TRG1*%
%TA.AperFunction,SMDPad,CuDef*%
G36*
G01*
X140799000Y-53573000D02*
X140799000Y-54123000D01*
G75*
G02*
X140599000Y-54323000I-200000J0D01*
G01*
X140199000Y-54323000D01*
G75*
G02*
X139999000Y-54123000I0J200000D01*
G01*
X139999000Y-53573000D01*
G75*
G02*
X140199000Y-53373000I200000J0D01*
G01*
X140599000Y-53373000D01*
G75*
G02*
X140799000Y-53573000I0J-200000D01*
G01*
G37*
%TD.AperFunction*%
%TO.P,R6,1*%
%TO.N,3V3*%
%TA.AperFunction,SMDPad,CuDef*%
G36*
G01*
X142449000Y-53573000D02*
X142449000Y-54123000D01*
G75*
G02*
X142249000Y-54323000I-200000J0D01*
G01*
X141849000Y-54323000D01*
G75*
G02*
X141649000Y-54123000I0J200000D01*
G01*
X141649000Y-53573000D01*
G75*
G02*
X141849000Y-53373000I200000J0D01*
G01*
X142249000Y-53373000D01*
G75*
G02*
X142449000Y-53573000I0J-200000D01*
G01*
G37*
%TD.AperFunction*%
%TD*%
%TO.P,R5,2*%
%TO.N,Net-(J21-Pad2)*%
%TA.AperFunction,SMDPad,CuDef*%
G36*
G01*
X141649000Y-52599000D02*
X141649000Y-52049000D01*
G75*
G02*
X141849000Y-51849000I200000J0D01*
G01*
X142249000Y-51849000D01*
G75*
G02*
X142449000Y-52049000I0J-200000D01*
G01*
X142449000Y-52599000D01*
G75*
G02*
X142249000Y-52799000I-200000J0D01*
G01*
X141849000Y-52799000D01*
G75*
G02*
X141649000Y-52599000I0J200000D01*
G01*
G37*
%TD.AperFunction*%
%TO.P,R5,1*%
%TO.N,5V*%
%TA.AperFunction,SMDPad,CuDef*%
G36*
G01*
X139999000Y-52599000D02*
X139999000Y-52049000D01*
G75*
G02*
X140199000Y-51849000I200000J0D01*
G01*
X140599000Y-51849000D01*
G75*
G02*
X140799000Y-52049000I0J-200000D01*
G01*
X140799000Y-52599000D01*
G75*
G02*
X140599000Y-52799000I-200000J0D01*
G01*
X140199000Y-52799000D01*
G75*
G02*
X139999000Y-52599000I0J200000D01*
G01*
G37*
%TD.AperFunction*%
%TD*%
%TO.P,R4,2*%
%TO.N,ECHO0*%
%TA.AperFunction,SMDPad,CuDef*%
G36*
G01*
X136735000Y-45953000D02*
X136735000Y-46503000D01*
G75*
G02*
X136535000Y-46703000I-200000J0D01*
G01*
X136135000Y-46703000D01*
G75*
G02*
X135935000Y-46503000I0J200000D01*
G01*
X135935000Y-45953000D01*
G75*
G02*
X136135000Y-45753000I200000J0D01*
G01*
X136535000Y-45753000D01*
G75*
G02*
X136735000Y-45953000I0J-200000D01*
G01*
G37*
%TD.AperFunction*%
%TO.P,R4,1*%
%TO.N,3V3*%
%TA.AperFunction,SMDPad,CuDef*%
G36*
G01*
X138385000Y-45953000D02*
X138385000Y-46503000D01*
G75*
G02*
X138185000Y-46703000I-200000J0D01*
G01*
X137785000Y-46703000D01*
G75*
G02*
X137585000Y-46503000I0J200000D01*
G01*
X137585000Y-45953000D01*
G75*
G02*
X137785000Y-45753000I200000J0D01*
G01*
X138185000Y-45753000D01*
G75*
G02*
X138385000Y-45953000I0J-200000D01*
G01*
G37*
%TD.AperFunction*%
%TD*%
%TO.P,R3,2*%
%TO.N,Net-(J20-Pad3)*%
%TA.AperFunction,SMDPad,CuDef*%
G36*
G01*
X137585000Y-44979000D02*
X137585000Y-44429000D01*
G75*
G02*
X137785000Y-44229000I200000J0D01*
G01*
X138185000Y-44229000D01*
G75*
G02*
X138385000Y-44429000I0J-200000D01*
G01*
X138385000Y-44979000D01*
G75*
G02*
X138185000Y-45179000I-200000J0D01*
G01*
X137785000Y-45179000D01*
G75*
G02*
X137585000Y-44979000I0J200000D01*
G01*
G37*
%TD.AperFunction*%
%TO.P,R3,1*%
%TO.N,5V*%
%TA.AperFunction,SMDPad,CuDef*%
G36*
G01*
X135935000Y-44979000D02*
X135935000Y-44429000D01*
G75*
G02*
X136135000Y-44229000I200000J0D01*
G01*
X136535000Y-44229000D01*
G75*
G02*
X136735000Y-44429000I0J-200000D01*
G01*
X136735000Y-44979000D01*
G75*
G02*
X136535000Y-45179000I-200000J0D01*
G01*
X136135000Y-45179000D01*
G75*
G02*
X135935000Y-44979000I0J200000D01*
G01*
G37*
%TD.AperFunction*%
%TD*%
%TO.P,R2,2*%
%TO.N,TRG0*%
%TA.AperFunction,SMDPad,CuDef*%
G36*
G01*
X140799000Y-45953000D02*
X140799000Y-46503000D01*
G75*
G02*
X140599000Y-46703000I-200000J0D01*
G01*
X140199000Y-46703000D01*
G75*
G02*
X139999000Y-46503000I0J200000D01*
G01*
X139999000Y-45953000D01*
G75*
G02*
X140199000Y-45753000I200000J0D01*
G01*
X140599000Y-45753000D01*
G75*
G02*
X140799000Y-45953000I0J-200000D01*
G01*
G37*
%TD.AperFunction*%
%TO.P,R2,1*%
%TO.N,3V3*%
%TA.AperFunction,SMDPad,CuDef*%
G36*
G01*
X142449000Y-45953000D02*
X142449000Y-46503000D01*
G75*
G02*
X142249000Y-46703000I-200000J0D01*
G01*
X141849000Y-46703000D01*
G75*
G02*
X141649000Y-46503000I0J200000D01*
G01*
X141649000Y-45953000D01*
G75*
G02*
X141849000Y-45753000I200000J0D01*
G01*
X142249000Y-45753000D01*
G75*
G02*
X142449000Y-45953000I0J-200000D01*
G01*
G37*
%TD.AperFunction*%
%TD*%
%TO.P,R1,2*%
%TO.N,Net-(J20-Pad2)*%
%TA.AperFunction,SMDPad,CuDef*%
G36*
G01*
X141649000Y-44979000D02*
X141649000Y-44429000D01*
G75*
G02*
X141849000Y-44229000I200000J0D01*
G01*
X142249000Y-44229000D01*
G75*
G02*
X142449000Y-44429000I0J-200000D01*
G01*
X142449000Y-44979000D01*
G75*
G02*
X142249000Y-45179000I-200000J0D01*
G01*
X141849000Y-45179000D01*
G75*
G02*
X141649000Y-44979000I0J200000D01*
G01*
G37*
%TD.AperFunction*%
%TO.P,R1,1*%
%TO.N,5V*%
%TA.AperFunction,SMDPad,CuDef*%
G36*
G01*
X139999000Y-44979000D02*
X139999000Y-44429000D01*
G75*
G02*
X140199000Y-44229000I200000J0D01*
G01*
X140599000Y-44229000D01*
G75*
G02*
X140799000Y-44429000I0J-200000D01*
G01*
X140799000Y-44979000D01*
G75*
G02*
X140599000Y-45179000I-200000J0D01*
G01*
X140199000Y-45179000D01*
G75*
G02*
X139999000Y-44979000I0J200000D01*
G01*
G37*
%TD.AperFunction*%
%TD*%
D26*
%TO.P,Q47,3*%
%TO.N,Net-(J40-Pad9)*%
X109220000Y-77216000D03*
%TO.P,Q47,2*%
%TO.N,GND*%
X107220000Y-78166000D03*
%TO.P,Q47,1*%
%TO.N,RLY7*%
X107220000Y-76266000D03*
%TD*%
%TO.P,Q46,3*%
%TO.N,Net-(J40-Pad8)*%
X105140000Y-77216000D03*
%TO.P,Q46,2*%
%TO.N,GND*%
X103140000Y-78166000D03*
%TO.P,Q46,1*%
%TO.N,RLY6*%
X103140000Y-76266000D03*
%TD*%
%TO.P,Q45,3*%
%TO.N,Net-(J40-Pad7)*%
X101092000Y-77216000D03*
%TO.P,Q45,2*%
%TO.N,GND*%
X99092000Y-78166000D03*
%TO.P,Q45,1*%
%TO.N,RLY5*%
X99092000Y-76266000D03*
%TD*%
%TO.P,Q44,3*%
%TO.N,Net-(J40-Pad6)*%
X97028000Y-77216000D03*
%TO.P,Q44,2*%
%TO.N,GND*%
X95028000Y-78166000D03*
%TO.P,Q44,1*%
%TO.N,RLY4*%
X95028000Y-76266000D03*
%TD*%
%TO.P,Q43,3*%
%TO.N,Net-(J40-Pad5)*%
X92964000Y-77216000D03*
%TO.P,Q43,2*%
%TO.N,GND*%
X90964000Y-78166000D03*
%TO.P,Q43,1*%
%TO.N,RLY3*%
X90964000Y-76266000D03*
%TD*%
%TO.P,Q42,3*%
%TO.N,Net-(J40-Pad4)*%
X88884000Y-77216000D03*
%TO.P,Q42,2*%
%TO.N,GND*%
X86884000Y-78166000D03*
%TO.P,Q42,1*%
%TO.N,RLY2*%
X86884000Y-76266000D03*
%TD*%
%TO.P,Q41,3*%
%TO.N,Net-(J40-Pad3)*%
X84328000Y-77216000D03*
%TO.P,Q41,2*%
%TO.N,GND*%
X82328000Y-78166000D03*
%TO.P,Q41,1*%
%TO.N,RLY1*%
X82328000Y-76266000D03*
%TD*%
%TO.P,Q40,3*%
%TO.N,Net-(J40-Pad2)*%
X79740000Y-77216000D03*
%TO.P,Q40,2*%
%TO.N,GND*%
X77740000Y-78166000D03*
%TO.P,Q40,1*%
%TO.N,RLY0*%
X77740000Y-76266000D03*
%TD*%
D27*
%TO.P,Q28,3*%
%TO.N,Net-(J23-Pad3)*%
X137160000Y-73136000D03*
%TO.P,Q28,2*%
%TO.N,ECHO3*%
X136210000Y-71136000D03*
%TO.P,Q28,1*%
%TO.N,3V3*%
X138110000Y-71136000D03*
%TD*%
%TO.P,Q27,3*%
%TO.N,Net-(J23-Pad2)*%
X141224000Y-73136000D03*
%TO.P,Q27,2*%
%TO.N,TRG3*%
X140274000Y-71136000D03*
%TO.P,Q27,1*%
%TO.N,3V3*%
X142174000Y-71136000D03*
%TD*%
%TO.P,Q26,3*%
%TO.N,Net-(J22-Pad3)*%
X137160000Y-65500000D03*
%TO.P,Q26,2*%
%TO.N,ECHO2*%
X136210000Y-63500000D03*
%TO.P,Q26,1*%
%TO.N,3V3*%
X138110000Y-63500000D03*
%TD*%
%TO.P,Q25,3*%
%TO.N,Net-(J22-Pad2)*%
X141224000Y-65516000D03*
%TO.P,Q25,2*%
%TO.N,TRG2*%
X140274000Y-63516000D03*
%TO.P,Q25,1*%
%TO.N,3V3*%
X142174000Y-63516000D03*
%TD*%
%TO.P,Q24,3*%
%TO.N,Net-(J21-Pad3)*%
X137226000Y-57880000D03*
%TO.P,Q24,2*%
%TO.N,ECHO1*%
X136276000Y-55880000D03*
%TO.P,Q24,1*%
%TO.N,3V3*%
X138176000Y-55880000D03*
%TD*%
%TO.P,Q23,3*%
%TO.N,Net-(J21-Pad2)*%
X141224000Y-57896000D03*
%TO.P,Q23,2*%
%TO.N,TRG1*%
X140274000Y-55896000D03*
%TO.P,Q23,1*%
%TO.N,3V3*%
X142174000Y-55896000D03*
%TD*%
%TO.P,Q22,3*%
%TO.N,Net-(J20-Pad3)*%
X137160000Y-50276000D03*
%TO.P,Q22,2*%
%TO.N,ECHO0*%
X136210000Y-48276000D03*
%TO.P,Q22,1*%
%TO.N,3V3*%
X138110000Y-48276000D03*
%TD*%
%TO.P,Q21,3*%
%TO.N,Net-(J20-Pad2)*%
X141224000Y-50276000D03*
%TO.P,Q21,2*%
%TO.N,TRG0*%
X140274000Y-48276000D03*
%TO.P,Q21,1*%
%TO.N,3V3*%
X142174000Y-48276000D03*
%TD*%
D13*
%TO.P,J53,4*%
%TO.N,GND*%
X129032000Y-70104000D03*
%TO.P,J53,3*%
X126492000Y-70104000D03*
%TO.P,J53,2*%
X123952000Y-70104000D03*
D14*
%TO.P,J53,1*%
X121412000Y-70104000D03*
%TD*%
D13*
%TO.P,J52,4*%
%TO.N,3V3*%
X129032000Y-72644000D03*
%TO.P,J52,3*%
X126492000Y-72644000D03*
%TO.P,J52,2*%
X123952000Y-72644000D03*
D14*
%TO.P,J52,1*%
X121412000Y-72644000D03*
%TD*%
D13*
%TO.P,J51,4*%
%TO.N,ANLG3*%
X129032000Y-75438000D03*
%TO.P,J51,3*%
%TO.N,ANLG2*%
X126492000Y-75438000D03*
%TO.P,J51,2*%
%TO.N,ANLG1*%
X123952000Y-75438000D03*
D14*
%TO.P,J51,1*%
%TO.N,ANLG0*%
X121412000Y-75438000D03*
%TD*%
D13*
%TO.P,J2,8*%
%TO.N,GND*%
X97028000Y-37338000D03*
%TO.P,J2,7*%
%TO.N,5V*%
X97028000Y-39878000D03*
%TO.P,J2,6*%
%TO.N,GND*%
X94488000Y-37338000D03*
%TO.P,J2,5*%
%TO.N,5V*%
X94488000Y-39878000D03*
%TO.P,J2,4*%
%TO.N,GND*%
X91948000Y-37338000D03*
%TO.P,J2,3*%
%TO.N,5V*%
X91948000Y-39878000D03*
%TO.P,J2,2*%
%TO.N,GND*%
X89408000Y-37338000D03*
D14*
%TO.P,J2,1*%
%TO.N,5V*%
X89408000Y-39878000D03*
%TD*%
D28*
%TO.P,J1,2*%
%TO.N,GND*%
X72056000Y-71628000D03*
D29*
%TO.P,J1,1*%
%TO.N,5V*%
X67056000Y-71628000D03*
%TD*%
%TO.P,C24,2*%
%TO.N,GND*%
%TA.AperFunction,SMDPad,CuDef*%
G36*
G01*
X140774000Y-74963000D02*
X140774000Y-75913000D01*
G75*
G02*
X140524000Y-76163000I-250000J0D01*
G01*
X140024000Y-76163000D01*
G75*
G02*
X139774000Y-75913000I0J250000D01*
G01*
X139774000Y-74963000D01*
G75*
G02*
X140024000Y-74713000I250000J0D01*
G01*
X140524000Y-74713000D01*
G75*
G02*
X140774000Y-74963000I0J-250000D01*
G01*
G37*
%TD.AperFunction*%
%TO.P,C24,1*%
%TO.N,3V3*%
%TA.AperFunction,SMDPad,CuDef*%
G36*
G01*
X142674000Y-74963000D02*
X142674000Y-75913000D01*
G75*
G02*
X142424000Y-76163000I-250000J0D01*
G01*
X141924000Y-76163000D01*
G75*
G02*
X141674000Y-75913000I0J250000D01*
G01*
X141674000Y-74963000D01*
G75*
G02*
X141924000Y-74713000I250000J0D01*
G01*
X142424000Y-74713000D01*
G75*
G02*
X142674000Y-74963000I0J-250000D01*
G01*
G37*
%TD.AperFunction*%
%TD*%
%TO.P,C23,2*%
%TO.N,GND*%
%TA.AperFunction,SMDPad,CuDef*%
G36*
G01*
X137610000Y-75913000D02*
X137610000Y-74963000D01*
G75*
G02*
X137860000Y-74713000I250000J0D01*
G01*
X138360000Y-74713000D01*
G75*
G02*
X138610000Y-74963000I0J-250000D01*
G01*
X138610000Y-75913000D01*
G75*
G02*
X138360000Y-76163000I-250000J0D01*
G01*
X137860000Y-76163000D01*
G75*
G02*
X137610000Y-75913000I0J250000D01*
G01*
G37*
%TD.AperFunction*%
%TO.P,C23,1*%
%TO.N,5V*%
%TA.AperFunction,SMDPad,CuDef*%
G36*
G01*
X135710000Y-75913000D02*
X135710000Y-74963000D01*
G75*
G02*
X135960000Y-74713000I250000J0D01*
G01*
X136460000Y-74713000D01*
G75*
G02*
X136710000Y-74963000I0J-250000D01*
G01*
X136710000Y-75913000D01*
G75*
G02*
X136460000Y-76163000I-250000J0D01*
G01*
X135960000Y-76163000D01*
G75*
G02*
X135710000Y-75913000I0J250000D01*
G01*
G37*
%TD.AperFunction*%
%TD*%
%TO.P,C22,2*%
%TO.N,GND*%
%TA.AperFunction,SMDPad,CuDef*%
G36*
G01*
X140520000Y-41435000D02*
X140520000Y-42385000D01*
G75*
G02*
X140270000Y-42635000I-250000J0D01*
G01*
X139770000Y-42635000D01*
G75*
G02*
X139520000Y-42385000I0J250000D01*
G01*
X139520000Y-41435000D01*
G75*
G02*
X139770000Y-41185000I250000J0D01*
G01*
X140270000Y-41185000D01*
G75*
G02*
X140520000Y-41435000I0J-250000D01*
G01*
G37*
%TD.AperFunction*%
%TO.P,C22,1*%
%TO.N,3V3*%
%TA.AperFunction,SMDPad,CuDef*%
G36*
G01*
X142420000Y-41435000D02*
X142420000Y-42385000D01*
G75*
G02*
X142170000Y-42635000I-250000J0D01*
G01*
X141670000Y-42635000D01*
G75*
G02*
X141420000Y-42385000I0J250000D01*
G01*
X141420000Y-41435000D01*
G75*
G02*
X141670000Y-41185000I250000J0D01*
G01*
X142170000Y-41185000D01*
G75*
G02*
X142420000Y-41435000I0J-250000D01*
G01*
G37*
%TD.AperFunction*%
%TD*%
%TO.P,C21,2*%
%TO.N,GND*%
%TA.AperFunction,SMDPad,CuDef*%
G36*
G01*
X137610000Y-42131000D02*
X137610000Y-41181000D01*
G75*
G02*
X137860000Y-40931000I250000J0D01*
G01*
X138360000Y-40931000D01*
G75*
G02*
X138610000Y-41181000I0J-250000D01*
G01*
X138610000Y-42131000D01*
G75*
G02*
X138360000Y-42381000I-250000J0D01*
G01*
X137860000Y-42381000D01*
G75*
G02*
X137610000Y-42131000I0J250000D01*
G01*
G37*
%TD.AperFunction*%
%TO.P,C21,1*%
%TO.N,5V*%
%TA.AperFunction,SMDPad,CuDef*%
G36*
G01*
X135710000Y-42131000D02*
X135710000Y-41181000D01*
G75*
G02*
X135960000Y-40931000I250000J0D01*
G01*
X136460000Y-40931000D01*
G75*
G02*
X136710000Y-41181000I0J-250000D01*
G01*
X136710000Y-42131000D01*
G75*
G02*
X136460000Y-42381000I-250000J0D01*
G01*
X135960000Y-42381000D01*
G75*
G02*
X135710000Y-42131000I0J250000D01*
G01*
G37*
%TD.AperFunction*%
%TD*%
D30*
%TO.N,GND*%
X108859600Y-42369500D03*
%TO.N,5V*%
X139573100Y-51522800D03*
X136335000Y-43242500D03*
%TO.N,Net-(J31-Pad2)*%
X104210000Y-38289800D03*
%TO.N,Net-(J32-Pad3)*%
X104907500Y-39341500D03*
%TO.N,TRG0*%
X139048100Y-46640600D03*
%TO.N,TRG1*%
X139513800Y-53121500D03*
%TO.N,TRG2*%
X140277500Y-64570800D03*
%TO.N,TRG3*%
X139380000Y-67615800D03*
%TO.N,ECHO3*%
X135249300Y-70143000D03*
%TO.N,SCL*%
X114473100Y-36292600D03*
%TO.N,I2CRESET*%
X99946900Y-41054300D03*
%TO.N,GND*%
X156404000Y-51876000D03*
X156404000Y-68132000D03*
%TO.N,Net-(J22-Pad3)*%
X136067200Y-65015000D03*
%TO.N,Net-(J30-Pad2)*%
X104123800Y-36684000D03*
%TO.N,Net-(J36-Pad2)*%
X116922000Y-37539100D03*
%TO.N,Net-(J37-Pad3)*%
X118584700Y-34950300D03*
X114885600Y-38283000D03*
%TD*%
D31*
%TO.N,GND*%
X156404000Y-35504700D02*
X156404000Y-29011300D01*
X140875300Y-36068000D02*
X141438600Y-35504700D01*
X141438600Y-35504700D02*
X156404000Y-35504700D01*
X156404000Y-27686000D02*
X156404000Y-29011300D01*
X113098500Y-36983000D02*
X113133400Y-37017900D01*
X113133400Y-37017900D02*
X114791900Y-37017900D01*
X114791900Y-37017900D02*
X120668700Y-31141100D01*
X120668700Y-31141100D02*
X129192900Y-31141100D01*
X129192900Y-31141100D02*
X133410000Y-26924000D01*
X156404000Y-36830000D02*
X156404000Y-35504700D01*
X139700000Y-36068000D02*
X140875300Y-36068000D01*
X137160000Y-36068000D02*
X139700000Y-36068000D01*
X94488000Y-37338000D02*
X97028000Y-37338000D01*
X108859600Y-42369500D02*
X107560000Y-42369500D01*
X107560000Y-42369500D02*
X107373500Y-42183000D01*
X144446000Y-84074000D02*
X144446000Y-85399300D01*
X127174000Y-84736600D02*
X129036600Y-84736600D01*
X129036600Y-84736600D02*
X129699300Y-85399300D01*
X129699300Y-85399300D02*
X144446000Y-85399300D01*
X127174000Y-84736600D02*
X127174000Y-85399300D01*
X127174000Y-84074000D02*
X127174000Y-84736600D01*
X110017200Y-79323300D02*
X116586400Y-85892500D01*
X116586400Y-85892500D02*
X126680800Y-85892500D01*
X126680800Y-85892500D02*
X127174000Y-85399300D01*
X110017200Y-79323300D02*
X106591800Y-82748700D01*
X106591800Y-82748700D02*
X105484000Y-82748700D01*
X107220000Y-77440700D02*
X107632300Y-77440700D01*
X107632300Y-77440700D02*
X108582400Y-76490600D01*
X108582400Y-76490600D02*
X109821000Y-76490600D01*
X109821000Y-76490600D02*
X110017200Y-76686800D01*
X110017200Y-76686800D02*
X110017200Y-79323300D01*
X119186000Y-26924000D02*
X128584000Y-17526000D01*
X128584000Y-17526000D02*
X133410000Y-17526000D01*
X107220000Y-78166000D02*
X107220000Y-77440700D01*
X103140000Y-77440700D02*
X103281200Y-77440700D01*
X103281200Y-77440700D02*
X104231300Y-76490600D01*
X104231300Y-76490600D02*
X105777700Y-76490600D01*
X105777700Y-76490600D02*
X106727800Y-77440700D01*
X106727800Y-77440700D02*
X107220000Y-77440700D01*
X99092000Y-77465700D02*
X99211300Y-77465700D01*
X99211300Y-77465700D02*
X100186400Y-76490600D01*
X100186400Y-76490600D02*
X101677400Y-76490600D01*
X101677400Y-76490600D02*
X102627500Y-77440700D01*
X102627500Y-77440700D02*
X103140000Y-77440700D01*
X99092000Y-77465700D02*
X98972700Y-77465700D01*
X98972700Y-77465700D02*
X97997600Y-76490600D01*
X97997600Y-76490600D02*
X96390400Y-76490600D01*
X96390400Y-76490600D02*
X95440300Y-77440700D01*
X95440300Y-77440700D02*
X95028000Y-77440700D01*
X95028000Y-78166000D02*
X95028000Y-77440700D01*
X90964000Y-77465700D02*
X91083300Y-77465700D01*
X91083300Y-77465700D02*
X92058400Y-76490600D01*
X92058400Y-76490600D02*
X93601700Y-76490600D01*
X93601700Y-76490600D02*
X94551800Y-77440700D01*
X94551800Y-77440700D02*
X95028000Y-77440700D01*
X90964000Y-77465700D02*
X90964000Y-77440700D01*
X90964000Y-77490800D02*
X90964000Y-77465700D01*
X134620000Y-36068000D02*
X137160000Y-36068000D01*
X103140000Y-78166000D02*
X103140000Y-77440700D01*
X99092000Y-77490800D02*
X99092000Y-77465700D01*
X105484000Y-84074000D02*
X105484000Y-82748700D01*
X99092000Y-77578400D02*
X99092000Y-77490800D01*
X99092000Y-78166000D02*
X99092000Y-77578400D01*
X90964000Y-77578400D02*
X90964000Y-77490800D01*
X90964000Y-78166000D02*
X90964000Y-77578400D01*
X91948000Y-37338000D02*
X94488000Y-37338000D01*
X86884000Y-77465700D02*
X87078000Y-77465700D01*
X87078000Y-77465700D02*
X88071700Y-76472000D01*
X88071700Y-76472000D02*
X89512400Y-76472000D01*
X89512400Y-76472000D02*
X90481100Y-77440700D01*
X90481100Y-77440700D02*
X90964000Y-77440700D01*
X86884000Y-77465700D02*
X86884000Y-77440700D01*
X86884000Y-77490800D02*
X86884000Y-77465700D01*
X86884000Y-77578400D02*
X86884000Y-77490800D01*
X86884000Y-77803300D02*
X86884000Y-77578400D01*
X86884000Y-77803300D02*
X86884000Y-78166000D01*
X82328000Y-77465700D02*
X81861400Y-77465700D01*
X81861400Y-77465700D02*
X80886300Y-76490600D01*
X80886300Y-76490600D02*
X79102400Y-76490600D01*
X79102400Y-76490600D02*
X78152300Y-77440700D01*
X78152300Y-77440700D02*
X77740000Y-77440700D01*
X82328000Y-77465700D02*
X82328000Y-77440700D01*
X82328000Y-77490800D02*
X82328000Y-77465700D01*
X77740000Y-78166000D02*
X77740000Y-77440700D01*
X72056000Y-71628000D02*
X72056000Y-73933300D01*
X72056000Y-73933300D02*
X75563400Y-77440700D01*
X75563400Y-77440700D02*
X77740000Y-77440700D01*
X82328000Y-77578400D02*
X82328000Y-77490800D01*
X82328000Y-77941000D02*
X82328000Y-77578400D01*
X104962000Y-25598700D02*
X104962000Y-18851300D01*
X104962000Y-17526000D02*
X104962000Y-18851300D01*
X104962000Y-26924000D02*
X104962000Y-25598700D01*
X82328000Y-78166000D02*
X82328000Y-77941400D01*
X82328000Y-77941000D02*
X82328000Y-77941400D01*
X83440700Y-76463400D02*
X82463400Y-77440700D01*
X82463400Y-77440700D02*
X82328000Y-77440700D01*
X83440700Y-76463400D02*
X85181400Y-76463400D01*
X85181400Y-76463400D02*
X86158700Y-77440700D01*
X86158700Y-77440700D02*
X86884000Y-77440700D01*
X82262000Y-71937300D02*
X83440700Y-73116000D01*
X83440700Y-73116000D02*
X83440700Y-76463400D01*
X107373500Y-35033000D02*
X104962000Y-32621500D01*
X104962000Y-32621500D02*
X104962000Y-28249300D01*
X82262000Y-70612000D02*
X82262000Y-71937300D01*
X104962000Y-26924000D02*
X104962000Y-28249300D01*
X83800000Y-37465000D02*
X88105700Y-37465000D01*
X88105700Y-37465000D02*
X88232700Y-37338000D01*
X76200000Y-43434000D02*
X77831000Y-43434000D01*
X77831000Y-43434000D02*
X83800000Y-37465000D01*
X89408000Y-37338000D02*
X88232700Y-37338000D01*
X76200000Y-43434000D02*
X74202000Y-43434000D01*
X76200000Y-46990000D02*
X76200000Y-43434000D01*
X107373500Y-35033000D02*
X107373500Y-35683000D01*
X126492000Y-70104000D02*
X129032000Y-70104000D01*
X123952000Y-70104000D02*
X126492000Y-70104000D01*
X121412000Y-70104000D02*
X123952000Y-70104000D01*
%TO.N,5V*%
X139573100Y-51522800D02*
X137136200Y-51522800D01*
X137136200Y-51522800D02*
X136335000Y-52324000D01*
X140399000Y-52324000D02*
X139597800Y-51522800D01*
X139597800Y-51522800D02*
X139573100Y-51522800D01*
X140585900Y-67377100D02*
X139205700Y-65996900D01*
X148904000Y-64262000D02*
X143911000Y-64262000D01*
X143911000Y-64262000D02*
X140795900Y-67377100D01*
X140795900Y-67377100D02*
X140585900Y-67377100D01*
X140585900Y-67377100D02*
X140399000Y-67564000D01*
X139205700Y-65996900D02*
X139205700Y-59944000D01*
X136272000Y-67564000D02*
X137083700Y-66752300D01*
X137083700Y-66752300D02*
X138450300Y-66752300D01*
X138450300Y-66752300D02*
X139205700Y-65996900D01*
X136335000Y-43242500D02*
X136335000Y-44704000D01*
X136210000Y-41656000D02*
X136335000Y-41781000D01*
X136335000Y-41781000D02*
X136335000Y-43242500D01*
X136272000Y-67564000D02*
X134513800Y-69322200D01*
X134513800Y-69322200D02*
X134513800Y-73741800D01*
X134513800Y-73741800D02*
X136210000Y-75438000D01*
X148904000Y-44648700D02*
X148158100Y-43902800D01*
X148158100Y-43902800D02*
X141200200Y-43902800D01*
X141200200Y-43902800D02*
X140399000Y-44704000D01*
X148904000Y-45974000D02*
X148904000Y-44648700D01*
X139205700Y-59944000D02*
X138404500Y-59142800D01*
X138404500Y-59142800D02*
X137136200Y-59142800D01*
X137136200Y-59142800D02*
X136335000Y-59944000D01*
X139205700Y-59944000D02*
X140336000Y-59944000D01*
X75044900Y-48143700D02*
X74813700Y-48143700D01*
X74813700Y-48143700D02*
X73660000Y-46990000D01*
X89408000Y-39878000D02*
X84241200Y-39878000D01*
X84241200Y-39878000D02*
X77460800Y-46658400D01*
X77460800Y-46658400D02*
X77460800Y-47329900D01*
X77460800Y-47329900D02*
X76647000Y-48143700D01*
X76647000Y-48143700D02*
X75044900Y-48143700D01*
X75053000Y-69286700D02*
X75053000Y-61417000D01*
X75053000Y-61417000D02*
X75421900Y-61048100D01*
X75421900Y-61048100D02*
X75421900Y-51885800D01*
X75421900Y-51885800D02*
X75044900Y-51508800D01*
X75044900Y-51508800D02*
X75044900Y-48143700D01*
X75053000Y-69286700D02*
X79762000Y-69286700D01*
X68371300Y-71628000D02*
X70712600Y-69286700D01*
X70712600Y-69286700D02*
X75053000Y-69286700D01*
X91948000Y-39878000D02*
X89408000Y-39878000D01*
X79762000Y-70612000D02*
X79762000Y-69286700D01*
X67056000Y-71628000D02*
X68371300Y-71628000D01*
X91948000Y-39878000D02*
X94488000Y-39878000D01*
%TO.N,3V3*%
X141322800Y-51522800D02*
X141322800Y-53121800D01*
X141322800Y-53121800D02*
X142049000Y-53848000D01*
X141322800Y-51522800D02*
X141140900Y-51522800D01*
X141140900Y-51522800D02*
X140276700Y-50658600D01*
X140276700Y-50658600D02*
X140276700Y-49687200D01*
X152597000Y-51522800D02*
X141322800Y-51522800D01*
X152990300Y-67137900D02*
X154885500Y-65242700D01*
X154885500Y-65242700D02*
X154885500Y-53811300D01*
X154885500Y-53811300D02*
X152597000Y-51522800D01*
X140276700Y-49687200D02*
X141448700Y-48515200D01*
X141448700Y-48515200D02*
X141448700Y-48276000D01*
X138835300Y-48276000D02*
X140246500Y-49687200D01*
X140246500Y-49687200D02*
X140276700Y-49687200D01*
X152597000Y-51522800D02*
X157352000Y-46767800D01*
X157352000Y-46767800D02*
X157352000Y-44959700D01*
X157352000Y-44959700D02*
X154302300Y-41910000D01*
X154302300Y-41910000D02*
X141920000Y-41910000D01*
X138110000Y-48276000D02*
X138835300Y-48276000D01*
X138110000Y-48276000D02*
X138110000Y-46353000D01*
X138110000Y-46353000D02*
X137985000Y-46228000D01*
X142174000Y-48276000D02*
X141448700Y-48276000D01*
X83769200Y-58007500D02*
X83769200Y-59887600D01*
X83769200Y-59887600D02*
X82655700Y-61001100D01*
X82655700Y-61001100D02*
X82655700Y-62704400D01*
X82655700Y-62704400D02*
X87262000Y-67310700D01*
X87262000Y-67310700D02*
X87262000Y-70612000D01*
X113098500Y-35033000D02*
X118007300Y-30124200D01*
X118007300Y-30124200D02*
X124811100Y-30124200D01*
X124811100Y-30124200D02*
X126686000Y-28249300D01*
X124968000Y-36068000D02*
X126143300Y-36068000D01*
X132080000Y-38608000D02*
X130904700Y-38608000D01*
X130904700Y-38608000D02*
X130904700Y-37800000D01*
X130904700Y-37800000D02*
X127992400Y-34887700D01*
X127992400Y-34887700D02*
X127019500Y-34887700D01*
X127019500Y-34887700D02*
X126143300Y-35763900D01*
X126143300Y-35763900D02*
X126143300Y-36068000D01*
X134620000Y-38608000D02*
X132080000Y-38608000D01*
X141235300Y-76489400D02*
X141235300Y-82038000D01*
X141235300Y-82038000D02*
X141946000Y-82748700D01*
X142174000Y-75438000D02*
X141235300Y-76376700D01*
X141235300Y-76376700D02*
X141235300Y-76489400D01*
X141235300Y-76489400D02*
X137385300Y-76489400D01*
X137385300Y-76489400D02*
X137041900Y-76146000D01*
X141946000Y-84074000D02*
X141946000Y-82748700D01*
X152990300Y-67137900D02*
X157375900Y-71523500D01*
X157375900Y-71523500D02*
X157375900Y-74402800D01*
X157375900Y-74402800D02*
X156146800Y-75631900D01*
X156146800Y-75631900D02*
X142367900Y-75631900D01*
X142367900Y-75631900D02*
X142174000Y-75438000D01*
X137041900Y-76146000D02*
X137041900Y-74696400D01*
X137041900Y-74696400D02*
X136420300Y-74074800D01*
X136420300Y-74074800D02*
X136420300Y-72488600D01*
X136420300Y-72488600D02*
X137384700Y-71524200D01*
X137384700Y-71524200D02*
X137384700Y-71136000D01*
X131894700Y-72644000D02*
X131894700Y-72670300D01*
X131894700Y-72670300D02*
X135713800Y-76489400D01*
X135713800Y-76489400D02*
X136698500Y-76489400D01*
X136698500Y-76489400D02*
X137041900Y-76146000D01*
X126686000Y-26924000D02*
X126686000Y-28249300D01*
X138110000Y-63500000D02*
X138110000Y-65908300D01*
X138110000Y-65908300D02*
X137716400Y-66301900D01*
X137716400Y-66301900D02*
X136271900Y-66301900D01*
X136271900Y-66301900D02*
X131894700Y-70679100D01*
X131894700Y-70679100D02*
X131894700Y-72644000D01*
X130207300Y-72644000D02*
X131894700Y-72644000D01*
X138110000Y-71136000D02*
X137384700Y-71136000D01*
X143454700Y-62936700D02*
X141986000Y-61468000D01*
X149841100Y-67137900D02*
X149841100Y-63458300D01*
X149841100Y-63458300D02*
X149319500Y-62936700D01*
X149319500Y-62936700D02*
X143454700Y-62936700D01*
X143454700Y-62936700D02*
X143454700Y-62960600D01*
X143454700Y-62960600D02*
X142899300Y-63516000D01*
X141920000Y-41910000D02*
X139793300Y-39783300D01*
X139793300Y-39783300D02*
X139700000Y-39783300D01*
X139700000Y-38608000D02*
X139700000Y-39783300D01*
X137160000Y-38608000D02*
X139700000Y-38608000D01*
X142174000Y-63516000D02*
X142899300Y-63516000D01*
X149841100Y-67137900D02*
X143999100Y-67137900D01*
X143999100Y-67137900D02*
X142049000Y-69088000D01*
X152990300Y-67137900D02*
X149841100Y-67137900D01*
X142174000Y-47888300D02*
X142174000Y-48276000D01*
X142174000Y-55896000D02*
X141448700Y-55896000D01*
X138901300Y-55880000D02*
X139692700Y-56671400D01*
X139692700Y-56671400D02*
X140854600Y-56671400D01*
X140854600Y-56671400D02*
X141448700Y-56077300D01*
X141448700Y-56077300D02*
X141448700Y-55896000D01*
X142174000Y-55508300D02*
X142174000Y-55896000D01*
X138176000Y-55880000D02*
X138901300Y-55880000D01*
X138176000Y-55880000D02*
X138176000Y-54039000D01*
X138176000Y-54039000D02*
X137985000Y-53848000D01*
X81280000Y-51625000D02*
X83769200Y-54114200D01*
X83769200Y-54114200D02*
X83769200Y-58007500D01*
X101409000Y-65278000D02*
X99780700Y-63649700D01*
X99780700Y-63649700D02*
X98852400Y-63649700D01*
X98852400Y-63649700D02*
X97790000Y-62587300D01*
X97790000Y-62587300D02*
X97790000Y-61908500D01*
X97790000Y-61908500D02*
X93889000Y-58007500D01*
X93889000Y-58007500D02*
X83769200Y-58007500D01*
X101409000Y-65278000D02*
X105803000Y-65278000D01*
X105803000Y-65278000D02*
X108851000Y-62230000D01*
X138110000Y-71136000D02*
X138110000Y-70360700D01*
X129032000Y-72644000D02*
X130207300Y-72644000D01*
X126492000Y-72644000D02*
X123952000Y-72644000D01*
X138110000Y-70360700D02*
X137922000Y-70172700D01*
X137922000Y-70172700D02*
X137922000Y-69088000D01*
X129032000Y-72644000D02*
X126492000Y-72644000D01*
X112462000Y-16200700D02*
X104087300Y-16200700D01*
X104087300Y-16200700D02*
X102762000Y-17526000D01*
X102762000Y-17526000D02*
X98238000Y-17526000D01*
X126686000Y-16200700D02*
X118311300Y-16200700D01*
X118311300Y-16200700D02*
X118257000Y-16255000D01*
X118257000Y-16255000D02*
X113453000Y-16255000D01*
X113453000Y-16255000D02*
X113398700Y-16200700D01*
X113398700Y-16200700D02*
X112462000Y-16200700D01*
X112462000Y-17526000D02*
X112462000Y-16200700D01*
X126686000Y-17526000D02*
X126686000Y-16200700D01*
X108851000Y-62230000D02*
X108851000Y-57439500D01*
X108851000Y-57439500D02*
X106680000Y-55268500D01*
X108851000Y-62230000D02*
X109220000Y-62230000D01*
X78740000Y-51625000D02*
X77911200Y-50796200D01*
X77911200Y-50796200D02*
X77911200Y-47818800D01*
X77911200Y-47818800D02*
X78740000Y-46990000D01*
X81280000Y-51625000D02*
X78740000Y-51625000D01*
X142174000Y-55120700D02*
X142049000Y-54995700D01*
X142049000Y-54995700D02*
X142049000Y-53848000D01*
X140910000Y-26924000D02*
X148142000Y-26924000D01*
X148142000Y-26924000D02*
X148904000Y-27686000D01*
X138110000Y-62724700D02*
X137985000Y-62599700D01*
X137985000Y-62599700D02*
X137985000Y-61468000D01*
X142174000Y-55508300D02*
X142174000Y-55120700D01*
X142174000Y-47888300D02*
X142174000Y-47500700D01*
X142174000Y-71136000D02*
X142174000Y-70360700D01*
X142174000Y-70360700D02*
X142049000Y-70235700D01*
X142049000Y-70235700D02*
X142049000Y-69088000D01*
X138110000Y-63500000D02*
X138110000Y-62724700D01*
X142174000Y-47500700D02*
X142049000Y-47375700D01*
X142049000Y-47375700D02*
X142049000Y-46228000D01*
%TO.N,Net-(J20-Pad3)*%
X137160000Y-50276000D02*
X137160000Y-45529000D01*
X137160000Y-45529000D02*
X137985000Y-44704000D01*
X153904000Y-45974000D02*
X153904000Y-44648700D01*
X137985000Y-44704000D02*
X139236600Y-43452400D01*
X139236600Y-43452400D02*
X152707700Y-43452400D01*
X152707700Y-43452400D02*
X153904000Y-44648700D01*
%TO.N,Net-(J20-Pad2)*%
X142944900Y-47299300D02*
X142944900Y-45599900D01*
X142944900Y-45599900D02*
X142049000Y-44704000D01*
X141949300Y-50276000D02*
X142944900Y-49280400D01*
X142944900Y-49280400D02*
X142944900Y-47299300D01*
X142944900Y-47299300D02*
X151404000Y-47299300D01*
X151404000Y-45974000D02*
X151404000Y-47299300D01*
X141224000Y-50276000D02*
X141949300Y-50276000D01*
%TO.N,Net-(J21-Pad3)*%
X153904000Y-56443300D02*
X151676000Y-58671300D01*
X151676000Y-58671300D02*
X138742600Y-58671300D01*
X138742600Y-58671300D02*
X137951300Y-57880000D01*
X137226000Y-57880000D02*
X137951300Y-57880000D01*
X137985000Y-52324000D02*
X137226000Y-53083000D01*
X137226000Y-53083000D02*
X137226000Y-57880000D01*
X153904000Y-55118000D02*
X153904000Y-56443300D01*
%TO.N,Net-(J21-Pad2)*%
X143033800Y-53792700D02*
X143033800Y-56811500D01*
X143033800Y-56811500D02*
X141949300Y-57896000D01*
X142049000Y-52324000D02*
X143033800Y-53308800D01*
X143033800Y-53308800D02*
X143033800Y-53792700D01*
X143033800Y-53792700D02*
X151404000Y-53792700D01*
X151404000Y-55118000D02*
X151404000Y-53792700D01*
X141224000Y-57896000D02*
X141949300Y-57896000D01*
%TO.N,Net-(J31-Pad3)*%
X107373500Y-38283000D02*
X106205500Y-38283000D01*
X106205500Y-38283000D02*
X105406500Y-37484000D01*
X105406500Y-37484000D02*
X103733300Y-37484000D01*
X93238000Y-26924000D02*
X93238000Y-28249300D01*
X103008000Y-37484000D02*
X102282700Y-37484000D01*
X102282700Y-37484000D02*
X102282700Y-35841600D01*
X102282700Y-35841600D02*
X94690400Y-28249300D01*
X94690400Y-28249300D02*
X93238000Y-28249300D01*
X103370700Y-37484000D02*
X103008000Y-37484000D01*
X103370700Y-37484000D02*
X103733300Y-37484000D01*
%TO.N,Net-(J31-Pad2)*%
X103733300Y-38284000D02*
X103739100Y-38289800D01*
X103739100Y-38289800D02*
X104210000Y-38289800D01*
X107373500Y-38933000D02*
X106218600Y-38933000D01*
X106218600Y-38933000D02*
X105575500Y-38289900D01*
X105575500Y-38289900D02*
X104210000Y-38289900D01*
X104210000Y-38289900D02*
X104210000Y-38289800D01*
X103008000Y-38284000D02*
X103733300Y-38284000D01*
%TO.N,Net-(J32-Pad3)*%
X104907500Y-39341500D02*
X104726000Y-39160000D01*
X104726000Y-39160000D02*
X102427600Y-39160000D01*
X102427600Y-39160000D02*
X102282700Y-39304900D01*
X102282700Y-39304900D02*
X102282700Y-40564000D01*
X107373500Y-39583000D02*
X105149000Y-39583000D01*
X105149000Y-39583000D02*
X104907500Y-39341500D01*
X103008000Y-40564000D02*
X102282700Y-40564000D01*
%TO.N,Net-(J32-Pad2)*%
X109962000Y-17526000D02*
X109962000Y-18851300D01*
X107373500Y-40233000D02*
X108111200Y-40233000D01*
X108111200Y-40233000D02*
X108436800Y-39907400D01*
X108436800Y-39907400D02*
X108436800Y-29924300D01*
X108436800Y-29924300D02*
X106509800Y-27997300D01*
X106509800Y-27997300D02*
X106509800Y-22303500D01*
X106509800Y-22303500D02*
X109962000Y-18851300D01*
X103733300Y-39764000D02*
X104202300Y-40233000D01*
X104202300Y-40233000D02*
X107373500Y-40233000D01*
X103008000Y-39764000D02*
X103733300Y-39764000D01*
%TO.N,Net-(J40-Pad9)*%
X102984000Y-84074000D02*
X102984000Y-82748700D01*
X109220000Y-77216000D02*
X109220000Y-77941300D01*
X109220000Y-77941300D02*
X104412600Y-82748700D01*
X104412600Y-82748700D02*
X102984000Y-82748700D01*
%TO.N,Net-(J40-Pad8)*%
X100484000Y-84074000D02*
X100484000Y-82748700D01*
X105140000Y-77216000D02*
X105140000Y-78092700D01*
X105140000Y-78092700D02*
X100484000Y-82748700D01*
%TO.N,Net-(J40-Pad7)*%
X97984000Y-84074000D02*
X97984000Y-82748700D01*
X101092000Y-77216000D02*
X101092000Y-79640700D01*
X101092000Y-79640700D02*
X97984000Y-82748700D01*
%TO.N,Net-(J40-Pad6)*%
X95484000Y-84074000D02*
X95484000Y-82748700D01*
X97028000Y-77216000D02*
X97028000Y-81204700D01*
X97028000Y-81204700D02*
X95484000Y-82748700D01*
%TO.N,Net-(J40-Pad5)*%
X92984000Y-84074000D02*
X92984000Y-82748700D01*
X92964000Y-77216000D02*
X92964000Y-82728700D01*
X92964000Y-82728700D02*
X92984000Y-82748700D01*
%TO.N,Net-(J40-Pad4)*%
X90484000Y-84074000D02*
X90484000Y-82748700D01*
X88884000Y-77216000D02*
X88884000Y-81148700D01*
X88884000Y-81148700D02*
X90484000Y-82748700D01*
%TO.N,Net-(J40-Pad3)*%
X87984000Y-84074000D02*
X87984000Y-82748700D01*
X84328000Y-77216000D02*
X84328000Y-79092700D01*
X84328000Y-79092700D02*
X87984000Y-82748700D01*
%TO.N,Net-(J40-Pad2)*%
X85484000Y-84074000D02*
X85484000Y-82748700D01*
X79740000Y-77216000D02*
X79740000Y-77941300D01*
X79740000Y-77941300D02*
X84547400Y-82748700D01*
X84547400Y-82748700D02*
X85484000Y-82748700D01*
%TO.N,SCK*%
X139446000Y-84074000D02*
X139446000Y-82748700D01*
X122174000Y-84074000D02*
X122174000Y-82748700D01*
X122174000Y-82748700D02*
X139446000Y-82748700D01*
X106680000Y-53443500D02*
X110346900Y-57110400D01*
X110346900Y-57110400D02*
X110346900Y-62732500D01*
X110346900Y-62732500D02*
X102467400Y-70612000D01*
X102467400Y-70612000D02*
X102262000Y-70612000D01*
X106680000Y-46990000D02*
X106680000Y-53443500D01*
%TO.N,MISO*%
X119674000Y-84074000D02*
X119674000Y-85399300D01*
X119674000Y-85399300D02*
X116745800Y-85399300D01*
X116745800Y-85399300D02*
X111336600Y-79990100D01*
X111336600Y-79990100D02*
X111336600Y-73511900D01*
X111336600Y-73511900D02*
X109762000Y-71937300D01*
X99762000Y-70612000D02*
X99762000Y-71937300D01*
X109762000Y-70612000D02*
X109762000Y-71937300D01*
X109762000Y-71937300D02*
X99762000Y-71937300D01*
%TO.N,MOTOR0*%
X127000000Y-62230000D02*
X117174000Y-72056000D01*
X117174000Y-72056000D02*
X117174000Y-84074000D01*
%TO.N,TRG0*%
X140274000Y-46640600D02*
X140274000Y-47500700D01*
X140399000Y-46228000D02*
X140274000Y-46353000D01*
X140274000Y-46353000D02*
X140274000Y-46640600D01*
X139048100Y-46640600D02*
X140274000Y-46640600D01*
X140274000Y-47888300D02*
X140274000Y-48276000D01*
X140274000Y-47888300D02*
X140274000Y-47500700D01*
%TO.N,ECHO0*%
X136210000Y-46353000D02*
X135212200Y-45355200D01*
X135212200Y-45355200D02*
X103234800Y-45355200D01*
X103234800Y-45355200D02*
X101600000Y-46990000D01*
X136210000Y-46353000D02*
X136335000Y-46228000D01*
X136210000Y-47500700D02*
X136210000Y-46353000D01*
X136210000Y-48276000D02*
X136210000Y-48115400D01*
X136210000Y-48083000D02*
X136210000Y-48115400D01*
X136210000Y-48083000D02*
X136210000Y-47500700D01*
%TO.N,TRG1*%
X140319700Y-53927300D02*
X139513800Y-53121500D01*
X140319700Y-53927300D02*
X140399000Y-53848000D01*
X140274000Y-55896000D02*
X140274000Y-53973000D01*
X140274000Y-53973000D02*
X140319700Y-53927300D01*
%TO.N,ECHO1*%
X111760000Y-46990000D02*
X112944400Y-45805600D01*
X112944400Y-45805600D02*
X122403400Y-45805600D01*
X122403400Y-45805600D02*
X123190000Y-46592200D01*
X123190000Y-46592200D02*
X123190000Y-47319900D01*
X123190000Y-47319900D02*
X129718100Y-53848000D01*
X129718100Y-53848000D02*
X136335000Y-53848000D01*
X136276000Y-55104700D02*
X136335000Y-55045700D01*
X136335000Y-55045700D02*
X136335000Y-53848000D01*
X136276000Y-55880000D02*
X136276000Y-55104700D01*
%TO.N,TRG2*%
X140274000Y-64291300D02*
X140277500Y-64294800D01*
X140277500Y-64294800D02*
X140277500Y-64570800D01*
X140274000Y-63516000D02*
X140274000Y-64291300D01*
X140274000Y-63128300D02*
X140274000Y-63516000D01*
X140274000Y-63128300D02*
X140274000Y-62740700D01*
X140274000Y-62740700D02*
X140336000Y-62678700D01*
X140336000Y-62678700D02*
X140336000Y-61468000D01*
%TO.N,ECHO2*%
X136335000Y-61468000D02*
X121920000Y-47053000D01*
X121920000Y-47053000D02*
X121920000Y-46990000D01*
X136210000Y-62724700D02*
X136335000Y-62599700D01*
X136335000Y-62599700D02*
X136335000Y-61468000D01*
X136210000Y-63500000D02*
X136210000Y-62724700D01*
%TO.N,TRG3*%
X140399000Y-69088000D02*
X139380000Y-68069000D01*
X139380000Y-68069000D02*
X139380000Y-67615800D01*
X140274000Y-70360700D02*
X140399000Y-70235700D01*
X140399000Y-70235700D02*
X140399000Y-69088000D01*
X140274000Y-71136000D02*
X140274000Y-70360700D01*
%TO.N,ECHO3*%
X136210000Y-70143000D02*
X135249300Y-70143000D01*
X136210000Y-70143000D02*
X136210000Y-69150000D01*
X136210000Y-69150000D02*
X136272000Y-69088000D01*
X136210000Y-71136000D02*
X136210000Y-70143000D01*
%TO.N,RLY0*%
X77740000Y-76266000D02*
X77740000Y-75540700D01*
X77740000Y-75540700D02*
X80698500Y-72582200D01*
X80698500Y-72582200D02*
X80698500Y-66728500D01*
X80698500Y-66728500D02*
X76200000Y-62230000D01*
%TO.N,RLY1*%
X82328000Y-76266000D02*
X82328000Y-75540700D01*
X82328000Y-75540700D02*
X81336700Y-74549400D01*
X81336700Y-74549400D02*
X81336700Y-64826700D01*
X81336700Y-64826700D02*
X78740000Y-62230000D01*
%TO.N,RLY2*%
X81280000Y-62230000D02*
X83237200Y-64187200D01*
X83237200Y-64187200D02*
X83237200Y-71893900D01*
X83237200Y-71893900D02*
X86884000Y-75540700D01*
X86884000Y-76266000D02*
X86884000Y-75540700D01*
%TO.N,RLY3*%
X90964000Y-76266000D02*
X90964000Y-69374000D01*
X90964000Y-69374000D02*
X83820000Y-62230000D01*
%TO.N,RLY4*%
X95028000Y-76266000D02*
X95028000Y-75540700D01*
X95028000Y-75540700D02*
X93512000Y-74024700D01*
X93512000Y-74024700D02*
X93512000Y-69382000D01*
X93512000Y-69382000D02*
X86360000Y-62230000D01*
%TO.N,RLY5*%
X99092000Y-76266000D02*
X99092000Y-75540700D01*
X99092000Y-75540700D02*
X96012000Y-72460700D01*
X96012000Y-72460700D02*
X96012000Y-69342000D01*
X96012000Y-69342000D02*
X88900000Y-62230000D01*
%TO.N,RLY6*%
X103140000Y-76266000D02*
X102364700Y-76266000D01*
X102364700Y-76266000D02*
X98366700Y-72268000D01*
X98366700Y-72268000D02*
X98366700Y-69156700D01*
X98366700Y-69156700D02*
X91440000Y-62230000D01*
%TO.N,RLY7*%
X107220000Y-76266000D02*
X107220000Y-75540700D01*
X107220000Y-75540700D02*
X102728500Y-75540700D01*
X102728500Y-75540700D02*
X98817200Y-71629400D01*
X98817200Y-71629400D02*
X98817200Y-67067200D01*
X98817200Y-67067200D02*
X93980000Y-62230000D01*
%TO.N,SCL*%
X114473100Y-36292600D02*
X113138900Y-36292600D01*
X113138900Y-36292600D02*
X113098500Y-36333000D01*
X78740000Y-49975000D02*
X80357000Y-48358000D01*
X80357000Y-48358000D02*
X90072000Y-48358000D01*
X90072000Y-48358000D02*
X91440000Y-46990000D01*
%TO.N,SDA*%
X153904000Y-38155300D02*
X142962600Y-38155300D01*
X142962600Y-38155300D02*
X142233900Y-37426600D01*
X142233900Y-37426600D02*
X136613700Y-37426600D01*
X136613700Y-37426600D02*
X135984600Y-38055700D01*
X135984600Y-38055700D02*
X135984600Y-38978500D01*
X135984600Y-38978500D02*
X130097400Y-44865700D01*
X130097400Y-44865700D02*
X96104300Y-44865700D01*
X96104300Y-44865700D02*
X93980000Y-46990000D01*
X153904000Y-27686000D02*
X153904000Y-26360700D01*
X153904000Y-36830000D02*
X153904000Y-38155300D01*
X81280000Y-49975000D02*
X81733400Y-50428400D01*
X81733400Y-50428400D02*
X90541600Y-50428400D01*
X90541600Y-50428400D02*
X93980000Y-46990000D01*
X113098500Y-35683000D02*
X113858000Y-35683000D01*
X113858000Y-35683000D02*
X118904800Y-30636200D01*
X118904800Y-30636200D02*
X127278600Y-30636200D01*
X127278600Y-30636200D02*
X132791400Y-25123400D01*
X132791400Y-25123400D02*
X152666700Y-25123400D01*
X152666700Y-25123400D02*
X153904000Y-26360700D01*
%TO.N,Net-(R51-Pad1)*%
X97262000Y-70612000D02*
X97262000Y-69286700D01*
X99759000Y-65278000D02*
X97974800Y-65278000D01*
X97974800Y-65278000D02*
X95250000Y-62553200D01*
X95250000Y-62553200D02*
X95250000Y-61865000D01*
X95250000Y-61865000D02*
X94471400Y-61086400D01*
X94471400Y-61086400D02*
X90979900Y-61086400D01*
X90979900Y-61086400D02*
X90275700Y-61790600D01*
X90275700Y-61790600D02*
X90275700Y-62731300D01*
X90275700Y-62731300D02*
X96831100Y-69286700D01*
X96831100Y-69286700D02*
X97262000Y-69286700D01*
%TO.N,T_IRQ*%
X121920000Y-62230000D02*
X113538000Y-70612000D01*
X113538000Y-70612000D02*
X112262000Y-70612000D01*
%TO.N,T_CS*%
X124460000Y-62230000D02*
X123298100Y-61068100D01*
X123298100Y-61068100D02*
X113868600Y-61068100D01*
X113868600Y-61068100D02*
X113030000Y-61906700D01*
X113030000Y-61906700D02*
X113030000Y-62597800D01*
X113030000Y-62597800D02*
X105015800Y-70612000D01*
X105015800Y-70612000D02*
X104762000Y-70612000D01*
%TO.N,I2CRESET*%
X107373500Y-36333000D02*
X106629300Y-36333000D01*
X106629300Y-36333000D02*
X104036600Y-33740300D01*
X104036600Y-33740300D02*
X104036600Y-27624800D01*
X104036600Y-27624800D02*
X94488000Y-18076200D01*
X94488000Y-18076200D02*
X94488000Y-17050700D01*
X94488000Y-17050700D02*
X93631900Y-16194600D01*
X93631900Y-16194600D02*
X92768200Y-16194600D01*
X92768200Y-16194600D02*
X92300800Y-16662000D01*
X92300800Y-16662000D02*
X92300800Y-29270300D01*
X92300800Y-29270300D02*
X99946900Y-36916400D01*
X99946900Y-36916400D02*
X99946900Y-41054300D01*
%TO.N,GND*%
X156404000Y-45974000D02*
X156404000Y-44648700D01*
X140020000Y-41910000D02*
X141071300Y-42961300D01*
X141071300Y-42961300D02*
X154716600Y-42961300D01*
X154716600Y-42961300D02*
X156404000Y-44648700D01*
X138110000Y-41656000D02*
X139766000Y-41656000D01*
X139766000Y-41656000D02*
X140020000Y-41910000D01*
X138110000Y-75438000D02*
X140274000Y-75438000D01*
X140274000Y-75438000D02*
X141325400Y-74386600D01*
X141325400Y-74386600D02*
X146823800Y-74386600D01*
X146823800Y-74386600D02*
X147618800Y-75181600D01*
X147618800Y-75181600D02*
X155953700Y-75181600D01*
X155953700Y-75181600D02*
X156404000Y-74731300D01*
X156404000Y-73406000D02*
X156404000Y-74731300D01*
%TO.N,Net-(J22-Pad2)*%
X151404000Y-62936700D02*
X150565700Y-62936700D01*
X150565700Y-62936700D02*
X150340600Y-62711600D01*
X150340600Y-62711600D02*
X150103200Y-62711600D01*
X150103200Y-62711600D02*
X149878000Y-62486400D01*
X149878000Y-62486400D02*
X144375400Y-62486400D01*
X144375400Y-62486400D02*
X142058800Y-60169700D01*
X141986000Y-59944000D02*
X141986000Y-60097000D01*
X141986000Y-60097000D02*
X142058800Y-60169700D01*
X141224000Y-65516000D02*
X141224000Y-61004500D01*
X141224000Y-61004500D02*
X142058800Y-60169700D01*
X151404000Y-64262000D02*
X151404000Y-62936700D01*
%TO.N,Net-(J22-Pad3)*%
X137160000Y-65015000D02*
X137160000Y-60769000D01*
X137160000Y-60769000D02*
X137985000Y-59944000D01*
X137160000Y-65500000D02*
X137160000Y-65015000D01*
X136067200Y-65015000D02*
X137160000Y-65015000D01*
%TO.N,Net-(J23-Pad2)*%
X141275600Y-72080700D02*
X151404000Y-72080700D01*
X141224000Y-73136000D02*
X141224000Y-72132300D01*
X141224000Y-72132300D02*
X141275600Y-72080700D01*
X141275600Y-72080700D02*
X141275600Y-68337400D01*
X141275600Y-68337400D02*
X142049000Y-67564000D01*
X151404000Y-73406000D02*
X151404000Y-72080700D01*
%TO.N,Net-(J23-Pad3)*%
X153904000Y-73406000D02*
X153904000Y-74731300D01*
X138862000Y-72159300D02*
X138862000Y-68504000D01*
X138862000Y-68504000D02*
X137922000Y-67564000D01*
X137522700Y-73136000D02*
X137885300Y-73136000D01*
X137885300Y-73136000D02*
X138862000Y-72159300D01*
X138862000Y-72159300D02*
X140614100Y-73911400D01*
X140614100Y-73911400D02*
X147210500Y-73911400D01*
X147210500Y-73911400D02*
X148030400Y-74731300D01*
X148030400Y-74731300D02*
X153904000Y-74731300D01*
X137160000Y-73136000D02*
X137522700Y-73136000D01*
%TO.N,Net-(J30-Pad2)*%
X107373500Y-37633000D02*
X106192400Y-37633000D01*
X106192400Y-37633000D02*
X105243400Y-36684000D01*
X105243400Y-36684000D02*
X104123800Y-36684000D01*
X103008000Y-36684000D02*
X104123800Y-36684000D01*
%TO.N,Net-(J30-Pad3)*%
X107373500Y-36983000D02*
X106179300Y-36983000D01*
X106179300Y-36983000D02*
X105080300Y-35884000D01*
X105080300Y-35884000D02*
X103733300Y-35884000D01*
X103008000Y-35884000D02*
X103733300Y-35884000D01*
X103008000Y-35884000D02*
X103008000Y-28621300D01*
X103008000Y-28621300D02*
X93238000Y-18851300D01*
X93238000Y-17526000D02*
X93238000Y-18851300D01*
%TO.N,Net-(J33-Pad2)*%
X109962000Y-28249300D02*
X109732800Y-28478500D01*
X109732800Y-28478500D02*
X109732800Y-39885200D01*
X109732800Y-39885200D02*
X108085000Y-41533000D01*
X108085000Y-41533000D02*
X107373500Y-41533000D01*
X107373500Y-41533000D02*
X106090300Y-41533000D01*
X106090300Y-41533000D02*
X104883900Y-42739400D01*
X104883900Y-42739400D02*
X102420400Y-42739400D01*
X102420400Y-42739400D02*
X102282700Y-42601700D01*
X102282700Y-42601700D02*
X102282700Y-41364000D01*
X109962000Y-26924000D02*
X109962000Y-28249300D01*
X103008000Y-41364000D02*
X102282700Y-41364000D01*
%TO.N,Net-(J33-Pad3)*%
X107373500Y-40883000D02*
X105580900Y-40883000D01*
X105580900Y-40883000D02*
X104299900Y-42164000D01*
X104299900Y-42164000D02*
X103008000Y-42164000D01*
X107462000Y-28249300D02*
X108919300Y-29706600D01*
X108919300Y-29706600D02*
X108919300Y-40061800D01*
X108919300Y-40061800D02*
X108098100Y-40883000D01*
X108098100Y-40883000D02*
X107373500Y-40883000D01*
X107462000Y-26924000D02*
X107462000Y-28249300D01*
%TO.N,Net-(J34-Pad2)*%
X124186000Y-17526000D02*
X124186000Y-20141800D01*
X124186000Y-20141800D02*
X110633400Y-33694400D01*
X110633400Y-33694400D02*
X110633400Y-39795900D01*
X110633400Y-39795900D02*
X112370500Y-41533000D01*
X112370500Y-41533000D02*
X113098500Y-41533000D01*
X117246700Y-41548000D02*
X117231700Y-41533000D01*
X117231700Y-41533000D02*
X113098500Y-41533000D01*
X117972000Y-41548000D02*
X117246700Y-41548000D01*
%TO.N,Net-(J34-Pad3)*%
X121686000Y-18851300D02*
X116249200Y-24288100D01*
X116249200Y-24288100D02*
X116249200Y-27123900D01*
X116249200Y-27123900D02*
X110183100Y-33190000D01*
X110183100Y-33190000D02*
X110183100Y-39985500D01*
X110183100Y-39985500D02*
X112380600Y-42183000D01*
X112380600Y-42183000D02*
X113098500Y-42183000D01*
X121686000Y-17526000D02*
X121686000Y-18851300D01*
X117246700Y-42348000D02*
X117081700Y-42183000D01*
X117081700Y-42183000D02*
X113098500Y-42183000D01*
X117972000Y-42348000D02*
X117246700Y-42348000D01*
%TO.N,Net-(J35-Pad2)*%
X113098500Y-40233000D02*
X112346600Y-40233000D01*
X112346600Y-40233000D02*
X111534000Y-39420400D01*
X111534000Y-39420400D02*
X111534000Y-34617700D01*
X111534000Y-34617700D02*
X117452000Y-28699700D01*
X117452000Y-28699700D02*
X122410300Y-28699700D01*
X122410300Y-28699700D02*
X124186000Y-26924000D01*
X117246700Y-39948000D02*
X116961700Y-40233000D01*
X116961700Y-40233000D02*
X113098500Y-40233000D01*
X117972000Y-39948000D02*
X117246700Y-39948000D01*
%TO.N,Net-(J35-Pad3)*%
X121686000Y-28249300D02*
X117265500Y-28249300D01*
X117265500Y-28249300D02*
X111083700Y-34431100D01*
X111083700Y-34431100D02*
X111083700Y-39607000D01*
X111083700Y-39607000D02*
X112359700Y-40883000D01*
X112359700Y-40883000D02*
X113098500Y-40883000D01*
X121686000Y-26924000D02*
X121686000Y-28249300D01*
X117246700Y-40748000D02*
X117111700Y-40883000D01*
X117111700Y-40883000D02*
X113098500Y-40883000D01*
X117972000Y-40748000D02*
X117246700Y-40748000D01*
%TO.N,Net-(J36-Pad2)*%
X113098500Y-38933000D02*
X113173800Y-39008300D01*
X113173800Y-39008300D02*
X115452800Y-39008300D01*
X115452800Y-39008300D02*
X116922000Y-37539100D01*
X116922000Y-37539100D02*
X117191600Y-37539100D01*
X117191600Y-37539100D02*
X117246700Y-37484000D01*
X117972000Y-37484000D02*
X117246700Y-37484000D01*
%TO.N,Net-(J36-Pad3)*%
X135910000Y-17526000D02*
X135910000Y-18851300D01*
X135910000Y-18851300D02*
X133020900Y-18851300D01*
X133020900Y-18851300D02*
X125403600Y-26468600D01*
X125403600Y-26468600D02*
X125403600Y-27458800D01*
X125403600Y-27458800D02*
X123712300Y-29150100D01*
X123712300Y-29150100D02*
X117641600Y-29150100D01*
X117641600Y-29150100D02*
X111984300Y-34807400D01*
X111984300Y-34807400D02*
X111984300Y-39233700D01*
X111984300Y-39233700D02*
X112333600Y-39583000D01*
X112333600Y-39583000D02*
X113098500Y-39583000D01*
X117972000Y-38284000D02*
X117246700Y-38284000D01*
X113098500Y-39583000D02*
X115947700Y-39583000D01*
X115947700Y-39583000D02*
X117246700Y-38284000D01*
%TO.N,Net-(J37-Pad2)*%
X138410000Y-25598700D02*
X135451200Y-25598700D01*
X135451200Y-25598700D02*
X134627600Y-26422300D01*
X134627600Y-26422300D02*
X134627600Y-27462400D01*
X134627600Y-27462400D02*
X128500100Y-33589900D01*
X128500100Y-33589900D02*
X118919400Y-33589900D01*
X118919400Y-33589900D02*
X117246700Y-35262600D01*
X117246700Y-35262600D02*
X117246700Y-36684000D01*
X117246700Y-36684000D02*
X116210400Y-36684000D01*
X116210400Y-36684000D02*
X115336700Y-37557700D01*
X115336700Y-37557700D02*
X113173800Y-37557700D01*
X113173800Y-37557700D02*
X113098500Y-37633000D01*
X117972000Y-36684000D02*
X117246700Y-36684000D01*
X138410000Y-26924000D02*
X138410000Y-25598700D01*
%TO.N,Net-(J37-Pad3)*%
X117972000Y-35884000D02*
X118697300Y-35884000D01*
X118584700Y-34950300D02*
X119231300Y-34303700D01*
X119231300Y-34303700D02*
X129855600Y-34303700D01*
X129855600Y-34303700D02*
X135910000Y-28249300D01*
X118584700Y-34950300D02*
X118697300Y-35062900D01*
X118697300Y-35062900D02*
X118697300Y-35884000D01*
X113098500Y-38283000D02*
X114885600Y-38283000D01*
X135910000Y-26924000D02*
X135910000Y-28249300D01*
%TO.N,Net-(RN31-Pad5)*%
X119046700Y-42348000D02*
X119046700Y-42419900D01*
X119046700Y-42419900D02*
X118260500Y-43206100D01*
X118260500Y-43206100D02*
X102250100Y-43206100D01*
X102250100Y-43206100D02*
X101208000Y-42164000D01*
X101208000Y-42164000D02*
X101197300Y-42164000D01*
X119772000Y-42348000D02*
X119046700Y-42348000D01*
X101197300Y-42164000D02*
X100482700Y-42164000D01*
X101026700Y-38284000D02*
X100913100Y-38284000D01*
X101208000Y-38284000D02*
X101026700Y-38284000D01*
X101026700Y-37484000D02*
X100845400Y-37484000D01*
X101208000Y-37484000D02*
X101026700Y-37484000D01*
X101026700Y-37484000D02*
X101026700Y-38284000D01*
X100845400Y-41364000D02*
X100482700Y-41726700D01*
X100482700Y-41726700D02*
X100482700Y-42164000D01*
X100845400Y-40564000D02*
X100845400Y-41364000D01*
X100845400Y-37484000D02*
X100845400Y-36684000D01*
X120134700Y-40748000D02*
X120497300Y-40748000D01*
X119772000Y-40748000D02*
X120134700Y-40748000D01*
X120134700Y-40748000D02*
X120134700Y-39948000D01*
X119953400Y-41548000D02*
X120044000Y-41548000D01*
X120044000Y-41548000D02*
X120497300Y-41094700D01*
X120497300Y-41094700D02*
X120497300Y-40748000D01*
X119953400Y-41548000D02*
X120134700Y-41548000D01*
X119772000Y-41548000D02*
X119953400Y-41548000D01*
X100936000Y-39764000D02*
X100482700Y-40217300D01*
X100482700Y-40217300D02*
X100482700Y-40564000D01*
X101026700Y-39764000D02*
X100936000Y-39764000D01*
X100913100Y-38284000D02*
X100924800Y-38295700D01*
X100924800Y-38295700D02*
X100924900Y-38295700D01*
X100924900Y-38295700D02*
X100924900Y-39752900D01*
X100924900Y-39752900D02*
X100936000Y-39764000D01*
X100845400Y-40564000D02*
X100482700Y-40564000D01*
X101208000Y-40564000D02*
X100845400Y-40564000D01*
X101208000Y-41364000D02*
X100845400Y-41364000D01*
X101208000Y-39764000D02*
X101026700Y-39764000D01*
X119772000Y-39948000D02*
X120134700Y-39948000D01*
X120134700Y-39948000D02*
X120134700Y-38284000D01*
X119772000Y-38284000D02*
X120134700Y-38284000D01*
X120134700Y-37484000D02*
X120497300Y-37484000D01*
X119772000Y-37484000D02*
X120134700Y-37484000D01*
X120134700Y-37484000D02*
X120134700Y-38284000D01*
X119772000Y-35884000D02*
X120497300Y-35884000D01*
X120497300Y-35884000D02*
X120497300Y-36684000D01*
X119772000Y-36684000D02*
X120497300Y-36684000D01*
X120497300Y-36684000D02*
X120497300Y-37484000D01*
X120134700Y-41548000D02*
X119772000Y-41910700D01*
X119772000Y-41910700D02*
X119772000Y-42348000D01*
X101208000Y-35884000D02*
X100482700Y-35884000D01*
X100845400Y-36684000D02*
X100482700Y-36321300D01*
X100482700Y-36321300D02*
X100482700Y-35884000D01*
X101208000Y-36684000D02*
X100845400Y-36684000D01*
%TO.N,Net-(C1-Pad2)*%
X72102000Y-43434000D02*
X73027300Y-43434000D01*
X73027300Y-43434000D02*
X73027300Y-42927900D01*
X73027300Y-42927900D02*
X73446500Y-42508700D01*
X73446500Y-42508700D02*
X74290300Y-42508700D01*
X74290300Y-42508700D02*
X79743900Y-37055100D01*
X79743900Y-37055100D02*
X79743900Y-35171100D01*
X79743900Y-35171100D02*
X81260000Y-33655000D01*
%TO.N,Net-(J5-Pad3)*%
X123792700Y-38608000D02*
X123792700Y-39462100D01*
X123792700Y-39462100D02*
X119475700Y-43779100D01*
X119475700Y-43779100D02*
X84490900Y-43779100D01*
X84490900Y-43779100D02*
X81280000Y-46990000D01*
X124968000Y-38608000D02*
X123792700Y-38608000D01*
%TO.N,Net-(J5-Pad2)*%
X127508000Y-37243300D02*
X127140600Y-37243300D01*
X127140600Y-37243300D02*
X126332700Y-38051200D01*
X126332700Y-38051200D02*
X126332700Y-38948700D01*
X126332700Y-38948700D02*
X120866100Y-44415300D01*
X120866100Y-44415300D02*
X86394700Y-44415300D01*
X86394700Y-44415300D02*
X83820000Y-46990000D01*
X127508000Y-36068000D02*
X127508000Y-37243300D01*
%TD*%
M02*
