M48
; DRILL file {KiCad 5.1.9-73d0e3b20d~88~ubuntu20.04.1} date Fri Feb 26 13:03:28 2021
; FORMAT={-:-/ absolute / inch / decimal}
; #@! TF.CreationDate,2021-02-26T13:03:28-08:00
; #@! TF.GenerationSoftware,Kicad,Pcbnew,5.1.9-73d0e3b20d~88~ubuntu20.04.1
FMAT,2
INCH
T1C0.0157
T2C0.0236
T3C0.0315
T4C0.0350
T5C0.0394
T6C0.0410
T7C0.0433
T8C0.0520
T9C0.0630
T10C0.1280
T11C0.1693
T12C0.0472
%
G90
G05
T1
X3.9349Y-1.6163
X4.0994Y-1.4443
X4.1028Y-1.5075
X4.1302Y-1.5489
X4.2858Y-1.6681
X4.5068Y-1.4288
X4.5231Y-1.5072
X4.6032Y-1.4779
X4.6687Y-1.376
X5.3248Y-2.7615
X5.357Y-2.5596
X5.3675Y-1.7025
X5.4743Y-1.8362
X5.4874Y-2.662
X5.4927Y-2.0914
X5.495Y-2.0285
X5.5227Y-2.5422
X6.1576Y-2.0424
X6.1576Y-2.6824
T2
X2.573Y-0.7
X2.573Y-3.3
X2.6102Y-0.6102
X2.6102Y-0.7898
X2.6102Y-3.2102
X2.6102Y-3.3898
X2.7Y-0.573
X2.7Y-0.827
X2.7Y-3.173
X2.7Y-3.427
X2.7898Y-0.6102
X2.7898Y-0.7898
X2.7898Y-3.2102
X2.7898Y-3.3898
X2.827Y-0.7
X2.827Y-3.3
X5.973Y-0.7
X5.973Y-3.3
X6.0102Y-0.6102
X6.0102Y-0.7898
X6.0102Y-3.2102
X6.0102Y-3.3898
X6.1Y-0.573
X6.1Y-0.827
X6.1Y-3.173
X6.1Y-3.427
X6.1898Y-0.6102
X6.1898Y-0.7898
X6.1898Y-3.2102
X6.1898Y-3.3898
X6.227Y-0.7
X6.227Y-3.3
T3
X2.9287Y-2.1
X2.9287Y-2.2
X3.1402Y-2.78
X3.2387Y-2.78
X3.2671Y-3.31
X3.3371Y-2.78
X3.3655Y-3.31
X3.4106Y-1.946
X3.4106Y-2.0247
X3.4106Y-2.1035
X3.4355Y-2.78
X3.4639Y-3.31
X3.4894Y-1.946
X3.4894Y-2.0247
X3.4894Y-2.1035
X3.5339Y-2.78
X3.5624Y-3.31
X3.5724Y-0.69
X3.5724Y-1.06
X3.6324Y-2.78
X3.6608Y-3.31
X3.6708Y-0.69
X3.6708Y-1.06
X3.7308Y-2.78
X3.7592Y-3.31
X3.7692Y-0.69
X3.7692Y-1.06
X3.8292Y-2.78
X3.8576Y-3.31
X3.8676Y-0.69
X3.8676Y-1.06
X3.9276Y-2.78
X3.9561Y-3.31
X4.0261Y-2.78
X4.0545Y-3.31
X4.1245Y-2.78
X4.1324Y-0.69
X4.1324Y-1.06
X4.1529Y-3.31
X4.2229Y-2.78
X4.2308Y-0.69
X4.2308Y-1.06
X4.3213Y-2.78
X4.3292Y-0.69
X4.3292Y-1.06
X4.4198Y-2.78
X4.4276Y-0.69
X4.4276Y-1.06
X4.6131Y-3.31
X4.6924Y-0.69
X4.6924Y-1.06
X4.7116Y-3.31
X4.7908Y-0.69
X4.7908Y-1.06
X4.81Y-3.31
X4.8892Y-0.69
X4.8892Y-1.06
X4.9084Y-3.31
X4.9876Y-0.69
X4.9876Y-1.06
X5.0069Y-3.31
X5.2524Y-0.69
X5.2524Y-1.06
X5.2931Y-3.31
X5.3508Y-0.69
X5.3508Y-1.06
X5.3916Y-3.31
X5.4492Y-0.69
X5.4492Y-1.06
X5.49Y-3.31
X5.5476Y-0.69
X5.5476Y-1.06
X5.5884Y-3.31
X5.6869Y-3.31
X5.8624Y-1.09
X5.8624Y-1.45
X5.8624Y-1.81
X5.8624Y-2.17
X5.8624Y-2.53
X5.8624Y-2.89
X5.9608Y-1.09
X5.9608Y-1.45
X5.9608Y-1.81
X5.9608Y-2.17
X5.9608Y-2.53
X5.9608Y-2.89
X6.0592Y-1.09
X6.0592Y-1.45
X6.0592Y-1.81
X6.0592Y-2.17
X6.0592Y-2.53
X6.0592Y-2.89
X6.1576Y-1.09
X6.1576Y-1.45
X6.1576Y-1.81
X6.1576Y-2.17
X6.1576Y-2.53
X6.1576Y-2.89
T4
X3.1992Y-1.125
X3.1992Y-1.225
X3.1992Y-1.325
X3.1992Y-1.425
X3.2992Y-1.175
X3.2992Y-1.275
X3.2992Y-1.375
X3.2992Y-1.475
T5
X3.52Y-1.47
X3.52Y-1.57
X3.62Y-1.47
X3.62Y-1.57
X3.72Y-1.47
X3.72Y-1.57
X3.82Y-1.47
X3.82Y-1.57
X4.78Y-2.76
X4.78Y-2.86
X4.78Y-2.97
X4.88Y-2.76
X4.88Y-2.86
X4.88Y-2.97
X4.92Y-1.42
X4.92Y-1.52
X4.98Y-2.76
X4.98Y-2.86
X4.98Y-2.97
X5.02Y-1.42
X5.02Y-1.52
X5.08Y-2.76
X5.08Y-2.86
X5.08Y-2.97
X5.2Y-1.42
X5.2Y-1.52
X5.3Y-1.42
X5.3Y-1.52
X5.4Y-1.42
X5.4Y-1.52
X5.5Y-1.42
X5.5Y-1.52
T6
X2.7484Y-1.051
X2.7492Y-1.449
X2.8161Y-1.151
X2.8161Y-1.549
T7
X2.9Y-1.85
X2.9Y-2.45
X3.0Y-1.85
X3.0Y-1.95
X3.0Y-2.45
X3.1Y-1.85
X3.1Y-2.45
X3.148Y-2.3299
X3.2Y-1.85
X3.2Y-2.45
X3.248Y-2.3299
X3.3Y-1.85
X3.3Y-2.45
X3.348Y-2.3299
X3.4Y-1.85
X3.4Y-2.45
X3.448Y-2.3299
X3.5Y-1.85
X3.5Y-2.45
X3.548Y-2.3299
X3.6Y-1.85
X3.6Y-2.45
X3.7Y-1.85
X3.7Y-2.45
X3.8Y-1.85
X3.8Y-2.45
X3.9Y-1.85
X3.9Y-2.45
X4.0Y-1.85
X4.0Y-2.45
X4.1Y-1.85
X4.1Y-2.45
X4.2Y-1.85
X4.2Y-2.45
X4.3Y-1.85
X4.3Y-2.45
X4.4Y-1.85
X4.4Y-2.45
X4.5Y-1.85
X4.5Y-2.45
X4.6Y-1.85
X4.6Y-2.45
X4.7Y-1.85
X4.7Y-1.95
X4.7Y-2.05
X4.7Y-2.15
X4.7Y-2.25
X4.7Y-2.35
X4.7Y-2.45
X4.8Y-1.85
X4.8Y-2.45
X4.9Y-1.85
X4.9Y-2.45
X5.0Y-1.85
X5.0Y-2.45
X5.1Y-1.85
X5.1Y-2.45
X5.2Y-1.85
X5.2Y-2.45
T8
X2.64Y-2.82
X2.8369Y-2.82
T9
X3.0685Y-0.99
X3.0685Y-1.61
T10
X2.9484Y-1.075
X2.9484Y-1.525
T11
X2.7Y-0.7
X2.7Y-3.3
X6.1Y-0.7
X6.1Y-3.3
T12
X3.5094Y-0.6034
X3.5094Y-0.9734
X4.0694Y-0.6034
X4.0694Y-0.9734
X4.2159Y-3.3966
X4.4828Y-2.8666
X4.6294Y-0.6034
X4.6294Y-0.9734
X5.0698Y-3.3966
X5.1894Y-0.6034
X5.1894Y-0.9734
X5.7498Y-3.3966
X6.2206Y-1.1766
X6.2206Y-1.5366
X6.2206Y-1.8966
X6.2206Y-2.2566
X6.2206Y-2.6166
X6.2206Y-2.9766
T0
M30
