%TF.GenerationSoftware,KiCad,Pcbnew,5.1.9-73d0e3b20d~88~ubuntu20.04.1*%
%TF.CreationDate,2021-02-26T13:03:21-08:00*%
%TF.ProjectId,TeensyMonitorV5,5465656e-7379-44d6-9f6e-69746f725635,rev?*%
%TF.SameCoordinates,Original*%
%TF.FileFunction,Soldermask,Top*%
%TF.FilePolarity,Negative*%
%FSLAX46Y46*%
G04 Gerber Fmt 4.6, Leading zero omitted, Abs format (unit mm)*
G04 Created by KiCad (PCBNEW 5.1.9-73d0e3b20d~88~ubuntu20.04.1) date 2021-02-26 13:03:21*
%MOMM*%
%LPD*%
G01*
G04 APERTURE LIST*
%ADD10R,0.800000X0.500000*%
%ADD11R,0.800000X0.400000*%
%ADD12C,1.200000*%
%ADD13O,1.200000X2.000000*%
%ADD14O,1.700000X1.700000*%
%ADD15R,1.700000X1.700000*%
%ADD16C,1.300000*%
%ADD17C,1.600000*%
%ADD18R,1.300000X1.300000*%
%ADD19R,1.600000X1.600000*%
%ADD20C,2.108200*%
%ADD21C,3.759200*%
%ADD22C,1.549400*%
%ADD23C,1.397000*%
%ADD24R,1.200000X1.200000*%
%ADD25C,0.900000*%
%ADD26C,8.600000*%
%ADD27R,0.900000X0.800000*%
%ADD28R,0.800000X0.900000*%
%ADD29O,1.980000X3.960000*%
%ADD30R,1.980000X3.960000*%
G04 APERTURE END LIST*
D10*
%TO.C,RN34*%
X119772000Y-38284000D03*
D11*
X119772000Y-37484000D03*
D10*
X119772000Y-35884000D03*
D11*
X119772000Y-36684000D03*
D10*
X117972000Y-38284000D03*
D11*
X117972000Y-36684000D03*
X117972000Y-37484000D03*
D10*
X117972000Y-35884000D03*
%TD*%
D12*
%TO.C,J23*%
X158004000Y-75606000D03*
D13*
X156404000Y-73406000D03*
X153904000Y-73406000D03*
X151404000Y-73406000D03*
X148904000Y-73406000D03*
%TD*%
D12*
%TO.C,J22*%
X158004000Y-66462000D03*
D13*
X156404000Y-64262000D03*
X153904000Y-64262000D03*
X151404000Y-64262000D03*
X148904000Y-64262000D03*
%TD*%
D12*
%TO.C,J21*%
X158004000Y-57318000D03*
D13*
X156404000Y-55118000D03*
X153904000Y-55118000D03*
X151404000Y-55118000D03*
X148904000Y-55118000D03*
%TD*%
D12*
%TO.C,J20*%
X158004000Y-48174000D03*
D13*
X156404000Y-45974000D03*
X153904000Y-45974000D03*
X151404000Y-45974000D03*
X148904000Y-45974000D03*
%TD*%
D12*
%TO.C,U50*%
X113862000Y-72812000D03*
D13*
X112262000Y-70612000D03*
X109762000Y-70612000D03*
X107262000Y-70612000D03*
X104762000Y-70612000D03*
X102262000Y-70612000D03*
X99762000Y-70612000D03*
X97262000Y-70612000D03*
X94762000Y-70612000D03*
X92262000Y-70612000D03*
X89762000Y-70612000D03*
X87262000Y-70612000D03*
X84762000Y-70612000D03*
X82262000Y-70612000D03*
X79762000Y-70612000D03*
%TD*%
D12*
%TO.C,J39b1*%
X158004000Y-29886000D03*
D13*
X156404000Y-27686000D03*
X153904000Y-27686000D03*
X151404000Y-27686000D03*
X148904000Y-27686000D03*
%TD*%
D12*
%TO.C,J39a1*%
X158004000Y-39030000D03*
D13*
X156404000Y-36830000D03*
X153904000Y-36830000D03*
X151404000Y-36830000D03*
X148904000Y-36830000D03*
%TD*%
D12*
%TO.C,J55*%
X146046000Y-86274000D03*
D13*
X144446000Y-84074000D03*
X141946000Y-84074000D03*
X139446000Y-84074000D03*
X136946000Y-84074000D03*
X134446000Y-84074000D03*
%TD*%
D12*
%TO.C,J54*%
X128774000Y-86274000D03*
D13*
X127174000Y-84074000D03*
X124674000Y-84074000D03*
X122174000Y-84074000D03*
X119674000Y-84074000D03*
X117174000Y-84074000D03*
%TD*%
D12*
%TO.C,J40*%
X107084000Y-86274000D03*
D13*
X105484000Y-84074000D03*
X102984000Y-84074000D03*
X100484000Y-84074000D03*
X97984000Y-84074000D03*
X95484000Y-84074000D03*
X92984000Y-84074000D03*
X90484000Y-84074000D03*
X87984000Y-84074000D03*
X85484000Y-84074000D03*
X82984000Y-84074000D03*
%TD*%
D12*
%TO.C,J37*%
X131810000Y-24724000D03*
D13*
X133410000Y-26924000D03*
X135910000Y-26924000D03*
X138410000Y-26924000D03*
X140910000Y-26924000D03*
%TD*%
D12*
%TO.C,J36*%
X131810000Y-15326000D03*
D13*
X133410000Y-17526000D03*
X135910000Y-17526000D03*
X138410000Y-17526000D03*
X140910000Y-17526000D03*
%TD*%
D12*
%TO.C,J35*%
X117586000Y-24724000D03*
D13*
X119186000Y-26924000D03*
X121686000Y-26924000D03*
X124186000Y-26924000D03*
X126686000Y-26924000D03*
%TD*%
D12*
%TO.C,J34*%
X117586000Y-15326000D03*
D13*
X119186000Y-17526000D03*
X121686000Y-17526000D03*
X124186000Y-17526000D03*
X126686000Y-17526000D03*
%TD*%
D12*
%TO.C,J33*%
X103362000Y-24724000D03*
D13*
X104962000Y-26924000D03*
X107462000Y-26924000D03*
X109962000Y-26924000D03*
X112462000Y-26924000D03*
%TD*%
D12*
%TO.C,J32*%
X103362000Y-15326000D03*
D13*
X104962000Y-17526000D03*
X107462000Y-17526000D03*
X109962000Y-17526000D03*
X112462000Y-17526000D03*
%TD*%
D12*
%TO.C,J31*%
X89138000Y-24724000D03*
D13*
X90738000Y-26924000D03*
X93238000Y-26924000D03*
X95738000Y-26924000D03*
X98238000Y-26924000D03*
%TD*%
D12*
%TO.C,J30*%
X89138000Y-15326000D03*
D13*
X90738000Y-17526000D03*
X93238000Y-17526000D03*
X95738000Y-17526000D03*
X98238000Y-17526000D03*
%TD*%
%TO.C,R17*%
G36*
G01*
X106229999Y-54756000D02*
X107130001Y-54756000D01*
G75*
G02*
X107380000Y-55005999I0J-249999D01*
G01*
X107380000Y-55531001D01*
G75*
G02*
X107130001Y-55781000I-249999J0D01*
G01*
X106229999Y-55781000D01*
G75*
G02*
X105980000Y-55531001I0J249999D01*
G01*
X105980000Y-55005999D01*
G75*
G02*
X106229999Y-54756000I249999J0D01*
G01*
G37*
G36*
G01*
X106229999Y-52931000D02*
X107130001Y-52931000D01*
G75*
G02*
X107380000Y-53180999I0J-249999D01*
G01*
X107380000Y-53706001D01*
G75*
G02*
X107130001Y-53956000I-249999J0D01*
G01*
X106229999Y-53956000D01*
G75*
G02*
X105980000Y-53706001I0J249999D01*
G01*
X105980000Y-53180999D01*
G75*
G02*
X106229999Y-52931000I249999J0D01*
G01*
G37*
%TD*%
D14*
%TO.C,J5*%
X127508000Y-38608000D03*
X124968000Y-38608000D03*
X127508000Y-36068000D03*
D15*
X124968000Y-36068000D03*
%TD*%
D16*
%TO.C,U1*%
X74390000Y-53340000D03*
X74390000Y-55880000D03*
D17*
X119380000Y-49530000D03*
X119380000Y-52070000D03*
X119380000Y-54610000D03*
X119380000Y-57150000D03*
X119380000Y-59690000D03*
D16*
X86630000Y-53428400D03*
X88630000Y-53428400D03*
X88630000Y-51428400D03*
X86630000Y-51428400D03*
X88630000Y-49428400D03*
D18*
X86630000Y-49428400D03*
D17*
X114300000Y-62230000D03*
X116840000Y-62230000D03*
X119380000Y-62230000D03*
X121920000Y-62230000D03*
X111760000Y-62230000D03*
X109220000Y-62230000D03*
X106680000Y-62230000D03*
X124460000Y-62230000D03*
X127000000Y-62230000D03*
X129540000Y-62230000D03*
X132080000Y-62230000D03*
X132080000Y-46990000D03*
X129540000Y-46990000D03*
X127000000Y-46990000D03*
X124460000Y-46990000D03*
X121920000Y-46990000D03*
X119380000Y-46990000D03*
X116840000Y-46990000D03*
X114300000Y-46990000D03*
X111760000Y-46990000D03*
X109220000Y-46990000D03*
X104140000Y-62230000D03*
X101600000Y-62230000D03*
X99060000Y-62230000D03*
X96520000Y-62230000D03*
X93980000Y-62230000D03*
X91440000Y-62230000D03*
X88900000Y-62230000D03*
X86360000Y-62230000D03*
X83820000Y-62230000D03*
X81280000Y-62230000D03*
X78740000Y-62230000D03*
X76200000Y-62230000D03*
D19*
X73660000Y-62230000D03*
D17*
X106680000Y-46990000D03*
X104140000Y-46990000D03*
X101600000Y-46990000D03*
X99060000Y-46990000D03*
X96520000Y-46990000D03*
X93980000Y-46990000D03*
X91440000Y-46990000D03*
X88900000Y-46990000D03*
X86360000Y-46990000D03*
X83820000Y-46990000D03*
X81280000Y-46990000D03*
X78740000Y-46990000D03*
X76200000Y-46990000D03*
X73660000Y-46990000D03*
D19*
X79959200Y-59179200D03*
D17*
X82499200Y-59179200D03*
X85039200Y-59179200D03*
X87579200Y-59179200D03*
X90119200Y-59179200D03*
X76200000Y-49530000D03*
%TD*%
D20*
%TO.C,J4*%
X77940010Y-40894998D03*
X77940010Y-25145002D03*
D21*
X74890010Y-38735000D03*
X74890010Y-27305000D03*
D22*
X71530010Y-39345000D03*
X69830010Y-36805000D03*
X71530010Y-29235000D03*
X69810010Y-26695000D03*
D23*
X81260010Y-36195000D03*
X81260010Y-33655000D03*
X81260010Y-31115000D03*
X81260010Y-28575000D03*
X83800010Y-37465000D03*
X83800010Y-34925000D03*
X83800010Y-32385000D03*
X83800010Y-29845000D03*
%TD*%
D24*
%TO.C,C1*%
X74202000Y-43434000D03*
X72102000Y-43434000D03*
%TD*%
D14*
%TO.C,J3*%
X139700000Y-36068000D03*
X139700000Y-38608000D03*
X137160000Y-36068000D03*
X137160000Y-38608000D03*
X134620000Y-36068000D03*
X134620000Y-38608000D03*
X132080000Y-36068000D03*
D15*
X132080000Y-38608000D03*
%TD*%
D25*
%TO.C,H4*%
X157220419Y-81539581D03*
X154940000Y-80595000D03*
X152659581Y-81539581D03*
X151715000Y-83820000D03*
X152659581Y-86100419D03*
X154940000Y-87045000D03*
X157220419Y-86100419D03*
X158165000Y-83820000D03*
D26*
X154940000Y-83820000D03*
%TD*%
D25*
%TO.C,H3*%
X157220419Y-15499581D03*
X154940000Y-14555000D03*
X152659581Y-15499581D03*
X151715000Y-17780000D03*
X152659581Y-20060419D03*
X154940000Y-21005000D03*
X157220419Y-20060419D03*
X158165000Y-17780000D03*
D26*
X154940000Y-17780000D03*
%TD*%
D25*
%TO.C,H2*%
X70860419Y-81539581D03*
X68580000Y-80595000D03*
X66299581Y-81539581D03*
X65355000Y-83820000D03*
X66299581Y-86100419D03*
X68580000Y-87045000D03*
X70860419Y-86100419D03*
X71805000Y-83820000D03*
D26*
X68580000Y-83820000D03*
%TD*%
D25*
%TO.C,H1*%
X70860419Y-15499581D03*
X68580000Y-14555000D03*
X66299581Y-15499581D03*
X65355000Y-17780000D03*
X66299581Y-20060419D03*
X68580000Y-21005000D03*
X70860419Y-20060419D03*
X71805000Y-17780000D03*
D26*
X68580000Y-17780000D03*
%TD*%
%TO.C,U31*%
G36*
G01*
X112361000Y-35133000D02*
X112361000Y-34933000D01*
G75*
G02*
X112461000Y-34833000I100000J0D01*
G01*
X113736000Y-34833000D01*
G75*
G02*
X113836000Y-34933000I0J-100000D01*
G01*
X113836000Y-35133000D01*
G75*
G02*
X113736000Y-35233000I-100000J0D01*
G01*
X112461000Y-35233000D01*
G75*
G02*
X112361000Y-35133000I0J100000D01*
G01*
G37*
G36*
G01*
X112361000Y-35783000D02*
X112361000Y-35583000D01*
G75*
G02*
X112461000Y-35483000I100000J0D01*
G01*
X113736000Y-35483000D01*
G75*
G02*
X113836000Y-35583000I0J-100000D01*
G01*
X113836000Y-35783000D01*
G75*
G02*
X113736000Y-35883000I-100000J0D01*
G01*
X112461000Y-35883000D01*
G75*
G02*
X112361000Y-35783000I0J100000D01*
G01*
G37*
G36*
G01*
X112361000Y-36433000D02*
X112361000Y-36233000D01*
G75*
G02*
X112461000Y-36133000I100000J0D01*
G01*
X113736000Y-36133000D01*
G75*
G02*
X113836000Y-36233000I0J-100000D01*
G01*
X113836000Y-36433000D01*
G75*
G02*
X113736000Y-36533000I-100000J0D01*
G01*
X112461000Y-36533000D01*
G75*
G02*
X112361000Y-36433000I0J100000D01*
G01*
G37*
G36*
G01*
X112361000Y-37083000D02*
X112361000Y-36883000D01*
G75*
G02*
X112461000Y-36783000I100000J0D01*
G01*
X113736000Y-36783000D01*
G75*
G02*
X113836000Y-36883000I0J-100000D01*
G01*
X113836000Y-37083000D01*
G75*
G02*
X113736000Y-37183000I-100000J0D01*
G01*
X112461000Y-37183000D01*
G75*
G02*
X112361000Y-37083000I0J100000D01*
G01*
G37*
G36*
G01*
X112361000Y-37733000D02*
X112361000Y-37533000D01*
G75*
G02*
X112461000Y-37433000I100000J0D01*
G01*
X113736000Y-37433000D01*
G75*
G02*
X113836000Y-37533000I0J-100000D01*
G01*
X113836000Y-37733000D01*
G75*
G02*
X113736000Y-37833000I-100000J0D01*
G01*
X112461000Y-37833000D01*
G75*
G02*
X112361000Y-37733000I0J100000D01*
G01*
G37*
G36*
G01*
X112361000Y-38383000D02*
X112361000Y-38183000D01*
G75*
G02*
X112461000Y-38083000I100000J0D01*
G01*
X113736000Y-38083000D01*
G75*
G02*
X113836000Y-38183000I0J-100000D01*
G01*
X113836000Y-38383000D01*
G75*
G02*
X113736000Y-38483000I-100000J0D01*
G01*
X112461000Y-38483000D01*
G75*
G02*
X112361000Y-38383000I0J100000D01*
G01*
G37*
G36*
G01*
X112361000Y-39033000D02*
X112361000Y-38833000D01*
G75*
G02*
X112461000Y-38733000I100000J0D01*
G01*
X113736000Y-38733000D01*
G75*
G02*
X113836000Y-38833000I0J-100000D01*
G01*
X113836000Y-39033000D01*
G75*
G02*
X113736000Y-39133000I-100000J0D01*
G01*
X112461000Y-39133000D01*
G75*
G02*
X112361000Y-39033000I0J100000D01*
G01*
G37*
G36*
G01*
X112361000Y-39683000D02*
X112361000Y-39483000D01*
G75*
G02*
X112461000Y-39383000I100000J0D01*
G01*
X113736000Y-39383000D01*
G75*
G02*
X113836000Y-39483000I0J-100000D01*
G01*
X113836000Y-39683000D01*
G75*
G02*
X113736000Y-39783000I-100000J0D01*
G01*
X112461000Y-39783000D01*
G75*
G02*
X112361000Y-39683000I0J100000D01*
G01*
G37*
G36*
G01*
X112361000Y-40333000D02*
X112361000Y-40133000D01*
G75*
G02*
X112461000Y-40033000I100000J0D01*
G01*
X113736000Y-40033000D01*
G75*
G02*
X113836000Y-40133000I0J-100000D01*
G01*
X113836000Y-40333000D01*
G75*
G02*
X113736000Y-40433000I-100000J0D01*
G01*
X112461000Y-40433000D01*
G75*
G02*
X112361000Y-40333000I0J100000D01*
G01*
G37*
G36*
G01*
X112361000Y-40983000D02*
X112361000Y-40783000D01*
G75*
G02*
X112461000Y-40683000I100000J0D01*
G01*
X113736000Y-40683000D01*
G75*
G02*
X113836000Y-40783000I0J-100000D01*
G01*
X113836000Y-40983000D01*
G75*
G02*
X113736000Y-41083000I-100000J0D01*
G01*
X112461000Y-41083000D01*
G75*
G02*
X112361000Y-40983000I0J100000D01*
G01*
G37*
G36*
G01*
X112361000Y-41633000D02*
X112361000Y-41433000D01*
G75*
G02*
X112461000Y-41333000I100000J0D01*
G01*
X113736000Y-41333000D01*
G75*
G02*
X113836000Y-41433000I0J-100000D01*
G01*
X113836000Y-41633000D01*
G75*
G02*
X113736000Y-41733000I-100000J0D01*
G01*
X112461000Y-41733000D01*
G75*
G02*
X112361000Y-41633000I0J100000D01*
G01*
G37*
G36*
G01*
X112361000Y-42283000D02*
X112361000Y-42083000D01*
G75*
G02*
X112461000Y-41983000I100000J0D01*
G01*
X113736000Y-41983000D01*
G75*
G02*
X113836000Y-42083000I0J-100000D01*
G01*
X113836000Y-42283000D01*
G75*
G02*
X113736000Y-42383000I-100000J0D01*
G01*
X112461000Y-42383000D01*
G75*
G02*
X112361000Y-42283000I0J100000D01*
G01*
G37*
G36*
G01*
X106636000Y-42283000D02*
X106636000Y-42083000D01*
G75*
G02*
X106736000Y-41983000I100000J0D01*
G01*
X108011000Y-41983000D01*
G75*
G02*
X108111000Y-42083000I0J-100000D01*
G01*
X108111000Y-42283000D01*
G75*
G02*
X108011000Y-42383000I-100000J0D01*
G01*
X106736000Y-42383000D01*
G75*
G02*
X106636000Y-42283000I0J100000D01*
G01*
G37*
G36*
G01*
X106636000Y-41633000D02*
X106636000Y-41433000D01*
G75*
G02*
X106736000Y-41333000I100000J0D01*
G01*
X108011000Y-41333000D01*
G75*
G02*
X108111000Y-41433000I0J-100000D01*
G01*
X108111000Y-41633000D01*
G75*
G02*
X108011000Y-41733000I-100000J0D01*
G01*
X106736000Y-41733000D01*
G75*
G02*
X106636000Y-41633000I0J100000D01*
G01*
G37*
G36*
G01*
X106636000Y-40983000D02*
X106636000Y-40783000D01*
G75*
G02*
X106736000Y-40683000I100000J0D01*
G01*
X108011000Y-40683000D01*
G75*
G02*
X108111000Y-40783000I0J-100000D01*
G01*
X108111000Y-40983000D01*
G75*
G02*
X108011000Y-41083000I-100000J0D01*
G01*
X106736000Y-41083000D01*
G75*
G02*
X106636000Y-40983000I0J100000D01*
G01*
G37*
G36*
G01*
X106636000Y-40333000D02*
X106636000Y-40133000D01*
G75*
G02*
X106736000Y-40033000I100000J0D01*
G01*
X108011000Y-40033000D01*
G75*
G02*
X108111000Y-40133000I0J-100000D01*
G01*
X108111000Y-40333000D01*
G75*
G02*
X108011000Y-40433000I-100000J0D01*
G01*
X106736000Y-40433000D01*
G75*
G02*
X106636000Y-40333000I0J100000D01*
G01*
G37*
G36*
G01*
X106636000Y-39683000D02*
X106636000Y-39483000D01*
G75*
G02*
X106736000Y-39383000I100000J0D01*
G01*
X108011000Y-39383000D01*
G75*
G02*
X108111000Y-39483000I0J-100000D01*
G01*
X108111000Y-39683000D01*
G75*
G02*
X108011000Y-39783000I-100000J0D01*
G01*
X106736000Y-39783000D01*
G75*
G02*
X106636000Y-39683000I0J100000D01*
G01*
G37*
G36*
G01*
X106636000Y-39033000D02*
X106636000Y-38833000D01*
G75*
G02*
X106736000Y-38733000I100000J0D01*
G01*
X108011000Y-38733000D01*
G75*
G02*
X108111000Y-38833000I0J-100000D01*
G01*
X108111000Y-39033000D01*
G75*
G02*
X108011000Y-39133000I-100000J0D01*
G01*
X106736000Y-39133000D01*
G75*
G02*
X106636000Y-39033000I0J100000D01*
G01*
G37*
G36*
G01*
X106636000Y-38383000D02*
X106636000Y-38183000D01*
G75*
G02*
X106736000Y-38083000I100000J0D01*
G01*
X108011000Y-38083000D01*
G75*
G02*
X108111000Y-38183000I0J-100000D01*
G01*
X108111000Y-38383000D01*
G75*
G02*
X108011000Y-38483000I-100000J0D01*
G01*
X106736000Y-38483000D01*
G75*
G02*
X106636000Y-38383000I0J100000D01*
G01*
G37*
G36*
G01*
X106636000Y-37733000D02*
X106636000Y-37533000D01*
G75*
G02*
X106736000Y-37433000I100000J0D01*
G01*
X108011000Y-37433000D01*
G75*
G02*
X108111000Y-37533000I0J-100000D01*
G01*
X108111000Y-37733000D01*
G75*
G02*
X108011000Y-37833000I-100000J0D01*
G01*
X106736000Y-37833000D01*
G75*
G02*
X106636000Y-37733000I0J100000D01*
G01*
G37*
G36*
G01*
X106636000Y-37083000D02*
X106636000Y-36883000D01*
G75*
G02*
X106736000Y-36783000I100000J0D01*
G01*
X108011000Y-36783000D01*
G75*
G02*
X108111000Y-36883000I0J-100000D01*
G01*
X108111000Y-37083000D01*
G75*
G02*
X108011000Y-37183000I-100000J0D01*
G01*
X106736000Y-37183000D01*
G75*
G02*
X106636000Y-37083000I0J100000D01*
G01*
G37*
G36*
G01*
X106636000Y-36433000D02*
X106636000Y-36233000D01*
G75*
G02*
X106736000Y-36133000I100000J0D01*
G01*
X108011000Y-36133000D01*
G75*
G02*
X108111000Y-36233000I0J-100000D01*
G01*
X108111000Y-36433000D01*
G75*
G02*
X108011000Y-36533000I-100000J0D01*
G01*
X106736000Y-36533000D01*
G75*
G02*
X106636000Y-36433000I0J100000D01*
G01*
G37*
G36*
G01*
X106636000Y-35783000D02*
X106636000Y-35583000D01*
G75*
G02*
X106736000Y-35483000I100000J0D01*
G01*
X108011000Y-35483000D01*
G75*
G02*
X108111000Y-35583000I0J-100000D01*
G01*
X108111000Y-35783000D01*
G75*
G02*
X108011000Y-35883000I-100000J0D01*
G01*
X106736000Y-35883000D01*
G75*
G02*
X106636000Y-35783000I0J100000D01*
G01*
G37*
G36*
G01*
X106636000Y-35133000D02*
X106636000Y-34933000D01*
G75*
G02*
X106736000Y-34833000I100000J0D01*
G01*
X108011000Y-34833000D01*
G75*
G02*
X108111000Y-34933000I0J-100000D01*
G01*
X108111000Y-35133000D01*
G75*
G02*
X108011000Y-35233000I-100000J0D01*
G01*
X106736000Y-35233000D01*
G75*
G02*
X106636000Y-35133000I0J100000D01*
G01*
G37*
%TD*%
D10*
%TO.C,RN33*%
X119772000Y-42348000D03*
D11*
X119772000Y-41548000D03*
D10*
X119772000Y-39948000D03*
D11*
X119772000Y-40748000D03*
D10*
X117972000Y-42348000D03*
D11*
X117972000Y-40748000D03*
X117972000Y-41548000D03*
D10*
X117972000Y-39948000D03*
%TD*%
%TO.C,RN32*%
X101208000Y-39764000D03*
D11*
X101208000Y-40564000D03*
D10*
X101208000Y-42164000D03*
D11*
X101208000Y-41364000D03*
D10*
X103008000Y-39764000D03*
D11*
X103008000Y-41364000D03*
X103008000Y-40564000D03*
D10*
X103008000Y-42164000D03*
%TD*%
%TO.C,RN31*%
X101208000Y-35884000D03*
D11*
X101208000Y-36684000D03*
D10*
X101208000Y-38284000D03*
D11*
X101208000Y-37484000D03*
D10*
X103008000Y-35884000D03*
D11*
X103008000Y-37484000D03*
X103008000Y-36684000D03*
D10*
X103008000Y-38284000D03*
%TD*%
%TO.C,R51*%
G36*
G01*
X101009000Y-65553000D02*
X101009000Y-65003000D01*
G75*
G02*
X101209000Y-64803000I200000J0D01*
G01*
X101609000Y-64803000D01*
G75*
G02*
X101809000Y-65003000I0J-200000D01*
G01*
X101809000Y-65553000D01*
G75*
G02*
X101609000Y-65753000I-200000J0D01*
G01*
X101209000Y-65753000D01*
G75*
G02*
X101009000Y-65553000I0J200000D01*
G01*
G37*
G36*
G01*
X99359000Y-65553000D02*
X99359000Y-65003000D01*
G75*
G02*
X99559000Y-64803000I200000J0D01*
G01*
X99959000Y-64803000D01*
G75*
G02*
X100159000Y-65003000I0J-200000D01*
G01*
X100159000Y-65553000D01*
G75*
G02*
X99959000Y-65753000I-200000J0D01*
G01*
X99559000Y-65753000D01*
G75*
G02*
X99359000Y-65553000I0J200000D01*
G01*
G37*
%TD*%
%TO.C,R31*%
G36*
G01*
X81555000Y-50375000D02*
X81005000Y-50375000D01*
G75*
G02*
X80805000Y-50175000I0J200000D01*
G01*
X80805000Y-49775000D01*
G75*
G02*
X81005000Y-49575000I200000J0D01*
G01*
X81555000Y-49575000D01*
G75*
G02*
X81755000Y-49775000I0J-200000D01*
G01*
X81755000Y-50175000D01*
G75*
G02*
X81555000Y-50375000I-200000J0D01*
G01*
G37*
G36*
G01*
X81555000Y-52025000D02*
X81005000Y-52025000D01*
G75*
G02*
X80805000Y-51825000I0J200000D01*
G01*
X80805000Y-51425000D01*
G75*
G02*
X81005000Y-51225000I200000J0D01*
G01*
X81555000Y-51225000D01*
G75*
G02*
X81755000Y-51425000I0J-200000D01*
G01*
X81755000Y-51825000D01*
G75*
G02*
X81555000Y-52025000I-200000J0D01*
G01*
G37*
%TD*%
%TO.C,R30*%
G36*
G01*
X79015000Y-50375000D02*
X78465000Y-50375000D01*
G75*
G02*
X78265000Y-50175000I0J200000D01*
G01*
X78265000Y-49775000D01*
G75*
G02*
X78465000Y-49575000I200000J0D01*
G01*
X79015000Y-49575000D01*
G75*
G02*
X79215000Y-49775000I0J-200000D01*
G01*
X79215000Y-50175000D01*
G75*
G02*
X79015000Y-50375000I-200000J0D01*
G01*
G37*
G36*
G01*
X79015000Y-52025000D02*
X78465000Y-52025000D01*
G75*
G02*
X78265000Y-51825000I0J200000D01*
G01*
X78265000Y-51425000D01*
G75*
G02*
X78465000Y-51225000I200000J0D01*
G01*
X79015000Y-51225000D01*
G75*
G02*
X79215000Y-51425000I0J-200000D01*
G01*
X79215000Y-51825000D01*
G75*
G02*
X79015000Y-52025000I-200000J0D01*
G01*
G37*
%TD*%
%TO.C,R16*%
G36*
G01*
X136672000Y-68813000D02*
X136672000Y-69363000D01*
G75*
G02*
X136472000Y-69563000I-200000J0D01*
G01*
X136072000Y-69563000D01*
G75*
G02*
X135872000Y-69363000I0J200000D01*
G01*
X135872000Y-68813000D01*
G75*
G02*
X136072000Y-68613000I200000J0D01*
G01*
X136472000Y-68613000D01*
G75*
G02*
X136672000Y-68813000I0J-200000D01*
G01*
G37*
G36*
G01*
X138322000Y-68813000D02*
X138322000Y-69363000D01*
G75*
G02*
X138122000Y-69563000I-200000J0D01*
G01*
X137722000Y-69563000D01*
G75*
G02*
X137522000Y-69363000I0J200000D01*
G01*
X137522000Y-68813000D01*
G75*
G02*
X137722000Y-68613000I200000J0D01*
G01*
X138122000Y-68613000D01*
G75*
G02*
X138322000Y-68813000I0J-200000D01*
G01*
G37*
%TD*%
%TO.C,R15*%
G36*
G01*
X137522000Y-67839000D02*
X137522000Y-67289000D01*
G75*
G02*
X137722000Y-67089000I200000J0D01*
G01*
X138122000Y-67089000D01*
G75*
G02*
X138322000Y-67289000I0J-200000D01*
G01*
X138322000Y-67839000D01*
G75*
G02*
X138122000Y-68039000I-200000J0D01*
G01*
X137722000Y-68039000D01*
G75*
G02*
X137522000Y-67839000I0J200000D01*
G01*
G37*
G36*
G01*
X135872000Y-67839000D02*
X135872000Y-67289000D01*
G75*
G02*
X136072000Y-67089000I200000J0D01*
G01*
X136472000Y-67089000D01*
G75*
G02*
X136672000Y-67289000I0J-200000D01*
G01*
X136672000Y-67839000D01*
G75*
G02*
X136472000Y-68039000I-200000J0D01*
G01*
X136072000Y-68039000D01*
G75*
G02*
X135872000Y-67839000I0J200000D01*
G01*
G37*
%TD*%
%TO.C,R14*%
G36*
G01*
X140799000Y-68813000D02*
X140799000Y-69363000D01*
G75*
G02*
X140599000Y-69563000I-200000J0D01*
G01*
X140199000Y-69563000D01*
G75*
G02*
X139999000Y-69363000I0J200000D01*
G01*
X139999000Y-68813000D01*
G75*
G02*
X140199000Y-68613000I200000J0D01*
G01*
X140599000Y-68613000D01*
G75*
G02*
X140799000Y-68813000I0J-200000D01*
G01*
G37*
G36*
G01*
X142449000Y-68813000D02*
X142449000Y-69363000D01*
G75*
G02*
X142249000Y-69563000I-200000J0D01*
G01*
X141849000Y-69563000D01*
G75*
G02*
X141649000Y-69363000I0J200000D01*
G01*
X141649000Y-68813000D01*
G75*
G02*
X141849000Y-68613000I200000J0D01*
G01*
X142249000Y-68613000D01*
G75*
G02*
X142449000Y-68813000I0J-200000D01*
G01*
G37*
%TD*%
%TO.C,R13*%
G36*
G01*
X141649000Y-67839000D02*
X141649000Y-67289000D01*
G75*
G02*
X141849000Y-67089000I200000J0D01*
G01*
X142249000Y-67089000D01*
G75*
G02*
X142449000Y-67289000I0J-200000D01*
G01*
X142449000Y-67839000D01*
G75*
G02*
X142249000Y-68039000I-200000J0D01*
G01*
X141849000Y-68039000D01*
G75*
G02*
X141649000Y-67839000I0J200000D01*
G01*
G37*
G36*
G01*
X139999000Y-67839000D02*
X139999000Y-67289000D01*
G75*
G02*
X140199000Y-67089000I200000J0D01*
G01*
X140599000Y-67089000D01*
G75*
G02*
X140799000Y-67289000I0J-200000D01*
G01*
X140799000Y-67839000D01*
G75*
G02*
X140599000Y-68039000I-200000J0D01*
G01*
X140199000Y-68039000D01*
G75*
G02*
X139999000Y-67839000I0J200000D01*
G01*
G37*
%TD*%
%TO.C,R12*%
G36*
G01*
X136735000Y-61193000D02*
X136735000Y-61743000D01*
G75*
G02*
X136535000Y-61943000I-200000J0D01*
G01*
X136135000Y-61943000D01*
G75*
G02*
X135935000Y-61743000I0J200000D01*
G01*
X135935000Y-61193000D01*
G75*
G02*
X136135000Y-60993000I200000J0D01*
G01*
X136535000Y-60993000D01*
G75*
G02*
X136735000Y-61193000I0J-200000D01*
G01*
G37*
G36*
G01*
X138385000Y-61193000D02*
X138385000Y-61743000D01*
G75*
G02*
X138185000Y-61943000I-200000J0D01*
G01*
X137785000Y-61943000D01*
G75*
G02*
X137585000Y-61743000I0J200000D01*
G01*
X137585000Y-61193000D01*
G75*
G02*
X137785000Y-60993000I200000J0D01*
G01*
X138185000Y-60993000D01*
G75*
G02*
X138385000Y-61193000I0J-200000D01*
G01*
G37*
%TD*%
%TO.C,R11*%
G36*
G01*
X137585000Y-60219000D02*
X137585000Y-59669000D01*
G75*
G02*
X137785000Y-59469000I200000J0D01*
G01*
X138185000Y-59469000D01*
G75*
G02*
X138385000Y-59669000I0J-200000D01*
G01*
X138385000Y-60219000D01*
G75*
G02*
X138185000Y-60419000I-200000J0D01*
G01*
X137785000Y-60419000D01*
G75*
G02*
X137585000Y-60219000I0J200000D01*
G01*
G37*
G36*
G01*
X135935000Y-60219000D02*
X135935000Y-59669000D01*
G75*
G02*
X136135000Y-59469000I200000J0D01*
G01*
X136535000Y-59469000D01*
G75*
G02*
X136735000Y-59669000I0J-200000D01*
G01*
X136735000Y-60219000D01*
G75*
G02*
X136535000Y-60419000I-200000J0D01*
G01*
X136135000Y-60419000D01*
G75*
G02*
X135935000Y-60219000I0J200000D01*
G01*
G37*
%TD*%
%TO.C,R10*%
G36*
G01*
X140736000Y-61193000D02*
X140736000Y-61743000D01*
G75*
G02*
X140536000Y-61943000I-200000J0D01*
G01*
X140136000Y-61943000D01*
G75*
G02*
X139936000Y-61743000I0J200000D01*
G01*
X139936000Y-61193000D01*
G75*
G02*
X140136000Y-60993000I200000J0D01*
G01*
X140536000Y-60993000D01*
G75*
G02*
X140736000Y-61193000I0J-200000D01*
G01*
G37*
G36*
G01*
X142386000Y-61193000D02*
X142386000Y-61743000D01*
G75*
G02*
X142186000Y-61943000I-200000J0D01*
G01*
X141786000Y-61943000D01*
G75*
G02*
X141586000Y-61743000I0J200000D01*
G01*
X141586000Y-61193000D01*
G75*
G02*
X141786000Y-60993000I200000J0D01*
G01*
X142186000Y-60993000D01*
G75*
G02*
X142386000Y-61193000I0J-200000D01*
G01*
G37*
%TD*%
%TO.C,R9*%
G36*
G01*
X141586000Y-60219000D02*
X141586000Y-59669000D01*
G75*
G02*
X141786000Y-59469000I200000J0D01*
G01*
X142186000Y-59469000D01*
G75*
G02*
X142386000Y-59669000I0J-200000D01*
G01*
X142386000Y-60219000D01*
G75*
G02*
X142186000Y-60419000I-200000J0D01*
G01*
X141786000Y-60419000D01*
G75*
G02*
X141586000Y-60219000I0J200000D01*
G01*
G37*
G36*
G01*
X139936000Y-60219000D02*
X139936000Y-59669000D01*
G75*
G02*
X140136000Y-59469000I200000J0D01*
G01*
X140536000Y-59469000D01*
G75*
G02*
X140736000Y-59669000I0J-200000D01*
G01*
X140736000Y-60219000D01*
G75*
G02*
X140536000Y-60419000I-200000J0D01*
G01*
X140136000Y-60419000D01*
G75*
G02*
X139936000Y-60219000I0J200000D01*
G01*
G37*
%TD*%
%TO.C,R8*%
G36*
G01*
X136735000Y-53573000D02*
X136735000Y-54123000D01*
G75*
G02*
X136535000Y-54323000I-200000J0D01*
G01*
X136135000Y-54323000D01*
G75*
G02*
X135935000Y-54123000I0J200000D01*
G01*
X135935000Y-53573000D01*
G75*
G02*
X136135000Y-53373000I200000J0D01*
G01*
X136535000Y-53373000D01*
G75*
G02*
X136735000Y-53573000I0J-200000D01*
G01*
G37*
G36*
G01*
X138385000Y-53573000D02*
X138385000Y-54123000D01*
G75*
G02*
X138185000Y-54323000I-200000J0D01*
G01*
X137785000Y-54323000D01*
G75*
G02*
X137585000Y-54123000I0J200000D01*
G01*
X137585000Y-53573000D01*
G75*
G02*
X137785000Y-53373000I200000J0D01*
G01*
X138185000Y-53373000D01*
G75*
G02*
X138385000Y-53573000I0J-200000D01*
G01*
G37*
%TD*%
%TO.C,R7*%
G36*
G01*
X137585000Y-52599000D02*
X137585000Y-52049000D01*
G75*
G02*
X137785000Y-51849000I200000J0D01*
G01*
X138185000Y-51849000D01*
G75*
G02*
X138385000Y-52049000I0J-200000D01*
G01*
X138385000Y-52599000D01*
G75*
G02*
X138185000Y-52799000I-200000J0D01*
G01*
X137785000Y-52799000D01*
G75*
G02*
X137585000Y-52599000I0J200000D01*
G01*
G37*
G36*
G01*
X135935000Y-52599000D02*
X135935000Y-52049000D01*
G75*
G02*
X136135000Y-51849000I200000J0D01*
G01*
X136535000Y-51849000D01*
G75*
G02*
X136735000Y-52049000I0J-200000D01*
G01*
X136735000Y-52599000D01*
G75*
G02*
X136535000Y-52799000I-200000J0D01*
G01*
X136135000Y-52799000D01*
G75*
G02*
X135935000Y-52599000I0J200000D01*
G01*
G37*
%TD*%
%TO.C,R6*%
G36*
G01*
X140799000Y-53573000D02*
X140799000Y-54123000D01*
G75*
G02*
X140599000Y-54323000I-200000J0D01*
G01*
X140199000Y-54323000D01*
G75*
G02*
X139999000Y-54123000I0J200000D01*
G01*
X139999000Y-53573000D01*
G75*
G02*
X140199000Y-53373000I200000J0D01*
G01*
X140599000Y-53373000D01*
G75*
G02*
X140799000Y-53573000I0J-200000D01*
G01*
G37*
G36*
G01*
X142449000Y-53573000D02*
X142449000Y-54123000D01*
G75*
G02*
X142249000Y-54323000I-200000J0D01*
G01*
X141849000Y-54323000D01*
G75*
G02*
X141649000Y-54123000I0J200000D01*
G01*
X141649000Y-53573000D01*
G75*
G02*
X141849000Y-53373000I200000J0D01*
G01*
X142249000Y-53373000D01*
G75*
G02*
X142449000Y-53573000I0J-200000D01*
G01*
G37*
%TD*%
%TO.C,R5*%
G36*
G01*
X141649000Y-52599000D02*
X141649000Y-52049000D01*
G75*
G02*
X141849000Y-51849000I200000J0D01*
G01*
X142249000Y-51849000D01*
G75*
G02*
X142449000Y-52049000I0J-200000D01*
G01*
X142449000Y-52599000D01*
G75*
G02*
X142249000Y-52799000I-200000J0D01*
G01*
X141849000Y-52799000D01*
G75*
G02*
X141649000Y-52599000I0J200000D01*
G01*
G37*
G36*
G01*
X139999000Y-52599000D02*
X139999000Y-52049000D01*
G75*
G02*
X140199000Y-51849000I200000J0D01*
G01*
X140599000Y-51849000D01*
G75*
G02*
X140799000Y-52049000I0J-200000D01*
G01*
X140799000Y-52599000D01*
G75*
G02*
X140599000Y-52799000I-200000J0D01*
G01*
X140199000Y-52799000D01*
G75*
G02*
X139999000Y-52599000I0J200000D01*
G01*
G37*
%TD*%
%TO.C,R4*%
G36*
G01*
X136735000Y-45953000D02*
X136735000Y-46503000D01*
G75*
G02*
X136535000Y-46703000I-200000J0D01*
G01*
X136135000Y-46703000D01*
G75*
G02*
X135935000Y-46503000I0J200000D01*
G01*
X135935000Y-45953000D01*
G75*
G02*
X136135000Y-45753000I200000J0D01*
G01*
X136535000Y-45753000D01*
G75*
G02*
X136735000Y-45953000I0J-200000D01*
G01*
G37*
G36*
G01*
X138385000Y-45953000D02*
X138385000Y-46503000D01*
G75*
G02*
X138185000Y-46703000I-200000J0D01*
G01*
X137785000Y-46703000D01*
G75*
G02*
X137585000Y-46503000I0J200000D01*
G01*
X137585000Y-45953000D01*
G75*
G02*
X137785000Y-45753000I200000J0D01*
G01*
X138185000Y-45753000D01*
G75*
G02*
X138385000Y-45953000I0J-200000D01*
G01*
G37*
%TD*%
%TO.C,R3*%
G36*
G01*
X137585000Y-44979000D02*
X137585000Y-44429000D01*
G75*
G02*
X137785000Y-44229000I200000J0D01*
G01*
X138185000Y-44229000D01*
G75*
G02*
X138385000Y-44429000I0J-200000D01*
G01*
X138385000Y-44979000D01*
G75*
G02*
X138185000Y-45179000I-200000J0D01*
G01*
X137785000Y-45179000D01*
G75*
G02*
X137585000Y-44979000I0J200000D01*
G01*
G37*
G36*
G01*
X135935000Y-44979000D02*
X135935000Y-44429000D01*
G75*
G02*
X136135000Y-44229000I200000J0D01*
G01*
X136535000Y-44229000D01*
G75*
G02*
X136735000Y-44429000I0J-200000D01*
G01*
X136735000Y-44979000D01*
G75*
G02*
X136535000Y-45179000I-200000J0D01*
G01*
X136135000Y-45179000D01*
G75*
G02*
X135935000Y-44979000I0J200000D01*
G01*
G37*
%TD*%
%TO.C,R2*%
G36*
G01*
X140799000Y-45953000D02*
X140799000Y-46503000D01*
G75*
G02*
X140599000Y-46703000I-200000J0D01*
G01*
X140199000Y-46703000D01*
G75*
G02*
X139999000Y-46503000I0J200000D01*
G01*
X139999000Y-45953000D01*
G75*
G02*
X140199000Y-45753000I200000J0D01*
G01*
X140599000Y-45753000D01*
G75*
G02*
X140799000Y-45953000I0J-200000D01*
G01*
G37*
G36*
G01*
X142449000Y-45953000D02*
X142449000Y-46503000D01*
G75*
G02*
X142249000Y-46703000I-200000J0D01*
G01*
X141849000Y-46703000D01*
G75*
G02*
X141649000Y-46503000I0J200000D01*
G01*
X141649000Y-45953000D01*
G75*
G02*
X141849000Y-45753000I200000J0D01*
G01*
X142249000Y-45753000D01*
G75*
G02*
X142449000Y-45953000I0J-200000D01*
G01*
G37*
%TD*%
%TO.C,R1*%
G36*
G01*
X141649000Y-44979000D02*
X141649000Y-44429000D01*
G75*
G02*
X141849000Y-44229000I200000J0D01*
G01*
X142249000Y-44229000D01*
G75*
G02*
X142449000Y-44429000I0J-200000D01*
G01*
X142449000Y-44979000D01*
G75*
G02*
X142249000Y-45179000I-200000J0D01*
G01*
X141849000Y-45179000D01*
G75*
G02*
X141649000Y-44979000I0J200000D01*
G01*
G37*
G36*
G01*
X139999000Y-44979000D02*
X139999000Y-44429000D01*
G75*
G02*
X140199000Y-44229000I200000J0D01*
G01*
X140599000Y-44229000D01*
G75*
G02*
X140799000Y-44429000I0J-200000D01*
G01*
X140799000Y-44979000D01*
G75*
G02*
X140599000Y-45179000I-200000J0D01*
G01*
X140199000Y-45179000D01*
G75*
G02*
X139999000Y-44979000I0J200000D01*
G01*
G37*
%TD*%
D27*
%TO.C,Q47*%
X109220000Y-77216000D03*
X107220000Y-78166000D03*
X107220000Y-76266000D03*
%TD*%
%TO.C,Q46*%
X105140000Y-77216000D03*
X103140000Y-78166000D03*
X103140000Y-76266000D03*
%TD*%
%TO.C,Q45*%
X101092000Y-77216000D03*
X99092000Y-78166000D03*
X99092000Y-76266000D03*
%TD*%
%TO.C,Q44*%
X97028000Y-77216000D03*
X95028000Y-78166000D03*
X95028000Y-76266000D03*
%TD*%
%TO.C,Q43*%
X92964000Y-77216000D03*
X90964000Y-78166000D03*
X90964000Y-76266000D03*
%TD*%
%TO.C,Q42*%
X88884000Y-77216000D03*
X86884000Y-78166000D03*
X86884000Y-76266000D03*
%TD*%
%TO.C,Q41*%
X84328000Y-77216000D03*
X82328000Y-78166000D03*
X82328000Y-76266000D03*
%TD*%
%TO.C,Q40*%
X79740000Y-77216000D03*
X77740000Y-78166000D03*
X77740000Y-76266000D03*
%TD*%
D28*
%TO.C,Q28*%
X137160000Y-73136000D03*
X136210000Y-71136000D03*
X138110000Y-71136000D03*
%TD*%
%TO.C,Q27*%
X141224000Y-73136000D03*
X140274000Y-71136000D03*
X142174000Y-71136000D03*
%TD*%
%TO.C,Q26*%
X137160000Y-65500000D03*
X136210000Y-63500000D03*
X138110000Y-63500000D03*
%TD*%
%TO.C,Q25*%
X141224000Y-65516000D03*
X140274000Y-63516000D03*
X142174000Y-63516000D03*
%TD*%
%TO.C,Q24*%
X137226000Y-57880000D03*
X136276000Y-55880000D03*
X138176000Y-55880000D03*
%TD*%
%TO.C,Q23*%
X141224000Y-57896000D03*
X140274000Y-55896000D03*
X142174000Y-55896000D03*
%TD*%
%TO.C,Q22*%
X137160000Y-50276000D03*
X136210000Y-48276000D03*
X138110000Y-48276000D03*
%TD*%
%TO.C,Q21*%
X141224000Y-50276000D03*
X140274000Y-48276000D03*
X142174000Y-48276000D03*
%TD*%
D14*
%TO.C,J53*%
X129032000Y-70104000D03*
X126492000Y-70104000D03*
X123952000Y-70104000D03*
D15*
X121412000Y-70104000D03*
%TD*%
D14*
%TO.C,J52*%
X129032000Y-72644000D03*
X126492000Y-72644000D03*
X123952000Y-72644000D03*
D15*
X121412000Y-72644000D03*
%TD*%
D14*
%TO.C,J51*%
X129032000Y-75438000D03*
X126492000Y-75438000D03*
X123952000Y-75438000D03*
D15*
X121412000Y-75438000D03*
%TD*%
D14*
%TO.C,J2*%
X97028000Y-37338000D03*
X97028000Y-39878000D03*
X94488000Y-37338000D03*
X94488000Y-39878000D03*
X91948000Y-37338000D03*
X91948000Y-39878000D03*
X89408000Y-37338000D03*
D15*
X89408000Y-39878000D03*
%TD*%
D29*
%TO.C,J1*%
X72056000Y-71628000D03*
D30*
X67056000Y-71628000D03*
%TD*%
%TO.C,C24*%
G36*
G01*
X140774000Y-74963000D02*
X140774000Y-75913000D01*
G75*
G02*
X140524000Y-76163000I-250000J0D01*
G01*
X140024000Y-76163000D01*
G75*
G02*
X139774000Y-75913000I0J250000D01*
G01*
X139774000Y-74963000D01*
G75*
G02*
X140024000Y-74713000I250000J0D01*
G01*
X140524000Y-74713000D01*
G75*
G02*
X140774000Y-74963000I0J-250000D01*
G01*
G37*
G36*
G01*
X142674000Y-74963000D02*
X142674000Y-75913000D01*
G75*
G02*
X142424000Y-76163000I-250000J0D01*
G01*
X141924000Y-76163000D01*
G75*
G02*
X141674000Y-75913000I0J250000D01*
G01*
X141674000Y-74963000D01*
G75*
G02*
X141924000Y-74713000I250000J0D01*
G01*
X142424000Y-74713000D01*
G75*
G02*
X142674000Y-74963000I0J-250000D01*
G01*
G37*
%TD*%
%TO.C,C23*%
G36*
G01*
X137610000Y-75913000D02*
X137610000Y-74963000D01*
G75*
G02*
X137860000Y-74713000I250000J0D01*
G01*
X138360000Y-74713000D01*
G75*
G02*
X138610000Y-74963000I0J-250000D01*
G01*
X138610000Y-75913000D01*
G75*
G02*
X138360000Y-76163000I-250000J0D01*
G01*
X137860000Y-76163000D01*
G75*
G02*
X137610000Y-75913000I0J250000D01*
G01*
G37*
G36*
G01*
X135710000Y-75913000D02*
X135710000Y-74963000D01*
G75*
G02*
X135960000Y-74713000I250000J0D01*
G01*
X136460000Y-74713000D01*
G75*
G02*
X136710000Y-74963000I0J-250000D01*
G01*
X136710000Y-75913000D01*
G75*
G02*
X136460000Y-76163000I-250000J0D01*
G01*
X135960000Y-76163000D01*
G75*
G02*
X135710000Y-75913000I0J250000D01*
G01*
G37*
%TD*%
%TO.C,C22*%
G36*
G01*
X140520000Y-41435000D02*
X140520000Y-42385000D01*
G75*
G02*
X140270000Y-42635000I-250000J0D01*
G01*
X139770000Y-42635000D01*
G75*
G02*
X139520000Y-42385000I0J250000D01*
G01*
X139520000Y-41435000D01*
G75*
G02*
X139770000Y-41185000I250000J0D01*
G01*
X140270000Y-41185000D01*
G75*
G02*
X140520000Y-41435000I0J-250000D01*
G01*
G37*
G36*
G01*
X142420000Y-41435000D02*
X142420000Y-42385000D01*
G75*
G02*
X142170000Y-42635000I-250000J0D01*
G01*
X141670000Y-42635000D01*
G75*
G02*
X141420000Y-42385000I0J250000D01*
G01*
X141420000Y-41435000D01*
G75*
G02*
X141670000Y-41185000I250000J0D01*
G01*
X142170000Y-41185000D01*
G75*
G02*
X142420000Y-41435000I0J-250000D01*
G01*
G37*
%TD*%
%TO.C,C21*%
G36*
G01*
X137610000Y-42131000D02*
X137610000Y-41181000D01*
G75*
G02*
X137860000Y-40931000I250000J0D01*
G01*
X138360000Y-40931000D01*
G75*
G02*
X138610000Y-41181000I0J-250000D01*
G01*
X138610000Y-42131000D01*
G75*
G02*
X138360000Y-42381000I-250000J0D01*
G01*
X137860000Y-42381000D01*
G75*
G02*
X137610000Y-42131000I0J250000D01*
G01*
G37*
G36*
G01*
X135710000Y-42131000D02*
X135710000Y-41181000D01*
G75*
G02*
X135960000Y-40931000I250000J0D01*
G01*
X136460000Y-40931000D01*
G75*
G02*
X136710000Y-41181000I0J-250000D01*
G01*
X136710000Y-42131000D01*
G75*
G02*
X136460000Y-42381000I-250000J0D01*
G01*
X135960000Y-42381000D01*
G75*
G02*
X135710000Y-42131000I0J250000D01*
G01*
G37*
%TD*%
M02*
