0
SECTION
2
HEADER
9
$INSUNITS
70
4
9
$ACADVER
1
AC1014
9
$HANDSEED
5
FFFF
0
ENDSEC
0
SECTION
2
TABLES
0
TABLE
2
VPORT
5
8
100
AcDbSymbolTable
0
ENDTAB
0
TABLE
2
LTYPE
5
5
100
AcDbSymbolTable
0
LTYPE
5
14
100
AcDbSymbolTableRecord
100
AcDbLinetypeTableRecord
2
BYBLOCK
70
0
0
LTYPE
5
15
100
AcDbSymbolTableRecord
100
AcDbLinetypeTableRecord
2
BYLAYER
70
0
0
ENDTAB
0
TABLE
2
LAYER
5
2
100
AcDbSymbolTable
70
2
0
LAYER
5
50
100
AcDbSymbolTableRecord
100
AcDbLayerTableRecord
2
0
70
0
6
CONTINUOUS
0
ENDTAB
0
TABLE
2
STYLE
5
3
100
AcDbSymbolTable
70
1
0
STYLE
5
11
100
AcDbSymbolTableRecord
100
AcDbTextStyleTableRecord
2
STANDARD
70
0
0
ENDTAB
0
TABLE
2
VIEW
5
6
100
AcDbSymbolTable
70
0
0
ENDTAB
0
TABLE
2
UCS
5
7
100
AcDbSymbolTable
70
0
0
ENDTAB
0
TABLE
2
APPID
5
9
100
AcDbSymbolTable
70
2
0
APPID
5
12
100
AcDbSymbolTableRecord
100
AcDbRegAppTableRecord
2
ACAD
70
0
0
ENDTAB
0
TABLE
2
DIMSTYLE
5
A
100
AcDbSymbolTable
70
1
0
ENDTAB
0
TABLE
2
BLOCK_RECORD
5
1
100
AcDbSymbolTable
70
1
0
BLOCK_RECORD
5
1F
100
AcDbSymbolTableRecord
100
AcDbBlockTableRecord
2
*MODEL_SPACE
0
BLOCK_RECORD
5
1B
100
AcDbSymbolTableRecord
100
AcDbBlockTableRecord
2
*PAPER_SPACE
0
ENDTAB
0
ENDSEC
0
SECTION
2
BLOCKS
0
BLOCK
5
20
100
AcDbEntity
100
AcDbBlockBegin
2
*MODEL_SPACE
0
ENDBLK
5
21
100
AcDbEntity
100
AcDbBlockEnd
0
BLOCK
5
1C
100
AcDbEntity
100
AcDbBlockBegin
2
*PAPER_SPACE
0
ENDBLK
5
1D
100
AcDbEntity
100
AcDbBlockEnd
0
ENDSEC
0
SECTION
2
ENTITIES
0
CIRCLE
5
100
100
AcDbEntity
8
0
100
AcDbCircle
10
0
20
0
30
0
40
228.59999999999999
210
0
220
0
230
1
0
LWPOLYLINE
5
101
100
AcDbEntity
8
0
100
AcDbPolyline
90
2
70
1
43
0.0
10
4.6643541692483172e-14
20
-228.59999999999999
10
-3.7342735793042299e-14
20
228.59999999999999
0
LWPOLYLINE
5
102
100
AcDbEntity
8
0
100
AcDbPolyline
90
4
70
1
43
0.0
10
-280.06500345125426
20
-201.80272732622501
10
-115.06500345125428
20
-201.80272732622501
10
-115.06500345125428
20
-139.80272732622501
10
-280.06500345125426
20
-139.80272732622501
0
LWPOLYLINE
5
103
100
AcDbEntity
8
0
100
AcDbPolyline
90
4
70
1
43
0.0
10
-203.599909049985
20
-100.15970703096492
10
-183.599909049985
20
-100.15970703096492
10
-183.599909049985
20
99.840292969035076
10
-203.599909049985
20
99.840292969035076
0
LINE
5
104
100
AcDbEntity
8
0
100
AcDbLine
10
-203.56404522088957
20
-65.828053674151022
30
0
11
-203.63577287908038
21
65.50863961222116
31
0
0
LINE
5
105
100
AcDbEntity
8
0
100
AcDbLine
10
-193.599909049985
20
-100.15970703096492
30
0
11
-193.599909049985
21
99.840292969035076
31
0
0
CIRCLE
5
106
100
AcDbEntity
8
0
100
AcDbCircle
10
-193.599909049985
20
-75.159707030964938
30
0
40
2.7499999999999822
210
0
220
0
230
1
0
LWPOLYLINE
5
107
100
AcDbEntity
8
0
100
AcDbPolyline
90
4
70
1
43
0.0
10
-183.599909049985
20
29.840292969035072
10
-18.599909049985015
20
29.840292969035072
10
-18.599909049985015
20
-30.159707030964931
10
-183.599909049985
20
-30.159707030964931
0
LWPOLYLINE
5
108
100
AcDbEntity
8
0
100
AcDbPolyline
90
4
70
1
43
0.0
10
-183.599909049985
20
-30.159707030964931
10
-138.099909049985
20
-30.159707030964931
10
-138.099909049985
20
29.999999999999982
10
-183.599909049985
20
29.999999999999982
0
LWPOLYLINE
5
109
100
AcDbEntity
8
0
100
AcDbPolyline
90
4
70
1
43
0.0
10
151.59999999999999
20
-157.5
10
-151.40000000000001
20
-157.5
10
-151.40000000000001
20
157.5
10
151.59999999999999
20
157.5
0
LWPOLYLINE
5
110
100
AcDbEntity
8
0
100
AcDbPolyline
90
4
70
1
43
0.0
10
-141.40000000000001
20
-147.5
10
-141.40000000000001
20
147.5
10
141.59999999999999
20
147.5
10
141.59999999999999
20
-147.5
0
LWPOLYLINE
5
111
100
AcDbEntity
8
0
100
AcDbPolyline
90
4
70
1
43
0.0
10
-131.40000000000001
20
137.5
10
131.59999999999999
20
137.5
10
131.59999999999999
20
-137.5
10
-131.40000000000001
20
-137.5
0
CIRCLE
5
112
100
AcDbEntity
8
0
100
AcDbCircle
10
0.099999999999997868
20
-147.5
30
0
40
2.7500000000000044
210
0
220
0
230
1
0
CIRCLE
5
113
100
AcDbEntity
8
0
100
AcDbCircle
10
0.099999999999980105
20
147.5
30
0
40
2.7500000000000044
210
0
220
0
230
1
0
CIRCLE
5
114
100
AcDbEntity
8
0
100
AcDbCircle
10
141.59999999999999
20
0
30
0
40
2.750000000000004
210
0
220
0
230
1
0
LWPOLYLINE
5
115
100
AcDbEntity
8
0
100
AcDbPolyline
90
4
70
1
43
0.0
10
151.59999999999999
20
-30
10
211.59999999999999
20
-30
10
211.59999999999999
20
30
10
151.59999999999999
20
30
0
CIRCLE
5
116
100
AcDbEntity
8
0
100
AcDbCircle
10
-99.900000000000006
20
-147.5
30
0
40
2.7500000000000027
210
0
220
0
230
1
0
CIRCLE
5
117
100
AcDbEntity
8
0
100
AcDbCircle
10
100.09999999999999
20
-147.5
30
0
40
2.7499999999999938
210
0
220
0
230
1
0
CIRCLE
5
118
100
AcDbEntity
8
0
100
AcDbCircle
10
141.59999999999999
20
-100
30
0
40
2.7500000000000036
210
0
220
0
230
1
0
CIRCLE
5
119
100
AcDbEntity
8
0
100
AcDbCircle
10
141.59999999999999
20
100
30
0
40
2.7499999999999973
210
0
220
0
230
1
0
CIRCLE
5
120
100
AcDbEntity
8
0
100
AcDbCircle
10
100.09999999999998
20
147.5
30
0
40
2.7500000000000098
210
0
220
0
230
1
0
CIRCLE
5
121
100
AcDbEntity
8
0
100
AcDbCircle
10
0.099999999999980105
20
147.5
30
0
40
2.7500000000000044
210
0
220
0
230
1
0
CIRCLE
5
122
100
AcDbEntity
8
0
100
AcDbCircle
10
-99.900000000000006
20
147.5
30
0
40
2.7500000000000036
210
0
220
0
230
1
0
CIRCLE
5
123
100
AcDbEntity
8
0
100
AcDbCircle
10
-141.59999999999999
20
99.999999999999929
30
0
40
2.7499999999999951
210
0
220
0
230
1
0
CIRCLE
5
124
100
AcDbEntity
8
0
100
AcDbCircle
10
-141.59999999999994
20
-100.00000000000006
30
0
40
2.7499999999999956
210
0
220
0
230
1
0
CIRCLE
5
125
100
AcDbEntity
8
0
100
AcDbCircle
10
-193.599909049985
20
-37.659707030964931
30
0
40
2.7499999999999973
210
0
220
0
230
1
0
CIRCLE
5
126
100
AcDbEntity
8
0
100
AcDbCircle
10
-193.599909049985
20
-0.15970703096493219
30
0
40
2.7500000000000031
210
0
220
0
230
1
0
CIRCLE
5
127
100
AcDbEntity
8
0
100
AcDbCircle
10
-193.599909049985
20
37.340292969035069
30
0
40
2.7500000000000031
210
0
220
0
230
1
0
CIRCLE
5
128
100
AcDbEntity
8
0
100
AcDbCircle
10
-193.599909049985
20
74.840292969035062
30
0
40
2.7500000000000027
210
0
220
0
230
1
0
LINE
5
129
100
AcDbEntity
8
0
100
AcDbLine
10
-228.59999999999999
20
0
30
0
11
228.59999999999999
21
0
31
0
0
ENDSEC
0
SECTION
2
OBJECTS
0
DICTIONARY
5
C
100
AcDbDictionary
3
ACAD_GROUP
350
D
3
ACAD_MLINESTYLE
350
17
0
DICTIONARY
5
D
100
AcDbDictionary
0
DICTIONARY
5
1A
330
C
100
AcDbDictionary
0
DICTIONARY
5
17
100
AcDbDictionary
0
ENDSEC
0
EOF
