<?xml version="1.0" encoding="utf-8"?>
<!-- Generator: Adobe Illustrator 16.0.0, SVG Export Plug-In . SVG Version: 6.00 Build 0)  -->
<!DOCTYPE svg PUBLIC "-//W3C//DTD SVG 1.1//EN" "http://www.w3.org/Graphics/SVG/1.1/DTD/svg11.dtd">
<svg version="1.1" id="Layer_1" xmlns="http://www.w3.org/2000/svg" xmlns:xlink="http://www.w3.org/1999/xlink" x="0px" y="0px"
	 width="72px" height="72px" viewBox="0 0 72 72" enable-background="new 0 0 72 72" xml:space="preserve">
<g>
	<path fill="#010101" d="M35.97,58.101c-12.187,0-22.101-9.914-22.101-22.1c0-12.187,9.914-22.101,22.101-22.101
		c12.186,0,22.1,9.914,22.1,22.101C58.069,48.187,48.155,58.101,35.97,58.101z M35.97,14.9c-11.635,0-21.101,9.466-21.101,21.101
		s9.466,21.1,21.101,21.1s21.1-9.465,21.1-21.1S47.604,14.9,35.97,14.9z"/>
	<g>
		<g>
			<path fill="#010101" d="M26.906,44.541c0.13,0.288,0.115,0.569-0.043,0.845c-0.155,0.259-0.381,0.397-0.679,0.418l-5.042,0.386
				c-0.285,0.024-0.552-0.037-0.801-0.186c-0.25-0.151-0.436-0.361-0.556-0.628l-0.008-0.018c-0.132-0.294-0.161-0.596-0.085-0.904
				c0.072-0.3,0.228-0.547,0.469-0.741l1.868-1.489l-2.355,0.407c-0.304,0.055-0.597,0.006-0.879-0.146
				c-0.272-0.145-0.474-0.362-0.605-0.653l-0.008-0.018c-0.12-0.268-0.154-0.545-0.102-0.833c0.054-0.285,0.184-0.527,0.39-0.728
				l3.63-3.52c0.214-0.207,0.469-0.282,0.766-0.227c0.308,0.058,0.528,0.233,0.66,0.527l0.008,0.018
				c0.082,0.181,0.102,0.37,0.062,0.566c-0.04,0.189-0.129,0.348-0.268,0.475l-1.792,1.609c-0.643,0.579-1.248,1.083-1.814,1.514
				l-0.072-0.16c0.41-0.096,1.898-0.384,4.463-0.864c0.22-0.042,0.432-0.011,0.636,0.094c0.211,0.112,0.366,0.276,0.463,0.493
				l0.006,0.014c0.099,0.219,0.119,0.442,0.06,0.669c-0.056,0.225-0.172,0.405-0.35,0.543c-2.061,1.599-3.262,2.523-3.603,2.773
				l-0.072-0.16c0.699-0.144,1.477-0.264,2.333-0.36l2.391-0.268c0.189-0.024,0.367,0.011,0.536,0.106
				c0.173,0.101,0.302,0.243,0.385,0.427L26.906,44.541z"/>
			<path fill="#010101" d="M26.643,51.047c-0.14,0.2-0.33,0.319-0.571,0.358c-0.249,0.049-0.479-0.002-0.693-0.15l-0.012-0.009
				c-0.213-0.148-0.34-0.349-0.38-0.599c-0.047-0.239-0.001-0.459,0.139-0.659l2.889-4.141c0.14-0.2,0.33-0.319,0.571-0.357
				c0.249-0.05,0.479,0.001,0.693,0.149l0.012,0.009c0.214,0.148,0.34,0.349,0.38,0.599c0.047,0.239,0.001,0.459-0.139,0.659
				L26.643,51.047z"/>
			<path fill="#010101" d="M31.428,53.307c-0.03,0.216-0.135,0.392-0.315,0.528c-0.18,0.136-0.386,0.188-0.618,0.156l-0.015-0.002
				c-0.232-0.032-0.416-0.142-0.551-0.328c-0.137-0.173-0.19-0.368-0.161-0.584l0.634-4.585c0.053-0.381,0.235-0.689,0.547-0.926
				c0.308-0.233,0.661-0.322,1.058-0.268l0.024,0.004c0.319,0.044,0.591,0.179,0.817,0.403c0.226,0.222,0.358,0.486,0.397,0.795
				l0.519,3.557l1.445-3.28c0.125-0.285,0.328-0.507,0.609-0.665c0.271-0.153,0.568-0.208,0.89-0.163l0.024,0.003
				c0.396,0.056,0.713,0.237,0.945,0.545c0.236,0.313,0.328,0.658,0.275,1.039l-0.635,4.585c-0.029,0.217-0.133,0.39-0.313,0.519
				c-0.181,0.143-0.388,0.198-0.62,0.166l-0.015-0.002c-0.232-0.032-0.417-0.138-0.552-0.318c-0.136-0.18-0.189-0.377-0.16-0.594
				l0.452-3.27l-1.358,3.051c-0.107,0.251-0.282,0.444-0.523,0.578c-0.246,0.137-0.509,0.187-0.79,0.147l-0.019-0.003
				c-0.281-0.039-0.521-0.157-0.72-0.355c-0.197-0.195-0.313-0.428-0.347-0.699l-0.475-3.304L31.428,53.307z"/>
			<path fill="#010101" d="M44.027,48.635c0.865-0.09,1.469,0.206,1.811,0.891c0.262,0.523,0.246,1.072-0.049,1.646
				c-0.324,0.617-1.094,1.229-2.307,1.838c-0.205,0.102-0.5,0.262-0.885,0.48c-0.203,0.116-0.42,0.143-0.648,0.079
				c-0.213-0.062-0.367-0.189-0.465-0.384l-2.369-4.729c-0.094-0.189-0.105-0.386-0.031-0.59c0.074-0.213,0.217-0.369,0.424-0.47
				c0.092-0.042,0.293-0.137,0.602-0.284c0.27-0.124,0.484-0.227,0.648-0.309c0.867-0.434,1.572-0.646,2.117-0.634
				c0.668-0.011,1.139,0.258,1.414,0.805c0.264,0.529,0.174,1.077-0.271,1.643c0.004-0.002,0.006,0,0.01,0.006
				C44.029,48.63,44.029,48.634,44.027,48.635z M41.551,49.209c0.016,0.029,0.035,0.048,0.063,0.057
				c0.021,0.007,0.041,0.006,0.059-0.002l0.258-0.13c0.326-0.163,0.545-0.341,0.66-0.533c0.105-0.176,0.115-0.349,0.031-0.517
				c-0.176-0.35-0.543-0.384-1.105-0.103c-0.15,0.076-0.279,0.146-0.387,0.21c-0.045,0.026-0.053,0.067-0.025,0.122L41.551,49.209z
				 M43.311,51.599c0.334-0.167,0.574-0.354,0.719-0.562c0.154-0.22,0.174-0.446,0.059-0.679c-0.109-0.216-0.299-0.325-0.568-0.327
				c-0.264-0.003-0.578,0.087-0.941,0.269l-0.297,0.148c-0.02,0.011-0.037,0.028-0.051,0.053c-0.008,0.026-0.006,0.054,0.01,0.083
				l0.574,1.148c0.014,0.026,0.035,0.043,0.064,0.05c0.021,0.008,0.043,0.006,0.063-0.004
				C43.014,51.746,43.137,51.687,43.311,51.599z"/>
			<path fill="#010101" d="M44.693,43.961c0.152-0.211,0.355-0.335,0.605-0.37c0.24-0.044,0.459,0.006,0.656,0.149l3.639,2.628
				l1.223-1.694c0.125-0.171,0.289-0.273,0.494-0.307c0.193-0.028,0.369,0.014,0.527,0.129l0.008,0.005
				c0.158,0.115,0.254,0.269,0.287,0.461c0.033,0.205-0.012,0.393-0.137,0.564l-1.801,2.493c-0.143,0.198-0.334,0.316-0.568,0.354
				c-0.229,0.036-0.434-0.012-0.619-0.146l-4.135-2.988c-0.199-0.144-0.314-0.335-0.35-0.577c-0.045-0.249,0.01-0.479,0.162-0.69
				L44.693,43.961z"/>
			<path fill="#010101" d="M53.02,38.634c0.049-0.199,0.16-0.349,0.334-0.45c0.162-0.104,0.338-0.132,0.523-0.086l0.02,0.005
				c0.186,0.047,0.328,0.153,0.424,0.321c0.104,0.171,0.133,0.355,0.082,0.555l-0.693,2.786c-0.072,0.294-0.238,0.518-0.494,0.672
				c-0.248,0.149-0.512,0.189-0.789,0.12l-4.588-1.142c-0.277-0.069-0.49-0.229-0.641-0.477c-0.154-0.257-0.195-0.532-0.121-0.826
				l0.656-2.639c0.059-0.23,0.191-0.396,0.4-0.494c0.203-0.09,0.404-0.087,0.602,0.009l0.014,0.009
				c0.146,0.073,0.256,0.188,0.332,0.344c0.066,0.15,0.078,0.312,0.035,0.482l-0.469,1.886l0.752,0.188l0.441-1.772
				c0.051-0.199,0.162-0.349,0.334-0.45c0.164-0.104,0.336-0.133,0.52-0.087l0.016,0.004c0.182,0.045,0.326,0.155,0.43,0.328
				c0.1,0.166,0.125,0.349,0.076,0.547l-0.441,1.772l1.738,0.433L53.02,38.634z"/>
		</g>
	</g>
	<g>
		<path fill-rule="evenodd" clip-rule="evenodd" d="M26.563,36.457c-0.169-1.395,0.39-2.616,1.055-3.757
			c0.21-0.354,0.834-0.646,1.281-0.668c0.752-0.029,1.525,0.118,2.267,0.296c2.331,0.561,4.364,0.155,5.791-1.842
			c1.443-2.03,3.773-1.588,6.08-0.572c1.783,0.784,2.463,2.477,1.908,4.659c-0.924,3.605-2.697,6.669-6.324,8.281
			c-3.177,1.414-6.2,1.068-8.955-1.103C27.925,40.378,26.813,38.661,26.563,36.457z"/>
		<path fill-rule="evenodd" clip-rule="evenodd" d="M44.935,28.351c-1.459,0.028-2.469-0.505-3.133-1.608
			c-0.686-1.139-0.764-2.298-0.029-3.447c0.236-0.367,0.545-0.705,0.873-1.007c1.152-1.052,2.367-0.934,3.971,0.372
			c1.012,0.821,1.414,2.279,0.881,3.566C47.14,27.08,46.021,28.426,44.935,28.351z"/>
		<path fill-rule="evenodd" clip-rule="evenodd" d="M35.472,25.343c-0.062-1.123,1.105-2.582,2.09-2.611
			c1.119-0.028,2.344,1.177,2.41,2.374c0.057,1.055-1.012,2.317-2.002,2.369C36.661,27.541,35.54,26.588,35.472,25.343z"/>
		<path fill-rule="evenodd" clip-rule="evenodd" d="M28.785,28.514c0.086,1.313-0.901,2.555-2.106,2.646
			c-1.137,0.085-2.312-1.021-2.396-2.262c-0.084-1.167,1.03-2.563,2.078-2.613C27.617,26.229,28.702,27.225,28.785,28.514z"/>
		<path fill-rule="evenodd" clip-rule="evenodd" d="M32.245,29.228c-1.36,0.016-2.405-0.976-2.429-2.304
			c-0.012-0.931,1.229-2.426,2.025-2.443c1.218-0.029,2.57,1.081,2.609,2.138C34.495,27.813,33.311,29.213,32.245,29.228z"/>
	</g>
</g>
</svg>
