0
SECTION
2
HEADER
9
$INSUNITS
70
4
9
$ACADVER
1
AC1014
9
$HANDSEED
5
FFFF
0
ENDSEC
0
SECTION
2
TABLES
0
TABLE
2
VPORT
5
8
100
AcDbSymbolTable
0
ENDTAB
0
TABLE
2
LTYPE
5
5
100
AcDbSymbolTable
0
LTYPE
5
14
100
AcDbSymbolTableRecord
100
AcDbLinetypeTableRecord
2
BYBLOCK
70
0
0
LTYPE
5
15
100
AcDbSymbolTableRecord
100
AcDbLinetypeTableRecord
2
BYLAYER
70
0
0
ENDTAB
0
TABLE
2
LAYER
5
2
100
AcDbSymbolTable
70
2
0
LAYER
5
50
100
AcDbSymbolTableRecord
100
AcDbLayerTableRecord
2
0
70
0
6
CONTINUOUS
0
ENDTAB
0
TABLE
2
STYLE
5
3
100
AcDbSymbolTable
70
1
0
STYLE
5
11
100
AcDbSymbolTableRecord
100
AcDbTextStyleTableRecord
2
STANDARD
70
0
0
ENDTAB
0
TABLE
2
VIEW
5
6
100
AcDbSymbolTable
70
0
0
ENDTAB
0
TABLE
2
UCS
5
7
100
AcDbSymbolTable
70
0
0
ENDTAB
0
TABLE
2
APPID
5
9
100
AcDbSymbolTable
70
2
0
APPID
5
12
100
AcDbSymbolTableRecord
100
AcDbRegAppTableRecord
2
ACAD
70
0
0
ENDTAB
0
TABLE
2
DIMSTYLE
5
A
100
AcDbSymbolTable
70
1
0
ENDTAB
0
TABLE
2
BLOCK_RECORD
5
1
100
AcDbSymbolTable
70
1
0
BLOCK_RECORD
5
1F
100
AcDbSymbolTableRecord
100
AcDbBlockTableRecord
2
*MODEL_SPACE
0
BLOCK_RECORD
5
1B
100
AcDbSymbolTableRecord
100
AcDbBlockTableRecord
2
*PAPER_SPACE
0
ENDTAB
0
ENDSEC
0
SECTION
2
BLOCKS
0
BLOCK
5
20
100
AcDbEntity
100
AcDbBlockBegin
2
*MODEL_SPACE
0
ENDBLK
5
21
100
AcDbEntity
100
AcDbBlockEnd
0
BLOCK
5
1C
100
AcDbEntity
100
AcDbBlockBegin
2
*PAPER_SPACE
0
ENDBLK
5
1D
100
AcDbEntity
100
AcDbBlockEnd
0
ENDSEC
0
SECTION
2
ENTITIES
0
LWPOLYLINE
5
100
100
AcDbEntity
8
0
100
AcDbPolyline
90
4
70
1
43
0.0
10
0
20
0
10
73
20
0
10
73
20
41.000000000000007
10
-1.2325951644078309e-31
20
41.000000000000007
0
LWPOLYLINE
5
101
100
AcDbEntity
8
0
100
AcDbPolyline
90
4
70
1
43
0.0
10
-11.981305521669389
20
-5
10
34.018694478330616
20
-5
10
34.018694478330616
20
-32
10
-11.981305521669389
20
-32
0
LINE
5
102
100
AcDbEntity
8
0
100
AcDbLine
10
77.684365057293803
20
-83.056837907097815
30
0
11
77.684365057293803
21
-82.532718749592235
31
0
0
LWPOLYLINE
5
103
100
AcDbEntity
8
0
100
AcDbPolyline
90
4
70
1
43
0.0
10
-12.158889273659641
20
-88.005415627165021
10
-12.158889273659641
20
-100.85064820583015
42
0.6213372085128791
10
13.841110726340355
20
-100.85064820583017
10
13.841110726340361
20
-88.005415627165021
42
0.62133720851287932
0
LWPOLYLINE
5
104
100
AcDbEntity
8
0
100
AcDbPolyline
90
8
70
1
43
0.0
10
76.838208001973555
20
-83.928031916497588
10
70.28076947767164
20
-83.928031916497588
42
0.24616546406178941
10
63.059488739822598
20
-91.14931265434663
10
63.059488739822598
20
-97.706751178648545
42
0.24616546406178924
10
70.28076947767164
20
-104.92803191649759
10
76.83820800197357
20
-104.92803191649759
42
0.24616546406178924
10
84.059488739822612
20
-97.706751178648545
10
84.059488739822612
20
-91.14931265434663
42
0.24616546406178941
0
LWPOLYLINE
5
105
100
AcDbEntity
8
0
100
AcDbPolyline
90
4
70
1
43
0.0
10
39.018694478330616
20
-5
10
85.018694478330616
20
-4.9999999999999991
10
85.018694478330616
20
-32
10
39.018694478330616
20
-32
0
LWPOLYLINE
5
106
100
AcDbEntity
8
0
100
AcDbPolyline
90
4
70
1
43
0.0
10
-11.981305521669389
20
-37
10
34.018694478330616
20
-37
10
34.018694478330616
20
-64
10
-11.981305521669389
20
-64
0
LWPOLYLINE
5
107
100
AcDbEntity
8
0
100
AcDbPolyline
90
4
70
1
43
0.0
10
39.018694478330616
20
-37
10
85.018694478330602
20
-37
10
85.018694478330602
20
-64
10
39.018694478330616
20
-64
0
LINE
5
108
100
AcDbEntity
8
0
100
AcDbLine
10
34.018694478330616
20
-5
30
0
11
39.018694478330616
21
-5
31
0
0
CIRCLE
5
109
100
AcDbEntity
8
0
100
AcDbCircle
10
36.500000000000014
20
-94.428031916497588
30
0
40
0.67234647786499957
210
0
220
0
230
1
0
LINE
5
110
100
AcDbEntity
8
0
100
AcDbLine
10
119.05948873982261
20
-139.42803191649759
30
0
11
119.05948873982261
21
71.000000000000014
31
0
0
LINE
5
111
100
AcDbEntity
8
0
100
AcDbLine
10
119.05948873982261
20
71.000000000000014
30
0
11
-44.158889273659625
21
71
31
0
0
LINE
5
112
100
AcDbEntity
8
0
100
AcDbLine
10
-44.158889273659625
20
71
30
0
11
-44.158889273659639
21
-139.42803191649759
31
0
0
LWPOLYLINE
5
113
100
AcDbEntity
8
0
100
AcDbPolyline
90
4
70
1
43
0.0
10
-44.158889273659625
20
71
10
119.05948873982261
20
71
10
119.05948873982261
20
-218.99999999999994
10
-44.158889273659625
20
-218.99999999999994
0
CIRCLE
5
114
100
AcDbEntity
8
0
100
AcDbCircle
10
-14.158889273659625
20
61.000000000000007
30
0
40
3
210
0
220
0
230
1
0
CIRCLE
5
115
100
AcDbEntity
8
0
100
AcDbCircle
10
89.059488739822612
20
61.000000000000014
30
0
40
3.0000000000000027
210
0
220
0
230
1
0
CIRCLE
5
116
100
AcDbEntity
8
0
100
AcDbCircle
10
-34.158889273659646
20
31.000000000000007
30
0
40
3.0000000000000018
210
0
220
0
230
1
0
CIRCLE
5
117
100
AcDbEntity
8
0
100
AcDbCircle
10
109.05511072634036
20
31.000000000000007
30
0
40
3.0000000000000018
210
0
220
0
230
1
0
CIRCLE
5
118
100
AcDbEntity
8
0
100
AcDbCircle
10
-34.158889273659646
20
-18.999999999999993
30
0
40
3.0000000000000018
210
0
220
0
230
1
0
CIRCLE
5
119
100
AcDbEntity
8
0
100
AcDbCircle
10
109.05511072634036
20
-18.999999999999993
30
0
40
3.0000000000000018
210
0
220
0
230
1
0
CIRCLE
5
120
100
AcDbEntity
8
0
100
AcDbCircle
10
-34.158889273659646
20
-69
30
0
40
3.0000000000000018
210
0
220
0
230
1
0
CIRCLE
5
121
100
AcDbEntity
8
0
100
AcDbCircle
10
109.05511072634036
20
-69
30
0
40
3.0000000000000018
210
0
220
0
230
1
0
CIRCLE
5
122
100
AcDbEntity
8
0
100
AcDbCircle
10
-34.158889273659646
20
-118.99999999999999
30
0
40
3.0000000000000018
210
0
220
0
230
1
0
CIRCLE
5
123
100
AcDbEntity
8
0
100
AcDbCircle
10
109.05511072634036
20
-118.99999999999999
30
0
40
3.0000000000000018
210
0
220
0
230
1
0
CIRCLE
5
124
100
AcDbEntity
8
0
100
AcDbCircle
10
-34.158889273659646
20
-169
30
0
40
3.0000000000000018
210
0
220
0
230
1
0
CIRCLE
5
125
100
AcDbEntity
8
0
100
AcDbCircle
10
109.05511072634036
20
-169
30
0
40
3.0000000000000018
210
0
220
0
230
1
0
CIRCLE
5
126
100
AcDbEntity
8
0
100
AcDbCircle
10
-14.158889273659625
20
-208.99999999999994
30
0
40
3
210
0
220
0
230
1
0
CIRCLE
5
127
100
AcDbEntity
8
0
100
AcDbCircle
10
89.059488739822612
20
-209
30
0
40
3.0000000000000027
210
0
220
0
230
1
0
ENDSEC
0
SECTION
2
OBJECTS
0
DICTIONARY
5
C
100
AcDbDictionary
3
ACAD_GROUP
350
D
3
ACAD_MLINESTYLE
350
17
0
DICTIONARY
5
D
100
AcDbDictionary
0
DICTIONARY
5
1A
330
C
100
AcDbDictionary
0
DICTIONARY
5
17
100
AcDbDictionary
0
ENDSEC
0
EOF
