0
SECTION
2
HEADER
9
$INSUNITS
70
2
9
$ACADVER
1
AC1014
9
$HANDSEED
5
FFFF
0
ENDSEC
0
SECTION
2
TABLES
0
TABLE
2
VPORT
5
8
100
AcDbSymbolTable
0
ENDTAB
0
TABLE
2
LTYPE
5
5
100
AcDbSymbolTable
0
LTYPE
5
14
100
AcDbSymbolTableRecord
100
AcDbLinetypeTableRecord
2
BYBLOCK
70
0
0
LTYPE
5
15
100
AcDbSymbolTableRecord
100
AcDbLinetypeTableRecord
2
BYLAYER
70
0
0
ENDTAB
0
TABLE
2
LAYER
5
2
100
AcDbSymbolTable
70
2
0
LAYER
5
50
100
AcDbSymbolTableRecord
100
AcDbLayerTableRecord
2
0
70
0
6
CONTINUOUS
0
ENDTAB
0
TABLE
2
STYLE
5
3
100
AcDbSymbolTable
70
1
0
STYLE
5
11
100
AcDbSymbolTableRecord
100
AcDbTextStyleTableRecord
2
STANDARD
70
0
0
ENDTAB
0
TABLE
2
VIEW
5
6
100
AcDbSymbolTable
70
0
0
ENDTAB
0
TABLE
2
UCS
5
7
100
AcDbSymbolTable
70
0
0
ENDTAB
0
TABLE
2
APPID
5
9
100
AcDbSymbolTable
70
2
0
APPID
5
12
100
AcDbSymbolTableRecord
100
AcDbRegAppTableRecord
2
ACAD
70
0
0
ENDTAB
0
TABLE
2
DIMSTYLE
5
A
100
AcDbSymbolTable
70
1
0
ENDTAB
0
TABLE
2
BLOCK_RECORD
5
1
100
AcDbSymbolTable
70
1
0
BLOCK_RECORD
5
1F
100
AcDbSymbolTableRecord
100
AcDbBlockTableRecord
2
*MODEL_SPACE
0
BLOCK_RECORD
5
1B
100
AcDbSymbolTableRecord
100
AcDbBlockTableRecord
2
*PAPER_SPACE
0
ENDTAB
0
ENDSEC
0
SECTION
2
BLOCKS
0
BLOCK
5
20
100
AcDbEntity
100
AcDbBlockBegin
2
*MODEL_SPACE
0
ENDBLK
5
21
100
AcDbEntity
100
AcDbBlockEnd
0
BLOCK
5
1C
100
AcDbEntity
100
AcDbBlockBegin
2
*PAPER_SPACE
0
ENDBLK
5
1D
100
AcDbEntity
100
AcDbBlockEnd
0
ENDSEC
0
SECTION
2
ENTITIES
0
LINE
5
100
100
AcDbEntity
8
0
100
AcDbLine
10
24.231975651354915
20
25.37500060812469
30
0
11
24.231975651354915
21
-25.374999391875313
31
0
0
LINE
5
101
100
AcDbEntity
8
0
100
AcDbLine
10
24.231975651354915
20
3.7083333333333379
30
0
11
24.231975651354915
21
6.2916666666666723
31
0
0
LINE
5
102
100
AcDbEntity
8
0
100
AcDbLine
10
-5.1013576819784205
20
5.6250006081246893
30
0
11
-4.7680243486450875
21
5.6250006081246893
31
0
0
LINE
5
103
100
AcDbEntity
8
0
100
AcDbLine
10
-4.7680243486450875
20
5.4785203452059292
30
0
11
-4.7680243486450875
21
5.6250006081246893
31
0
0
LINE
5
104
100
AcDbEntity
8
0
100
AcDbLine
10
-4.7680243486450875
20
5.4785203452059292
30
0
11
-4.7680243486450875
21
5.6250006081246893
31
0
0
LWPOLYLINE
5
105
100
AcDbEntity
8
0
100
AcDbPolyline
90
13
70
1
43
0.0
10
-10.518024348645083
20
24.958333941458022
10
-10.851357681978419
20
24.958333941458022
10
-10.851357681978419
20
25.12500060812469
10
-10.851357681978419
20
25.37500060812469
10
-8.0180243486450919
20
25.37500060812469
10
-8.0180243486450919
20
24.958333941458022
10
-8.0180243486450919
20
25.12500060812469
10
-5.1846910153117589
20
25.12500060812469
10
-5.1846910153117589
20
24.958333941458022
10
-8.0180243486450919
20
24.958333941458022
10
-10.851357681978419
20
24.958333941458022
10
-10.851357681978419
20
9.7083339414580223
10
-10.518024348645083
20
9.7083339414580205
0
LWPOLYLINE
5
106
100
AcDbEntity
8
0
100
AcDbPolyline
90
4
70
1
43
0.0
10
-24.184691015311753
20
5.6250006081246893
10
-10.434691015311754
20
5.6250006081246893
10
-10.434691015311754
20
5.9583339414580223
10
-24.184691015311753
20
5.9583339414580223
0
LWPOLYLINE
5
107
100
AcDbEntity
8
0
100
AcDbPolyline
90
4
70
1
43
0.0
10
-24.184691015311753
20
17.958333941458022
10
-22.184691015311753
20
17.958333941458022
10
-22.184691015311753
20
12.958333941458022
10
-24.184691015311753
20
12.958333941458022
0
LWPOLYLINE
5
108
100
AcDbEntity
8
0
100
AcDbPolyline
90
4
70
1
43
0.0
10
10.148642318021572
20
24.958333333333332
10
9.8153089846882384
20
24.958333333333332
10
9.8153089846882384
20
9.625
10
10.148642318021572
20
9.625
0
LWPOLYLINE
5
109
100
AcDbEntity
8
0
100
AcDbPolyline
90
4
70
1
43
0.0
10
13.148801552893943
20
12.959433998344263
10
18.815468219560607
20
12.959433998344261
10
18.815468219560607
20
12.626100665010927
10
13.148801552893943
20
12.626100665010929
0
LWPOLYLINE
5
110
100
AcDbEntity
8
0
100
AcDbPolyline
90
10
70
1
43
0.0
10
13.148642318021581
20
6.2916666666666732
10
18.815308984688247
20
6.2916666666666732
10
18.815308984688247
20
6.6250000000000062
10
18.481975651354915
20
6.6250000000000062
10
18.481975651354915
20
8.6250000000000071
10
19.981975651354915
20
8.6250000000000071
10
18.481975651354915
20
8.6250000000000071
10
18.815308984688247
20
8.6250000000000071
10
18.815308984688247
20
6.6250000000000062
10
13.148642318021581
20
6.6250000000000062
0
LWPOLYLINE
5
111
100
AcDbEntity
8
0
100
AcDbPolyline
90
4
70
1
43
0.0
10
18.815308984688247
20
6.2916666666666732
10
18.815308984688247
20
6.6250000000000062
10
18.481975651354915
20
6.6250000000000062
10
18.481975651354915
20
6.2916666666666732
0
LWPOLYLINE
5
112
100
AcDbEntity
8
0
100
AcDbPolyline
90
12
70
1
43
0.0
10
13.148801552893943
20
12.626100665010929
10
13.482134886227277
20
12.626100665010929
10
13.148801552893943
20
12.626100665010929
10
13.148801552893943
20
12.959433998344263
10
13.482134886227277
20
12.959433998344263
10
13.482134886227277
20
12.626100665010929
10
13.482134886227277
20
6.6261006650109309
10
13.148642318021581
20
6.6261006650109309
10
13.148642318021581
20
6.2927673316775969
10
13.482134886227277
20
6.2927673316775969
10
13.482134886227277
20
6.6261006650109309
10
13.148801552893943
20
6.6261006650109309
0
LWPOLYLINE
5
113
100
AcDbEntity
8
0
100
AcDbPolyline
90
4
70
1
43
0.0
10
18.815308984688247
20
12.958333333333339
10
18.481975651354915
20
12.958333333333339
10
18.481975651354915
20
10.875000000000007
10
18.815308984688247
20
10.875000000000007
0
LINE
5
114
100
AcDbEntity
8
0
100
AcDbLine
10
19.981975651354915
20
8.6250000000000071
30
0
11
19.981975651354915
21
8.2916666666666732
31
0
0
LINE
5
115
100
AcDbEntity
8
0
100
AcDbLine
10
19.981975651354915
20
8.2916666666666732
30
0
11
18.481975651354915
21
8.2916666666666732
31
0
0
LINE
5
116
100
AcDbEntity
8
0
100
AcDbLine
10
18.481975651354915
20
8.2916666666666732
30
0
11
18.481975651354915
21
8.6250000000000071
31
0
0
LWPOLYLINE
5
117
100
AcDbEntity
8
0
100
AcDbPolyline
90
8
70
1
43
0.0
10
24.231975651354915
20
8.2916666666666714
10
22.315308984688247
20
8.2916666666666714
10
22.315308984688247
20
8.6250000000000053
10
24.231975651354915
20
8.6250000000000053
10
24.231975651354915
20
8.2916666666666714
10
24.231975651354915
20
8.6250000000000053
10
24.648642318021583
20
8.6250000000000053
10
24.648642318021583
20
8.2916666666666714
0
LINE
5
118
100
AcDbEntity
8
0
100
AcDbLine
10
22.315308984688247
20
8.6250000000000053
30
0
11
24.231975651354915
21
8.6250000000000053
31
0
0
LWPOLYLINE
5
119
100
AcDbEntity
8
0
100
AcDbPolyline
90
4
70
1
43
0.0
10
24.231975651354915
20
12.958333333333337
10
22.231975651354912
20
12.958333333333337
10
22.231975651354912
20
12.625000000000004
10
24.231975651354915
20
12.625000000000004
0
LWPOLYLINE
5
120
100
AcDbEntity
8
0
100
AcDbPolyline
90
4
70
1
43
0.0
10
24.231975651354915
20
12.625000000000004
10
22.398642318021579
20
12.625000000000004
10
22.398642318021579
20
8.6250000000000036
10
24.231975651354915
20
8.6250000000000036
0
LWPOLYLINE
5
121
100
AcDbEntity
8
0
100
AcDbPolyline
90
4
70
1
43
0.0
10
10.148642318021572
20
9.625
10
10.398642318021574
20
9.625
10
10.398642318021574
20
9.9583333333333339
10
10.148642318021572
20
9.9583333333333339
0
LWPOLYLINE
5
122
100
AcDbEntity
8
0
100
AcDbPolyline
90
4
70
1
43
0.0
10
13.148801552893943
20
9.9594339983442612
10
12.898801552893943
20
9.9594339983442612
10
12.898801552893943
20
9.6261006650109291
10
13.148801552893943
20
9.6261006650109291
0
LWPOLYLINE
5
123
100
AcDbEntity
8
0
100
AcDbPolyline
90
4
70
1
43
0.0
10
24.231975651354915
20
3.7083333333333379
10
15.898642318021579
20
3.7083333333333379
10
15.898642318021579
20
3.0416666666666714
10
24.231975651354915
20
3.0416666666666714
0
LWPOLYLINE
5
124
100
AcDbEntity
8
0
100
AcDbPolyline
90
4
70
1
43
0.0
10
15.898642318021579
20
6.2916666666666723
10
15.565308984688246
20
6.2916666666666723
10
15.565308984688246
20
1.1250000000000053
10
15.898642318021579
20
1.1250000000000053
0
LWPOLYLINE
5
125
100
AcDbEntity
8
0
100
AcDbPolyline
90
4
70
1
43
0.0
10
15.898642318021579
20
3.0416666666666714
10
21.398642318021579
20
3.0416666666666714
10
21.398642318021579
20
1.2083333333333379
10
15.898642318021579
20
1.2083333333333379
0
LWPOLYLINE
5
126
100
AcDbEntity
8
0
100
AcDbPolyline
90
8
70
1
43
0.0
10
15.565308984688246
20
1.1250000000000062
10
13.148642318021579
20
1.1250000000000062
10
13.315308984688246
20
1.1250000000000062
10
13.315308984688246
20
6.2916666666666732
10
13.148642318021579
20
6.2916666666666732
10
13.148642318021579
20
1.1250000000000062
10
13.148642318021579
20
0.79166666666667296
10
15.565308984688246
20
0.79166666666667296
0
LWPOLYLINE
5
127
100
AcDbEntity
8
0
100
AcDbPolyline
90
4
70
1
43
0.0
10
15.565308984688246
20
1.1250000000000062
10
15.898642318021579
20
1.1250000000000062
10
15.898642318021579
20
0.79166666666667296
10
15.565308984688246
20
0.79166666666667296
0
LWPOLYLINE
5
128
100
AcDbEntity
8
0
100
AcDbPolyline
90
4
70
1
43
0.0
10
13.148642318021581
20
0.79166666666667296
10
13.481975651354915
20
0.79166666666667296
10
13.481975651354915
20
0.54166666666667285
10
13.148642318021581
20
0.54166666666667285
0
LWPOLYLINE
5
129
100
AcDbEntity
8
0
100
AcDbPolyline
90
14
70
1
43
0.0
10
24.231975651354915
20
-4.6249993918753098
10
18.815308984688247
20
-4.6249993918753098
10
19.356975651354912
20
-4.6249993918753098
10
19.356975651354912
20
-2.3749993918753098
10
19.356975651354912
20
-2.0416666666666679
10
19.023642318021579
20
-2.0416666666666679
10
19.023642318021579
20
-1.8750000000000011
10
19.356975651354912
20
-1.8750000000000011
10
19.356975651354912
20
-2.0416666666666679
10
18.815308984688247
20
-2.0416666666666679
10
18.815308984688247
20
-2.3749993918753098
10
18.815308984688247
20
-4.6249993918753098
10
18.815308984688247
20
-4.2916660585419768
10
24.231975651354915
20
-4.2916660585419768
0
LWPOLYLINE
5
130
100
AcDbEntity
8
0
100
AcDbPolyline
90
4
70
1
43
0.0
10
24.231975651354915
20
-4.2916660585419768
10
19.356975651354912
20
-4.2916660585419768
10
19.356975651354912
20
-1.7083327252086433
10
24.231975651354915
20
-1.7083327252086433
0
LWPOLYLINE
5
131
100
AcDbEntity
8
0
100
AcDbPolyline
90
22
70
1
43
0.0
10
19.356975651354912
20
-2.3749993918753098
10
18.815308984688247
20
-2.3749993918753098
10
13.481975651354913
20
-2.3749993918753098
10
13.148642318021579
20
-2.3749993918753098
10
13.148642318021579
20
-4.7916660585419759
10
13.481975651354913
20
-4.7916660585419759
10
13.481975651354913
20
-5.0416660585419759
10
13.148642318021579
20
-5.0416660585419759
10
13.148642318021579
20
-4.7916660585419759
10
13.481975651354913
20
-4.7916660585419759
10
13.481975651354913
20
-2.3749993918753098
10
13.148642318021579
20
-2.3749993918753098
10
13.148642318021579
20
-2.0416660585419768
10
13.481975651354913
20
-2.0416660585419768
10
13.148642318021579
20
-2.0416660585419768
10
13.148642318021579
20
-1.7916660585419766
10
13.481975651354913
20
-1.7916660585419766
10
13.481975651354913
20
-2.0416660585419768
10
13.481975651354913
20
-2.3749993918753098
10
13.481975651354913
20
-2.0416666666666679
10
18.815308984688247
20
-2.0416666666666679
10
18.815308984688247
20
-2.3749993918753098
0
LWPOLYLINE
5
132
100
AcDbEntity
8
0
100
AcDbPolyline
90
12
70
1
43
0.0
10
24.231975651354915
20
-14.62499939187531
10
13.481975651354913
20
-14.62499939187531
10
13.148642318021579
20
-14.62499939187531
10
13.148642318021579
20
-7.541666058541975
10
13.481975651354913
20
-7.541666058541975
10
13.481975651354913
20
-14.62499939187531
10
13.148642318021579
20
-14.62499939187531
10
13.148642318021579
20
-14.958333333333336
10
13.481975651354913
20
-14.958333333333336
10
13.481975651354913
20
-14.62499939187531
10
13.481975651354913
20
-14.958332725208644
10
24.231975651354915
20
-14.958332725208644
0
LWPOLYLINE
5
133
100
AcDbEntity
8
0
100
AcDbPolyline
90
4
70
1
43
0.0
10
15.065308984688247
20
-20.125000000000004
10
14.731975651354913
20
-20.125000000000004
10
14.731975651354913
20
-17.708333333333336
10
15.065308984688247
20
-17.708333333333336
0
LWPOLYLINE
5
134
100
AcDbEntity
8
0
100
AcDbPolyline
90
12
70
1
43
0.0
10
12.648642318021579
20
-24.958333333333332
10
12.315308984688246
20
-24.958333333333332
10
12.648642318021579
20
-24.958333333333332
10
12.648642318021579
20
-25.374999391875313
10
12.315308984688246
20
-25.374999391875313
10
12.315308984688246
20
-24.958333333333332
10
12.315308984688246
20
-20.125
10
9.8986423180215812
20
-20.125
10
9.8986423180215812
20
-19.791666666666668
10
12.315308984688246
20
-19.791666666666668
10
12.648642318021579
20
-19.791666666666668
10
12.648642318021579
20
-20.125
0
LWPOLYLINE
5
135
100
AcDbEntity
8
0
100
AcDbPolyline
90
8
70
1
43
0.0
10
12.315308984688246
20
-20.125
10
12.648642318021579
20
-20.125
10
12.648642318021579
20
-19.791666666666668
10
15.065308984688247
20
-19.791666666666668
10
15.065308984688247
20
-20.125
10
12.648642318021579
20
-20.125
10
12.315308984688246
20
-20.125
10
12.315308984688246
20
-19.791666666666668
0
LWPOLYLINE
5
136
100
AcDbEntity
8
0
100
AcDbPolyline
90
4
70
1
43
0.0
10
9.8986423180215812
20
-20.125000000000004
10
10.231975651354915
20
-20.125000000000004
10
10.231975651354915
20
-16.458333333333336
10
9.8986423180215812
20
-16.458333333333336
0
LWPOLYLINE
5
137
100
AcDbEntity
8
0
100
AcDbPolyline
90
21
70
1
43
0.0
10
8.6486423180215795
20
-25.374999391875313
10
8.6486423180215795
20
-25.208332725208646
10
8.6486423180215795
20
-24.958332725208646
10
9.8986423180215812
20
-24.958332725208646
10
9.8986423180215812
20
-25.208332725208646
10
9.8986423180215812
20
-25.374999391875313
10
14.981975651354913
20
-25.374999391875313
10
14.981975651354913
20
-25.208332725208646
10
14.981975651354913
20
-24.958332725208646
10
9.8986423180215812
20
-24.958332725208646
10
9.8986423180215812
20
-25.208332725208646
10
8.6486423180215795
20
-25.208332725208646
10
8.6486423180215795
20
-24.958332725208646
10
-0.43469101531175286
20
-24.958332725208646
10
-0.10135768197841954
20
-24.958332725208646
10
-0.10135768197841956
20
-25.374999391875313
10
-0.43469101531175286
20
-25.374999391875313
10
-0.43469101531175286
20
-24.958332725208646
10
-0.10135768197841954
20
-24.958332725208646
10
-0.10135768197841956
20
-25.374999391875313
10
-0.43469101531175286
20
-25.374999391875313
0
LINE
5
138
100
AcDbEntity
8
0
100
AcDbLine
10
8.6486423180215795
20
-25.208332725208646
30
0
11
9.8986423180215812
21
-25.208332725208646
31
0
0
LINE
5
139
100
AcDbEntity
8
0
100
AcDbLine
10
16.231975651354915
20
-25.374999391875313
30
0
11
16.231975651354915
21
-25.208332725208646
31
0
0
LWPOLYLINE
5
140
100
AcDbEntity
8
0
100
AcDbPolyline
90
4
70
1
43
0.0
10
16.231975651354915
20
-25.208332725208646
10
14.981975651354913
20
-25.208332725208646
10
14.981975651354913
20
-24.958332725208646
10
16.231975651354915
20
-24.958332725208646
0
LINE
5
141
100
AcDbEntity
8
0
100
AcDbLine
10
24.648642318021583
20
-24.958332725208646
30
0
11
16.231975651354915
21
-24.958332725208646
31
0
0
LWPOLYLINE
5
142
100
AcDbEntity
8
0
100
AcDbPolyline
90
4
70
1
43
0.0
10
-0.10135768197841963
20
-24.958332725208646
10
-0.43469101531175297
20
-24.958332725208646
10
-0.43469101531175297
20
-13.62499939187531
10
-0.10135768197841963
20
-13.62499939187531
0
LWPOLYLINE
5
143
100
AcDbEntity
8
0
100
AcDbPolyline
90
8
70
1
43
0.0
10
-0.10135768197841963
20
-13.62499939187531
10
1.6486423180215806
20
-13.62499939187531
10
1.6486423180215803
20
-13.458332725208644
10
7.6488015528939428
20
-13.458332725208644
10
7.6488015528939428
20
-13.62499939187531
10
1.6486423180215806
20
-13.62499939187531
10
1.6486423180215806
20
-13.291666058541976
10
-0.10135768197841964
20
-13.291666058541976
0
LWPOLYLINE
5
144
100
AcDbEntity
8
0
100
AcDbPolyline
90
8
70
1
43
0.0
10
10.232134886227277
20
5.9583339414580214
10
9.8154682195606107
20
5.9583339414580214
10
10.232134886227277
20
5.9583339414580214
10
10.232134886227277
20
5.6250006081246884
10
9.8154682195606107
20
5.6250006081246884
10
9.8154682195606107
20
5.9583339414580214
10
9.8154682195606107
20
-9.4166660585419777
10
10.232134886227277
20
-9.4166660585419777
0
LWPOLYLINE
5
145
100
AcDbEntity
8
0
100
AcDbPolyline
90
4
70
1
43
0.0
10
10.232134886227277
20
-9.4166660585419777
10
10.065468219560611
20
-9.4166660585419777
10
10.065468219560611
20
-13.291666058541978
10
10.232134886227277
20
-13.291666058541978
0
LWPOLYLINE
5
146
100
AcDbEntity
8
0
100
AcDbPolyline
90
12
70
1
43
0.0
10
10.232134886227277
20
-13.291666058541978
10
9.8988015528939428
20
-13.291666058541978
10
7.6488015528939428
20
-13.291666058541978
10
7.6488015528939428
20
-13.624999391875312
10
9.8988015528939428
20
-13.624999391875312
10
9.8988015528939428
20
-13.291666058541978
10
9.8988015528939428
20
-13.624999391875312
10
10.232134886227277
20
-13.624999391875312
10
10.232134886227277
20
-13.958332725208647
10
9.8988015528939428
20
-13.958332725208647
10
9.8988015528939428
20
-13.624999391875312
10
10.232134886227277
20
-13.624999391875312
0
LINE
5
147
100
AcDbEntity
8
0
100
AcDbLine
10
1.6488015528939428
20
-13.291666058541978
30
0
11
1.6488015528939428
21
-13.458332725208644
31
0
0
LINE
5
148
100
AcDbEntity
8
0
100
AcDbLine
10
1.6488015528939428
20
-13.458332725208644
30
0
11
7.6488015528939428
21
-13.458332725208644
31
0
0
LINE
5
149
100
AcDbEntity
8
0
100
AcDbLine
10
7.6488015528939428
20
-13.458332725208644
30
0
11
7.6488015528939428
21
-13.291666058541978
31
0
0
LINE
5
150
100
AcDbEntity
8
0
100
AcDbLine
10
9.8154682195606107
20
5.9583339414580214
30
0
11
-4.7678651137727215
21
5.9583339414580214
31
0
0
LINE
5
151
100
AcDbEntity
8
0
100
AcDbLine
10
-4.7678651137727215
20
5.9583339414580214
30
0
11
-4.7678651137727215
21
5.6250006081246884
31
0
0
LINE
5
152
100
AcDbEntity
8
0
100
AcDbLine
10
9.8154682195606107
20
5.6250006081246884
30
0
11
9.8154682195606107
21
5.9583339414580214
31
0
0
LWPOLYLINE
5
153
100
AcDbEntity
8
0
100
AcDbPolyline
90
4
70
1
43
0.0
10
-4.7678651137727215
20
5.9583339414580214
10
-7.7678651137727215
20
5.9583339414580214
10
-7.7678651137727215
20
5.6250006081246884
10
-4.7678651137727215
20
5.6250006081246884
0
LWPOLYLINE
5
154
100
AcDbEntity
8
0
100
AcDbPolyline
90
4
70
1
43
0.0
10
-4.7678651137727215
20
5.6250006081246884
10
-5.1011984471060545
20
5.6250006081246884
10
-5.1011984471060545
20
-24.958332725208646
10
-4.7678651137727215
20
-24.958332725208646
0
LWPOLYLINE
5
155
100
AcDbEntity
8
0
100
AcDbPolyline
90
4
70
1
43
0.0
10
-24.184691015311753
20
-4.7083327252086438
10
-5.1013576819784205
20
-4.7083327252086438
10
-5.1013576819784205
20
-4.3749993918753107
10
-24.184691015311753
20
-4.3749993918753107
0
LINE
5
156
100
AcDbEntity
8
0
100
AcDbLine
10
-10.434531780439388
20
-4.5416660585419777
30
0
11
-10.434531780439388
21
-4.7083327252086447
31
0
0
LINE
5
157
100
AcDbEntity
8
0
100
AcDbLine
10
-10.434531780439388
20
-4.7083327252086447
30
0
11
-7.7678651137727215
21
-4.7083327252086447
31
0
0
LINE
5
158
100
AcDbEntity
8
0
100
AcDbLine
10
-7.7678651137727215
20
-4.7083327252086447
30
0
11
-7.7678651137727215
21
-4.5416660585419777
31
0
0
LWPOLYLINE
5
159
100
AcDbEntity
8
0
100
AcDbPolyline
90
4
70
1
43
0.0
10
-5.1013576819784205
20
5.6250006081246893
10
-7.4346910153117545
20
5.6250006081246893
10
-7.4346910153117545
20
-4.3749993918753107
10
-5.1013576819784205
20
-4.3749993918753107
0
LWPOLYLINE
5
160
100
AcDbEntity
8
0
100
AcDbPolyline
90
4
70
1
43
0.0
10
-10.518024348645083
20
24.958333941458022
10
-8.1430243486450848
20
24.958333941458022
10
-8.1430243486450848
20
22.135417274791354
10
-10.518024348645083
20
22.135417274791354
0
LWPOLYLINE
5
161
100
AcDbEntity
8
0
100
AcDbPolyline
90
4
70
1
43
0.0
10
-10.518024348645083
20
9.7083339414580205
10
-8.226357681978417
20
9.7083339414580223
10
-8.226357681978417
20
11.291667274791354
10
-10.518024348645083
20
11.291667274791354
0
LWPOLYLINE
5
162
100
AcDbEntity
8
0
100
AcDbPolyline
90
4
70
1
43
0.0
10
-10.518024348645083
20
11.291667274791354
10
-8.1430243486450848
20
11.291667274791354
10
-8.1430243486450848
20
14.229167274791356
10
-10.518024348645083
20
14.229167274791356
0
LWPOLYLINE
5
163
100
AcDbEntity
8
0
100
AcDbPolyline
90
4
70
1
43
0.0
10
-10.518024348645083
20
22.135417274791354
10
-8.226357681978417
20
22.135417274791354
10
-8.226357681978417
20
14.229167274791356
10
-10.518024348645083
20
14.229167274791356
0
LWPOLYLINE
5
164
100
AcDbEntity
8
0
100
AcDbPolyline
90
8
70
1
43
0.0
10
-4.8096910153117509
20
13.416667274791353
10
-1.6638576819784179
20
13.416667274791353
10
-1.6638576819784179
20
19.729167274791354
10
-5.413857681978417
20
19.729167274791354
10
-5.413857681978417
20
21.479167274791358
10
-1.6638576819784179
20
21.479167274791358
10
-1.6638576819784179
20
19.729167274791354
10
-4.8096910153117509
20
19.729167274791354
0
LWPOLYLINE
5
165
100
AcDbEntity
8
0
100
AcDbPolyline
90
4
70
1
43
0.0
10
-4.8930243486450822
20
13.416667274791353
10
-1.4138576819784154
20
13.416667274791353
10
-1.4138576819784154
20
9.7083339414580205
10
-4.8930243486450822
20
9.7083339414580205
0
LWPOLYLINE
5
166
100
AcDbEntity
8
0
100
AcDbPolyline
90
12
70
1
43
0.0
10
9.8153089846882384
20
21.208333941458022
10
8.5236423180215724
20
21.208333941458022
10
8.5236423180215724
20
17.208333941458026
10
9.8153089846882384
20
17.208333941458026
10
9.8153089846882384
20
14.541667274791358
10
8.3569756513549063
20
14.541667274791358
10
8.3569756513549063
20
12.04166727479136
10
9.8153089846882384
20
12.04166727479136
10
9.8153089846882384
20
14.541667274791358
10
8.5236423180215724
20
14.541667274791358
10
8.5236423180215724
20
17.208333941458026
10
9.8153089846882384
20
17.208333941458026
0
LWPOLYLINE
5
167
100
AcDbEntity
8
0
100
AcDbPolyline
90
4
70
1
43
0.0
10
1.0028089846882489
20
20.875000608124687
10
5.0028089846882491
20
20.875000608124687
10
5.0028089846882491
20
12.333333941458021
10
1.0028089846882489
20
12.333333941458021
0
LWPOLYLINE
5
168
100
AcDbEntity
8
0
100
AcDbPolyline
90
4
70
1
43
0.0
10
-0.43469101531175297
20
-20.958332725208646
10
-1.5596910153117527
20
-20.958332725208646
10
-1.5596910153117527
20
-20.624999391875313
10
-0.43469101531175297
20
-20.624999391875313
0
LWPOLYLINE
5
169
100
AcDbEntity
8
0
100
AcDbPolyline
90
4
70
1
43
0.0
10
-4.6430243486450866
20
-20.624999391875313
10
-4.7678651137727215
20
-20.624999391875313
10
-4.7678651137727215
20
-20.958332725208646
10
-4.6430243486450866
20
-20.958332725208646
0
LWPOLYLINE
5
170
100
AcDbEntity
8
0
100
AcDbPolyline
90
8
70
1
43
0.0
10
-4.7678651137727215
20
-25.374999391875313
10
-6.2678651137727215
20
-25.374999391875313
10
-6.2678651137727215
20
-24.374999391875313
10
-14.767865113772721
20
-24.374999391875313
10
-14.767865113772721
20
-24.708332725208646
10
-14.767865113772721
20
-24.374999391875313
10
-6.2678651137727215
20
-24.374999391875313
10
-4.7678651137727215
20
-24.374999391875313
0
LWPOLYLINE
5
171
100
AcDbEntity
8
0
100
AcDbPolyline
90
4
70
1
43
0.0
10
-24.184691015311753
20
-25.374999391875313
10
-22.684691015311753
20
-25.374999391875313
10
-22.684691015311753
20
-24.374999391875313
10
-24.184691015311753
20
-24.374999391875313
0
LINE
5
172
100
AcDbEntity
8
0
100
AcDbLine
10
-6.2678651137727215
20
-24.708332725208646
30
0
11
-6.2678651137727215
21
-24.374999391875313
31
0
0
LWPOLYLINE
5
173
100
AcDbEntity
8
0
100
AcDbPolyline
90
4
70
1
43
0.0
10
-22.684691015311753
20
-24.958332725208646
10
-14.184691015311753
20
-24.958332725208646
10
-14.184691015311753
20
-24.624999391875313
10
-22.684691015311753
20
-24.624999391875313
0
LWPOLYLINE
5
174
100
AcDbEntity
8
0
100
AcDbPolyline
90
4
70
1
43
0.0
10
-14.458086390631848
20
-25.374999391875313
10
-14.749753057298514
20
-25.374999391875313
10
-14.749753057298514
20
-25.083332725208649
10
-14.458086390631848
20
-25.083332725208649
0
LINE
5
175
100
AcDbEntity
8
0
100
AcDbLine
10
-24.184691015311753
20
-25.374999391875313
30
0
11
-22.684691015311753
21
-25.374999391875313
31
0
0
LINE
5
176
100
AcDbEntity
8
0
100
AcDbLine
10
-14.749753057298514
20
-25.374999391875313
30
0
11
-14.458086390631848
21
-25.374999391875313
31
0
0
LWPOLYLINE
5
177
100
AcDbEntity
8
0
100
AcDbPolyline
90
20
70
1
43
0.0
10
-24.184691015311753
20
-25.374999391875313
10
-24.601357681978421
20
-25.374999391875313
10
-24.601357681978421
20
-4.3749993918753107
10
-24.434691015311753
20
-4.3749993918753107
10
-24.434691015311753
20
5.6250006081246893
10
-24.601357681978421
20
5.6250006081246893
10
-24.184691015311753
20
5.6250006081246893
10
-24.184691015311753
20
5.9583339414580223
10
-24.601357681978421
20
5.9583339414580223
10
-24.601357681978421
20
5.6250006081246893
10
-24.601357681978421
20
11.87500060812469
10
-24.184691015311753
20
11.87500060812469
10
-24.184691015311753
20
12.958333941458022
10
-24.184691015311753
20
17.958333941458022
10
-24.601357681978421
20
17.958333941458022
10
-24.601357681978421
20
12.958333941458022
10
-24.184691015311753
20
12.958333941458022
10
-24.351357681978421
20
12.958333941458022
10
-24.351357681978421
20
11.87500060812469
10
-24.184691015311753
20
11.87500060812469
0
LWPOLYLINE
5
178
100
AcDbEntity
8
0
100
AcDbPolyline
90
4
70
1
43
0.0
10
-24.601357681978421
20
25.37500060812469
10
-24.184691015311753
20
25.37500060812469
10
-24.184691015311753
20
19.041667274791354
10
-24.184691015311753
20
25.37500060812469
0
LINE
5
179
100
AcDbEntity
8
0
100
AcDbLine
10
-14.184691015311753
20
-24.958332725208646
30
0
11
-24.184691015311753
21
-24.958332725208646
31
0
0
LINE
5
180
100
AcDbEntity
8
0
100
AcDbLine
10
-4.7678651137727215
20
-24.958332725208646
30
0
11
-6.2678651137727215
21
-24.958332725208646
31
0
0
LINE
5
181
100
AcDbEntity
8
0
100
AcDbLine
10
-0.43469101531175286
20
-24.958332725208646
30
0
11
-0.10135768197841954
21
-24.958332725208646
31
0
0
LINE
5
182
100
AcDbEntity
8
0
100
AcDbLine
10
-6.2678651137727215
20
-25.374999391875313
30
0
11
-4.7678651137727215
21
-25.374999391875313
31
0
0
LINE
5
183
100
AcDbEntity
8
0
100
AcDbLine
10
-0.10135768197841956
20
-25.374999391875313
30
0
11
-0.43469101531175286
21
-25.374999391875313
31
0
0
LINE
5
184
100
AcDbEntity
8
0
100
AcDbLine
10
-0.43469101531175286
20
-25.374999391875313
30
0
11
-0.43469101531175286
21
-24.958332725208646
31
0
0
LWPOLYLINE
5
185
100
AcDbEntity
8
0
100
AcDbPolyline
90
4
70
1
43
0.0
10
-0.10135768197841963
20
-13.62499939187531
10
-0.43469101531175297
20
-13.62499939187531
10
-0.43469101531175297
20
-13.291666058541976
10
-0.10135768197841963
20
-13.291666058541976
0
LINE
5
186
100
AcDbEntity
8
0
100
AcDbLine
10
-14.767865113772721
20
-24.708332725208646
30
0
11
-6.2678651137727206
21
-24.708332725208646
31
0
0
LINE
5
187
100
AcDbEntity
8
0
100
AcDbLine
10
-6.2678651137727206
20
-24.708332725208646
30
0
11
-6.2678651137727215
21
-24.374999391875313
31
0
0
LWPOLYLINE
5
188
100
AcDbEntity
8
0
100
AcDbPolyline
90
4
70
1
43
0.0
10
-18.268024348645085
20
24.958333941458022
10
-17.851357681978417
20
24.958333941458022
10
-17.851357681978417
20
25.37500060812469
10
-18.268024348645085
20
25.37500060812469
0
LINE
5
189
100
AcDbEntity
8
0
100
AcDbLine
10
-10.518024348645083
20
24.958333941458022
30
0
11
-11.482830092587058
21
24.958333941458022
31
0
0
LINE
5
190
100
AcDbEntity
8
0
100
AcDbLine
10
-10.851357681978419
20
25.37500060812469
30
0
11
-10.518024348645083
21
25.37500060812469
31
0
0
LINE
5
191
100
AcDbEntity
8
0
100
AcDbLine
10
-10.518024348645083
20
25.37500060812469
30
0
11
-10.518024348645083
21
24.958333941458022
31
0
0
LINE
5
192
100
AcDbEntity
8
0
100
AcDbLine
10
-17.851357681978417
20
24.958333941458022
30
0
11
-17.851357681978417
21
25.12500060812469
31
0
0
LINE
5
193
100
AcDbEntity
8
0
100
AcDbLine
10
-17.851357681978417
20
25.12500060812469
30
0
11
-10.851357681978419
21
25.12500060812469
31
0
0
LINE
5
194
100
AcDbEntity
8
0
100
AcDbLine
10
-10.851357681978419
20
25.12500060812469
30
0
11
-17.851357681978417
21
25.12500060812469
31
0
0
LINE
5
195
100
AcDbEntity
8
0
100
AcDbLine
10
-17.851357681978417
20
25.12500060812469
30
0
11
-17.851357681978417
21
25.37500060812469
31
0
0
LINE
5
196
100
AcDbEntity
8
0
100
AcDbLine
10
-24.184691015311753
20
24.958333941458022
30
0
11
-24.184691015311753
21
25.12500060812469
31
0
0
LINE
5
197
100
AcDbEntity
8
0
100
AcDbLine
10
-24.184691015311753
20
25.12500060812469
30
0
11
-18.268024348645085
21
25.12500060812469
31
0
0
LINE
5
198
100
AcDbEntity
8
0
100
AcDbLine
10
-18.268024348645085
20
25.12500060812469
30
0
11
-18.268024348645085
21
24.958333941458022
31
0
0
LWPOLYLINE
5
199
100
AcDbEntity
8
0
100
AcDbPolyline
90
14
70
1
43
0.0
10
10.148642318021572
20
24.958333333333332
10
9.8153089846882384
20
24.958333333333332
10
9.8153089846882384
20
25.37500060812469
10
9.8153089846882384
20
24.958333941458022
10
7.9819756513549063
20
24.958333941458022
10
7.9819756513549063
20
25.166667274791354
10
9.8153089846882384
20
25.166667274791354
10
9.8153089846882384
20
24.958333941458022
10
7.9819756513549063
20
24.958333941458022
10
7.9819756513549063
20
25.37500060812469
10
7.9819756513549063
20
24.958333941458022
10
7.5653089846882393
20
24.958333941458022
10
10.148642318021572
20
24.958333941458022
10
10.148642318021572
20
25.37500060812469
0
LWPOLYLINE
5
200
100
AcDbEntity
8
0
100
AcDbPolyline
90
12
70
1
43
0.0
10
9.8153089846882384
20
25.37500060812469
10
10.148642318021572
20
25.37500060812469
10
13.065308984688238
20
25.37500060812469
10
13.065308984688238
20
24.958333941458022
10
13.065308984688238
20
25.37500060812469
10
13.065308984688238
20
24.958333941458022
10
13.481975651354904
20
24.958333941458022
10
13.065308984688238
20
24.958333941458022
10
10.148642318021572
20
24.958333941458022
10
10.148642318021572
20
25.37500060812469
10
13.065308984688238
20
25.37500060812469
10
13.481975651354904
20
25.37500060812469
0
LINE
5
201
100
AcDbEntity
8
0
100
AcDbLine
10
7.9819756513549063
20
25.37500060812469
30
0
11
7.5653089846882393
21
25.37500060812469
31
0
0
LINE
5
202
100
AcDbEntity
8
0
100
AcDbLine
10
7.5653089846882393
20
25.37500060812469
30
0
11
7.5653089846882393
21
24.958333941458022
31
0
0
LWPOLYLINE
5
203
100
AcDbEntity
8
0
100
AcDbPolyline
90
4
70
1
43
0.0
10
1.6486423180215728
20
25.37500060812469
10
1.6486423180215728
20
24.958333941458022
10
1.2319756513549061
20
24.958333941458022
10
1.6486423180215728
20
24.958333941458022
0
LINE
5
204
100
AcDbEntity
8
0
100
AcDbLine
10
7.5653089846882393
20
24.958333941458022
30
0
11
7.5653089846882393
21
25.37500060812469
31
0
0
LINE
5
205
100
AcDbEntity
8
0
100
AcDbLine
10
1.6486423180215728
20
25.37500060812469
30
0
11
1.2319756513549061
21
25.37500060812469
31
0
0
LINE
5
206
100
AcDbEntity
8
0
100
AcDbLine
10
1.2319756513549061
20
25.37500060812469
30
0
11
1.2319756513549061
21
24.958333941458022
31
0
0
LWPOLYLINE
5
207
100
AcDbEntity
8
0
100
AcDbPolyline
90
4
70
1
43
0.0
10
-4.7680243486450919
20
25.37500060812469
10
-4.7680243486450919
20
24.958333941458022
10
-5.1846910153117589
20
24.958333941458022
10
-4.7680243486450919
20
24.958333941458022
0
LINE
5
208
100
AcDbEntity
8
0
100
AcDbLine
10
1.2319756513549061
20
24.958333941458022
30
0
11
1.2319756513549061
21
25.37500060812469
31
0
0
LINE
5
209
100
AcDbEntity
8
0
100
AcDbLine
10
-4.7680243486450919
20
25.37500060812469
30
0
11
-5.1846910153117589
21
25.37500060812469
31
0
0
LINE
5
210
100
AcDbEntity
8
0
100
AcDbLine
10
-5.1846910153117589
20
25.37500060812469
30
0
11
-5.1846910153117589
21
24.958333941458022
31
0
0
LINE
5
211
100
AcDbEntity
8
0
100
AcDbLine
10
-5.1846910153117589
20
24.958333941458022
30
0
11
-5.1846910153117589
21
25.37500060812469
31
0
0
LINE
5
212
100
AcDbEntity
8
0
100
AcDbLine
10
1.2319756513549056
20
24.958333941458022
30
0
11
1.2319756513549056
21
25.12500060812469
31
0
0
LWPOLYLINE
5
213
100
AcDbEntity
8
0
100
AcDbPolyline
90
4
70
1
43
0.0
10
1.2319756513549056
20
25.12500060812469
10
-4.7680243486450919
20
25.12500060812469
10
-4.7680243486450919
20
24.958333941458022
10
1.2319756513549056
20
24.958333941458022
0
LINE
5
214
100
AcDbEntity
8
0
100
AcDbLine
10
-8.0180243486450919
20
24.958333941458022
30
0
11
-8.0180243486450919
21
25.12500060812469
31
0
0
LINE
5
215
100
AcDbEntity
8
0
100
AcDbLine
10
-8.0180243486450919
20
25.12500060812469
30
0
11
-5.1846910153117589
21
25.12500060812469
31
0
0
LINE
5
216
100
AcDbEntity
8
0
100
AcDbLine
10
-5.1846910153117589
20
25.12500060812469
30
0
11
-5.1846910153117589
21
24.958333941458022
31
0
0
LINE
5
217
100
AcDbEntity
8
0
100
AcDbLine
10
7.5653089846882393
20
24.958333941458022
30
0
11
7.5653089846882393
21
25.12500060812469
31
0
0
LWPOLYLINE
5
218
100
AcDbEntity
8
0
100
AcDbPolyline
90
4
70
1
43
0.0
10
7.5653089846882393
20
25.12500060812469
10
1.6486423180215728
20
25.12500060812469
10
1.6486423180215728
20
24.958333941458022
10
7.5653089846882393
20
24.958333941458022
0
LINE
5
219
100
AcDbEntity
8
0
100
AcDbLine
10
-17.851357681978417
20
24.958333941458022
30
0
11
-18.268024348645085
21
24.958333941458022
31
0
0
LINE
5
220
100
AcDbEntity
8
0
100
AcDbLine
10
-24.184691015311753
20
24.958333941458022
30
0
11
-24.601357681978421
21
24.958333941458022
31
0
0
LINE
5
221
100
AcDbEntity
8
0
100
AcDbLine
10
13.481975651354904
20
25.37500060812469
30
0
11
13.481975651354904
21
24.958333941458022
31
0
0
LINE
5
222
100
AcDbEntity
8
0
100
AcDbLine
10
19.398642318021572
20
25.37500060812469
30
0
11
19.398642318021572
21
24.958333941458022
31
0
0
LINE
5
223
100
AcDbEntity
8
0
100
AcDbLine
10
13.481975651354904
20
24.958333941458022
30
0
11
13.481975651354904
21
25.37500060812469
31
0
0
LINE
5
224
100
AcDbEntity
8
0
100
AcDbLine
10
13.481975651354904
20
24.958333941458022
30
0
11
13.481975651354904
21
25.12500060812469
31
0
0
LWPOLYLINE
5
225
100
AcDbEntity
8
0
100
AcDbPolyline
90
4
70
1
43
0.0
10
13.481975651354904
20
25.12500060812469
10
19.398642318021572
20
25.12500060812469
10
19.398642318021572
20
24.958333941458022
10
19.398642318021572
20
25.12500060812469
0
LINE
5
226
100
AcDbEntity
8
0
100
AcDbLine
10
10.148642318021572
20
24.958333941458022
30
0
11
10.148642318021572
21
25.12500060812469
31
0
0
LINE
5
227
100
AcDbEntity
8
0
100
AcDbLine
10
13.065308984688238
20
25.12500060812469
30
0
11
13.065308984688238
21
24.958333941458022
31
0
0
LINE
5
228
100
AcDbEntity
8
0
100
AcDbLine
10
24.648642318021583
20
24.958333941458022
30
0
11
19.398642318021572
21
24.958333941458022
31
0
0
LINE
5
229
100
AcDbEntity
8
0
100
AcDbLine
10
-24.184691015311753
20
17.958333941458022
30
0
11
-24.351357681978421
21
17.958333941458022
31
0
0
LINE
5
230
100
AcDbEntity
8
0
100
AcDbLine
10
-24.351357681978421
20
17.958333941458022
30
0
11
-24.351357681978421
21
19.041667274791354
31
0
0
LINE
5
231
100
AcDbEntity
8
0
100
AcDbLine
10
-24.351357681978421
20
19.041667274791354
30
0
11
-24.184691015311753
21
19.041667274791354
31
0
0
LINE
5
232
100
AcDbEntity
8
0
100
AcDbLine
10
-24.184691015311753
20
11.87500060812469
30
0
11
-24.184691015311753
21
-25.374999391875313
31
0
0
LINE
5
233
100
AcDbEntity
8
0
100
AcDbLine
10
-24.184691015311753
20
17.958333941458022
30
0
11
-24.184691015311753
21
12.958333941458022
31
0
0
LINE
5
234
100
AcDbEntity
8
0
100
AcDbLine
10
24.648642318021583
20
3.7083333333333379
30
0
11
24.481975651354915
21
3.7083333333333379
31
0
0
LINE
5
235
100
AcDbEntity
8
0
100
AcDbLine
10
24.481975651354915
20
5.5416666666666714
30
0
11
24.648642318021583
21
5.5416666666666714
31
0
0
LINE
5
236
100
AcDbEntity
8
0
100
AcDbLine
10
24.648642318021583
20
3.0416666666666714
30
0
11
24.553878520769118
21
3.0416666666666714
31
0
0
LINE
5
237
100
AcDbEntity
8
0
100
AcDbLine
10
24.553878520769118
20
1.2083333333333381
30
0
11
24.648642318021583
21
1.2083333333333381
31
0
0
LINE
5
238
100
AcDbEntity
8
0
100
AcDbLine
10
24.648642318021583
20
5.5416666666666714
30
0
11
24.648642318021583
21
25.37500060812469
31
0
0
LINE
5
239
100
AcDbEntity
8
0
100
AcDbLine
10
24.648642318021583
20
3.0416666666666714
30
0
11
24.648642318021583
21
3.7083333333333379
31
0
0
LINE
5
240
100
AcDbEntity
8
0
100
AcDbLine
10
24.481975651354915
20
5.5416666666666714
30
0
11
24.481975651354915
21
3.7083333333333379
31
0
0
LINE
5
241
100
AcDbEntity
8
0
100
AcDbLine
10
7.9821348862272767
20
5.6250006081246884
30
0
11
7.9821348862272767
21
5.9583339414580214
31
0
0
LINE
5
242
100
AcDbEntity
8
0
100
AcDbLine
10
7.9821348862272767
20
5.9583339414580214
30
0
11
9.8154682195606107
21
5.9583339414580214
31
0
0
LINE
5
243
100
AcDbEntity
8
0
100
AcDbLine
10
9.8154682195606107
20
5.9583339414580214
30
0
11
9.8154682195606107
21
5.6250006081246884
31
0
0
LWPOLYLINE
5
244
100
AcDbEntity
8
0
100
AcDbPolyline
90
4
70
1
43
0.0
10
7.9821348862272767
20
5.9583339414580214
10
7.5654682195606107
20
5.9583339414580214
10
7.5654682195606107
20
5.5416672747913553
10
7.9821348862272767
20
5.5416672747913553
0
LINE
5
245
100
AcDbEntity
8
0
100
AcDbLine
10
7.5654682195606107
20
5.9583339414580214
30
0
11
1.6488015528939437
21
5.9583339414580214
31
0
0
LINE
5
246
100
AcDbEntity
8
0
100
AcDbLine
10
1.6488015528939437
20
5.9583339414580214
30
0
11
1.6488015528939437
21
5.6250006081246884
31
0
0
LINE
5
247
100
AcDbEntity
8
0
100
AcDbLine
10
7.5654682195606107
20
5.6250006081246884
30
0
11
7.5654682195606107
21
5.9583339414580214
31
0
0
LWPOLYLINE
5
248
100
AcDbEntity
8
0
100
AcDbPolyline
90
4
70
1
43
0.0
10
1.6488015528939437
20
5.9583339414580214
10
1.232134886227277
20
5.9583339414580214
10
1.232134886227277
20
5.5416672747913553
10
1.6488015528939437
20
5.5416672747913553
0
LWPOLYLINE
5
249
100
AcDbEntity
8
0
100
AcDbPolyline
90
4
70
1
43
0.0
10
-4.7680243486450875
20
5.6250006081246893
10
-5.1013576819784205
20
5.6250006081246893
10
-5.1013576819784205
20
5.9583339414580214
10
-4.7680243486450875
20
5.9583339414580214
0
LINE
5
250
100
AcDbEntity
8
0
100
AcDbLine
10
-4.7680243486450875
20
5.6250006081246893
30
0
11
-4.7678651137727215
21
5.6250006081246884
31
0
0
LINE
5
251
100
AcDbEntity
8
0
100
AcDbLine
10
1.2321348862272774
20
5.6250006081246893
30
0
11
1.2321348862272774
21
5.7916672747913562
31
0
0
LINE
5
252
100
AcDbEntity
8
0
100
AcDbLine
10
1.2321348862272774
20
5.7916672747913562
30
0
11
-4.7680243486450875
21
5.7916672747913562
31
0
0
LINE
5
253
100
AcDbEntity
8
0
100
AcDbLine
10
-4.7680243486450875
20
5.7916672747913562
30
0
11
-4.7680243486450875
21
5.6250006081246893
31
0
0
LINE
5
254
100
AcDbEntity
8
0
100
AcDbLine
10
7.5654682195606107
20
5.5416672747913553
30
0
11
7.5654682195606107
21
5.7083339414580223
31
0
0
LINE
5
255
100
AcDbEntity
8
0
100
AcDbLine
10
7.5654682195606107
20
5.7083339414580223
30
0
11
1.6488015528939437
21
5.7083339414580223
31
0
0
LINE
5
256
100
AcDbEntity
8
0
100
AcDbLine
10
1.6488015528939437
20
5.7083339414580223
30
0
11
1.6488015528939437
21
5.5416672747913553
31
0
0
LINE
5
257
100
AcDbEntity
8
0
100
AcDbLine
10
9.8154682195606107
20
5.5416672747913553
30
0
11
9.8154682195606107
21
5.7083339414580223
31
0
0
LINE
5
258
100
AcDbEntity
8
0
100
AcDbLine
10
9.8154682195606107
20
5.7083339414580223
30
0
11
7.9821348862272767
21
5.7083339414580223
31
0
0
LINE
5
259
100
AcDbEntity
8
0
100
AcDbLine
10
7.9821348862272767
20
5.7083339414580223
30
0
11
7.9821348862272767
21
5.5416672747913553
31
0
0
LWPOLYLINE
5
260
100
AcDbEntity
8
0
100
AcDbPolyline
90
4
70
1
43
0.0
10
24.648642318021583
20
1.2083333333333381
10
24.231975651354915
20
1.2083333333333381
10
24.231975651354915
20
0.79166666666667151
10
24.648642318021583
20
0.79166666666667151
0
LWPOLYLINE
5
261
100
AcDbEntity
8
0
100
AcDbPolyline
90
4
70
1
43
0.0
10
24.648642318021583
20
0.79166666666667151
10
24.231975651354915
20
0.79166666666667151
10
24.231975651354915
20
-1.5416666666666614
10
24.648642318021583
20
-1.5416666666666614
0
LWPOLYLINE
5
262
100
AcDbEntity
8
0
100
AcDbPolyline
90
4
70
1
43
0.0
10
24.231975651354915
20
-14.62499939187531
10
24.648642318021583
20
-14.62499939187531
10
24.648642318021583
20
-14.958332725208644
10
24.231975651354915
20
-14.958332725208644
0
LINE
5
263
100
AcDbEntity
8
0
100
AcDbLine
10
24.648642318021583
20
-14.62499939187531
30
0
11
24.648642318021583
21
-14.958332725208644
31
0
0
LINE
5
264
100
AcDbEntity
8
0
100
AcDbLine
10
24.648642318021583
20
-14.62499939187531
30
0
11
24.481975651354915
21
-14.62499939187531
31
0
0
LINE
5
265
100
AcDbEntity
8
0
100
AcDbLine
10
24.481975651354915
20
-14.62499939187531
30
0
11
24.481975651354915
21
-8.1249993918753098
31
0
0
LINE
5
266
100
AcDbEntity
8
0
100
AcDbLine
10
24.481975651354915
20
-8.1249993918753098
30
0
11
24.648642318021583
21
-8.1249993918753098
31
0
0
LINE
5
267
100
AcDbEntity
8
0
100
AcDbLine
10
24.648642318021583
20
-14.958332725208644
30
0
11
24.481975651354915
21
-14.958332725208644
31
0
0
LINE
5
268
100
AcDbEntity
8
0
100
AcDbLine
10
24.481975651354915
20
-14.958332725208644
30
0
11
24.481975651354915
21
-21.458332725208642
31
0
0
LINE
5
269
100
AcDbEntity
8
0
100
AcDbLine
10
24.481975651354915
20
-21.458332725208642
30
0
11
24.648642318021583
21
-21.458332725208642
31
0
0
LINE
5
270
100
AcDbEntity
8
0
100
AcDbLine
10
24.648642318021583
20
-8.1249993918753098
30
0
11
24.648642318021583
21
1.2083333333333381
31
0
0
LINE
5
271
100
AcDbEntity
8
0
100
AcDbLine
10
24.648642318021583
20
-25.374999391875313
30
0
11
24.648642318021583
21
-21.458332725208642
31
0
0
LWPOLYLINE
5
272
100
AcDbEntity
8
0
100
AcDbPolyline
90
4
70
1
43
0.0
10
-0.43469101531175297
20
-20.624999391875313
10
-0.10135768197841966
20
-20.624999391875313
10
-0.10135768197841966
20
-20.958332725208646
10
-0.43469101531175297
20
-20.958332725208646
0
LWPOLYLINE
5
273
100
AcDbEntity
8
0
100
AcDbPolyline
90
4
70
1
43
0.0
10
-5.1013576819784205
20
-4.3749993918753107
10
-4.7678651137727197
20
-4.3749993918753107
10
-4.7678651137727197
20
-4.7083327252086438
10
-5.1013576819784205
20
-4.7083327252086438
0
LWPOLYLINE
5
274
100
AcDbEntity
8
0
100
AcDbPolyline
90
4
70
1
43
0.0
10
-24.184691015311753
20
-4.3749993918753107
10
-24.601357681978421
20
-4.3749993918753107
10
-24.601357681978421
20
-4.7083327252086438
10
-24.184691015311753
20
-4.7083327252086438
0
LINE
5
275
100
AcDbEntity
8
0
100
AcDbLine
10
24.231975651354915
20
9.9833831432027331
30
0
11
24.231975651354915
21
8.6250000000000053
31
0
0
LWPOLYLINE
5
276
100
AcDbEntity
8
0
100
AcDbPolyline
90
4
70
1
43
0.0
10
24.231975651354915
20
12.625000000000004
10
24.648642318021583
20
12.625000000000004
10
24.648642318021583
20
12.958333333333337
10
24.231975651354915
20
12.958333333333337
0
LWPOLYLINE
5
277
100
AcDbEntity
8
0
100
AcDbPolyline
90
4
70
1
43
0.0
10
24.648642318021583
20
3.7083333333333379
10
24.231975651354915
20
3.7083333333333379
10
24.231975651354915
20
3.0416666666666714
10
24.648642318021583
20
3.0416666666666714
0
LWPOLYLINE
5
278
100
AcDbEntity
8
0
100
AcDbPolyline
90
4
70
1
43
0.0
10
-7.7668163290410321
20
-4.3749993918753107
10
-10.434531780439388
20
-4.3749993918753107
10
-10.434531780439388
20
-4.7083327252086447
10
-7.7668163290410321
20
-4.7083327252086447
0
LINE
5
279
100
AcDbEntity
8
0
100
AcDbLine
10
16.231975651354915
20
-25.374999391875313
30
0
11
24.648642318021583
21
-25.374999391875313
31
0
0
LINE
5
280
100
AcDbEntity
8
0
100
AcDbLine
10
-24.601357681978421
20
19.041667274791354
30
0
11
-24.184691015311753
21
19.041667274791354
31
0
0
LINE
5
281
100
AcDbEntity
8
0
100
AcDbLine
10
-24.184691015311753
20
19.041667274791354
30
0
11
-24.184691015311753
21
17.958333941458022
31
0
0
LINE
5
282
100
AcDbEntity
8
0
100
AcDbLine
10
-24.601357681978421
20
19.041667274791354
30
0
11
-24.601357681978421
21
25.37500060812469
31
0
0
LINE
5
283
100
AcDbEntity
8
0
100
AcDbLine
10
-18.268024348645085
20
24.958333941458022
30
0
11
-24.184691015311753
21
24.958333941458022
31
0
0
LINE
5
284
100
AcDbEntity
8
0
100
AcDbLine
10
-24.184691015311753
20
24.958333941458022
30
0
11
-24.184691015311753
21
25.37500060812469
31
0
0
LINE
5
285
100
AcDbEntity
8
0
100
AcDbLine
10
-18.268024348645085
20
25.37500060812469
30
0
11
-18.268024348645085
21
24.958333941458022
31
0
0
LINE
5
286
100
AcDbEntity
8
0
100
AcDbLine
10
-17.851357681978417
20
24.958333941458022
30
0
11
-10.851357681978417
21
24.958333941458022
31
0
0
LINE
5
287
100
AcDbEntity
8
0
100
AcDbLine
10
-10.851357681978417
20
24.958333941458022
30
0
11
-10.851357681978417
21
25.37500060812469
31
0
0
LINE
5
288
100
AcDbEntity
8
0
100
AcDbLine
10
-17.851357681978417
20
25.37500060812469
30
0
11
-17.851357681978417
21
24.958333941458022
31
0
0
LINE
5
289
100
AcDbEntity
8
0
100
AcDbLine
10
-17.851357681978417
20
25.37500060812469
30
0
11
-18.268024348645085
21
25.37500060812469
31
0
0
LINE
5
290
100
AcDbEntity
8
0
100
AcDbLine
10
-4.7680243486450919
20
25.37500060812469
30
0
11
-5.1846910153117589
21
25.37500060812469
31
0
0
LINE
5
291
100
AcDbEntity
8
0
100
AcDbLine
10
1.6486423180215728
20
25.37500060812469
30
0
11
1.2319756513549061
21
25.37500060812469
31
0
0
LINE
5
292
100
AcDbEntity
8
0
100
AcDbLine
10
7.9819756513549063
20
25.37500060812469
30
0
11
7.5653089846882393
21
25.37500060812469
31
0
0
LINE
5
293
100
AcDbEntity
8
0
100
AcDbLine
10
24.648642318021583
20
25.37500060812469
30
0
11
19.398642318021572
21
25.37500060812469
31
0
0
LINE
5
294
100
AcDbEntity
8
0
100
AcDbLine
10
24.648642318021583
20
3.0416666666666714
30
0
11
24.481975651354915
21
3.0416666666666714
31
0
0
LINE
5
295
100
AcDbEntity
8
0
100
AcDbLine
10
24.481975651354915
20
3.0416666666666714
30
0
11
24.481975651354915
21
1.2083333333333381
31
0
0
LINE
5
296
100
AcDbEntity
8
0
100
AcDbLine
10
24.481975651354915
20
1.2083333333333381
30
0
11
24.648642318021583
21
1.2083333333333381
31
0
0
LINE
5
297
100
AcDbEntity
8
0
100
AcDbLine
10
14.981975651354913
20
-25.208332725208646
30
0
11
16.231975651354915
21
-25.208332725208646
31
0
0
LINE
5
298
100
AcDbEntity
8
0
100
AcDbLine
10
16.231975651354915
20
-25.208332725208646
30
0
11
16.231975651354915
21
-24.958332725208646
31
0
0
LINE
5
299
100
AcDbEntity
8
0
100
AcDbLine
10
19.398642318021572
20
24.958333941458022
30
0
11
13.481975651354904
21
24.958333941458022
31
0
0
LINE
5
300
100
AcDbEntity
8
0
100
AcDbLine
10
13.481975651354904
20
24.958333941458022
30
0
11
13.481975651354904
21
25.12500060812469
31
0
0
LINE
5
301
100
AcDbEntity
8
0
100
AcDbLine
10
7.5653089846882393
20
25.12500060812469
30
0
11
1.6486423180215728
21
25.12500060812469
31
0
0
LINE
5
302
100
AcDbEntity
8
0
100
AcDbLine
10
1.6486423180215728
20
25.12500060812469
30
0
11
1.6486423180215728
21
24.958333941458022
31
0
0
LINE
5
303
100
AcDbEntity
8
0
100
AcDbLine
10
1.2319756513549056
20
25.12500060812469
30
0
11
-4.7680243486450919
21
25.12500060812469
31
0
0
LINE
5
304
100
AcDbEntity
8
0
100
AcDbLine
10
-4.7680243486450919
20
25.12500060812469
30
0
11
-4.7680243486450919
21
24.958333941458022
31
0
0
ENDSEC
0
SECTION
2
OBJECTS
0
DICTIONARY
5
C
100
AcDbDictionary
3
ACAD_GROUP
350
D
3
ACAD_MLINESTYLE
350
17
0
DICTIONARY
5
D
100
AcDbDictionary
0
DICTIONARY
5
1A
330
C
100
AcDbDictionary
0
DICTIONARY
5
17
100
AcDbDictionary
0
ENDSEC
0
EOF
